%TF.GenerationSoftware,KiCad,Pcbnew,8.0.9-8.0.9-0~ubuntu24.04.1*%
%TF.CreationDate,2025-04-21T09:58:39+02:00*%
%TF.ProjectId,Sensor_Node_Base_V1.0,53656e73-6f72-45f4-9e6f-64655f426173,rev?*%
%TF.SameCoordinates,Original*%
%TF.FileFunction,Soldermask,Bot*%
%TF.FilePolarity,Negative*%
%FSLAX46Y46*%
G04 Gerber Fmt 4.6, Leading zero omitted, Abs format (unit mm)*
G04 Created by KiCad (PCBNEW 8.0.9-8.0.9-0~ubuntu24.04.1) date 2025-04-21 09:58:39*
%MOMM*%
%LPD*%
G01*
G04 APERTURE LIST*
G04 Aperture macros list*
%AMRoundRect*
0 Rectangle with rounded corners*
0 $1 Rounding radius*
0 $2 $3 $4 $5 $6 $7 $8 $9 X,Y pos of 4 corners*
0 Add a 4 corners polygon primitive as box body*
4,1,4,$2,$3,$4,$5,$6,$7,$8,$9,$2,$3,0*
0 Add four circle primitives for the rounded corners*
1,1,$1+$1,$2,$3*
1,1,$1+$1,$4,$5*
1,1,$1+$1,$6,$7*
1,1,$1+$1,$8,$9*
0 Add four rect primitives between the rounded corners*
20,1,$1+$1,$2,$3,$4,$5,0*
20,1,$1+$1,$4,$5,$6,$7,0*
20,1,$1+$1,$6,$7,$8,$9,0*
20,1,$1+$1,$8,$9,$2,$3,0*%
G04 Aperture macros list end*
%ADD10RoundRect,0.050000X-0.850000X-0.850000X0.850000X-0.850000X0.850000X0.850000X-0.850000X0.850000X0*%
%ADD11O,1.800000X1.800000*%
%ADD12C,0.900000*%
%ADD13C,5.100000*%
%ADD14C,0.750000*%
%ADD15O,2.200000X1.100000*%
%ADD16O,1.900000X1.100000*%
%ADD17C,1.400000*%
%ADD18C,0.500000*%
%ADD19RoundRect,0.057000X0.893000X0.893000X-0.893000X0.893000X-0.893000X-0.893000X0.893000X-0.893000X0*%
%ADD20C,2.474900*%
%ADD21C,1.090600*%
%ADD22C,0.887400*%
G04 APERTURE END LIST*
D10*
%TO.C,J201*%
X123700000Y-86610000D03*
D11*
X126240000Y-86610000D03*
X123700000Y-89150000D03*
X126240000Y-89150000D03*
X123700000Y-91690000D03*
X126240000Y-91690000D03*
X123700000Y-94230000D03*
X126240000Y-94230000D03*
X123700000Y-96770000D03*
X126240000Y-96770000D03*
X123700000Y-99310000D03*
X126240000Y-99310000D03*
X123700000Y-101850000D03*
X126240000Y-101850000D03*
X123700000Y-104390000D03*
X126240000Y-104390000D03*
X123700000Y-106930000D03*
X126240000Y-106930000D03*
X123700000Y-109470000D03*
X126240000Y-109470000D03*
%TD*%
D12*
%TO.C,MH103*%
X159155000Y-81855825D03*
X159704175Y-80530000D03*
X159704175Y-83181650D03*
X161030000Y-79980825D03*
D13*
X161030000Y-81855825D03*
D12*
X161030000Y-83730825D03*
X162355825Y-80530000D03*
X162355825Y-83181650D03*
X162905000Y-81855825D03*
%TD*%
%TO.C,MH101*%
X123245000Y-81865825D03*
X123794175Y-80540000D03*
X123794175Y-83191650D03*
X125120000Y-79990825D03*
D13*
X125120000Y-81865825D03*
D12*
X125120000Y-83740825D03*
X126445825Y-80540000D03*
X126445825Y-83191650D03*
X126995000Y-81865825D03*
%TD*%
D14*
%TO.C,CON101*%
X126430000Y-113890000D03*
X126430000Y-119670000D03*
D15*
X126950000Y-112460000D03*
D16*
X122750000Y-112460000D03*
D15*
X126950000Y-121100000D03*
D16*
X122750000Y-121100000D03*
%TD*%
D17*
%TO.C,TP309*%
X144390000Y-122230000D03*
%TD*%
%TO.C,TP308*%
X151130000Y-117560000D03*
%TD*%
D12*
%TO.C,MH102*%
X159245000Y-134855825D03*
X159794175Y-133530000D03*
X159794175Y-136181650D03*
X161120000Y-132980825D03*
D13*
X161120000Y-134855825D03*
D12*
X161120000Y-136730825D03*
X162445825Y-133530000D03*
X162445825Y-136181650D03*
X162995000Y-134855825D03*
%TD*%
D18*
%TO.C,IC202*%
X163500000Y-123850000D03*
D19*
X163200000Y-123850000D03*
D18*
X162900000Y-123850000D03*
%TD*%
D17*
%TO.C,TP303*%
X156710000Y-131380000D03*
%TD*%
D20*
%TO.C,M201*%
X140750000Y-90880000D03*
X140750000Y-96595000D03*
D21*
X142275000Y-98500000D03*
X143290000Y-90880000D03*
X144305000Y-98500000D03*
D20*
X145830000Y-90880000D03*
X145830000Y-96595000D03*
D12*
X129915000Y-83270000D03*
X130464175Y-81944175D03*
X130464175Y-84595825D03*
X131790000Y-81395000D03*
D13*
X131790000Y-83270000D03*
D12*
X131790000Y-85145000D03*
X133115825Y-81944175D03*
X133115825Y-84595825D03*
X133665000Y-83270000D03*
X152915000Y-106270000D03*
X153464175Y-104944175D03*
X153464175Y-107595825D03*
X154790000Y-104395000D03*
D13*
X154790000Y-106270000D03*
D12*
X154790000Y-108145000D03*
X156115825Y-104944175D03*
X156115825Y-107595825D03*
X156665000Y-106270000D03*
D22*
X143925000Y-92150000D03*
X143925000Y-93420000D03*
X143925000Y-94690000D03*
X143925000Y-95960000D03*
X143925000Y-97230000D03*
X142655000Y-97230000D03*
X142655000Y-95960000D03*
X142655000Y-94690000D03*
X142655000Y-93420000D03*
X142655000Y-92150000D03*
%TD*%
D12*
%TO.C,MH104*%
X123245000Y-134855825D03*
X123794175Y-133530000D03*
X123794175Y-136181650D03*
X125120000Y-132980825D03*
D13*
X125120000Y-134855825D03*
D12*
X125120000Y-136730825D03*
X126445825Y-133530000D03*
X126445825Y-136181650D03*
X126995000Y-134855825D03*
%TD*%
M02*
