%TF.GenerationSoftware,KiCad,Pcbnew,9.0.4-9.0.4-0~ubuntu24.04.1*%
%TF.CreationDate,2025-09-26T14:01:36+02:00*%
%TF.ProjectId,Sensor_Node_Base,53656e73-6f72-45f4-9e6f-64655f426173,rev?*%
%TF.SameCoordinates,Original*%
%TF.FileFunction,Copper,L2,Inr*%
%TF.FilePolarity,Positive*%
%FSLAX46Y46*%
G04 Gerber Fmt 4.6, Leading zero omitted, Abs format (unit mm)*
G04 Created by KiCad (PCBNEW 9.0.4-9.0.4-0~ubuntu24.04.1) date 2025-09-26 14:01:36*
%MOMM*%
%LPD*%
G01*
G04 APERTURE LIST*
%TA.AperFunction,ComponentPad*%
%ADD10R,1.700000X1.700000*%
%TD*%
%TA.AperFunction,ComponentPad*%
%ADD11C,1.700000*%
%TD*%
%TA.AperFunction,ComponentPad*%
%ADD12C,0.800000*%
%TD*%
%TA.AperFunction,ComponentPad*%
%ADD13C,5.000000*%
%TD*%
%TA.AperFunction,HeatsinkPad*%
%ADD14C,0.500000*%
%TD*%
%TA.AperFunction,ComponentPad*%
%ADD15O,2.100000X1.000000*%
%TD*%
%TA.AperFunction,ComponentPad*%
%ADD16O,1.800000X1.000000*%
%TD*%
%TA.AperFunction,ComponentPad*%
%ADD17C,1.300000*%
%TD*%
%TA.AperFunction,ComponentPad*%
%ADD18C,0.400000*%
%TD*%
%TA.AperFunction,ViaPad*%
%ADD19C,0.500000*%
%TD*%
G04 APERTURE END LIST*
D10*
%TO.N,P1.08*%
%TO.C,J201*%
X123700000Y-86610000D03*
D11*
%TO.N,P0.30*%
X126240000Y-86610000D03*
%TO.N,P0.28*%
X123700000Y-89150000D03*
%TO.N,P0.03*%
X126240000Y-89150000D03*
%TO.N,P1.14*%
X123700000Y-91690000D03*
%TO.N,P1.12*%
X126240000Y-91690000D03*
%TO.N,P1.11*%
X123700000Y-94230000D03*
%TO.N,P0.10*%
X126240000Y-94230000D03*
%TO.N,P1.10*%
X123700000Y-96770000D03*
%TO.N,P1.13*%
X126240000Y-96770000D03*
%TO.N,P1.15*%
X123700000Y-99310000D03*
%TO.N,P0.29*%
X126240000Y-99310000D03*
%TO.N,P0.31*%
X123700000Y-101850000D03*
%TO.N,unconnected-(J201-Pin_14-Pad14)*%
X126240000Y-101850000D03*
%TO.N,unconnected-(J201-Pin_15-Pad15)*%
X123700000Y-104390000D03*
%TO.N,P0.26*%
X126240000Y-104390000D03*
%TO.N,P0.11*%
X123700000Y-106930000D03*
%TO.N,P0.27*%
X126240000Y-106930000D03*
%TO.N,P0.05*%
X123700000Y-109470000D03*
%TO.N,P0.06*%
X126240000Y-109470000D03*
%TD*%
D12*
%TO.N,GND*%
%TO.C,M201*%
X156635000Y-106270000D03*
X156085825Y-107595825D03*
X156085825Y-104944175D03*
X154760000Y-108145000D03*
D13*
X154760000Y-106270000D03*
D12*
X154760000Y-104395000D03*
X153434175Y-107595825D03*
X153434175Y-104944175D03*
X152885000Y-106270000D03*
X133635000Y-83270000D03*
X133085825Y-84595825D03*
X133085825Y-81944175D03*
X131760000Y-85145000D03*
D13*
X131760000Y-83270000D03*
D12*
X131760000Y-81395000D03*
X130434175Y-84595825D03*
X130434175Y-81944175D03*
X129885000Y-83270000D03*
%TD*%
D14*
%TO.N,GND*%
%TO.C,IC302*%
X144680000Y-117810000D03*
X144680000Y-116810000D03*
X144680000Y-115810000D03*
X143680000Y-117810000D03*
X143680000Y-116810000D03*
X143680000Y-115810000D03*
X142680000Y-117810000D03*
X142680000Y-116810000D03*
X142680000Y-115810000D03*
%TD*%
D12*
%TO.N,GND*%
%TO.C,MH103*%
X159155000Y-81855825D03*
X159704175Y-80530000D03*
X159704175Y-83181650D03*
X161030000Y-79980825D03*
D13*
X161030000Y-81855825D03*
D12*
X161030000Y-83730825D03*
X162355825Y-80530000D03*
X162355825Y-83181650D03*
X162905000Y-81855825D03*
%TD*%
%TO.N,GND*%
%TO.C,MH101*%
X123245000Y-81865825D03*
X123794175Y-80540000D03*
X123794175Y-83191650D03*
X125120000Y-79990825D03*
D13*
X125120000Y-81865825D03*
D12*
X125120000Y-83740825D03*
X126445825Y-80540000D03*
X126445825Y-83191650D03*
X126995000Y-81865825D03*
%TD*%
D15*
%TO.N,GND*%
%TO.C,CON101*%
X126950000Y-112460000D03*
D16*
X122750000Y-112460000D03*
D15*
X126950000Y-121100000D03*
D16*
X122750000Y-121100000D03*
%TD*%
D17*
%TO.N,/MCU/+1.8V_LS1*%
%TO.C,TP309*%
X144390000Y-122230000D03*
%TD*%
%TO.N,/MCU/+1.8V_VDD_nRF*%
%TO.C,TP308*%
X151130000Y-117560000D03*
%TD*%
D12*
%TO.N,GND*%
%TO.C,MH102*%
X159245000Y-134855825D03*
X159794175Y-133530000D03*
X159794175Y-136181650D03*
X161120000Y-132980825D03*
D13*
X161120000Y-134855825D03*
D12*
X161120000Y-136730825D03*
X162445825Y-133530000D03*
X162445825Y-136181650D03*
X162995000Y-134855825D03*
%TD*%
D18*
%TO.N,unconnected-(IC202-THPAD-Pad5)_1*%
%TO.C,IC202*%
X163500000Y-123850000D03*
%TO.N,unconnected-(IC202-THPAD-Pad5)_2*%
X162900000Y-123850000D03*
%TD*%
D17*
%TO.N,GND*%
%TO.C,TP303*%
X156710000Y-131380000D03*
%TD*%
%TO.N,/MCU/+5V_VBUS*%
%TO.C,TP307*%
X153350000Y-120350000D03*
%TD*%
D12*
%TO.N,GND*%
%TO.C,MH104*%
X123245000Y-134855825D03*
X123794175Y-133530000D03*
X123794175Y-136181650D03*
X125120000Y-132980825D03*
D13*
X125120000Y-134855825D03*
D12*
X125120000Y-136730825D03*
X126445825Y-133530000D03*
X126445825Y-136181650D03*
X126995000Y-134855825D03*
%TD*%
D19*
%TO.N,/MCU/+1.8V_VDD_nRF*%
X150880000Y-126080000D03*
%TO.N,/MCU/+1.8V_LS1*%
X160750000Y-118000000D03*
X162720000Y-129070000D03*
X163720000Y-118000000D03*
%TO.N,GND*%
X136480000Y-116560000D03*
X153920000Y-94970000D03*
X130330000Y-124120000D03*
X141610000Y-93410000D03*
X138320000Y-130400000D03*
X150480000Y-119460000D03*
X138320000Y-131460000D03*
X132500000Y-101620000D03*
X132700000Y-116750000D03*
X163680000Y-129060000D03*
X137090000Y-132560000D03*
X129920000Y-94910000D03*
X135430000Y-122530000D03*
X130840000Y-133040000D03*
X137090000Y-130400000D03*
X138420000Y-114280000D03*
X152270500Y-129985000D03*
X144890000Y-113190000D03*
X136750000Y-118860000D03*
X138320000Y-132560000D03*
X157000000Y-101610000D03*
X150480000Y-115660000D03*
X138850000Y-110450000D03*
X140680000Y-111570000D03*
%TO.N,/POWER/+5V_VBUSIN*%
X128670000Y-119180000D03*
X130320000Y-116760000D03*
X139250000Y-117860000D03*
X128670000Y-114380000D03*
%TO.N,/MCU/+1.8V_VDD_nRF*%
X144920000Y-92720000D03*
X148080000Y-120490000D03*
X132100000Y-95480000D03*
X145480000Y-108980000D03*
X143930000Y-111560000D03*
X143130000Y-120210000D03*
X129920000Y-101610000D03*
X155680000Y-129560000D03*
X156110000Y-95470000D03*
X140310000Y-109000000D03*
X153020000Y-101070000D03*
%TO.N,/POWER/VSYS*%
X145780000Y-120160000D03*
X147080000Y-116660000D03*
X139660000Y-116560000D03*
X147080000Y-115960000D03*
%TO.N,/POWER/CC2*%
X132370000Y-121520000D03*
X138380000Y-121520000D03*
%TO.N,/POWER/CC1*%
X128850000Y-115250000D03*
X136960000Y-120830000D03*
%TO.N,NRF_SWCLK*%
X148890000Y-96270000D03*
%TO.N,NRF_SWDIO*%
X146820000Y-98136450D03*
%TO.N,NRF_UART_TX*%
X131270000Y-100480000D03*
X138670000Y-94920000D03*
X143270000Y-95340000D03*
%TO.N,NRF_UART_RX*%
X143280000Y-94080000D03*
X138280000Y-94080000D03*
X131250000Y-99670000D03*
%TO.N,/MCU/LS1_CTRL*%
X149020000Y-103090000D03*
X149020000Y-101360000D03*
%TO.N,/MCU/NRF_PMIC_SDA*%
X143740000Y-103040000D03*
X154930000Y-99520000D03*
%TO.N,/MCU/NRF_PMIC_SCL*%
X142160000Y-103090000D03*
X154930000Y-98670000D03*
%TO.N,/MCU/NRF_PMIC_INT*%
X149870000Y-101360000D03*
X149870000Y-103090000D03*
%TO.N,P0.27*%
X133190000Y-103970000D03*
%TO.N,P0.06*%
X133260000Y-105780000D03*
%TO.N,P0.11*%
X133100000Y-103090000D03*
%TO.N,P0.05*%
X133240000Y-104820000D03*
%TO.N,/MCU/+5V_VBUS*%
X139190000Y-118860000D03*
X139190000Y-122270000D03*
%TO.N,/MCU/NRF_PMIC_RST*%
X150860000Y-103090000D03*
X150870000Y-101370000D03*
%TO.N,P0.04*%
X130640000Y-107060000D03*
X134190000Y-122530000D03*
%TD*%
%TA.AperFunction,Conductor*%
%TO.N,GND*%
G36*
X135703039Y-78411010D02*
G01*
X135748794Y-78463814D01*
X135760000Y-78515325D01*
X135760000Y-79770000D01*
X135760000Y-86770000D01*
X158260000Y-86770000D01*
X158260000Y-85748592D01*
X158823500Y-85748592D01*
X158823500Y-85911407D01*
X158855259Y-86071073D01*
X158855262Y-86071082D01*
X158917562Y-86221490D01*
X158917563Y-86221492D01*
X159008015Y-86356862D01*
X159008018Y-86356866D01*
X159123133Y-86471981D01*
X159123137Y-86471984D01*
X159258505Y-86562435D01*
X159258506Y-86562435D01*
X159258507Y-86562436D01*
X159258509Y-86562437D01*
X159358781Y-86603970D01*
X159408919Y-86624738D01*
X159408921Y-86624738D01*
X159408926Y-86624740D01*
X159568592Y-86656499D01*
X159568595Y-86656500D01*
X159568597Y-86656500D01*
X159731405Y-86656500D01*
X159731406Y-86656499D01*
X159784629Y-86645912D01*
X159891073Y-86624740D01*
X159891076Y-86624738D01*
X159891081Y-86624738D01*
X160041495Y-86562435D01*
X160176863Y-86471984D01*
X160291984Y-86356863D01*
X160382435Y-86221495D01*
X160444738Y-86071081D01*
X160476500Y-85911403D01*
X160476500Y-85748597D01*
X160476500Y-85748594D01*
X160476499Y-85748592D01*
X160444740Y-85588926D01*
X160444737Y-85588917D01*
X160382437Y-85438509D01*
X160382436Y-85438507D01*
X160291984Y-85303137D01*
X160291981Y-85303133D01*
X160176866Y-85188018D01*
X160176862Y-85188015D01*
X160041492Y-85097563D01*
X160041490Y-85097562D01*
X159891082Y-85035262D01*
X159891073Y-85035259D01*
X159731406Y-85003500D01*
X159731403Y-85003500D01*
X159568597Y-85003500D01*
X159568594Y-85003500D01*
X159408926Y-85035259D01*
X159408917Y-85035262D01*
X159258509Y-85097562D01*
X159258507Y-85097563D01*
X159123137Y-85188015D01*
X159123133Y-85188018D01*
X159008018Y-85303133D01*
X159008015Y-85303137D01*
X158917563Y-85438507D01*
X158917562Y-85438509D01*
X158855262Y-85588917D01*
X158855259Y-85588926D01*
X158823500Y-85748592D01*
X158260000Y-85748592D01*
X158260000Y-78515325D01*
X158279685Y-78448286D01*
X158332489Y-78402531D01*
X158384000Y-78391325D01*
X164470500Y-78391325D01*
X164537539Y-78411010D01*
X164583294Y-78463814D01*
X164594500Y-78515325D01*
X164594500Y-119616000D01*
X164574815Y-119683039D01*
X164522011Y-119728794D01*
X164470500Y-119740000D01*
X159870000Y-119740000D01*
X159880000Y-128630000D01*
X162308900Y-128614561D01*
X162376061Y-128633819D01*
X162422151Y-128686331D01*
X162432534Y-128755425D01*
X162403913Y-128819163D01*
X162400305Y-128823062D01*
X162399522Y-128824083D01*
X162346794Y-128915410D01*
X162346793Y-128915413D01*
X162319500Y-129017273D01*
X162319500Y-129122727D01*
X162336667Y-129186793D01*
X162346793Y-129224586D01*
X162346794Y-129224589D01*
X162355415Y-129239521D01*
X162399520Y-129315913D01*
X162474087Y-129390480D01*
X162565413Y-129443207D01*
X162667273Y-129470500D01*
X162667275Y-129470500D01*
X162772725Y-129470500D01*
X162772727Y-129470500D01*
X162874587Y-129443207D01*
X162965913Y-129390480D01*
X163040480Y-129315913D01*
X163093207Y-129224587D01*
X163120500Y-129122727D01*
X163120500Y-129017273D01*
X163093207Y-128915413D01*
X163040480Y-128824087D01*
X163037449Y-128821056D01*
X163035708Y-128817867D01*
X163035531Y-128817637D01*
X163035566Y-128817609D01*
X163003964Y-128759733D01*
X163008948Y-128690041D01*
X163050820Y-128634108D01*
X163116284Y-128609691D01*
X163124325Y-128609378D01*
X164469712Y-128600827D01*
X164536875Y-128620085D01*
X164582965Y-128672597D01*
X164594500Y-128724824D01*
X164594500Y-138206325D01*
X164574815Y-138273364D01*
X164522011Y-138319119D01*
X164470500Y-138330325D01*
X121769500Y-138330325D01*
X121702461Y-138310640D01*
X121656706Y-138257836D01*
X121645500Y-138206325D01*
X121645500Y-134658592D01*
X131153500Y-134658592D01*
X131153500Y-134821407D01*
X131185259Y-134981073D01*
X131185262Y-134981082D01*
X131247562Y-135131490D01*
X131247563Y-135131492D01*
X131338015Y-135266862D01*
X131338018Y-135266866D01*
X131453133Y-135381981D01*
X131453137Y-135381984D01*
X131588505Y-135472435D01*
X131588506Y-135472435D01*
X131588507Y-135472436D01*
X131588509Y-135472437D01*
X131688781Y-135513970D01*
X131738919Y-135534738D01*
X131738921Y-135534738D01*
X131738926Y-135534740D01*
X131898592Y-135566499D01*
X131898595Y-135566500D01*
X131898597Y-135566500D01*
X132061405Y-135566500D01*
X132061406Y-135566499D01*
X132114629Y-135555912D01*
X132221073Y-135534740D01*
X132221076Y-135534738D01*
X132221081Y-135534738D01*
X132371495Y-135472435D01*
X132506863Y-135381984D01*
X132621984Y-135266863D01*
X132712435Y-135131495D01*
X132774738Y-134981081D01*
X132806500Y-134821403D01*
X132806500Y-134658597D01*
X132806500Y-134658594D01*
X132806499Y-134658592D01*
X132774740Y-134498926D01*
X132774737Y-134498917D01*
X132712437Y-134348509D01*
X132712436Y-134348507D01*
X132621984Y-134213137D01*
X132621981Y-134213133D01*
X132506866Y-134098018D01*
X132506862Y-134098015D01*
X132371492Y-134007563D01*
X132371490Y-134007562D01*
X132221082Y-133945262D01*
X132221073Y-133945259D01*
X132061406Y-133913500D01*
X132061403Y-133913500D01*
X131898597Y-133913500D01*
X131898594Y-133913500D01*
X131738926Y-133945259D01*
X131738917Y-133945262D01*
X131588509Y-134007562D01*
X131588507Y-134007563D01*
X131453137Y-134098015D01*
X131453133Y-134098018D01*
X131338018Y-134213133D01*
X131338015Y-134213137D01*
X131247563Y-134348507D01*
X131247562Y-134348509D01*
X131185262Y-134498917D01*
X131185259Y-134498926D01*
X131153500Y-134658592D01*
X121645500Y-134658592D01*
X121645500Y-131289493D01*
X155560000Y-131289493D01*
X155560000Y-131470506D01*
X155588317Y-131649293D01*
X155644251Y-131821444D01*
X155644252Y-131821447D01*
X155726431Y-131982730D01*
X155737913Y-131998532D01*
X155737913Y-131998533D01*
X156310000Y-131426446D01*
X156310000Y-131432661D01*
X156337259Y-131534394D01*
X156389920Y-131625606D01*
X156464394Y-131700080D01*
X156555606Y-131752741D01*
X156657339Y-131780000D01*
X156663553Y-131780000D01*
X156091466Y-132352085D01*
X156091466Y-132352086D01*
X156107267Y-132363566D01*
X156107275Y-132363571D01*
X156268552Y-132445747D01*
X156268555Y-132445748D01*
X156440706Y-132501682D01*
X156619494Y-132530000D01*
X156800506Y-132530000D01*
X156979293Y-132501682D01*
X157151444Y-132445748D01*
X157151452Y-132445745D01*
X157312730Y-132363568D01*
X157328532Y-132352085D01*
X157328533Y-132352085D01*
X156756448Y-131780000D01*
X156762661Y-131780000D01*
X156864394Y-131752741D01*
X156955606Y-131700080D01*
X157030080Y-131625606D01*
X157082741Y-131534394D01*
X157110000Y-131432661D01*
X157110000Y-131426448D01*
X157682085Y-131998533D01*
X157682085Y-131998532D01*
X157693568Y-131982730D01*
X157775745Y-131821452D01*
X157775748Y-131821444D01*
X157831682Y-131649293D01*
X157860000Y-131470506D01*
X157860000Y-131289493D01*
X157831682Y-131110706D01*
X157775748Y-130938555D01*
X157775747Y-130938552D01*
X157693571Y-130777275D01*
X157693566Y-130777267D01*
X157682085Y-130761466D01*
X157110000Y-131333551D01*
X157110000Y-131327339D01*
X157082741Y-131225606D01*
X157030080Y-131134394D01*
X156955606Y-131059920D01*
X156864394Y-131007259D01*
X156762661Y-130980000D01*
X156756447Y-130980000D01*
X157187855Y-130548592D01*
X162423500Y-130548592D01*
X162423500Y-130711407D01*
X162455259Y-130871073D01*
X162455262Y-130871082D01*
X162517562Y-131021490D01*
X162517563Y-131021492D01*
X162608015Y-131156862D01*
X162608018Y-131156866D01*
X162723133Y-131271981D01*
X162723137Y-131271984D01*
X162858505Y-131362435D01*
X162858506Y-131362435D01*
X162858507Y-131362436D01*
X162858509Y-131362437D01*
X162900913Y-131380001D01*
X163008919Y-131424738D01*
X163008921Y-131424738D01*
X163008926Y-131424740D01*
X163168592Y-131456499D01*
X163168595Y-131456500D01*
X163168597Y-131456500D01*
X163331405Y-131456500D01*
X163331406Y-131456499D01*
X163384629Y-131445912D01*
X163491073Y-131424740D01*
X163491076Y-131424738D01*
X163491081Y-131424738D01*
X163641495Y-131362435D01*
X163776863Y-131271984D01*
X163891984Y-131156863D01*
X163982435Y-131021495D01*
X164044738Y-130871081D01*
X164076500Y-130711403D01*
X164076500Y-130548597D01*
X164076500Y-130548594D01*
X164076499Y-130548592D01*
X164044740Y-130388926D01*
X164044737Y-130388917D01*
X163982437Y-130238509D01*
X163982436Y-130238507D01*
X163891984Y-130103137D01*
X163891981Y-130103133D01*
X163776866Y-129988018D01*
X163776862Y-129988015D01*
X163641492Y-129897563D01*
X163641490Y-129897562D01*
X163491082Y-129835262D01*
X163491073Y-129835259D01*
X163331406Y-129803500D01*
X163331403Y-129803500D01*
X163168597Y-129803500D01*
X163168594Y-129803500D01*
X163008926Y-129835259D01*
X163008917Y-129835262D01*
X162858509Y-129897562D01*
X162858507Y-129897563D01*
X162723137Y-129988015D01*
X162723133Y-129988018D01*
X162608018Y-130103133D01*
X162608015Y-130103137D01*
X162517563Y-130238507D01*
X162517562Y-130238509D01*
X162455262Y-130388917D01*
X162455259Y-130388926D01*
X162423500Y-130548592D01*
X157187855Y-130548592D01*
X157281623Y-130454824D01*
X157328533Y-130407913D01*
X157312730Y-130396431D01*
X157151447Y-130314252D01*
X157151444Y-130314251D01*
X156979293Y-130258317D01*
X156800506Y-130230000D01*
X156619494Y-130230000D01*
X156440706Y-130258317D01*
X156268555Y-130314251D01*
X156268547Y-130314254D01*
X156107269Y-130396432D01*
X156091466Y-130407912D01*
X156091466Y-130407913D01*
X156663554Y-130980000D01*
X156657339Y-130980000D01*
X156555606Y-131007259D01*
X156464394Y-131059920D01*
X156389920Y-131134394D01*
X156337259Y-131225606D01*
X156310000Y-131327339D01*
X156310000Y-131333553D01*
X155737913Y-130761466D01*
X155737912Y-130761466D01*
X155726432Y-130777269D01*
X155644254Y-130938547D01*
X155644251Y-130938555D01*
X155588317Y-131110706D01*
X155560000Y-131289493D01*
X121645500Y-131289493D01*
X121645500Y-129507273D01*
X155279500Y-129507273D01*
X155279500Y-129612727D01*
X155306793Y-129714587D01*
X155359520Y-129805913D01*
X155434087Y-129880480D01*
X155525413Y-129933207D01*
X155627273Y-129960500D01*
X155627275Y-129960500D01*
X155732725Y-129960500D01*
X155732727Y-129960500D01*
X155834587Y-129933207D01*
X155925913Y-129880480D01*
X156000480Y-129805913D01*
X156053207Y-129714587D01*
X156080500Y-129612727D01*
X156080500Y-129507273D01*
X156053207Y-129405413D01*
X156000480Y-129314087D01*
X155925913Y-129239520D01*
X155834587Y-129186793D01*
X155732727Y-129159500D01*
X155627273Y-129159500D01*
X155525413Y-129186793D01*
X155525410Y-129186794D01*
X155434085Y-129239521D01*
X155359521Y-129314085D01*
X155306794Y-129405410D01*
X155306793Y-129405413D01*
X155279500Y-129507273D01*
X121645500Y-129507273D01*
X121645500Y-126027273D01*
X150479500Y-126027273D01*
X150479500Y-126132727D01*
X150506793Y-126234587D01*
X150559520Y-126325913D01*
X150634087Y-126400480D01*
X150725413Y-126453207D01*
X150827273Y-126480500D01*
X150827275Y-126480500D01*
X150932725Y-126480500D01*
X150932727Y-126480500D01*
X151034587Y-126453207D01*
X151125913Y-126400480D01*
X151200480Y-126325913D01*
X151253207Y-126234587D01*
X151280500Y-126132727D01*
X151280500Y-126027273D01*
X151253207Y-125925413D01*
X151200480Y-125834087D01*
X151125913Y-125759520D01*
X151034587Y-125706793D01*
X150932727Y-125679500D01*
X150827273Y-125679500D01*
X150725413Y-125706793D01*
X150725410Y-125706794D01*
X150634085Y-125759521D01*
X150559521Y-125834085D01*
X150506794Y-125925410D01*
X150506793Y-125925413D01*
X150479500Y-126027273D01*
X121645500Y-126027273D01*
X121645500Y-122477273D01*
X133789500Y-122477273D01*
X133789500Y-122582727D01*
X133816793Y-122684587D01*
X133869520Y-122775913D01*
X133944087Y-122850480D01*
X134035413Y-122903207D01*
X134137273Y-122930500D01*
X134137275Y-122930500D01*
X134242725Y-122930500D01*
X134242727Y-122930500D01*
X134344587Y-122903207D01*
X134435913Y-122850480D01*
X134510480Y-122775913D01*
X134563207Y-122684587D01*
X134590500Y-122582727D01*
X134590500Y-122477273D01*
X134563207Y-122375413D01*
X134510480Y-122284087D01*
X134443666Y-122217273D01*
X138789500Y-122217273D01*
X138789500Y-122322727D01*
X138816793Y-122424587D01*
X138869520Y-122515913D01*
X138944087Y-122590480D01*
X139035413Y-122643207D01*
X139137273Y-122670500D01*
X139137275Y-122670500D01*
X139242725Y-122670500D01*
X139242727Y-122670500D01*
X139344587Y-122643207D01*
X139435913Y-122590480D01*
X139510480Y-122515913D01*
X139563207Y-122424587D01*
X139590500Y-122322727D01*
X139590500Y-122217273D01*
X139572783Y-122151153D01*
X143589500Y-122151153D01*
X143589500Y-122308846D01*
X143620261Y-122463489D01*
X143620264Y-122463501D01*
X143680602Y-122609172D01*
X143680609Y-122609185D01*
X143768210Y-122740288D01*
X143768213Y-122740292D01*
X143879707Y-122851786D01*
X143879711Y-122851789D01*
X144010814Y-122939390D01*
X144010827Y-122939397D01*
X144156498Y-122999735D01*
X144156503Y-122999737D01*
X144311153Y-123030499D01*
X144311156Y-123030500D01*
X144311158Y-123030500D01*
X144468844Y-123030500D01*
X144468845Y-123030499D01*
X144623497Y-122999737D01*
X144769179Y-122939394D01*
X144900289Y-122851789D01*
X145011789Y-122740289D01*
X145099394Y-122609179D01*
X145159737Y-122463497D01*
X145190500Y-122308842D01*
X145190500Y-122151158D01*
X145190500Y-122151155D01*
X145190499Y-122151153D01*
X145172680Y-122061572D01*
X145159737Y-121996503D01*
X145128256Y-121920500D01*
X145099397Y-121850827D01*
X145099390Y-121850814D01*
X145011789Y-121719711D01*
X145011786Y-121719707D01*
X144900292Y-121608213D01*
X144900288Y-121608210D01*
X144769185Y-121520609D01*
X144769172Y-121520602D01*
X144623501Y-121460264D01*
X144623489Y-121460261D01*
X144468845Y-121429500D01*
X144468842Y-121429500D01*
X144311158Y-121429500D01*
X144311155Y-121429500D01*
X144156510Y-121460261D01*
X144156498Y-121460264D01*
X144010827Y-121520602D01*
X144010814Y-121520609D01*
X143879711Y-121608210D01*
X143879707Y-121608213D01*
X143768213Y-121719707D01*
X143768210Y-121719711D01*
X143680609Y-121850814D01*
X143680602Y-121850827D01*
X143620264Y-121996498D01*
X143620261Y-121996510D01*
X143589500Y-122151153D01*
X139572783Y-122151153D01*
X139563207Y-122115413D01*
X139510480Y-122024087D01*
X139435913Y-121949520D01*
X139344587Y-121896793D01*
X139242727Y-121869500D01*
X139137273Y-121869500D01*
X139035413Y-121896793D01*
X139035410Y-121896794D01*
X138944085Y-121949521D01*
X138869521Y-122024085D01*
X138816794Y-122115410D01*
X138816793Y-122115413D01*
X138789500Y-122217273D01*
X134443666Y-122217273D01*
X134435913Y-122209520D01*
X134344587Y-122156793D01*
X134242727Y-122129500D01*
X134137273Y-122129500D01*
X134035413Y-122156793D01*
X134035410Y-122156794D01*
X133944085Y-122209521D01*
X133869521Y-122284085D01*
X133816794Y-122375410D01*
X133816793Y-122375413D01*
X133789500Y-122477273D01*
X121645500Y-122477273D01*
X121645500Y-122063946D01*
X121665185Y-121996907D01*
X121717989Y-121951152D01*
X121787147Y-121941208D01*
X121838392Y-121960845D01*
X121876314Y-121986184D01*
X121876328Y-121986192D01*
X122058306Y-122061569D01*
X122058318Y-122061572D01*
X122251504Y-122099999D01*
X122251508Y-122100000D01*
X122500000Y-122100000D01*
X122500000Y-121400000D01*
X123000000Y-121400000D01*
X123000000Y-122100000D01*
X123248492Y-122100000D01*
X123248495Y-122099999D01*
X123441681Y-122061572D01*
X123441693Y-122061569D01*
X123623671Y-121986192D01*
X123623684Y-121986185D01*
X123787462Y-121876751D01*
X123787466Y-121876748D01*
X123926748Y-121737466D01*
X123926751Y-121737462D01*
X124036185Y-121573684D01*
X124036192Y-121573671D01*
X124111569Y-121391692D01*
X124111569Y-121391690D01*
X124119862Y-121350000D01*
X123316988Y-121350000D01*
X123334205Y-121340060D01*
X123390060Y-121284205D01*
X123429556Y-121215796D01*
X123450000Y-121139496D01*
X123450000Y-121060504D01*
X123429556Y-120984204D01*
X123390060Y-120915795D01*
X123334205Y-120859940D01*
X123316988Y-120850000D01*
X124119862Y-120850000D01*
X125430138Y-120850000D01*
X126233012Y-120850000D01*
X126215795Y-120859940D01*
X126159940Y-120915795D01*
X126120444Y-120984204D01*
X126100000Y-121060504D01*
X126100000Y-121139496D01*
X126120444Y-121215796D01*
X126159940Y-121284205D01*
X126215795Y-121340060D01*
X126233012Y-121350000D01*
X125430138Y-121350000D01*
X125438430Y-121391690D01*
X125438430Y-121391692D01*
X125513807Y-121573671D01*
X125513814Y-121573684D01*
X125623248Y-121737462D01*
X125623251Y-121737466D01*
X125762533Y-121876748D01*
X125762537Y-121876751D01*
X125926315Y-121986185D01*
X125926328Y-121986192D01*
X126108306Y-122061569D01*
X126108318Y-122061572D01*
X126301504Y-122099999D01*
X126301508Y-122100000D01*
X126700000Y-122100000D01*
X126700000Y-121400000D01*
X127200000Y-121400000D01*
X127200000Y-122100000D01*
X127598492Y-122100000D01*
X127598495Y-122099999D01*
X127791681Y-122061572D01*
X127791693Y-122061569D01*
X127973671Y-121986192D01*
X127973684Y-121986185D01*
X128137462Y-121876751D01*
X128137466Y-121876748D01*
X128276748Y-121737466D01*
X128276751Y-121737462D01*
X128386185Y-121573684D01*
X128386192Y-121573671D01*
X128430263Y-121467273D01*
X131969500Y-121467273D01*
X131969500Y-121572727D01*
X131996793Y-121674587D01*
X132049520Y-121765913D01*
X132124087Y-121840480D01*
X132215413Y-121893207D01*
X132317273Y-121920500D01*
X132317275Y-121920500D01*
X132422725Y-121920500D01*
X132422727Y-121920500D01*
X132524587Y-121893207D01*
X132615913Y-121840480D01*
X132690480Y-121765913D01*
X132743207Y-121674587D01*
X132770500Y-121572727D01*
X132770500Y-121467273D01*
X137979500Y-121467273D01*
X137979500Y-121572727D01*
X138006793Y-121674587D01*
X138059520Y-121765913D01*
X138134087Y-121840480D01*
X138225413Y-121893207D01*
X138327273Y-121920500D01*
X138327275Y-121920500D01*
X138432725Y-121920500D01*
X138432727Y-121920500D01*
X138534587Y-121893207D01*
X138625913Y-121840480D01*
X138700480Y-121765913D01*
X138753207Y-121674587D01*
X138780500Y-121572727D01*
X138780500Y-121467273D01*
X138753207Y-121365413D01*
X138700480Y-121274087D01*
X138625913Y-121199520D01*
X138534587Y-121146793D01*
X138432727Y-121119500D01*
X138327273Y-121119500D01*
X138225413Y-121146793D01*
X138225410Y-121146794D01*
X138134085Y-121199521D01*
X138059521Y-121274085D01*
X138006794Y-121365410D01*
X138006793Y-121365413D01*
X137979500Y-121467273D01*
X132770500Y-121467273D01*
X132743207Y-121365413D01*
X132690480Y-121274087D01*
X132615913Y-121199520D01*
X132524587Y-121146793D01*
X132422727Y-121119500D01*
X132317273Y-121119500D01*
X132215413Y-121146793D01*
X132215410Y-121146794D01*
X132124085Y-121199521D01*
X132049521Y-121274085D01*
X131996794Y-121365410D01*
X131996793Y-121365413D01*
X131969500Y-121467273D01*
X128430263Y-121467273D01*
X128453282Y-121411699D01*
X128453284Y-121411695D01*
X128461570Y-121391689D01*
X128469862Y-121350000D01*
X127666988Y-121350000D01*
X127684205Y-121340060D01*
X127740060Y-121284205D01*
X127779556Y-121215796D01*
X127800000Y-121139496D01*
X127800000Y-121060504D01*
X127779556Y-120984204D01*
X127740060Y-120915795D01*
X127684205Y-120859940D01*
X127666988Y-120850000D01*
X128469862Y-120850000D01*
X128461569Y-120808308D01*
X128448714Y-120777273D01*
X136559500Y-120777273D01*
X136559500Y-120882727D01*
X136586793Y-120984587D01*
X136639520Y-121075913D01*
X136714087Y-121150480D01*
X136805413Y-121203207D01*
X136907273Y-121230500D01*
X136907275Y-121230500D01*
X137012725Y-121230500D01*
X137012727Y-121230500D01*
X137114587Y-121203207D01*
X137205913Y-121150480D01*
X137280480Y-121075913D01*
X137333207Y-120984587D01*
X137360500Y-120882727D01*
X137360500Y-120777273D01*
X137333207Y-120675413D01*
X137280480Y-120584087D01*
X137205913Y-120509520D01*
X137114587Y-120456793D01*
X137012727Y-120429500D01*
X136907273Y-120429500D01*
X136805413Y-120456793D01*
X136805410Y-120456794D01*
X136714085Y-120509521D01*
X136639521Y-120584085D01*
X136586794Y-120675410D01*
X136586793Y-120675413D01*
X136559500Y-120777273D01*
X128448714Y-120777273D01*
X128386192Y-120626328D01*
X128386185Y-120626315D01*
X128276751Y-120462537D01*
X128276748Y-120462533D01*
X128137466Y-120323251D01*
X128137462Y-120323248D01*
X128031204Y-120252248D01*
X127973684Y-120213814D01*
X127973671Y-120213807D01*
X127837184Y-120157273D01*
X142729500Y-120157273D01*
X142729500Y-120262727D01*
X142756793Y-120364587D01*
X142809520Y-120455913D01*
X142884087Y-120530480D01*
X142975413Y-120583207D01*
X143077273Y-120610500D01*
X143077275Y-120610500D01*
X143182725Y-120610500D01*
X143182727Y-120610500D01*
X143284587Y-120583207D01*
X143375913Y-120530480D01*
X143450480Y-120455913D01*
X143503207Y-120364587D01*
X143530500Y-120262727D01*
X143530500Y-120157273D01*
X143517103Y-120107273D01*
X145379500Y-120107273D01*
X145379500Y-120212727D01*
X145406793Y-120314587D01*
X145459520Y-120405913D01*
X145534087Y-120480480D01*
X145625413Y-120533207D01*
X145727273Y-120560500D01*
X145727275Y-120560500D01*
X145832725Y-120560500D01*
X145832727Y-120560500D01*
X145934587Y-120533207D01*
X146025913Y-120480480D01*
X146069120Y-120437273D01*
X147679500Y-120437273D01*
X147679500Y-120542727D01*
X147706793Y-120644587D01*
X147759520Y-120735913D01*
X147834087Y-120810480D01*
X147925413Y-120863207D01*
X148027273Y-120890500D01*
X148027275Y-120890500D01*
X148132725Y-120890500D01*
X148132727Y-120890500D01*
X148234587Y-120863207D01*
X148325913Y-120810480D01*
X148400480Y-120735913D01*
X148453207Y-120644587D01*
X148480500Y-120542727D01*
X148480500Y-120437273D01*
X148453207Y-120335413D01*
X148416107Y-120271153D01*
X152549500Y-120271153D01*
X152549500Y-120428846D01*
X152580261Y-120583489D01*
X152580264Y-120583501D01*
X152640602Y-120729172D01*
X152640609Y-120729185D01*
X152728210Y-120860288D01*
X152728213Y-120860292D01*
X152839707Y-120971786D01*
X152839711Y-120971789D01*
X152970814Y-121059390D01*
X152970827Y-121059397D01*
X153115931Y-121119500D01*
X153116503Y-121119737D01*
X153215838Y-121139496D01*
X153271153Y-121150499D01*
X153271156Y-121150500D01*
X153271158Y-121150500D01*
X153428844Y-121150500D01*
X153428845Y-121150499D01*
X153583497Y-121119737D01*
X153729179Y-121059394D01*
X153860289Y-120971789D01*
X153971789Y-120860289D01*
X154059394Y-120729179D01*
X154119737Y-120583497D01*
X154150500Y-120428842D01*
X154150500Y-120271158D01*
X154150500Y-120271155D01*
X154150499Y-120271153D01*
X154148287Y-120260033D01*
X154119737Y-120116503D01*
X154094432Y-120055410D01*
X154059397Y-119970827D01*
X154059390Y-119970814D01*
X153971789Y-119839711D01*
X153971786Y-119839707D01*
X153860292Y-119728213D01*
X153860288Y-119728210D01*
X153729185Y-119640609D01*
X153729172Y-119640602D01*
X153583501Y-119580264D01*
X153583489Y-119580261D01*
X153428845Y-119549500D01*
X153428842Y-119549500D01*
X153271158Y-119549500D01*
X153271155Y-119549500D01*
X153116510Y-119580261D01*
X153116498Y-119580264D01*
X152970827Y-119640602D01*
X152970814Y-119640609D01*
X152839711Y-119728210D01*
X152839707Y-119728213D01*
X152728213Y-119839707D01*
X152728210Y-119839711D01*
X152640609Y-119970814D01*
X152640602Y-119970827D01*
X152580264Y-120116498D01*
X152580261Y-120116510D01*
X152549500Y-120271153D01*
X148416107Y-120271153D01*
X148400480Y-120244087D01*
X148325913Y-120169520D01*
X148234587Y-120116793D01*
X148132727Y-120089500D01*
X148027273Y-120089500D01*
X147925413Y-120116793D01*
X147925410Y-120116794D01*
X147834085Y-120169521D01*
X147759521Y-120244085D01*
X147706794Y-120335410D01*
X147706793Y-120335413D01*
X147679500Y-120437273D01*
X146069120Y-120437273D01*
X146100480Y-120405913D01*
X146153207Y-120314587D01*
X146180500Y-120212727D01*
X146180500Y-120107273D01*
X146153207Y-120005413D01*
X146100480Y-119914087D01*
X146025913Y-119839520D01*
X145934587Y-119786793D01*
X145832727Y-119759500D01*
X145727273Y-119759500D01*
X145625413Y-119786793D01*
X145625410Y-119786794D01*
X145534085Y-119839521D01*
X145459521Y-119914085D01*
X145406794Y-120005410D01*
X145406793Y-120005413D01*
X145379500Y-120107273D01*
X143517103Y-120107273D01*
X143503207Y-120055413D01*
X143450480Y-119964087D01*
X143375913Y-119889520D01*
X143289312Y-119839521D01*
X143284589Y-119836794D01*
X143284588Y-119836793D01*
X143284587Y-119836793D01*
X143182727Y-119809500D01*
X143077273Y-119809500D01*
X142975413Y-119836793D01*
X142975410Y-119836794D01*
X142884085Y-119889521D01*
X142809521Y-119964085D01*
X142756794Y-120055410D01*
X142756793Y-120055413D01*
X142729500Y-120157273D01*
X127837184Y-120157273D01*
X127791693Y-120138430D01*
X127791681Y-120138427D01*
X127598495Y-120100000D01*
X127200000Y-120100000D01*
X127200000Y-120800000D01*
X126700000Y-120800000D01*
X126700000Y-120250237D01*
X126719685Y-120183198D01*
X126762000Y-120142850D01*
X126783365Y-120130515D01*
X126890515Y-120023365D01*
X126900880Y-120005413D01*
X126911721Y-119986637D01*
X126966279Y-119892138D01*
X126966281Y-119892135D01*
X127005500Y-119745766D01*
X127005500Y-119594234D01*
X126966281Y-119447865D01*
X126890515Y-119316635D01*
X126783365Y-119209485D01*
X126717750Y-119171602D01*
X126652136Y-119133719D01*
X126628079Y-119127273D01*
X128269500Y-119127273D01*
X128269500Y-119232727D01*
X128296793Y-119334587D01*
X128349520Y-119425913D01*
X128424087Y-119500480D01*
X128515413Y-119553207D01*
X128617273Y-119580500D01*
X128617275Y-119580500D01*
X128722725Y-119580500D01*
X128722727Y-119580500D01*
X128824587Y-119553207D01*
X128915913Y-119500480D01*
X128990480Y-119425913D01*
X129043207Y-119334587D01*
X129070500Y-119232727D01*
X129070500Y-119127273D01*
X129043207Y-119025413D01*
X128990480Y-118934087D01*
X128915913Y-118859520D01*
X128825422Y-118807275D01*
X128825419Y-118807273D01*
X138789500Y-118807273D01*
X138789500Y-118912727D01*
X138816793Y-119014587D01*
X138869520Y-119105913D01*
X138944087Y-119180480D01*
X139035413Y-119233207D01*
X139137273Y-119260500D01*
X139137275Y-119260500D01*
X139242725Y-119260500D01*
X139242727Y-119260500D01*
X139344587Y-119233207D01*
X139435913Y-119180480D01*
X139510480Y-119105913D01*
X139563207Y-119014587D01*
X139590500Y-118912727D01*
X139590500Y-118807273D01*
X139563207Y-118705413D01*
X139510480Y-118614087D01*
X139435913Y-118539520D01*
X139345945Y-118487577D01*
X142355975Y-118487577D01*
X142461236Y-118531178D01*
X142461240Y-118531179D01*
X142606126Y-118559999D01*
X142606129Y-118560000D01*
X142753871Y-118560000D01*
X142753873Y-118559999D01*
X142898760Y-118531179D01*
X142898775Y-118531175D01*
X143004024Y-118487578D01*
X143004024Y-118487577D01*
X143355975Y-118487577D01*
X143461236Y-118531178D01*
X143461240Y-118531179D01*
X143606126Y-118559999D01*
X143606129Y-118560000D01*
X143753871Y-118560000D01*
X143753873Y-118559999D01*
X143898760Y-118531179D01*
X143898775Y-118531175D01*
X144004024Y-118487578D01*
X144004024Y-118487577D01*
X144355975Y-118487577D01*
X144461236Y-118531178D01*
X144461240Y-118531179D01*
X144606126Y-118559999D01*
X144606129Y-118560000D01*
X144753871Y-118560000D01*
X144753873Y-118559999D01*
X144898760Y-118531179D01*
X144898775Y-118531175D01*
X145004024Y-118487578D01*
X145004024Y-118487577D01*
X144680001Y-118163554D01*
X144680000Y-118163554D01*
X144355975Y-118487577D01*
X144004024Y-118487577D01*
X143680001Y-118163554D01*
X143680000Y-118163554D01*
X143355975Y-118487577D01*
X143004024Y-118487577D01*
X142680001Y-118163554D01*
X142680000Y-118163554D01*
X142355975Y-118487577D01*
X139345945Y-118487577D01*
X139344587Y-118486793D01*
X139332943Y-118483673D01*
X139319053Y-118475751D01*
X139305458Y-118461642D01*
X139288729Y-118451445D01*
X139281713Y-118437000D01*
X139270572Y-118425439D01*
X139266762Y-118406221D01*
X139258202Y-118388597D01*
X139260108Y-118372652D01*
X139256987Y-118356902D01*
X139264172Y-118338675D01*
X139266499Y-118319222D01*
X139276722Y-118306841D01*
X139282612Y-118291901D01*
X139298513Y-118280450D01*
X139310987Y-118265345D01*
X139334235Y-118254728D01*
X139339312Y-118251073D01*
X139342624Y-118250897D01*
X139348390Y-118248264D01*
X139404587Y-118233207D01*
X139495913Y-118180480D01*
X139570480Y-118105913D01*
X139623207Y-118014587D01*
X139650500Y-117912727D01*
X139650500Y-117807273D01*
X139631436Y-117736126D01*
X141930000Y-117736126D01*
X141930000Y-117883873D01*
X141958820Y-118028759D01*
X141958822Y-118028767D01*
X142002421Y-118134024D01*
X142326446Y-117810000D01*
X142326446Y-117809999D01*
X142306556Y-117790109D01*
X142580000Y-117790109D01*
X142580000Y-117829891D01*
X142595224Y-117866645D01*
X142623355Y-117894776D01*
X142660109Y-117910000D01*
X142699891Y-117910000D01*
X142736645Y-117894776D01*
X142764776Y-117866645D01*
X142780000Y-117829891D01*
X142780000Y-117810000D01*
X143033554Y-117810000D01*
X143180000Y-117956446D01*
X143326446Y-117810000D01*
X143306555Y-117790109D01*
X143580000Y-117790109D01*
X143580000Y-117829891D01*
X143595224Y-117866645D01*
X143623355Y-117894776D01*
X143660109Y-117910000D01*
X143699891Y-117910000D01*
X143736645Y-117894776D01*
X143764776Y-117866645D01*
X143780000Y-117829891D01*
X143780000Y-117810000D01*
X144033554Y-117810000D01*
X144180000Y-117956446D01*
X144326446Y-117810000D01*
X144306555Y-117790109D01*
X144580000Y-117790109D01*
X144580000Y-117829891D01*
X144595224Y-117866645D01*
X144623355Y-117894776D01*
X144660109Y-117910000D01*
X144699891Y-117910000D01*
X144736645Y-117894776D01*
X144764776Y-117866645D01*
X144780000Y-117829891D01*
X144780000Y-117809999D01*
X145033554Y-117809999D01*
X145033554Y-117810001D01*
X145357577Y-118134024D01*
X145357578Y-118134024D01*
X145401175Y-118028775D01*
X145401179Y-118028760D01*
X145429999Y-117883873D01*
X145430000Y-117883871D01*
X145430000Y-117736128D01*
X145429999Y-117736126D01*
X145401179Y-117591240D01*
X145401177Y-117591232D01*
X145372715Y-117522519D01*
X145357577Y-117485975D01*
X145033554Y-117809999D01*
X144780000Y-117809999D01*
X144780000Y-117790109D01*
X144764776Y-117753355D01*
X144736645Y-117725224D01*
X144699891Y-117710000D01*
X144660109Y-117710000D01*
X144623355Y-117725224D01*
X144595224Y-117753355D01*
X144580000Y-117790109D01*
X144306555Y-117790109D01*
X144180000Y-117663554D01*
X144033554Y-117810000D01*
X143780000Y-117810000D01*
X143780000Y-117790109D01*
X143764776Y-117753355D01*
X143736645Y-117725224D01*
X143699891Y-117710000D01*
X143660109Y-117710000D01*
X143623355Y-117725224D01*
X143595224Y-117753355D01*
X143580000Y-117790109D01*
X143306555Y-117790109D01*
X143180000Y-117663554D01*
X143033554Y-117810000D01*
X142780000Y-117810000D01*
X142780000Y-117790109D01*
X142764776Y-117753355D01*
X142736645Y-117725224D01*
X142699891Y-117710000D01*
X142660109Y-117710000D01*
X142623355Y-117725224D01*
X142595224Y-117753355D01*
X142580000Y-117790109D01*
X142306556Y-117790109D01*
X142002421Y-117485974D01*
X142002420Y-117485974D01*
X141958823Y-117591228D01*
X141958820Y-117591240D01*
X141930000Y-117736126D01*
X139631436Y-117736126D01*
X139623207Y-117705413D01*
X139570480Y-117614087D01*
X139495913Y-117539520D01*
X139404587Y-117486793D01*
X139383538Y-117481153D01*
X150329500Y-117481153D01*
X150329500Y-117638846D01*
X150360261Y-117793489D01*
X150360264Y-117793501D01*
X150420602Y-117939172D01*
X150420609Y-117939185D01*
X150508210Y-118070288D01*
X150508213Y-118070292D01*
X150619707Y-118181786D01*
X150619711Y-118181789D01*
X150750814Y-118269390D01*
X150750827Y-118269397D01*
X150874154Y-118320480D01*
X150896503Y-118329737D01*
X151033070Y-118356902D01*
X151051153Y-118360499D01*
X151051156Y-118360500D01*
X151051158Y-118360500D01*
X151208844Y-118360500D01*
X151208845Y-118360499D01*
X151363497Y-118329737D01*
X151509179Y-118269394D01*
X151640289Y-118181789D01*
X151751789Y-118070289D01*
X151833986Y-117947273D01*
X160349500Y-117947273D01*
X160349500Y-118052727D01*
X160376793Y-118154587D01*
X160429520Y-118245913D01*
X160504087Y-118320480D01*
X160595413Y-118373207D01*
X160697273Y-118400500D01*
X160697275Y-118400500D01*
X160802725Y-118400500D01*
X160802727Y-118400500D01*
X160904587Y-118373207D01*
X160995913Y-118320480D01*
X161070480Y-118245913D01*
X161123207Y-118154587D01*
X161150500Y-118052727D01*
X161150500Y-117947273D01*
X163319500Y-117947273D01*
X163319500Y-118052727D01*
X163346793Y-118154587D01*
X163399520Y-118245913D01*
X163474087Y-118320480D01*
X163565413Y-118373207D01*
X163667273Y-118400500D01*
X163667275Y-118400500D01*
X163772725Y-118400500D01*
X163772727Y-118400500D01*
X163874587Y-118373207D01*
X163965913Y-118320480D01*
X164040480Y-118245913D01*
X164093207Y-118154587D01*
X164120500Y-118052727D01*
X164120500Y-117947273D01*
X164093207Y-117845413D01*
X164040480Y-117754087D01*
X163965913Y-117679520D01*
X163874587Y-117626793D01*
X163772727Y-117599500D01*
X163667273Y-117599500D01*
X163565413Y-117626793D01*
X163565410Y-117626794D01*
X163474085Y-117679521D01*
X163399521Y-117754085D01*
X163346794Y-117845410D01*
X163346793Y-117845413D01*
X163319500Y-117947273D01*
X161150500Y-117947273D01*
X161123207Y-117845413D01*
X161070480Y-117754087D01*
X160995913Y-117679520D01*
X160904587Y-117626793D01*
X160802727Y-117599500D01*
X160697273Y-117599500D01*
X160595413Y-117626793D01*
X160595410Y-117626794D01*
X160504085Y-117679521D01*
X160429521Y-117754085D01*
X160376794Y-117845410D01*
X160376793Y-117845413D01*
X160349500Y-117947273D01*
X151833986Y-117947273D01*
X151839394Y-117939179D01*
X151839395Y-117939176D01*
X151839397Y-117939173D01*
X151859063Y-117891694D01*
X151892901Y-117810000D01*
X151899737Y-117793497D01*
X151930500Y-117638842D01*
X151930500Y-117481158D01*
X151930500Y-117481155D01*
X151930499Y-117481153D01*
X151899738Y-117326510D01*
X151899737Y-117326503D01*
X151892901Y-117310000D01*
X151839397Y-117180827D01*
X151839390Y-117180814D01*
X151751789Y-117049711D01*
X151751786Y-117049707D01*
X151640292Y-116938213D01*
X151640288Y-116938210D01*
X151509185Y-116850609D01*
X151509172Y-116850602D01*
X151363501Y-116790264D01*
X151363489Y-116790261D01*
X151208845Y-116759500D01*
X151208842Y-116759500D01*
X151051158Y-116759500D01*
X151051155Y-116759500D01*
X150896510Y-116790261D01*
X150896498Y-116790264D01*
X150750827Y-116850602D01*
X150750814Y-116850609D01*
X150619711Y-116938210D01*
X150619707Y-116938213D01*
X150508213Y-117049707D01*
X150508210Y-117049711D01*
X150420609Y-117180814D01*
X150420602Y-117180827D01*
X150360264Y-117326498D01*
X150360261Y-117326510D01*
X150329500Y-117481153D01*
X139383538Y-117481153D01*
X139302727Y-117459500D01*
X139197273Y-117459500D01*
X139095413Y-117486793D01*
X139095410Y-117486794D01*
X139004085Y-117539521D01*
X138929521Y-117614085D01*
X138876794Y-117705410D01*
X138876793Y-117705413D01*
X138849500Y-117807273D01*
X138849500Y-117912727D01*
X138876793Y-118014587D01*
X138929520Y-118105913D01*
X139004087Y-118180480D01*
X139095413Y-118233207D01*
X139095418Y-118233208D01*
X139102920Y-118236316D01*
X139102003Y-118238527D01*
X139151256Y-118268539D01*
X139181793Y-118331382D01*
X139173508Y-118400758D01*
X139129030Y-118454642D01*
X139091607Y-118471736D01*
X139035411Y-118486793D01*
X139035410Y-118486794D01*
X138944085Y-118539521D01*
X138869521Y-118614085D01*
X138816794Y-118705410D01*
X138816793Y-118705413D01*
X138789500Y-118807273D01*
X128825419Y-118807273D01*
X128824589Y-118806794D01*
X128824588Y-118806793D01*
X128824587Y-118806793D01*
X128722727Y-118779500D01*
X128617273Y-118779500D01*
X128515413Y-118806793D01*
X128515410Y-118806794D01*
X128424085Y-118859521D01*
X128349521Y-118934085D01*
X128296794Y-119025410D01*
X128296793Y-119025413D01*
X128269500Y-119127273D01*
X126628079Y-119127273D01*
X126548360Y-119105913D01*
X126505766Y-119094500D01*
X126354234Y-119094500D01*
X126207863Y-119133719D01*
X126076635Y-119209485D01*
X126076632Y-119209487D01*
X125969487Y-119316632D01*
X125969485Y-119316635D01*
X125893719Y-119447863D01*
X125854500Y-119594234D01*
X125854500Y-119745765D01*
X125893719Y-119892136D01*
X125906392Y-119914085D01*
X125969485Y-120023365D01*
X125969486Y-120023366D01*
X125969489Y-120023371D01*
X125971592Y-120026112D01*
X125972646Y-120028839D01*
X125973549Y-120030403D01*
X125973305Y-120030543D01*
X125996784Y-120091282D01*
X125982744Y-120159726D01*
X125933928Y-120209714D01*
X125931676Y-120210949D01*
X125926321Y-120213811D01*
X125762536Y-120323248D01*
X125623251Y-120462533D01*
X125623248Y-120462537D01*
X125513814Y-120626315D01*
X125513807Y-120626328D01*
X125438430Y-120808307D01*
X125438430Y-120808309D01*
X125430138Y-120850000D01*
X124119862Y-120850000D01*
X124111569Y-120808309D01*
X124111569Y-120808307D01*
X124036192Y-120626328D01*
X124036185Y-120626315D01*
X123926751Y-120462537D01*
X123926748Y-120462533D01*
X123787466Y-120323251D01*
X123787462Y-120323248D01*
X123623684Y-120213814D01*
X123623671Y-120213807D01*
X123441693Y-120138430D01*
X123441681Y-120138427D01*
X123248495Y-120100000D01*
X123000000Y-120100000D01*
X123000000Y-120800000D01*
X122500000Y-120800000D01*
X122500000Y-120100000D01*
X122251504Y-120100000D01*
X122058318Y-120138427D01*
X122058306Y-120138430D01*
X121876328Y-120213807D01*
X121876315Y-120213814D01*
X121838391Y-120239155D01*
X121771713Y-120260033D01*
X121704333Y-120241548D01*
X121657643Y-120189570D01*
X121645500Y-120136053D01*
X121645500Y-117310000D01*
X142533554Y-117310000D01*
X142680000Y-117456446D01*
X142826446Y-117310000D01*
X143533554Y-117310000D01*
X143680000Y-117456446D01*
X143826446Y-117310000D01*
X144533554Y-117310000D01*
X144680000Y-117456446D01*
X144826446Y-117310000D01*
X144680000Y-117163554D01*
X144533554Y-117310000D01*
X143826446Y-117310000D01*
X143680000Y-117163554D01*
X143533554Y-117310000D01*
X142826446Y-117310000D01*
X142680000Y-117163554D01*
X142533554Y-117310000D01*
X121645500Y-117310000D01*
X121645500Y-116707273D01*
X129919500Y-116707273D01*
X129919500Y-116812727D01*
X129946793Y-116914587D01*
X129999520Y-117005913D01*
X130074087Y-117080480D01*
X130165413Y-117133207D01*
X130267273Y-117160500D01*
X130267275Y-117160500D01*
X130372725Y-117160500D01*
X130372727Y-117160500D01*
X130474587Y-117133207D01*
X130565913Y-117080480D01*
X130640480Y-117005913D01*
X130693207Y-116914587D01*
X130720500Y-116812727D01*
X130720500Y-116707273D01*
X130693207Y-116605413D01*
X130640480Y-116514087D01*
X130633666Y-116507273D01*
X139259500Y-116507273D01*
X139259500Y-116612727D01*
X139286793Y-116714587D01*
X139339520Y-116805913D01*
X139414087Y-116880480D01*
X139505413Y-116933207D01*
X139607273Y-116960500D01*
X139607275Y-116960500D01*
X139712725Y-116960500D01*
X139712727Y-116960500D01*
X139814587Y-116933207D01*
X139905913Y-116880480D01*
X139980480Y-116805913D01*
X140020771Y-116736126D01*
X141930000Y-116736126D01*
X141930000Y-116883873D01*
X141958820Y-117028759D01*
X141958822Y-117028767D01*
X142002421Y-117134024D01*
X142326446Y-116810000D01*
X142326446Y-116809999D01*
X142306556Y-116790109D01*
X142580000Y-116790109D01*
X142580000Y-116829891D01*
X142595224Y-116866645D01*
X142623355Y-116894776D01*
X142660109Y-116910000D01*
X142699891Y-116910000D01*
X142736645Y-116894776D01*
X142764776Y-116866645D01*
X142780000Y-116829891D01*
X142780000Y-116810000D01*
X143033554Y-116810000D01*
X143180000Y-116956446D01*
X143326446Y-116810000D01*
X143306555Y-116790109D01*
X143580000Y-116790109D01*
X143580000Y-116829891D01*
X143595224Y-116866645D01*
X143623355Y-116894776D01*
X143660109Y-116910000D01*
X143699891Y-116910000D01*
X143736645Y-116894776D01*
X143764776Y-116866645D01*
X143780000Y-116829891D01*
X143780000Y-116810000D01*
X144033554Y-116810000D01*
X144180000Y-116956446D01*
X144326446Y-116810000D01*
X144306555Y-116790109D01*
X144580000Y-116790109D01*
X144580000Y-116829891D01*
X144595224Y-116866645D01*
X144623355Y-116894776D01*
X144660109Y-116910000D01*
X144699891Y-116910000D01*
X144736645Y-116894776D01*
X144764776Y-116866645D01*
X144780000Y-116829891D01*
X144780000Y-116809999D01*
X145033554Y-116809999D01*
X145033554Y-116810001D01*
X145357577Y-117134024D01*
X145357578Y-117134024D01*
X145401175Y-117028775D01*
X145401179Y-117028760D01*
X145429999Y-116883873D01*
X145430000Y-116883871D01*
X145430000Y-116736128D01*
X145429999Y-116736126D01*
X145401179Y-116591240D01*
X145401178Y-116591236D01*
X145357577Y-116485975D01*
X145033554Y-116809999D01*
X144780000Y-116809999D01*
X144780000Y-116790109D01*
X144764776Y-116753355D01*
X144736645Y-116725224D01*
X144699891Y-116710000D01*
X144660109Y-116710000D01*
X144623355Y-116725224D01*
X144595224Y-116753355D01*
X144580000Y-116790109D01*
X144306555Y-116790109D01*
X144180000Y-116663554D01*
X144033554Y-116810000D01*
X143780000Y-116810000D01*
X143780000Y-116790109D01*
X143764776Y-116753355D01*
X143736645Y-116725224D01*
X143699891Y-116710000D01*
X143660109Y-116710000D01*
X143623355Y-116725224D01*
X143595224Y-116753355D01*
X143580000Y-116790109D01*
X143306555Y-116790109D01*
X143180000Y-116663554D01*
X143033554Y-116810000D01*
X142780000Y-116810000D01*
X142780000Y-116790109D01*
X142764776Y-116753355D01*
X142736645Y-116725224D01*
X142699891Y-116710000D01*
X142660109Y-116710000D01*
X142623355Y-116725224D01*
X142595224Y-116753355D01*
X142580000Y-116790109D01*
X142306556Y-116790109D01*
X142002421Y-116485974D01*
X142002420Y-116485974D01*
X141958823Y-116591228D01*
X141958820Y-116591240D01*
X141930000Y-116736126D01*
X140020771Y-116736126D01*
X140033207Y-116714587D01*
X140035167Y-116707273D01*
X140037667Y-116697944D01*
X140046881Y-116663554D01*
X140060500Y-116612727D01*
X140060500Y-116507273D01*
X140033207Y-116405413D01*
X139980480Y-116314087D01*
X139976393Y-116310000D01*
X142533554Y-116310000D01*
X142680000Y-116456446D01*
X142826446Y-116310000D01*
X143533554Y-116310000D01*
X143680000Y-116456446D01*
X143826446Y-116310000D01*
X144533554Y-116310000D01*
X144680000Y-116456446D01*
X144826446Y-116310000D01*
X144680000Y-116163554D01*
X144533554Y-116310000D01*
X143826446Y-116310000D01*
X143680000Y-116163554D01*
X143533554Y-116310000D01*
X142826446Y-116310000D01*
X142680000Y-116163554D01*
X142533554Y-116310000D01*
X139976393Y-116310000D01*
X139905913Y-116239520D01*
X139814587Y-116186793D01*
X139712727Y-116159500D01*
X139607273Y-116159500D01*
X139505413Y-116186793D01*
X139505410Y-116186794D01*
X139414085Y-116239521D01*
X139339521Y-116314085D01*
X139286794Y-116405410D01*
X139286793Y-116405413D01*
X139259500Y-116507273D01*
X130633666Y-116507273D01*
X130565913Y-116439520D01*
X130474587Y-116386793D01*
X130372727Y-116359500D01*
X130267273Y-116359500D01*
X130165413Y-116386793D01*
X130165410Y-116386794D01*
X130074085Y-116439521D01*
X129999521Y-116514085D01*
X129946794Y-116605410D01*
X129946793Y-116605413D01*
X129919500Y-116707273D01*
X121645500Y-116707273D01*
X121645500Y-115736126D01*
X141930000Y-115736126D01*
X141930000Y-115883873D01*
X141958820Y-116028759D01*
X141958822Y-116028767D01*
X142002421Y-116134024D01*
X142326446Y-115810000D01*
X142326446Y-115809999D01*
X142306556Y-115790109D01*
X142580000Y-115790109D01*
X142580000Y-115829891D01*
X142595224Y-115866645D01*
X142623355Y-115894776D01*
X142660109Y-115910000D01*
X142699891Y-115910000D01*
X142736645Y-115894776D01*
X142764776Y-115866645D01*
X142780000Y-115829891D01*
X142780000Y-115810000D01*
X143033554Y-115810000D01*
X143180000Y-115956446D01*
X143326446Y-115810000D01*
X143306555Y-115790109D01*
X143580000Y-115790109D01*
X143580000Y-115829891D01*
X143595224Y-115866645D01*
X143623355Y-115894776D01*
X143660109Y-115910000D01*
X143699891Y-115910000D01*
X143736645Y-115894776D01*
X143764776Y-115866645D01*
X143780000Y-115829891D01*
X143780000Y-115810000D01*
X144033554Y-115810000D01*
X144180000Y-115956446D01*
X144326446Y-115810000D01*
X144306555Y-115790109D01*
X144580000Y-115790109D01*
X144580000Y-115829891D01*
X144595224Y-115866645D01*
X144623355Y-115894776D01*
X144660109Y-115910000D01*
X144699891Y-115910000D01*
X144736645Y-115894776D01*
X144764776Y-115866645D01*
X144780000Y-115829891D01*
X144780000Y-115809999D01*
X145033554Y-115809999D01*
X145033554Y-115810001D01*
X145357577Y-116134024D01*
X145357578Y-116134024D01*
X145401175Y-116028775D01*
X145401179Y-116028760D01*
X145425345Y-115907273D01*
X146679500Y-115907273D01*
X146679500Y-116012727D01*
X146706793Y-116114587D01*
X146732723Y-116159500D01*
X146759521Y-116205914D01*
X146775926Y-116222319D01*
X146809411Y-116283642D01*
X146804427Y-116353334D01*
X146775926Y-116397681D01*
X146759521Y-116414085D01*
X146706794Y-116505410D01*
X146706793Y-116505413D01*
X146679500Y-116607273D01*
X146679500Y-116712727D01*
X146706793Y-116814587D01*
X146759520Y-116905913D01*
X146834087Y-116980480D01*
X146925413Y-117033207D01*
X147027273Y-117060500D01*
X147027275Y-117060500D01*
X147132725Y-117060500D01*
X147132727Y-117060500D01*
X147234587Y-117033207D01*
X147325913Y-116980480D01*
X147400480Y-116905913D01*
X147453207Y-116814587D01*
X147480500Y-116712727D01*
X147480500Y-116607273D01*
X147453207Y-116505413D01*
X147400480Y-116414087D01*
X147384074Y-116397681D01*
X147350589Y-116336358D01*
X147355573Y-116266666D01*
X147384074Y-116222319D01*
X147400480Y-116205913D01*
X147453207Y-116114587D01*
X147480500Y-116012727D01*
X147480500Y-115907273D01*
X147453207Y-115805413D01*
X147400480Y-115714087D01*
X147325913Y-115639520D01*
X147259059Y-115600922D01*
X147234589Y-115586794D01*
X147234588Y-115586793D01*
X147234587Y-115586793D01*
X147132727Y-115559500D01*
X147027273Y-115559500D01*
X146925413Y-115586793D01*
X146925410Y-115586794D01*
X146834085Y-115639521D01*
X146759521Y-115714085D01*
X146706794Y-115805410D01*
X146706793Y-115805413D01*
X146679500Y-115907273D01*
X145425345Y-115907273D01*
X145429999Y-115883874D01*
X145430000Y-115883870D01*
X145430000Y-115736128D01*
X145429999Y-115736126D01*
X145401179Y-115591240D01*
X145401178Y-115591236D01*
X145357577Y-115485975D01*
X145033554Y-115809999D01*
X144780000Y-115809999D01*
X144780000Y-115790109D01*
X144764776Y-115753355D01*
X144736645Y-115725224D01*
X144699891Y-115710000D01*
X144660109Y-115710000D01*
X144623355Y-115725224D01*
X144595224Y-115753355D01*
X144580000Y-115790109D01*
X144306555Y-115790109D01*
X144180000Y-115663554D01*
X144033554Y-115810000D01*
X143780000Y-115810000D01*
X143780000Y-115790109D01*
X143764776Y-115753355D01*
X143736645Y-115725224D01*
X143699891Y-115710000D01*
X143660109Y-115710000D01*
X143623355Y-115725224D01*
X143595224Y-115753355D01*
X143580000Y-115790109D01*
X143306555Y-115790109D01*
X143180000Y-115663554D01*
X143033554Y-115810000D01*
X142780000Y-115810000D01*
X142780000Y-115790109D01*
X142764776Y-115753355D01*
X142736645Y-115725224D01*
X142699891Y-115710000D01*
X142660109Y-115710000D01*
X142623355Y-115725224D01*
X142595224Y-115753355D01*
X142580000Y-115790109D01*
X142306556Y-115790109D01*
X142002421Y-115485974D01*
X142002420Y-115485974D01*
X141958823Y-115591228D01*
X141958820Y-115591240D01*
X141930000Y-115736126D01*
X121645500Y-115736126D01*
X121645500Y-113423946D01*
X121665185Y-113356907D01*
X121717989Y-113311152D01*
X121787147Y-113301208D01*
X121838392Y-113320845D01*
X121876314Y-113346184D01*
X121876328Y-113346192D01*
X122058306Y-113421569D01*
X122058318Y-113421572D01*
X122251504Y-113459999D01*
X122251508Y-113460000D01*
X122500000Y-113460000D01*
X122500000Y-112760000D01*
X123000000Y-112760000D01*
X123000000Y-113460000D01*
X123248492Y-113460000D01*
X123248495Y-113459999D01*
X123441681Y-113421572D01*
X123441693Y-113421569D01*
X123623671Y-113346192D01*
X123623684Y-113346185D01*
X123787462Y-113236751D01*
X123787466Y-113236748D01*
X123926748Y-113097466D01*
X123926751Y-113097462D01*
X124036185Y-112933684D01*
X124036192Y-112933671D01*
X124111569Y-112751692D01*
X124111569Y-112751690D01*
X124119862Y-112710000D01*
X123316988Y-112710000D01*
X123334205Y-112700060D01*
X123390060Y-112644205D01*
X123429556Y-112575796D01*
X123450000Y-112499496D01*
X123450000Y-112420504D01*
X123429556Y-112344204D01*
X123390060Y-112275795D01*
X123334205Y-112219940D01*
X123316988Y-112210000D01*
X124119862Y-112210000D01*
X125430138Y-112210000D01*
X126233012Y-112210000D01*
X126215795Y-112219940D01*
X126159940Y-112275795D01*
X126120444Y-112344204D01*
X126100000Y-112420504D01*
X126100000Y-112499496D01*
X126120444Y-112575796D01*
X126159940Y-112644205D01*
X126215795Y-112700060D01*
X126233012Y-112710000D01*
X125430138Y-112710000D01*
X125438430Y-112751690D01*
X125438430Y-112751692D01*
X125513807Y-112933671D01*
X125513814Y-112933684D01*
X125623248Y-113097462D01*
X125623251Y-113097466D01*
X125762533Y-113236748D01*
X125762537Y-113236751D01*
X125926318Y-113346187D01*
X125931660Y-113349042D01*
X125981508Y-113398001D01*
X125996973Y-113466138D01*
X125973145Y-113531819D01*
X125971596Y-113533882D01*
X125969490Y-113536626D01*
X125893719Y-113667863D01*
X125854500Y-113814234D01*
X125854500Y-113965765D01*
X125893719Y-114112136D01*
X125906392Y-114134085D01*
X125969485Y-114243365D01*
X126076635Y-114350515D01*
X126207865Y-114426281D01*
X126354234Y-114465500D01*
X126354236Y-114465500D01*
X126505764Y-114465500D01*
X126505766Y-114465500D01*
X126652135Y-114426281D01*
X126783365Y-114350515D01*
X126806607Y-114327273D01*
X128269500Y-114327273D01*
X128269500Y-114432727D01*
X128296793Y-114534587D01*
X128349520Y-114625913D01*
X128424087Y-114700480D01*
X128515413Y-114753207D01*
X128516944Y-114753617D01*
X128518089Y-114754315D01*
X128522920Y-114756316D01*
X128522608Y-114757069D01*
X128576605Y-114789981D01*
X128607135Y-114852827D01*
X128598841Y-114922203D01*
X128572534Y-114961072D01*
X128529521Y-115004085D01*
X128476794Y-115095410D01*
X128476793Y-115095413D01*
X128449500Y-115197273D01*
X128449500Y-115302727D01*
X128476793Y-115404587D01*
X128529520Y-115495913D01*
X128604087Y-115570480D01*
X128695413Y-115623207D01*
X128797273Y-115650500D01*
X128797275Y-115650500D01*
X128902725Y-115650500D01*
X128902727Y-115650500D01*
X129004587Y-115623207D01*
X129095913Y-115570480D01*
X129170480Y-115495913D01*
X129223207Y-115404587D01*
X129250500Y-115302727D01*
X129250500Y-115197273D01*
X129233123Y-115132420D01*
X142355974Y-115132420D01*
X142355974Y-115132421D01*
X142680000Y-115456446D01*
X142680001Y-115456446D01*
X143004024Y-115132421D01*
X143004022Y-115132420D01*
X143355974Y-115132420D01*
X143355974Y-115132421D01*
X143680000Y-115456446D01*
X143680001Y-115456446D01*
X144004024Y-115132421D01*
X144004022Y-115132420D01*
X144355974Y-115132420D01*
X144355974Y-115132421D01*
X144680000Y-115456446D01*
X144680001Y-115456446D01*
X145004024Y-115132421D01*
X144898767Y-115088822D01*
X144898759Y-115088820D01*
X144753872Y-115060000D01*
X144606128Y-115060000D01*
X144461240Y-115088820D01*
X144461228Y-115088823D01*
X144355974Y-115132420D01*
X144004022Y-115132420D01*
X143898767Y-115088822D01*
X143898759Y-115088820D01*
X143753872Y-115060000D01*
X143606128Y-115060000D01*
X143461240Y-115088820D01*
X143461228Y-115088823D01*
X143355974Y-115132420D01*
X143004022Y-115132420D01*
X142898767Y-115088822D01*
X142898759Y-115088820D01*
X142753872Y-115060000D01*
X142606128Y-115060000D01*
X142461240Y-115088820D01*
X142461228Y-115088823D01*
X142355974Y-115132420D01*
X129233123Y-115132420D01*
X129223207Y-115095413D01*
X129170480Y-115004087D01*
X129095913Y-114929520D01*
X129004587Y-114876793D01*
X129004586Y-114876792D01*
X129004582Y-114876791D01*
X129003047Y-114876380D01*
X129001898Y-114875679D01*
X128997080Y-114873684D01*
X128997391Y-114872932D01*
X128943388Y-114840012D01*
X128912863Y-114777163D01*
X128921161Y-114707788D01*
X128947464Y-114668928D01*
X128990480Y-114625913D01*
X129043207Y-114534587D01*
X129070500Y-114432727D01*
X129070500Y-114327273D01*
X129043207Y-114225413D01*
X128990480Y-114134087D01*
X128915913Y-114059520D01*
X128824587Y-114006793D01*
X128722727Y-113979500D01*
X128617273Y-113979500D01*
X128515413Y-114006793D01*
X128515410Y-114006794D01*
X128424085Y-114059521D01*
X128349521Y-114134085D01*
X128296794Y-114225410D01*
X128296793Y-114225413D01*
X128269500Y-114327273D01*
X126806607Y-114327273D01*
X126890515Y-114243365D01*
X126966281Y-114112135D01*
X127005500Y-113965766D01*
X127005500Y-113814234D01*
X126966281Y-113667865D01*
X126890515Y-113536635D01*
X126783365Y-113429485D01*
X126761997Y-113417148D01*
X126713783Y-113366579D01*
X126700000Y-113309762D01*
X126700000Y-112760000D01*
X127200000Y-112760000D01*
X127200000Y-113460000D01*
X127598492Y-113460000D01*
X127598495Y-113459999D01*
X127791681Y-113421572D01*
X127791693Y-113421569D01*
X127973671Y-113346192D01*
X127973684Y-113346185D01*
X128137462Y-113236751D01*
X128137466Y-113236748D01*
X128276748Y-113097466D01*
X128276751Y-113097462D01*
X128386185Y-112933684D01*
X128386192Y-112933671D01*
X128461569Y-112751692D01*
X128461569Y-112751690D01*
X128469862Y-112710000D01*
X127666988Y-112710000D01*
X127684205Y-112700060D01*
X127740060Y-112644205D01*
X127779556Y-112575796D01*
X127800000Y-112499496D01*
X127800000Y-112420504D01*
X127779556Y-112344204D01*
X127740060Y-112275795D01*
X127684205Y-112219940D01*
X127666988Y-112210000D01*
X128469862Y-112210000D01*
X128461569Y-112168309D01*
X128461569Y-112168307D01*
X128386192Y-111986328D01*
X128386185Y-111986315D01*
X128276751Y-111822537D01*
X128276748Y-111822533D01*
X128137466Y-111683251D01*
X128137462Y-111683248D01*
X128016238Y-111602248D01*
X127973684Y-111573814D01*
X127973671Y-111573807D01*
X127813042Y-111507273D01*
X143529500Y-111507273D01*
X143529500Y-111612727D01*
X143556793Y-111714587D01*
X143609520Y-111805913D01*
X143684087Y-111880480D01*
X143775413Y-111933207D01*
X143877273Y-111960500D01*
X143877275Y-111960500D01*
X143982725Y-111960500D01*
X143982727Y-111960500D01*
X144084587Y-111933207D01*
X144175913Y-111880480D01*
X144250480Y-111805913D01*
X144303207Y-111714587D01*
X144330500Y-111612727D01*
X144330500Y-111507273D01*
X144303207Y-111405413D01*
X144250480Y-111314087D01*
X144175913Y-111239520D01*
X144084587Y-111186793D01*
X143982727Y-111159500D01*
X143877273Y-111159500D01*
X143775413Y-111186793D01*
X143775410Y-111186794D01*
X143684085Y-111239521D01*
X143609521Y-111314085D01*
X143556794Y-111405410D01*
X143556793Y-111405413D01*
X143529500Y-111507273D01*
X127813042Y-111507273D01*
X127791693Y-111498430D01*
X127791681Y-111498427D01*
X127598495Y-111460000D01*
X127200000Y-111460000D01*
X127200000Y-112160000D01*
X126700000Y-112160000D01*
X126700000Y-111460000D01*
X126301504Y-111460000D01*
X126108318Y-111498427D01*
X126108306Y-111498430D01*
X125926328Y-111573807D01*
X125926315Y-111573814D01*
X125762537Y-111683248D01*
X125762533Y-111683251D01*
X125623251Y-111822533D01*
X125623248Y-111822537D01*
X125513814Y-111986315D01*
X125513807Y-111986328D01*
X125438430Y-112168307D01*
X125438430Y-112168309D01*
X125430138Y-112210000D01*
X124119862Y-112210000D01*
X124111569Y-112168309D01*
X124111569Y-112168307D01*
X124036192Y-111986328D01*
X124036185Y-111986315D01*
X123926751Y-111822537D01*
X123926748Y-111822533D01*
X123787466Y-111683251D01*
X123787462Y-111683248D01*
X123623684Y-111573814D01*
X123623671Y-111573807D01*
X123441693Y-111498430D01*
X123441681Y-111498427D01*
X123248495Y-111460000D01*
X123000000Y-111460000D01*
X123000000Y-112160000D01*
X122500000Y-112160000D01*
X122500000Y-111460000D01*
X122251504Y-111460000D01*
X122058318Y-111498427D01*
X122058306Y-111498430D01*
X121876328Y-111573807D01*
X121876315Y-111573814D01*
X121838391Y-111599155D01*
X121771713Y-111620033D01*
X121704333Y-111601548D01*
X121657643Y-111549570D01*
X121645500Y-111496053D01*
X121645500Y-109568543D01*
X122699499Y-109568543D01*
X122737947Y-109761829D01*
X122737950Y-109761839D01*
X122813364Y-109943907D01*
X122813371Y-109943920D01*
X122922860Y-110107781D01*
X122922863Y-110107785D01*
X123062214Y-110247136D01*
X123062218Y-110247139D01*
X123226079Y-110356628D01*
X123226092Y-110356635D01*
X123408160Y-110432049D01*
X123408165Y-110432051D01*
X123408169Y-110432051D01*
X123408170Y-110432052D01*
X123601456Y-110470500D01*
X123601459Y-110470500D01*
X123798543Y-110470500D01*
X123928582Y-110444632D01*
X123991835Y-110432051D01*
X124173914Y-110356632D01*
X124337782Y-110247139D01*
X124477139Y-110107782D01*
X124586632Y-109943914D01*
X124662051Y-109761835D01*
X124700500Y-109568543D01*
X125239499Y-109568543D01*
X125277947Y-109761829D01*
X125277950Y-109761839D01*
X125353364Y-109943907D01*
X125353371Y-109943920D01*
X125462860Y-110107781D01*
X125462863Y-110107785D01*
X125602214Y-110247136D01*
X125602218Y-110247139D01*
X125766079Y-110356628D01*
X125766092Y-110356635D01*
X125948160Y-110432049D01*
X125948165Y-110432051D01*
X125948169Y-110432051D01*
X125948170Y-110432052D01*
X126141456Y-110470500D01*
X126141459Y-110470500D01*
X126338543Y-110470500D01*
X126468582Y-110444632D01*
X126531835Y-110432051D01*
X126713914Y-110356632D01*
X126877782Y-110247139D01*
X127017139Y-110107782D01*
X127126632Y-109943914D01*
X127202051Y-109761835D01*
X127240500Y-109568541D01*
X127240500Y-109371459D01*
X127240500Y-109371456D01*
X127202052Y-109178170D01*
X127202051Y-109178169D01*
X127202051Y-109178165D01*
X127192284Y-109154586D01*
X127126632Y-108996085D01*
X127094017Y-108947273D01*
X139909500Y-108947273D01*
X139909500Y-109052726D01*
X139936793Y-109154586D01*
X139936794Y-109154589D01*
X139938356Y-109157294D01*
X139989520Y-109245913D01*
X140064087Y-109320480D01*
X140155413Y-109373207D01*
X140257273Y-109400500D01*
X140257275Y-109400500D01*
X140362725Y-109400500D01*
X140362727Y-109400500D01*
X140464587Y-109373207D01*
X140555913Y-109320480D01*
X140630480Y-109245913D01*
X140683207Y-109154587D01*
X140710500Y-109052727D01*
X140710500Y-108947273D01*
X140705141Y-108927273D01*
X145079500Y-108927273D01*
X145079500Y-109032727D01*
X145106793Y-109134587D01*
X145159520Y-109225913D01*
X145234087Y-109300480D01*
X145325413Y-109353207D01*
X145427273Y-109380500D01*
X145427275Y-109380500D01*
X145532725Y-109380500D01*
X145532727Y-109380500D01*
X145634587Y-109353207D01*
X145725913Y-109300480D01*
X145800480Y-109225913D01*
X145853207Y-109134587D01*
X145880500Y-109032727D01*
X145880500Y-108927273D01*
X145853207Y-108825413D01*
X145800480Y-108734087D01*
X145725913Y-108659520D01*
X145634587Y-108606793D01*
X145532727Y-108579500D01*
X145427273Y-108579500D01*
X145325413Y-108606793D01*
X145325410Y-108606794D01*
X145234085Y-108659521D01*
X145159521Y-108734085D01*
X145106794Y-108825410D01*
X145106793Y-108825413D01*
X145079500Y-108927273D01*
X140705141Y-108927273D01*
X140683207Y-108845413D01*
X140630480Y-108754087D01*
X140555913Y-108679520D01*
X140464587Y-108626793D01*
X140362727Y-108599500D01*
X140257273Y-108599500D01*
X140155413Y-108626793D01*
X140155410Y-108626794D01*
X140064085Y-108679521D01*
X139989521Y-108754085D01*
X139936794Y-108845410D01*
X139936793Y-108845413D01*
X139909500Y-108947273D01*
X127094017Y-108947273D01*
X127017139Y-108832218D01*
X127017136Y-108832214D01*
X126877785Y-108692863D01*
X126877781Y-108692860D01*
X126713920Y-108583371D01*
X126713907Y-108583364D01*
X126531839Y-108507950D01*
X126531829Y-108507947D01*
X126338543Y-108469500D01*
X126338541Y-108469500D01*
X126141459Y-108469500D01*
X126141457Y-108469500D01*
X125948170Y-108507947D01*
X125948160Y-108507950D01*
X125766092Y-108583364D01*
X125766079Y-108583371D01*
X125602218Y-108692860D01*
X125602214Y-108692863D01*
X125462863Y-108832214D01*
X125462860Y-108832218D01*
X125353371Y-108996079D01*
X125353364Y-108996092D01*
X125277950Y-109178160D01*
X125277947Y-109178170D01*
X125239500Y-109371456D01*
X125239500Y-109371459D01*
X125239500Y-109568541D01*
X125239500Y-109568543D01*
X125239499Y-109568543D01*
X124700500Y-109568543D01*
X124700500Y-109568541D01*
X124700500Y-109371459D01*
X124700500Y-109371456D01*
X124662052Y-109178170D01*
X124662051Y-109178169D01*
X124662051Y-109178165D01*
X124652284Y-109154586D01*
X124586635Y-108996092D01*
X124586628Y-108996079D01*
X124477139Y-108832218D01*
X124477136Y-108832214D01*
X124337785Y-108692863D01*
X124337781Y-108692860D01*
X124173920Y-108583371D01*
X124173907Y-108583364D01*
X123991839Y-108507950D01*
X123991829Y-108507947D01*
X123798543Y-108469500D01*
X123798541Y-108469500D01*
X123601459Y-108469500D01*
X123601457Y-108469500D01*
X123408170Y-108507947D01*
X123408160Y-108507950D01*
X123226092Y-108583364D01*
X123226079Y-108583371D01*
X123062218Y-108692860D01*
X123062214Y-108692863D01*
X122922863Y-108832214D01*
X122922860Y-108832218D01*
X122813371Y-108996079D01*
X122813364Y-108996092D01*
X122737950Y-109178160D01*
X122737947Y-109178170D01*
X122699500Y-109371456D01*
X122699500Y-109371459D01*
X122699500Y-109568541D01*
X122699500Y-109568543D01*
X122699499Y-109568543D01*
X121645500Y-109568543D01*
X121645500Y-107028543D01*
X122699499Y-107028543D01*
X122737947Y-107221829D01*
X122737950Y-107221839D01*
X122813364Y-107403907D01*
X122813371Y-107403920D01*
X122922860Y-107567781D01*
X122922863Y-107567785D01*
X123062214Y-107707136D01*
X123062218Y-107707139D01*
X123226079Y-107816628D01*
X123226092Y-107816635D01*
X123408160Y-107892049D01*
X123408165Y-107892051D01*
X123408169Y-107892051D01*
X123408170Y-107892052D01*
X123601456Y-107930500D01*
X123601459Y-107930500D01*
X123798543Y-107930500D01*
X123928582Y-107904632D01*
X123991835Y-107892051D01*
X124173914Y-107816632D01*
X124337782Y-107707139D01*
X124477139Y-107567782D01*
X124586632Y-107403914D01*
X124662051Y-107221835D01*
X124683754Y-107112727D01*
X124700500Y-107028543D01*
X125239499Y-107028543D01*
X125277947Y-107221829D01*
X125277950Y-107221839D01*
X125353364Y-107403907D01*
X125353371Y-107403920D01*
X125462860Y-107567781D01*
X125462863Y-107567785D01*
X125602214Y-107707136D01*
X125602218Y-107707139D01*
X125766079Y-107816628D01*
X125766092Y-107816635D01*
X125948160Y-107892049D01*
X125948165Y-107892051D01*
X125948169Y-107892051D01*
X125948170Y-107892052D01*
X126141456Y-107930500D01*
X126141459Y-107930500D01*
X126338543Y-107930500D01*
X126468582Y-107904632D01*
X126531835Y-107892051D01*
X126713914Y-107816632D01*
X126877782Y-107707139D01*
X127017139Y-107567782D01*
X127126632Y-107403914D01*
X127202051Y-107221835D01*
X127223754Y-107112727D01*
X127240500Y-107028543D01*
X127240500Y-107007273D01*
X130239500Y-107007273D01*
X130239500Y-107112727D01*
X130266793Y-107214587D01*
X130319520Y-107305913D01*
X130394087Y-107380480D01*
X130485413Y-107433207D01*
X130587273Y-107460500D01*
X130587275Y-107460500D01*
X130692725Y-107460500D01*
X130692727Y-107460500D01*
X130794587Y-107433207D01*
X130885913Y-107380480D01*
X130960480Y-107305913D01*
X131013207Y-107214587D01*
X131040500Y-107112727D01*
X131040500Y-107007273D01*
X131013207Y-106905413D01*
X130960480Y-106814087D01*
X130885913Y-106739520D01*
X130794587Y-106686793D01*
X130692727Y-106659500D01*
X130587273Y-106659500D01*
X130485413Y-106686793D01*
X130485410Y-106686794D01*
X130394085Y-106739521D01*
X130319521Y-106814085D01*
X130266794Y-106905410D01*
X130266793Y-106905413D01*
X130239500Y-107007273D01*
X127240500Y-107007273D01*
X127240500Y-106831456D01*
X127202052Y-106638170D01*
X127202051Y-106638169D01*
X127202051Y-106638165D01*
X127195999Y-106623553D01*
X127126635Y-106456092D01*
X127126628Y-106456079D01*
X127017139Y-106292218D01*
X127017136Y-106292214D01*
X126877785Y-106152863D01*
X126877781Y-106152860D01*
X126713920Y-106043371D01*
X126713907Y-106043364D01*
X126531839Y-105967950D01*
X126531829Y-105967947D01*
X126338543Y-105929500D01*
X126338541Y-105929500D01*
X126141459Y-105929500D01*
X126141457Y-105929500D01*
X125948170Y-105967947D01*
X125948160Y-105967950D01*
X125766092Y-106043364D01*
X125766079Y-106043371D01*
X125602218Y-106152860D01*
X125602214Y-106152863D01*
X125462863Y-106292214D01*
X125462860Y-106292218D01*
X125353371Y-106456079D01*
X125353364Y-106456092D01*
X125277950Y-106638160D01*
X125277947Y-106638170D01*
X125239500Y-106831456D01*
X125239500Y-106831459D01*
X125239500Y-107028541D01*
X125239500Y-107028543D01*
X125239499Y-107028543D01*
X124700500Y-107028543D01*
X124700500Y-106831456D01*
X124662052Y-106638170D01*
X124662051Y-106638169D01*
X124662051Y-106638165D01*
X124655999Y-106623553D01*
X124586635Y-106456092D01*
X124586628Y-106456079D01*
X124477139Y-106292218D01*
X124477136Y-106292214D01*
X124337785Y-106152863D01*
X124337781Y-106152860D01*
X124173920Y-106043371D01*
X124173907Y-106043364D01*
X123991839Y-105967950D01*
X123991829Y-105967947D01*
X123798543Y-105929500D01*
X123798541Y-105929500D01*
X123601459Y-105929500D01*
X123601457Y-105929500D01*
X123408170Y-105967947D01*
X123408160Y-105967950D01*
X123226092Y-106043364D01*
X123226079Y-106043371D01*
X123062218Y-106152860D01*
X123062214Y-106152863D01*
X122922863Y-106292214D01*
X122922860Y-106292218D01*
X122813371Y-106456079D01*
X122813364Y-106456092D01*
X122737950Y-106638160D01*
X122737947Y-106638170D01*
X122699500Y-106831456D01*
X122699500Y-106831459D01*
X122699500Y-107028541D01*
X122699500Y-107028543D01*
X122699499Y-107028543D01*
X121645500Y-107028543D01*
X121645500Y-104488543D01*
X122699499Y-104488543D01*
X122737947Y-104681829D01*
X122737950Y-104681839D01*
X122813364Y-104863907D01*
X122813371Y-104863920D01*
X122922860Y-105027781D01*
X122922863Y-105027785D01*
X123062214Y-105167136D01*
X123062218Y-105167139D01*
X123226079Y-105276628D01*
X123226092Y-105276635D01*
X123408160Y-105352049D01*
X123408165Y-105352051D01*
X123408169Y-105352051D01*
X123408170Y-105352052D01*
X123601456Y-105390500D01*
X123601459Y-105390500D01*
X123798543Y-105390500D01*
X123928582Y-105364632D01*
X123991835Y-105352051D01*
X124173914Y-105276632D01*
X124337782Y-105167139D01*
X124477139Y-105027782D01*
X124586632Y-104863914D01*
X124662051Y-104681835D01*
X124700500Y-104488543D01*
X125239499Y-104488543D01*
X125277947Y-104681829D01*
X125277950Y-104681839D01*
X125353364Y-104863907D01*
X125353371Y-104863920D01*
X125462860Y-105027781D01*
X125462863Y-105027785D01*
X125602214Y-105167136D01*
X125602218Y-105167139D01*
X125766079Y-105276628D01*
X125766092Y-105276635D01*
X125948160Y-105352049D01*
X125948165Y-105352051D01*
X125948169Y-105352051D01*
X125948170Y-105352052D01*
X126141456Y-105390500D01*
X126141459Y-105390500D01*
X126338543Y-105390500D01*
X126468582Y-105364632D01*
X126531835Y-105352051D01*
X126713914Y-105276632D01*
X126877782Y-105167139D01*
X127017139Y-105027782D01*
X127126632Y-104863914D01*
X127202051Y-104681835D01*
X127240500Y-104488541D01*
X127240500Y-104291459D01*
X127240500Y-104291456D01*
X127202052Y-104098170D01*
X127202051Y-104098169D01*
X127202051Y-104098165D01*
X127170804Y-104022727D01*
X127126635Y-103916092D01*
X127126628Y-103916079D01*
X127017139Y-103752218D01*
X127017136Y-103752214D01*
X126877785Y-103612863D01*
X126877781Y-103612860D01*
X126713920Y-103503371D01*
X126713907Y-103503364D01*
X126531839Y-103427950D01*
X126531829Y-103427947D01*
X126338543Y-103389500D01*
X126338541Y-103389500D01*
X126141459Y-103389500D01*
X126141457Y-103389500D01*
X125948170Y-103427947D01*
X125948160Y-103427950D01*
X125766092Y-103503364D01*
X125766079Y-103503371D01*
X125602218Y-103612860D01*
X125602214Y-103612863D01*
X125462863Y-103752214D01*
X125462860Y-103752218D01*
X125353371Y-103916079D01*
X125353364Y-103916092D01*
X125277950Y-104098160D01*
X125277947Y-104098170D01*
X125239500Y-104291456D01*
X125239500Y-104291459D01*
X125239500Y-104488541D01*
X125239500Y-104488543D01*
X125239499Y-104488543D01*
X124700500Y-104488543D01*
X124700500Y-104488541D01*
X124700500Y-104291459D01*
X124700500Y-104291456D01*
X124662052Y-104098170D01*
X124662051Y-104098169D01*
X124662051Y-104098165D01*
X124630804Y-104022727D01*
X124586635Y-103916092D01*
X124586628Y-103916079D01*
X124477139Y-103752218D01*
X124477136Y-103752214D01*
X124337785Y-103612863D01*
X124337781Y-103612860D01*
X124173920Y-103503371D01*
X124173907Y-103503364D01*
X123991839Y-103427950D01*
X123991829Y-103427947D01*
X123798543Y-103389500D01*
X123798541Y-103389500D01*
X123601459Y-103389500D01*
X123601457Y-103389500D01*
X123408170Y-103427947D01*
X123408160Y-103427950D01*
X123226092Y-103503364D01*
X123226079Y-103503371D01*
X123062218Y-103612860D01*
X123062214Y-103612863D01*
X122922863Y-103752214D01*
X122922860Y-103752218D01*
X122813371Y-103916079D01*
X122813364Y-103916092D01*
X122737950Y-104098160D01*
X122737947Y-104098170D01*
X122699500Y-104291456D01*
X122699500Y-104291459D01*
X122699500Y-104488541D01*
X122699500Y-104488543D01*
X122699499Y-104488543D01*
X121645500Y-104488543D01*
X121645500Y-103037273D01*
X132699500Y-103037273D01*
X132699500Y-103142727D01*
X132726793Y-103244587D01*
X132779520Y-103335913D01*
X132854087Y-103410480D01*
X132922741Y-103450117D01*
X132970956Y-103500685D01*
X132984178Y-103569292D01*
X132958210Y-103634156D01*
X132948422Y-103645185D01*
X132869520Y-103724087D01*
X132816794Y-103815410D01*
X132816793Y-103815413D01*
X132789500Y-103917273D01*
X132789500Y-104022727D01*
X132816793Y-104124587D01*
X132869520Y-104215913D01*
X132944087Y-104290480D01*
X132968364Y-104304496D01*
X133016578Y-104355063D01*
X133029800Y-104423670D01*
X133003832Y-104488535D01*
X132994044Y-104499563D01*
X132919520Y-104574087D01*
X132866794Y-104665410D01*
X132866793Y-104665413D01*
X132839500Y-104767273D01*
X132839500Y-104872727D01*
X132866793Y-104974587D01*
X132919520Y-105065913D01*
X132994087Y-105140480D01*
X133074702Y-105187023D01*
X133092452Y-105197271D01*
X133091003Y-105199780D01*
X133134532Y-105234831D01*
X133156621Y-105301117D01*
X133139367Y-105368823D01*
X133094703Y-105412975D01*
X133014086Y-105459520D01*
X132939521Y-105534085D01*
X132886794Y-105625410D01*
X132886793Y-105625413D01*
X132859500Y-105727273D01*
X132859500Y-105832727D01*
X132886793Y-105934587D01*
X132939520Y-106025913D01*
X133014087Y-106100480D01*
X133105413Y-106153207D01*
X133207273Y-106180500D01*
X133207275Y-106180500D01*
X133312725Y-106180500D01*
X133312727Y-106180500D01*
X133414587Y-106153207D01*
X133504113Y-106101519D01*
X151760000Y-106101519D01*
X151760000Y-106438480D01*
X151797725Y-106773297D01*
X151797727Y-106773313D01*
X151872705Y-107101814D01*
X151872709Y-107101826D01*
X151983995Y-107419862D01*
X152130191Y-107723440D01*
X152309461Y-108008747D01*
X152468397Y-108208048D01*
X153716320Y-106960125D01*
X153806554Y-107084320D01*
X153945680Y-107223446D01*
X154069873Y-107313678D01*
X152821950Y-108561601D01*
X153021252Y-108720538D01*
X153306559Y-108899808D01*
X153610137Y-109046004D01*
X153928173Y-109157290D01*
X153928185Y-109157294D01*
X154256686Y-109232272D01*
X154256702Y-109232274D01*
X154591519Y-109269999D01*
X154591521Y-109270000D01*
X154928479Y-109270000D01*
X154928480Y-109269999D01*
X155263297Y-109232274D01*
X155263313Y-109232272D01*
X155591814Y-109157294D01*
X155591826Y-109157290D01*
X155909862Y-109046004D01*
X156213440Y-108899808D01*
X156498747Y-108720538D01*
X156698048Y-108561600D01*
X155450126Y-107313678D01*
X155574320Y-107223446D01*
X155713446Y-107084320D01*
X155803678Y-106960126D01*
X157051600Y-108208048D01*
X157210538Y-108008747D01*
X157389808Y-107723440D01*
X157536004Y-107419862D01*
X157647290Y-107101826D01*
X157647294Y-107101814D01*
X157722272Y-106773313D01*
X157722274Y-106773297D01*
X157759999Y-106438480D01*
X157760000Y-106438478D01*
X157760000Y-106101521D01*
X157759999Y-106101519D01*
X157722274Y-105766702D01*
X157722272Y-105766686D01*
X157647294Y-105438185D01*
X157647290Y-105438173D01*
X157536004Y-105120137D01*
X157389808Y-104816559D01*
X157210538Y-104531252D01*
X157051601Y-104331950D01*
X155803678Y-105579873D01*
X155713446Y-105455680D01*
X155574320Y-105316554D01*
X155450124Y-105226320D01*
X156698048Y-103978397D01*
X156498747Y-103819461D01*
X156213440Y-103640191D01*
X155909862Y-103493995D01*
X155591826Y-103382709D01*
X155591814Y-103382705D01*
X155263313Y-103307727D01*
X155263297Y-103307725D01*
X154928480Y-103270000D01*
X154591519Y-103270000D01*
X154256702Y-103307725D01*
X154256686Y-103307727D01*
X153928185Y-103382705D01*
X153928173Y-103382709D01*
X153610137Y-103493995D01*
X153306559Y-103640191D01*
X153021252Y-103819461D01*
X152821950Y-103978397D01*
X154069873Y-105226320D01*
X153945680Y-105316554D01*
X153806554Y-105455680D01*
X153716320Y-105579873D01*
X152468397Y-104331950D01*
X152309461Y-104531252D01*
X152130191Y-104816559D01*
X151983995Y-105120137D01*
X151872709Y-105438173D01*
X151872705Y-105438185D01*
X151797727Y-105766686D01*
X151797725Y-105766702D01*
X151760000Y-106101519D01*
X133504113Y-106101519D01*
X133505913Y-106100480D01*
X133580480Y-106025913D01*
X133633207Y-105934587D01*
X133660500Y-105832727D01*
X133660500Y-105727273D01*
X133633207Y-105625413D01*
X133580480Y-105534087D01*
X133505913Y-105459520D01*
X133414587Y-105406793D01*
X133407548Y-105402729D01*
X133408994Y-105400223D01*
X133365451Y-105365145D01*
X133343377Y-105298854D01*
X133360646Y-105231152D01*
X133405295Y-105187024D01*
X133485913Y-105140480D01*
X133560480Y-105065913D01*
X133613207Y-104974587D01*
X133640500Y-104872727D01*
X133640500Y-104767273D01*
X133613207Y-104665413D01*
X133560480Y-104574087D01*
X133485913Y-104499520D01*
X133461635Y-104485503D01*
X133413420Y-104434935D01*
X133400199Y-104366328D01*
X133426168Y-104301463D01*
X133435940Y-104290452D01*
X133510480Y-104215913D01*
X133563207Y-104124587D01*
X133590500Y-104022727D01*
X133590500Y-103917273D01*
X133563207Y-103815413D01*
X133510480Y-103724087D01*
X133435913Y-103649520D01*
X133409302Y-103634156D01*
X133367258Y-103609881D01*
X133319043Y-103559314D01*
X133305821Y-103490707D01*
X133331789Y-103425842D01*
X133341578Y-103414813D01*
X133345908Y-103410482D01*
X133345913Y-103410480D01*
X133420480Y-103335913D01*
X133473207Y-103244587D01*
X133500500Y-103142727D01*
X133500500Y-103037273D01*
X141759500Y-103037273D01*
X141759500Y-103142727D01*
X141786793Y-103244587D01*
X141839520Y-103335913D01*
X141914087Y-103410480D01*
X142005413Y-103463207D01*
X142107273Y-103490500D01*
X142107275Y-103490500D01*
X142212725Y-103490500D01*
X142212727Y-103490500D01*
X142314587Y-103463207D01*
X142405913Y-103410480D01*
X142480480Y-103335913D01*
X142533207Y-103244587D01*
X142560500Y-103142727D01*
X142560500Y-103037273D01*
X142547103Y-102987273D01*
X143339500Y-102987273D01*
X143339500Y-103092727D01*
X143366793Y-103194587D01*
X143419520Y-103285913D01*
X143494087Y-103360480D01*
X143585413Y-103413207D01*
X143687273Y-103440500D01*
X143687275Y-103440500D01*
X143792725Y-103440500D01*
X143792727Y-103440500D01*
X143894587Y-103413207D01*
X143985913Y-103360480D01*
X144060480Y-103285913D01*
X144113207Y-103194587D01*
X144140500Y-103092727D01*
X144140500Y-103037273D01*
X148619500Y-103037273D01*
X148619500Y-103142727D01*
X148646793Y-103244587D01*
X148699520Y-103335913D01*
X148774087Y-103410480D01*
X148865413Y-103463207D01*
X148967273Y-103490500D01*
X148967275Y-103490500D01*
X149072725Y-103490500D01*
X149072727Y-103490500D01*
X149174587Y-103463207D01*
X149265913Y-103410480D01*
X149340480Y-103335913D01*
X149340482Y-103335908D01*
X149345426Y-103329467D01*
X149347729Y-103331234D01*
X149388163Y-103292670D01*
X149456768Y-103279437D01*
X149521637Y-103305395D01*
X149543325Y-103330424D01*
X149544574Y-103329467D01*
X149549519Y-103335912D01*
X149549520Y-103335913D01*
X149624087Y-103410480D01*
X149715413Y-103463207D01*
X149817273Y-103490500D01*
X149817275Y-103490500D01*
X149922725Y-103490500D01*
X149922727Y-103490500D01*
X150024587Y-103463207D01*
X150115913Y-103410480D01*
X150190480Y-103335913D01*
X150243207Y-103244587D01*
X150245225Y-103237052D01*
X150281589Y-103177394D01*
X150344436Y-103146864D01*
X150413812Y-103155158D01*
X150467690Y-103199643D01*
X150484773Y-103237051D01*
X150486793Y-103244587D01*
X150539520Y-103335913D01*
X150614087Y-103410480D01*
X150705413Y-103463207D01*
X150807273Y-103490500D01*
X150807275Y-103490500D01*
X150912725Y-103490500D01*
X150912727Y-103490500D01*
X151014587Y-103463207D01*
X151105913Y-103410480D01*
X151180480Y-103335913D01*
X151233207Y-103244587D01*
X151260500Y-103142727D01*
X151260500Y-103037273D01*
X151233207Y-102935413D01*
X151180480Y-102844087D01*
X151105913Y-102769520D01*
X151019312Y-102719521D01*
X151014589Y-102716794D01*
X151014588Y-102716793D01*
X151014587Y-102716793D01*
X150912727Y-102689500D01*
X150807273Y-102689500D01*
X150705413Y-102716793D01*
X150705410Y-102716794D01*
X150614085Y-102769521D01*
X150539521Y-102844085D01*
X150486794Y-102935410D01*
X150486793Y-102935412D01*
X150486793Y-102935413D01*
X150484773Y-102942949D01*
X150448409Y-103002607D01*
X150385562Y-103033135D01*
X150316186Y-103024840D01*
X150262309Y-102980354D01*
X150245226Y-102942950D01*
X150243207Y-102935413D01*
X150190480Y-102844087D01*
X150115913Y-102769520D01*
X150029312Y-102719521D01*
X150024589Y-102716794D01*
X150024588Y-102716793D01*
X150024587Y-102716793D01*
X149922727Y-102689500D01*
X149817273Y-102689500D01*
X149715413Y-102716793D01*
X149715410Y-102716794D01*
X149624085Y-102769521D01*
X149549519Y-102844087D01*
X149544574Y-102850533D01*
X149542273Y-102848767D01*
X149501814Y-102887341D01*
X149433206Y-102900560D01*
X149368343Y-102874588D01*
X149346670Y-102849577D01*
X149345426Y-102850533D01*
X149340480Y-102844087D01*
X149265914Y-102769521D01*
X149265913Y-102769520D01*
X149179312Y-102719521D01*
X149174589Y-102716794D01*
X149174588Y-102716793D01*
X149174587Y-102716793D01*
X149072727Y-102689500D01*
X148967273Y-102689500D01*
X148865413Y-102716793D01*
X148865410Y-102716794D01*
X148774085Y-102769521D01*
X148699521Y-102844085D01*
X148646794Y-102935410D01*
X148646793Y-102935413D01*
X148619500Y-103037273D01*
X144140500Y-103037273D01*
X144140500Y-102987273D01*
X144113207Y-102885413D01*
X144060480Y-102794087D01*
X143985913Y-102719520D01*
X143894587Y-102666793D01*
X143792727Y-102639500D01*
X143687273Y-102639500D01*
X143585413Y-102666793D01*
X143585410Y-102666794D01*
X143494085Y-102719521D01*
X143419521Y-102794085D01*
X143366794Y-102885410D01*
X143366793Y-102885413D01*
X143339500Y-102987273D01*
X142547103Y-102987273D01*
X142533207Y-102935413D01*
X142480480Y-102844087D01*
X142405913Y-102769520D01*
X142319312Y-102719521D01*
X142314589Y-102716794D01*
X142314588Y-102716793D01*
X142314587Y-102716793D01*
X142212727Y-102689500D01*
X142107273Y-102689500D01*
X142005413Y-102716793D01*
X142005410Y-102716794D01*
X141914085Y-102769521D01*
X141839521Y-102844085D01*
X141786794Y-102935410D01*
X141786793Y-102935413D01*
X141759500Y-103037273D01*
X133500500Y-103037273D01*
X133473207Y-102935413D01*
X133420480Y-102844087D01*
X133345913Y-102769520D01*
X133259312Y-102719521D01*
X133254589Y-102716794D01*
X133254588Y-102716793D01*
X133254587Y-102716793D01*
X133152727Y-102689500D01*
X133047273Y-102689500D01*
X132945413Y-102716793D01*
X132945410Y-102716794D01*
X132854085Y-102769521D01*
X132779521Y-102844085D01*
X132726794Y-102935410D01*
X132726793Y-102935413D01*
X132699500Y-103037273D01*
X121645500Y-103037273D01*
X121645500Y-101948543D01*
X122699499Y-101948543D01*
X122737947Y-102141829D01*
X122737950Y-102141839D01*
X122813364Y-102323907D01*
X122813371Y-102323920D01*
X122922860Y-102487781D01*
X122922863Y-102487785D01*
X123062214Y-102627136D01*
X123062218Y-102627139D01*
X123226079Y-102736628D01*
X123226092Y-102736635D01*
X123408160Y-102812049D01*
X123408165Y-102812051D01*
X123408169Y-102812051D01*
X123408170Y-102812052D01*
X123601456Y-102850500D01*
X123601459Y-102850500D01*
X123798543Y-102850500D01*
X123928582Y-102824632D01*
X123991835Y-102812051D01*
X124173914Y-102736632D01*
X124337782Y-102627139D01*
X124477139Y-102487782D01*
X124586632Y-102323914D01*
X124662051Y-102141835D01*
X124674632Y-102078582D01*
X124700500Y-101948543D01*
X125239499Y-101948543D01*
X125277947Y-102141829D01*
X125277950Y-102141839D01*
X125353364Y-102323907D01*
X125353371Y-102323920D01*
X125462860Y-102487781D01*
X125462863Y-102487785D01*
X125602214Y-102627136D01*
X125602218Y-102627139D01*
X125766079Y-102736628D01*
X125766092Y-102736635D01*
X125948160Y-102812049D01*
X125948165Y-102812051D01*
X125948169Y-102812051D01*
X125948170Y-102812052D01*
X126141456Y-102850500D01*
X126141459Y-102850500D01*
X126338543Y-102850500D01*
X126468582Y-102824632D01*
X126531835Y-102812051D01*
X126713914Y-102736632D01*
X126877782Y-102627139D01*
X127017139Y-102487782D01*
X127126632Y-102323914D01*
X127202051Y-102141835D01*
X127214632Y-102078582D01*
X127240500Y-101948543D01*
X127240500Y-101751456D01*
X127205069Y-101573338D01*
X127202051Y-101558165D01*
X127201682Y-101557273D01*
X129519500Y-101557273D01*
X129519500Y-101662727D01*
X129546793Y-101764587D01*
X129599520Y-101855913D01*
X129674087Y-101930480D01*
X129765413Y-101983207D01*
X129867273Y-102010500D01*
X129867275Y-102010500D01*
X129972725Y-102010500D01*
X129972727Y-102010500D01*
X130074587Y-101983207D01*
X130165913Y-101930480D01*
X130240480Y-101855913D01*
X130293207Y-101764587D01*
X130320500Y-101662727D01*
X130320500Y-101557273D01*
X130293207Y-101455413D01*
X130240480Y-101364087D01*
X130183666Y-101307273D01*
X148619500Y-101307273D01*
X148619500Y-101412727D01*
X148646793Y-101514587D01*
X148699520Y-101605913D01*
X148774087Y-101680480D01*
X148865413Y-101733207D01*
X148967273Y-101760500D01*
X148967275Y-101760500D01*
X149072725Y-101760500D01*
X149072727Y-101760500D01*
X149174587Y-101733207D01*
X149265913Y-101680480D01*
X149340480Y-101605913D01*
X149340482Y-101605908D01*
X149345426Y-101599467D01*
X149347729Y-101601234D01*
X149388163Y-101562670D01*
X149456768Y-101549437D01*
X149521637Y-101575395D01*
X149543325Y-101600424D01*
X149544574Y-101599467D01*
X149549519Y-101605912D01*
X149549520Y-101605913D01*
X149624087Y-101680480D01*
X149715413Y-101733207D01*
X149817273Y-101760500D01*
X149817275Y-101760500D01*
X149922725Y-101760500D01*
X149922727Y-101760500D01*
X150024587Y-101733207D01*
X150115913Y-101680480D01*
X150190480Y-101605913D01*
X150243207Y-101514587D01*
X150248886Y-101493393D01*
X150285248Y-101433734D01*
X150348095Y-101403203D01*
X150417470Y-101411497D01*
X150471349Y-101455981D01*
X150488434Y-101493391D01*
X150496793Y-101524587D01*
X150549520Y-101615913D01*
X150624087Y-101690480D01*
X150715413Y-101743207D01*
X150817273Y-101770500D01*
X150817275Y-101770500D01*
X150922725Y-101770500D01*
X150922727Y-101770500D01*
X151024587Y-101743207D01*
X151115913Y-101690480D01*
X151190480Y-101615913D01*
X151243207Y-101524587D01*
X151270500Y-101422727D01*
X151270500Y-101317273D01*
X151243207Y-101215413D01*
X151190480Y-101124087D01*
X151115913Y-101049520D01*
X151060059Y-101017273D01*
X152619500Y-101017273D01*
X152619500Y-101122727D01*
X152646793Y-101224587D01*
X152699520Y-101315913D01*
X152774087Y-101390480D01*
X152865413Y-101443207D01*
X152967273Y-101470500D01*
X152967275Y-101470500D01*
X153072725Y-101470500D01*
X153072727Y-101470500D01*
X153174587Y-101443207D01*
X153265913Y-101390480D01*
X153340480Y-101315913D01*
X153393207Y-101224587D01*
X153420500Y-101122727D01*
X153420500Y-101017273D01*
X153393207Y-100915413D01*
X153340480Y-100824087D01*
X153265913Y-100749520D01*
X153174587Y-100696793D01*
X153072727Y-100669500D01*
X152967273Y-100669500D01*
X152865413Y-100696793D01*
X152865410Y-100696794D01*
X152774085Y-100749521D01*
X152699521Y-100824085D01*
X152646794Y-100915410D01*
X152646793Y-100915413D01*
X152619500Y-101017273D01*
X151060059Y-101017273D01*
X151024587Y-100996793D01*
X150922727Y-100969500D01*
X150817273Y-100969500D01*
X150715413Y-100996793D01*
X150715410Y-100996794D01*
X150624085Y-101049521D01*
X150549521Y-101124085D01*
X150496794Y-101215410D01*
X150496792Y-101215415D01*
X150491113Y-101236609D01*
X150454747Y-101296269D01*
X150391899Y-101326797D01*
X150322524Y-101318500D01*
X150268647Y-101274014D01*
X150251565Y-101236606D01*
X150243207Y-101205413D01*
X150190480Y-101114087D01*
X150115913Y-101039520D01*
X150024587Y-100986793D01*
X149922727Y-100959500D01*
X149817273Y-100959500D01*
X149715413Y-100986793D01*
X149715410Y-100986794D01*
X149624085Y-101039521D01*
X149549519Y-101114087D01*
X149544574Y-101120533D01*
X149542273Y-101118767D01*
X149501814Y-101157341D01*
X149433206Y-101170560D01*
X149368343Y-101144588D01*
X149346670Y-101119577D01*
X149345426Y-101120533D01*
X149340480Y-101114087D01*
X149265914Y-101039521D01*
X149265913Y-101039520D01*
X149174587Y-100986793D01*
X149072727Y-100959500D01*
X148967273Y-100959500D01*
X148865413Y-100986793D01*
X148865410Y-100986794D01*
X148774085Y-101039521D01*
X148699521Y-101114085D01*
X148646794Y-101205410D01*
X148646793Y-101205413D01*
X148619500Y-101307273D01*
X130183666Y-101307273D01*
X130165913Y-101289520D01*
X130074587Y-101236793D01*
X129972727Y-101209500D01*
X129867273Y-101209500D01*
X129765413Y-101236793D01*
X129765410Y-101236794D01*
X129674085Y-101289521D01*
X129599521Y-101364085D01*
X129546794Y-101455410D01*
X129546793Y-101455413D01*
X129519500Y-101557273D01*
X127201682Y-101557273D01*
X127198436Y-101549437D01*
X127126635Y-101376092D01*
X127126628Y-101376079D01*
X127017139Y-101212218D01*
X127017136Y-101212214D01*
X126877785Y-101072863D01*
X126877781Y-101072860D01*
X126713920Y-100963371D01*
X126713907Y-100963364D01*
X126531839Y-100887950D01*
X126531829Y-100887947D01*
X126338543Y-100849500D01*
X126338541Y-100849500D01*
X126141459Y-100849500D01*
X126141457Y-100849500D01*
X125948170Y-100887947D01*
X125948160Y-100887950D01*
X125766092Y-100963364D01*
X125766079Y-100963371D01*
X125602218Y-101072860D01*
X125602214Y-101072863D01*
X125462863Y-101212214D01*
X125462860Y-101212218D01*
X125353371Y-101376079D01*
X125353364Y-101376092D01*
X125277950Y-101558160D01*
X125277947Y-101558170D01*
X125239500Y-101751456D01*
X125239500Y-101751459D01*
X125239500Y-101948541D01*
X125239500Y-101948543D01*
X125239499Y-101948543D01*
X124700500Y-101948543D01*
X124700500Y-101751456D01*
X124662052Y-101558170D01*
X124662051Y-101558169D01*
X124662051Y-101558165D01*
X124658436Y-101549437D01*
X124586635Y-101376092D01*
X124586628Y-101376079D01*
X124477139Y-101212218D01*
X124477136Y-101212214D01*
X124337785Y-101072863D01*
X124337781Y-101072860D01*
X124173920Y-100963371D01*
X124173907Y-100963364D01*
X123991839Y-100887950D01*
X123991829Y-100887947D01*
X123798543Y-100849500D01*
X123798541Y-100849500D01*
X123601459Y-100849500D01*
X123601457Y-100849500D01*
X123408170Y-100887947D01*
X123408160Y-100887950D01*
X123226092Y-100963364D01*
X123226079Y-100963371D01*
X123062218Y-101072860D01*
X123062214Y-101072863D01*
X122922863Y-101212214D01*
X122922860Y-101212218D01*
X122813371Y-101376079D01*
X122813364Y-101376092D01*
X122737950Y-101558160D01*
X122737947Y-101558170D01*
X122699500Y-101751456D01*
X122699500Y-101751459D01*
X122699500Y-101948541D01*
X122699500Y-101948543D01*
X122699499Y-101948543D01*
X121645500Y-101948543D01*
X121645500Y-99408543D01*
X122699499Y-99408543D01*
X122737947Y-99601829D01*
X122737950Y-99601839D01*
X122813364Y-99783907D01*
X122813371Y-99783920D01*
X122922860Y-99947781D01*
X122922863Y-99947785D01*
X123062214Y-100087136D01*
X123062218Y-100087139D01*
X123226079Y-100196628D01*
X123226092Y-100196635D01*
X123408160Y-100272049D01*
X123408165Y-100272051D01*
X123408169Y-100272051D01*
X123408170Y-100272052D01*
X123601456Y-100310500D01*
X123601459Y-100310500D01*
X123798543Y-100310500D01*
X123928582Y-100284632D01*
X123991835Y-100272051D01*
X124173914Y-100196632D01*
X124337782Y-100087139D01*
X124477139Y-99947782D01*
X124586632Y-99783914D01*
X124662051Y-99601835D01*
X124688817Y-99467275D01*
X124700500Y-99408543D01*
X125239499Y-99408543D01*
X125277947Y-99601829D01*
X125277950Y-99601839D01*
X125353364Y-99783907D01*
X125353371Y-99783920D01*
X125462860Y-99947781D01*
X125462863Y-99947785D01*
X125602214Y-100087136D01*
X125602218Y-100087139D01*
X125766079Y-100196628D01*
X125766092Y-100196635D01*
X125948160Y-100272049D01*
X125948165Y-100272051D01*
X125948169Y-100272051D01*
X125948170Y-100272052D01*
X126141456Y-100310500D01*
X126141459Y-100310500D01*
X126338543Y-100310500D01*
X126468582Y-100284632D01*
X126531835Y-100272051D01*
X126713914Y-100196632D01*
X126877782Y-100087139D01*
X127017139Y-99947782D01*
X127126632Y-99783914D01*
X127195656Y-99617273D01*
X130849500Y-99617273D01*
X130849500Y-99722727D01*
X130865897Y-99783920D01*
X130876793Y-99824586D01*
X130876794Y-99824589D01*
X130929521Y-99915914D01*
X131009834Y-99996227D01*
X131007615Y-99998445D01*
X131040085Y-100042929D01*
X131044227Y-100112676D01*
X131011070Y-100172537D01*
X130949520Y-100234087D01*
X130896794Y-100325410D01*
X130896793Y-100325413D01*
X130869500Y-100427273D01*
X130869500Y-100532727D01*
X130896793Y-100634587D01*
X130949520Y-100725913D01*
X131024087Y-100800480D01*
X131115413Y-100853207D01*
X131217273Y-100880500D01*
X131217275Y-100880500D01*
X131322725Y-100880500D01*
X131322727Y-100880500D01*
X131424587Y-100853207D01*
X131515913Y-100800480D01*
X131590480Y-100725913D01*
X131643207Y-100634587D01*
X131670500Y-100532727D01*
X131670500Y-100427273D01*
X131643207Y-100325413D01*
X131590480Y-100234087D01*
X131515913Y-100159520D01*
X131510166Y-100153773D01*
X131512382Y-100151556D01*
X131479909Y-100107056D01*
X131475775Y-100037309D01*
X131508927Y-99977465D01*
X131570480Y-99915913D01*
X131623207Y-99824587D01*
X131650500Y-99722727D01*
X131650500Y-99617273D01*
X131623207Y-99515413D01*
X131570480Y-99424087D01*
X131495913Y-99349520D01*
X131404587Y-99296793D01*
X131302727Y-99269500D01*
X131197273Y-99269500D01*
X131095413Y-99296793D01*
X131095410Y-99296794D01*
X131004085Y-99349521D01*
X130929521Y-99424085D01*
X130876794Y-99515410D01*
X130876793Y-99515413D01*
X130849500Y-99617273D01*
X127195656Y-99617273D01*
X127202051Y-99601835D01*
X127240500Y-99408541D01*
X127240500Y-99211459D01*
X127240500Y-99211456D01*
X127202052Y-99018170D01*
X127202051Y-99018169D01*
X127202051Y-99018165D01*
X127133752Y-98853275D01*
X127126635Y-98836092D01*
X127126628Y-98836079D01*
X127017139Y-98672218D01*
X127017136Y-98672214D01*
X126877782Y-98532860D01*
X126863855Y-98523555D01*
X126718663Y-98426540D01*
X141499200Y-98426540D01*
X141499200Y-98573459D01*
X141527858Y-98717534D01*
X141527861Y-98717544D01*
X141584078Y-98853266D01*
X141584083Y-98853275D01*
X141665698Y-98975419D01*
X141665701Y-98975423D01*
X141769576Y-99079298D01*
X141769580Y-99079301D01*
X141891724Y-99160916D01*
X141891730Y-99160919D01*
X141891731Y-99160920D01*
X142027458Y-99217140D01*
X142171540Y-99245799D01*
X142171544Y-99245800D01*
X142171545Y-99245800D01*
X142318456Y-99245800D01*
X142318457Y-99245799D01*
X142462542Y-99217140D01*
X142598269Y-99160920D01*
X142720420Y-99079301D01*
X142824301Y-98975420D01*
X142905920Y-98853269D01*
X142962140Y-98717542D01*
X142990800Y-98573455D01*
X142990800Y-98426545D01*
X142990799Y-98426540D01*
X143529200Y-98426540D01*
X143529200Y-98573459D01*
X143557858Y-98717534D01*
X143557861Y-98717544D01*
X143614078Y-98853266D01*
X143614083Y-98853275D01*
X143695698Y-98975419D01*
X143695701Y-98975423D01*
X143799576Y-99079298D01*
X143799580Y-99079301D01*
X143921724Y-99160916D01*
X143921730Y-99160919D01*
X143921731Y-99160920D01*
X144057458Y-99217140D01*
X144201540Y-99245799D01*
X144201544Y-99245800D01*
X144201545Y-99245800D01*
X144348456Y-99245800D01*
X144348457Y-99245799D01*
X144492542Y-99217140D01*
X144628269Y-99160920D01*
X144750420Y-99079301D01*
X144854301Y-98975420D01*
X144935920Y-98853269D01*
X144992140Y-98717542D01*
X145012084Y-98617273D01*
X154529500Y-98617273D01*
X154529500Y-98722726D01*
X154556793Y-98824586D01*
X154556794Y-98824589D01*
X154609521Y-98915914D01*
X154684087Y-98990480D01*
X154690533Y-98995426D01*
X154688767Y-98997726D01*
X154727341Y-99038186D01*
X154740560Y-99106794D01*
X154714588Y-99171657D01*
X154689577Y-99193329D01*
X154690533Y-99194574D01*
X154684087Y-99199519D01*
X154609521Y-99274085D01*
X154556794Y-99365410D01*
X154556793Y-99365413D01*
X154529500Y-99467273D01*
X154529500Y-99572727D01*
X154556793Y-99674587D01*
X154609520Y-99765913D01*
X154684087Y-99840480D01*
X154775413Y-99893207D01*
X154877273Y-99920500D01*
X154877275Y-99920500D01*
X154982725Y-99920500D01*
X154982727Y-99920500D01*
X155084587Y-99893207D01*
X155175913Y-99840480D01*
X155250480Y-99765913D01*
X155303207Y-99674587D01*
X155330500Y-99572727D01*
X155330500Y-99467273D01*
X155303207Y-99365413D01*
X155250480Y-99274087D01*
X155175913Y-99199520D01*
X155175912Y-99199519D01*
X155169467Y-99194574D01*
X155171234Y-99192270D01*
X155132670Y-99151837D01*
X155119437Y-99083232D01*
X155145395Y-99018363D01*
X155170424Y-98996674D01*
X155169467Y-98995426D01*
X155175908Y-98990482D01*
X155175913Y-98990480D01*
X155250480Y-98915913D01*
X155303207Y-98824587D01*
X155330500Y-98722727D01*
X155330500Y-98617273D01*
X155303207Y-98515413D01*
X155250480Y-98424087D01*
X155175913Y-98349520D01*
X155084587Y-98296793D01*
X154982727Y-98269500D01*
X154877273Y-98269500D01*
X154775413Y-98296793D01*
X154775410Y-98296794D01*
X154684085Y-98349521D01*
X154609521Y-98424085D01*
X154556794Y-98515410D01*
X154556793Y-98515413D01*
X154529500Y-98617273D01*
X145012084Y-98617273D01*
X145020800Y-98573455D01*
X145020800Y-98426545D01*
X144992140Y-98282458D01*
X144935920Y-98146731D01*
X144935919Y-98146730D01*
X144935916Y-98146724D01*
X144854301Y-98024580D01*
X144854298Y-98024576D01*
X144750423Y-97920701D01*
X144750419Y-97920698D01*
X144628275Y-97839083D01*
X144628266Y-97839078D01*
X144492544Y-97782861D01*
X144492545Y-97782861D01*
X144492542Y-97782860D01*
X144492538Y-97782859D01*
X144492534Y-97782858D01*
X144348459Y-97754200D01*
X144348455Y-97754200D01*
X144201545Y-97754200D01*
X144201540Y-97754200D01*
X144057465Y-97782858D01*
X144057455Y-97782861D01*
X143921733Y-97839078D01*
X143921724Y-97839083D01*
X143799580Y-97920698D01*
X143799576Y-97920701D01*
X143695701Y-98024576D01*
X143695698Y-98024580D01*
X143614083Y-98146724D01*
X143614078Y-98146733D01*
X143557861Y-98282455D01*
X143557858Y-98282465D01*
X143529200Y-98426540D01*
X142990799Y-98426540D01*
X142962140Y-98282458D01*
X142905920Y-98146731D01*
X142905919Y-98146730D01*
X142905916Y-98146724D01*
X142824301Y-98024580D01*
X142824298Y-98024576D01*
X142720423Y-97920701D01*
X142720419Y-97920698D01*
X142598275Y-97839083D01*
X142598266Y-97839078D01*
X142462544Y-97782861D01*
X142462545Y-97782861D01*
X142462542Y-97782860D01*
X142462538Y-97782859D01*
X142462534Y-97782858D01*
X142318459Y-97754200D01*
X142318455Y-97754200D01*
X142171545Y-97754200D01*
X142171540Y-97754200D01*
X142027465Y-97782858D01*
X142027455Y-97782861D01*
X141891733Y-97839078D01*
X141891724Y-97839083D01*
X141769580Y-97920698D01*
X141769576Y-97920701D01*
X141665701Y-98024576D01*
X141665698Y-98024580D01*
X141584083Y-98146724D01*
X141584078Y-98146733D01*
X141527861Y-98282455D01*
X141527858Y-98282465D01*
X141499200Y-98426540D01*
X126718663Y-98426540D01*
X126713920Y-98423371D01*
X126713907Y-98423364D01*
X126531839Y-98347950D01*
X126531829Y-98347947D01*
X126338543Y-98309500D01*
X126338541Y-98309500D01*
X126141459Y-98309500D01*
X126141457Y-98309500D01*
X125948170Y-98347947D01*
X125948160Y-98347950D01*
X125766092Y-98423364D01*
X125766079Y-98423371D01*
X125602218Y-98532860D01*
X125602214Y-98532863D01*
X125462863Y-98672214D01*
X125462860Y-98672218D01*
X125353371Y-98836079D01*
X125353364Y-98836092D01*
X125277950Y-99018160D01*
X125277947Y-99018170D01*
X125239500Y-99211456D01*
X125239500Y-99211459D01*
X125239500Y-99408541D01*
X125239500Y-99408543D01*
X125239499Y-99408543D01*
X124700500Y-99408543D01*
X124700500Y-99211456D01*
X124662052Y-99018170D01*
X124662051Y-99018169D01*
X124662051Y-99018165D01*
X124593752Y-98853275D01*
X124586635Y-98836092D01*
X124586628Y-98836079D01*
X124477139Y-98672218D01*
X124477136Y-98672214D01*
X124337785Y-98532863D01*
X124337781Y-98532860D01*
X124173920Y-98423371D01*
X124173907Y-98423364D01*
X123991839Y-98347950D01*
X123991829Y-98347947D01*
X123798543Y-98309500D01*
X123798541Y-98309500D01*
X123601459Y-98309500D01*
X123601457Y-98309500D01*
X123408170Y-98347947D01*
X123408160Y-98347950D01*
X123226092Y-98423364D01*
X123226079Y-98423371D01*
X123062218Y-98532860D01*
X123062214Y-98532863D01*
X122922863Y-98672214D01*
X122922860Y-98672218D01*
X122813371Y-98836079D01*
X122813364Y-98836092D01*
X122737950Y-99018160D01*
X122737947Y-99018170D01*
X122699500Y-99211456D01*
X122699500Y-99211459D01*
X122699500Y-99408541D01*
X122699500Y-99408543D01*
X122699499Y-99408543D01*
X121645500Y-99408543D01*
X121645500Y-96868543D01*
X122699499Y-96868543D01*
X122737947Y-97061829D01*
X122737950Y-97061839D01*
X122813364Y-97243907D01*
X122813371Y-97243920D01*
X122922860Y-97407781D01*
X122922863Y-97407785D01*
X123062214Y-97547136D01*
X123062218Y-97547139D01*
X123226079Y-97656628D01*
X123226092Y-97656635D01*
X123372096Y-97717111D01*
X123408165Y-97732051D01*
X123408169Y-97732051D01*
X123408170Y-97732052D01*
X123601456Y-97770500D01*
X123601459Y-97770500D01*
X123798543Y-97770500D01*
X123928582Y-97744632D01*
X123991835Y-97732051D01*
X124173914Y-97656632D01*
X124337782Y-97547139D01*
X124477139Y-97407782D01*
X124586632Y-97243914D01*
X124662051Y-97061835D01*
X124687932Y-96931725D01*
X124700500Y-96868543D01*
X125239499Y-96868543D01*
X125277947Y-97061829D01*
X125277950Y-97061839D01*
X125353364Y-97243907D01*
X125353371Y-97243920D01*
X125462860Y-97407781D01*
X125462863Y-97407785D01*
X125602214Y-97547136D01*
X125602218Y-97547139D01*
X125766079Y-97656628D01*
X125766092Y-97656635D01*
X125912096Y-97717111D01*
X125948165Y-97732051D01*
X125948169Y-97732051D01*
X125948170Y-97732052D01*
X126141456Y-97770500D01*
X126141459Y-97770500D01*
X126338543Y-97770500D01*
X126468582Y-97744632D01*
X126531835Y-97732051D01*
X126713914Y-97656632D01*
X126877782Y-97547139D01*
X127017139Y-97407782D01*
X127126632Y-97243914D01*
X127202051Y-97061835D01*
X127227932Y-96931725D01*
X127240500Y-96868543D01*
X127240500Y-96671456D01*
X127240499Y-96671454D01*
X127206624Y-96501150D01*
X127202781Y-96481831D01*
X139282050Y-96481831D01*
X139282050Y-96708168D01*
X139317458Y-96931722D01*
X139317458Y-96931725D01*
X139387398Y-97146978D01*
X139387400Y-97146981D01*
X139490155Y-97348650D01*
X139623193Y-97531761D01*
X139783239Y-97691807D01*
X139966350Y-97824845D01*
X140168019Y-97927600D01*
X140168021Y-97927601D01*
X140335024Y-97981863D01*
X140383279Y-97997542D01*
X140606831Y-98032950D01*
X140606832Y-98032950D01*
X140833168Y-98032950D01*
X140833169Y-98032950D01*
X141056721Y-97997542D01*
X141056724Y-97997541D01*
X141056725Y-97997541D01*
X141271978Y-97927601D01*
X141271978Y-97927600D01*
X141271981Y-97927600D01*
X141473650Y-97824845D01*
X141656761Y-97691807D01*
X141816807Y-97531761D01*
X141949845Y-97348650D01*
X142052600Y-97146981D01*
X142080266Y-97061835D01*
X142122541Y-96931725D01*
X142122541Y-96931724D01*
X142122542Y-96931721D01*
X142157950Y-96708169D01*
X142157950Y-96481831D01*
X144362050Y-96481831D01*
X144362050Y-96708168D01*
X144397458Y-96931722D01*
X144397458Y-96931725D01*
X144467398Y-97146978D01*
X144467400Y-97146981D01*
X144570155Y-97348650D01*
X144703193Y-97531761D01*
X144863239Y-97691807D01*
X145046350Y-97824845D01*
X145248019Y-97927600D01*
X145248021Y-97927601D01*
X145415024Y-97981863D01*
X145463279Y-97997542D01*
X145686831Y-98032950D01*
X145686832Y-98032950D01*
X145913168Y-98032950D01*
X145913169Y-98032950D01*
X146136721Y-97997542D01*
X146257181Y-97958401D01*
X146327023Y-97956407D01*
X146386856Y-97992487D01*
X146417684Y-98055188D01*
X146419500Y-98076333D01*
X146419500Y-98083723D01*
X146419500Y-98189177D01*
X146446793Y-98291037D01*
X146499520Y-98382363D01*
X146574087Y-98456930D01*
X146665413Y-98509657D01*
X146767273Y-98536950D01*
X146767275Y-98536950D01*
X146872725Y-98536950D01*
X146872727Y-98536950D01*
X146974587Y-98509657D01*
X147065913Y-98456930D01*
X147140480Y-98382363D01*
X147193207Y-98291037D01*
X147220500Y-98189177D01*
X147220500Y-98083723D01*
X147193207Y-97981863D01*
X147140480Y-97890537D01*
X147065913Y-97815970D01*
X146974589Y-97763244D01*
X146974588Y-97763243D01*
X146960846Y-97759561D01*
X146938132Y-97753475D01*
X146878474Y-97717111D01*
X146847945Y-97654264D01*
X146856240Y-97584888D01*
X146882544Y-97546023D01*
X146896807Y-97531761D01*
X147029845Y-97348650D01*
X147132600Y-97146981D01*
X147160266Y-97061835D01*
X147202541Y-96931725D01*
X147202541Y-96931724D01*
X147202542Y-96931721D01*
X147237950Y-96708169D01*
X147237950Y-96481831D01*
X147202542Y-96258279D01*
X147201305Y-96254473D01*
X147199028Y-96247462D01*
X147199027Y-96247460D01*
X147189219Y-96217273D01*
X148489500Y-96217273D01*
X148489500Y-96322727D01*
X148516793Y-96424587D01*
X148569520Y-96515913D01*
X148644087Y-96590480D01*
X148735413Y-96643207D01*
X148837273Y-96670500D01*
X148837275Y-96670500D01*
X148942725Y-96670500D01*
X148942727Y-96670500D01*
X149044587Y-96643207D01*
X149135913Y-96590480D01*
X149210480Y-96515913D01*
X149263207Y-96424587D01*
X149290500Y-96322727D01*
X149290500Y-96217273D01*
X149263207Y-96115413D01*
X149210480Y-96024087D01*
X149135913Y-95949520D01*
X149044587Y-95896793D01*
X148942727Y-95869500D01*
X148837273Y-95869500D01*
X148735413Y-95896793D01*
X148735410Y-95896794D01*
X148644085Y-95949521D01*
X148569521Y-96024085D01*
X148516794Y-96115410D01*
X148516793Y-96115413D01*
X148489500Y-96217273D01*
X147189219Y-96217273D01*
X147132601Y-96043021D01*
X147132599Y-96043018D01*
X147122954Y-96024087D01*
X147029845Y-95841350D01*
X146896807Y-95658239D01*
X146736761Y-95498193D01*
X146625384Y-95417273D01*
X155709500Y-95417273D01*
X155709500Y-95522727D01*
X155736793Y-95624587D01*
X155789520Y-95715913D01*
X155864087Y-95790480D01*
X155955413Y-95843207D01*
X156057273Y-95870500D01*
X156057275Y-95870500D01*
X156162725Y-95870500D01*
X156162727Y-95870500D01*
X156264587Y-95843207D01*
X156355913Y-95790480D01*
X156430480Y-95715913D01*
X156483207Y-95624587D01*
X156510500Y-95522727D01*
X156510500Y-95417273D01*
X156483207Y-95315413D01*
X156430480Y-95224087D01*
X156355913Y-95149520D01*
X156264587Y-95096793D01*
X156162727Y-95069500D01*
X156057273Y-95069500D01*
X155955413Y-95096793D01*
X155955410Y-95096794D01*
X155864085Y-95149521D01*
X155789521Y-95224085D01*
X155736794Y-95315410D01*
X155736793Y-95315413D01*
X155709500Y-95417273D01*
X146625384Y-95417273D01*
X146553650Y-95365155D01*
X146351981Y-95262400D01*
X146351978Y-95262398D01*
X146136723Y-95192458D01*
X145969126Y-95165913D01*
X145913169Y-95157050D01*
X145686831Y-95157050D01*
X145630874Y-95165913D01*
X145463277Y-95192458D01*
X145463274Y-95192458D01*
X145248021Y-95262398D01*
X145248018Y-95262400D01*
X145046349Y-95365155D01*
X144974613Y-95417275D01*
X144863239Y-95498193D01*
X144863237Y-95498195D01*
X144863236Y-95498195D01*
X144703195Y-95658236D01*
X144703195Y-95658237D01*
X144703193Y-95658239D01*
X144661290Y-95715914D01*
X144570155Y-95841349D01*
X144467400Y-96043018D01*
X144467398Y-96043021D01*
X144397458Y-96258274D01*
X144397458Y-96258277D01*
X144362050Y-96481831D01*
X142157950Y-96481831D01*
X142122542Y-96258279D01*
X142122541Y-96258275D01*
X142122541Y-96258274D01*
X142052601Y-96043021D01*
X142052599Y-96043018D01*
X142042954Y-96024087D01*
X141949845Y-95841350D01*
X141816807Y-95658239D01*
X141656761Y-95498193D01*
X141651796Y-95494586D01*
X141493353Y-95379470D01*
X141493343Y-95379463D01*
X141473651Y-95365155D01*
X141320797Y-95287273D01*
X142869500Y-95287273D01*
X142869500Y-95392727D01*
X142896793Y-95494587D01*
X142949520Y-95585913D01*
X143024087Y-95660480D01*
X143115413Y-95713207D01*
X143217273Y-95740500D01*
X143217275Y-95740500D01*
X143322725Y-95740500D01*
X143322727Y-95740500D01*
X143424587Y-95713207D01*
X143515913Y-95660480D01*
X143590480Y-95585913D01*
X143643207Y-95494587D01*
X143670500Y-95392727D01*
X143670500Y-95287273D01*
X143643207Y-95185413D01*
X143590480Y-95094087D01*
X143515913Y-95019520D01*
X143424587Y-94966793D01*
X143322727Y-94939500D01*
X143217273Y-94939500D01*
X143115413Y-94966793D01*
X143115410Y-94966794D01*
X143024085Y-95019521D01*
X142949521Y-95094085D01*
X142896794Y-95185410D01*
X142896793Y-95185413D01*
X142869500Y-95287273D01*
X141320797Y-95287273D01*
X141271981Y-95262400D01*
X141271978Y-95262398D01*
X141056723Y-95192458D01*
X140889126Y-95165913D01*
X140833169Y-95157050D01*
X140606831Y-95157050D01*
X140550874Y-95165913D01*
X140383277Y-95192458D01*
X140383274Y-95192458D01*
X140168021Y-95262398D01*
X140168018Y-95262400D01*
X139966349Y-95365155D01*
X139894613Y-95417275D01*
X139783239Y-95498193D01*
X139783237Y-95498195D01*
X139783236Y-95498195D01*
X139623195Y-95658236D01*
X139623195Y-95658237D01*
X139623193Y-95658239D01*
X139581290Y-95715914D01*
X139490155Y-95841349D01*
X139387400Y-96043018D01*
X139387398Y-96043021D01*
X139317458Y-96258274D01*
X139317458Y-96258277D01*
X139282050Y-96481831D01*
X127202781Y-96481831D01*
X127202052Y-96478169D01*
X127202049Y-96478160D01*
X127126635Y-96296092D01*
X127126628Y-96296079D01*
X127017139Y-96132218D01*
X127017136Y-96132214D01*
X126877785Y-95992863D01*
X126877781Y-95992860D01*
X126713920Y-95883371D01*
X126713907Y-95883364D01*
X126531839Y-95807950D01*
X126531829Y-95807947D01*
X126338543Y-95769500D01*
X126338541Y-95769500D01*
X126141459Y-95769500D01*
X126141457Y-95769500D01*
X125948170Y-95807947D01*
X125948160Y-95807950D01*
X125766092Y-95883364D01*
X125766079Y-95883371D01*
X125602218Y-95992860D01*
X125602214Y-95992863D01*
X125462863Y-96132214D01*
X125462860Y-96132218D01*
X125353371Y-96296079D01*
X125353364Y-96296092D01*
X125277950Y-96478160D01*
X125277947Y-96478170D01*
X125239500Y-96671456D01*
X125239500Y-96671459D01*
X125239500Y-96868541D01*
X125239500Y-96868543D01*
X125239499Y-96868543D01*
X124700500Y-96868543D01*
X124700500Y-96671456D01*
X124662052Y-96478170D01*
X124662051Y-96478169D01*
X124662051Y-96478165D01*
X124639859Y-96424589D01*
X124586635Y-96296092D01*
X124586628Y-96296079D01*
X124477139Y-96132218D01*
X124477136Y-96132214D01*
X124337785Y-95992863D01*
X124337781Y-95992860D01*
X124173920Y-95883371D01*
X124173907Y-95883364D01*
X123991839Y-95807950D01*
X123991829Y-95807947D01*
X123798543Y-95769500D01*
X123798541Y-95769500D01*
X123601459Y-95769500D01*
X123601457Y-95769500D01*
X123408170Y-95807947D01*
X123408160Y-95807950D01*
X123226092Y-95883364D01*
X123226079Y-95883371D01*
X123062218Y-95992860D01*
X123062214Y-95992863D01*
X122922863Y-96132214D01*
X122922860Y-96132218D01*
X122813371Y-96296079D01*
X122813364Y-96296092D01*
X122737950Y-96478160D01*
X122737947Y-96478170D01*
X122699500Y-96671456D01*
X122699500Y-96671459D01*
X122699500Y-96868541D01*
X122699500Y-96868543D01*
X122699499Y-96868543D01*
X121645500Y-96868543D01*
X121645500Y-95427273D01*
X131699500Y-95427273D01*
X131699500Y-95532727D01*
X131726793Y-95634587D01*
X131779520Y-95725913D01*
X131854087Y-95800480D01*
X131945413Y-95853207D01*
X132047273Y-95880500D01*
X132047275Y-95880500D01*
X132152725Y-95880500D01*
X132152727Y-95880500D01*
X132254587Y-95853207D01*
X132345913Y-95800480D01*
X132420480Y-95725913D01*
X132473207Y-95634587D01*
X132500500Y-95532727D01*
X132500500Y-95427273D01*
X132473207Y-95325413D01*
X132420480Y-95234087D01*
X132345913Y-95159520D01*
X132254587Y-95106793D01*
X132152727Y-95079500D01*
X132047273Y-95079500D01*
X131945413Y-95106793D01*
X131945410Y-95106794D01*
X131854085Y-95159521D01*
X131779521Y-95234085D01*
X131726794Y-95325410D01*
X131726793Y-95325413D01*
X131699500Y-95427273D01*
X121645500Y-95427273D01*
X121645500Y-94328543D01*
X122699499Y-94328543D01*
X122737947Y-94521829D01*
X122737950Y-94521839D01*
X122813364Y-94703907D01*
X122813371Y-94703920D01*
X122922860Y-94867781D01*
X122922863Y-94867785D01*
X123062214Y-95007136D01*
X123062218Y-95007139D01*
X123226079Y-95116628D01*
X123226092Y-95116635D01*
X123345064Y-95165914D01*
X123408165Y-95192051D01*
X123408169Y-95192051D01*
X123408170Y-95192052D01*
X123601456Y-95230500D01*
X123601459Y-95230500D01*
X123798543Y-95230500D01*
X123928582Y-95204632D01*
X123991835Y-95192051D01*
X124173914Y-95116632D01*
X124337782Y-95007139D01*
X124477139Y-94867782D01*
X124586632Y-94703914D01*
X124598988Y-94674085D01*
X124629873Y-94599520D01*
X124662051Y-94521835D01*
X124700500Y-94328543D01*
X125239499Y-94328543D01*
X125277947Y-94521829D01*
X125277950Y-94521839D01*
X125353364Y-94703907D01*
X125353371Y-94703920D01*
X125462860Y-94867781D01*
X125462863Y-94867785D01*
X125602214Y-95007136D01*
X125602218Y-95007139D01*
X125766079Y-95116628D01*
X125766092Y-95116635D01*
X125885064Y-95165914D01*
X125948165Y-95192051D01*
X125948169Y-95192051D01*
X125948170Y-95192052D01*
X126141456Y-95230500D01*
X126141459Y-95230500D01*
X126338543Y-95230500D01*
X126468582Y-95204632D01*
X126531835Y-95192051D01*
X126713914Y-95116632D01*
X126877782Y-95007139D01*
X127017139Y-94867782D01*
X127126632Y-94703914D01*
X127138988Y-94674085D01*
X127169873Y-94599520D01*
X127202051Y-94521835D01*
X127240500Y-94328541D01*
X127240500Y-94131459D01*
X127240500Y-94131456D01*
X127240499Y-94131454D01*
X127222972Y-94043337D01*
X127219777Y-94027273D01*
X137879500Y-94027273D01*
X137879500Y-94132727D01*
X137906793Y-94234587D01*
X137959520Y-94325913D01*
X138034087Y-94400480D01*
X138125413Y-94453207D01*
X138227273Y-94480500D01*
X138227275Y-94480500D01*
X138246618Y-94480500D01*
X138313657Y-94500185D01*
X138359412Y-94552989D01*
X138369356Y-94622147D01*
X138351064Y-94665594D01*
X138353584Y-94667049D01*
X138349521Y-94674085D01*
X138349520Y-94674087D01*
X138332296Y-94703920D01*
X138296794Y-94765410D01*
X138296793Y-94765413D01*
X138269500Y-94867273D01*
X138269500Y-94972727D01*
X138282039Y-95019521D01*
X138296793Y-95074586D01*
X138296794Y-95074589D01*
X138308050Y-95094085D01*
X138349520Y-95165913D01*
X138424087Y-95240480D01*
X138515413Y-95293207D01*
X138617273Y-95320500D01*
X138617275Y-95320500D01*
X138722725Y-95320500D01*
X138722727Y-95320500D01*
X138824587Y-95293207D01*
X138915913Y-95240480D01*
X138990480Y-95165913D01*
X139043207Y-95074587D01*
X139070500Y-94972727D01*
X139070500Y-94867273D01*
X139043207Y-94765413D01*
X138990480Y-94674087D01*
X138915913Y-94599520D01*
X138824587Y-94546793D01*
X138722727Y-94519500D01*
X138703382Y-94519500D01*
X138636343Y-94499815D01*
X138590588Y-94447011D01*
X138580644Y-94377853D01*
X138598935Y-94334405D01*
X138596416Y-94332951D01*
X138600478Y-94325914D01*
X138600480Y-94325913D01*
X138653207Y-94234587D01*
X138680500Y-94132727D01*
X138680500Y-94027273D01*
X142879500Y-94027273D01*
X142879500Y-94132727D01*
X142906793Y-94234587D01*
X142959520Y-94325913D01*
X143034087Y-94400480D01*
X143125413Y-94453207D01*
X143227273Y-94480500D01*
X143227275Y-94480500D01*
X143332725Y-94480500D01*
X143332727Y-94480500D01*
X143434587Y-94453207D01*
X143525913Y-94400480D01*
X143600480Y-94325913D01*
X143653207Y-94234587D01*
X143680500Y-94132727D01*
X143680500Y-94027273D01*
X143653207Y-93925413D01*
X143600480Y-93834087D01*
X143525913Y-93759520D01*
X143434587Y-93706793D01*
X143332727Y-93679500D01*
X143227273Y-93679500D01*
X143125413Y-93706793D01*
X143125410Y-93706794D01*
X143034085Y-93759521D01*
X142959521Y-93834085D01*
X142906794Y-93925410D01*
X142906793Y-93925413D01*
X142879500Y-94027273D01*
X138680500Y-94027273D01*
X138653207Y-93925413D01*
X138600480Y-93834087D01*
X138525913Y-93759520D01*
X138434587Y-93706793D01*
X138332727Y-93679500D01*
X138227273Y-93679500D01*
X138125413Y-93706793D01*
X138125410Y-93706794D01*
X138034085Y-93759521D01*
X137959521Y-93834085D01*
X137906794Y-93925410D01*
X137906793Y-93925413D01*
X137879500Y-94027273D01*
X127219777Y-94027273D01*
X127202052Y-93938170D01*
X127202051Y-93938169D01*
X127202051Y-93938165D01*
X127128055Y-93759521D01*
X127126635Y-93756092D01*
X127126628Y-93756079D01*
X127017139Y-93592218D01*
X127017136Y-93592214D01*
X126877785Y-93452863D01*
X126877781Y-93452860D01*
X126713920Y-93343371D01*
X126713907Y-93343364D01*
X126531839Y-93267950D01*
X126531829Y-93267947D01*
X126338543Y-93229500D01*
X126338541Y-93229500D01*
X126141459Y-93229500D01*
X126141457Y-93229500D01*
X125948170Y-93267947D01*
X125948160Y-93267950D01*
X125766092Y-93343364D01*
X125766079Y-93343371D01*
X125602218Y-93452860D01*
X125602214Y-93452863D01*
X125462863Y-93592214D01*
X125462860Y-93592218D01*
X125353371Y-93756079D01*
X125353364Y-93756092D01*
X125277950Y-93938160D01*
X125277947Y-93938170D01*
X125239500Y-94131456D01*
X125239500Y-94131459D01*
X125239500Y-94328541D01*
X125239500Y-94328543D01*
X125239499Y-94328543D01*
X124700500Y-94328543D01*
X124700500Y-94328541D01*
X124700500Y-94131459D01*
X124700500Y-94131456D01*
X124662052Y-93938170D01*
X124662051Y-93938169D01*
X124662051Y-93938165D01*
X124588055Y-93759521D01*
X124586635Y-93756092D01*
X124586628Y-93756079D01*
X124477139Y-93592218D01*
X124477136Y-93592214D01*
X124337785Y-93452863D01*
X124337781Y-93452860D01*
X124173920Y-93343371D01*
X124173907Y-93343364D01*
X123991839Y-93267950D01*
X123991829Y-93267947D01*
X123798543Y-93229500D01*
X123798541Y-93229500D01*
X123601459Y-93229500D01*
X123601457Y-93229500D01*
X123408170Y-93267947D01*
X123408160Y-93267950D01*
X123226092Y-93343364D01*
X123226079Y-93343371D01*
X123062218Y-93452860D01*
X123062214Y-93452863D01*
X122922863Y-93592214D01*
X122922860Y-93592218D01*
X122813371Y-93756079D01*
X122813364Y-93756092D01*
X122737950Y-93938160D01*
X122737947Y-93938170D01*
X122699500Y-94131456D01*
X122699500Y-94131459D01*
X122699500Y-94328541D01*
X122699500Y-94328543D01*
X122699499Y-94328543D01*
X121645500Y-94328543D01*
X121645500Y-91788543D01*
X122699499Y-91788543D01*
X122737947Y-91981829D01*
X122737950Y-91981839D01*
X122813364Y-92163907D01*
X122813371Y-92163920D01*
X122922860Y-92327781D01*
X122922863Y-92327785D01*
X123062214Y-92467136D01*
X123062218Y-92467139D01*
X123226079Y-92576628D01*
X123226092Y-92576635D01*
X123408160Y-92652049D01*
X123408165Y-92652051D01*
X123408169Y-92652051D01*
X123408170Y-92652052D01*
X123601456Y-92690500D01*
X123601459Y-92690500D01*
X123798543Y-92690500D01*
X123928582Y-92664632D01*
X123991835Y-92652051D01*
X124173914Y-92576632D01*
X124337782Y-92467139D01*
X124477139Y-92327782D01*
X124586632Y-92163914D01*
X124662051Y-91981835D01*
X124674632Y-91918582D01*
X124700500Y-91788543D01*
X125239499Y-91788543D01*
X125277947Y-91981829D01*
X125277950Y-91981839D01*
X125353364Y-92163907D01*
X125353371Y-92163920D01*
X125462860Y-92327781D01*
X125462863Y-92327785D01*
X125602214Y-92467136D01*
X125602218Y-92467139D01*
X125766079Y-92576628D01*
X125766092Y-92576635D01*
X125948160Y-92652049D01*
X125948165Y-92652051D01*
X125948169Y-92652051D01*
X125948170Y-92652052D01*
X126141456Y-92690500D01*
X126141459Y-92690500D01*
X126338543Y-92690500D01*
X126468582Y-92664632D01*
X126531835Y-92652051D01*
X126713914Y-92576632D01*
X126877782Y-92467139D01*
X127017139Y-92327782D01*
X127126632Y-92163914D01*
X127202051Y-91981835D01*
X127214632Y-91918582D01*
X127240500Y-91788543D01*
X127240500Y-91591456D01*
X127202052Y-91398170D01*
X127202051Y-91398169D01*
X127202051Y-91398165D01*
X127133752Y-91233275D01*
X127126635Y-91216092D01*
X127126628Y-91216079D01*
X127017139Y-91052218D01*
X127017136Y-91052214D01*
X126877785Y-90912863D01*
X126877781Y-90912860D01*
X126806245Y-90865061D01*
X126713920Y-90803371D01*
X126713907Y-90803364D01*
X126625707Y-90766831D01*
X139282050Y-90766831D01*
X139282050Y-90993168D01*
X139317458Y-91216722D01*
X139317458Y-91216725D01*
X139387398Y-91431978D01*
X139387400Y-91431981D01*
X139490155Y-91633650D01*
X139623193Y-91816761D01*
X139783239Y-91976807D01*
X139966350Y-92109845D01*
X140168019Y-92212600D01*
X140168021Y-92212601D01*
X140243022Y-92236970D01*
X140383279Y-92282542D01*
X140606831Y-92317950D01*
X140606832Y-92317950D01*
X140833168Y-92317950D01*
X140833169Y-92317950D01*
X141056721Y-92282542D01*
X141056724Y-92282541D01*
X141056725Y-92282541D01*
X141271978Y-92212601D01*
X141271978Y-92212600D01*
X141271981Y-92212600D01*
X141473650Y-92109845D01*
X141656761Y-91976807D01*
X141816807Y-91816761D01*
X141949845Y-91633650D01*
X142052600Y-91431981D01*
X142063586Y-91398170D01*
X142122541Y-91216725D01*
X142122541Y-91216724D01*
X142122542Y-91216721D01*
X142157950Y-90993169D01*
X142157950Y-90806540D01*
X142514200Y-90806540D01*
X142514200Y-90953459D01*
X142542858Y-91097534D01*
X142542861Y-91097544D01*
X142599078Y-91233266D01*
X142599083Y-91233275D01*
X142680698Y-91355419D01*
X142680701Y-91355423D01*
X142784576Y-91459298D01*
X142784580Y-91459301D01*
X142906724Y-91540916D01*
X142906730Y-91540919D01*
X142906731Y-91540920D01*
X143042458Y-91597140D01*
X143186540Y-91625799D01*
X143186544Y-91625800D01*
X143186545Y-91625800D01*
X143333456Y-91625800D01*
X143333457Y-91625799D01*
X143477542Y-91597140D01*
X143613269Y-91540920D01*
X143735420Y-91459301D01*
X143839301Y-91355420D01*
X143920920Y-91233269D01*
X143977140Y-91097542D01*
X144005800Y-90953455D01*
X144005800Y-90806545D01*
X144001743Y-90786148D01*
X144001743Y-90786146D01*
X143997901Y-90766831D01*
X144362050Y-90766831D01*
X144362050Y-90993168D01*
X144397458Y-91216722D01*
X144397458Y-91216725D01*
X144467398Y-91431978D01*
X144467400Y-91431981D01*
X144570155Y-91633650D01*
X144703193Y-91816761D01*
X144863239Y-91976807D01*
X145010198Y-92083579D01*
X145026168Y-92095182D01*
X145068833Y-92150512D01*
X145074812Y-92220126D01*
X145042206Y-92281921D01*
X144981367Y-92316278D01*
X144953282Y-92319500D01*
X144867273Y-92319500D01*
X144765413Y-92346793D01*
X144765410Y-92346794D01*
X144674085Y-92399521D01*
X144599521Y-92474085D01*
X144546794Y-92565410D01*
X144546793Y-92565413D01*
X144519500Y-92667273D01*
X144519500Y-92772727D01*
X144546793Y-92874587D01*
X144599520Y-92965913D01*
X144674087Y-93040480D01*
X144765413Y-93093207D01*
X144867273Y-93120500D01*
X144867275Y-93120500D01*
X144972725Y-93120500D01*
X144972727Y-93120500D01*
X145074587Y-93093207D01*
X145165913Y-93040480D01*
X145240480Y-92965913D01*
X145293207Y-92874587D01*
X145320500Y-92772727D01*
X145320500Y-92667273D01*
X145293207Y-92565413D01*
X145240480Y-92474087D01*
X145214728Y-92448335D01*
X145181243Y-92387012D01*
X145186227Y-92317320D01*
X145228099Y-92261387D01*
X145293563Y-92236970D01*
X145340727Y-92242723D01*
X145398170Y-92261387D01*
X145463279Y-92282542D01*
X145686831Y-92317950D01*
X145686832Y-92317950D01*
X145913168Y-92317950D01*
X145913169Y-92317950D01*
X146136721Y-92282542D01*
X146136724Y-92282541D01*
X146136725Y-92282541D01*
X146351978Y-92212601D01*
X146351978Y-92212600D01*
X146351981Y-92212600D01*
X146553650Y-92109845D01*
X146736761Y-91976807D01*
X146896807Y-91816761D01*
X147029845Y-91633650D01*
X147132600Y-91431981D01*
X147143586Y-91398170D01*
X147202541Y-91216725D01*
X147202541Y-91216724D01*
X147202542Y-91216721D01*
X147237950Y-90993169D01*
X147237950Y-90766831D01*
X147202542Y-90543279D01*
X147202541Y-90543275D01*
X147202541Y-90543274D01*
X147132601Y-90328021D01*
X147132599Y-90328018D01*
X147118681Y-90300701D01*
X147029845Y-90126350D01*
X146896807Y-89943239D01*
X146736761Y-89783193D01*
X146553650Y-89650155D01*
X146351981Y-89547400D01*
X146351978Y-89547398D01*
X146136723Y-89477458D01*
X145987686Y-89453852D01*
X145913169Y-89442050D01*
X145686831Y-89442050D01*
X145612313Y-89453852D01*
X145463277Y-89477458D01*
X145463274Y-89477458D01*
X145248021Y-89547398D01*
X145248018Y-89547400D01*
X145046349Y-89650155D01*
X144941878Y-89726058D01*
X144863239Y-89783193D01*
X144863237Y-89783195D01*
X144863236Y-89783195D01*
X144703195Y-89943236D01*
X144703195Y-89943237D01*
X144703193Y-89943239D01*
X144646058Y-90021878D01*
X144570155Y-90126349D01*
X144467400Y-90328018D01*
X144467398Y-90328021D01*
X144397458Y-90543274D01*
X144397458Y-90543277D01*
X144362050Y-90766831D01*
X143997901Y-90766831D01*
X143977141Y-90662465D01*
X143977140Y-90662458D01*
X143920920Y-90526731D01*
X143920919Y-90526730D01*
X143920916Y-90526724D01*
X143839301Y-90404580D01*
X143839298Y-90404576D01*
X143735423Y-90300701D01*
X143735419Y-90300698D01*
X143613275Y-90219083D01*
X143613266Y-90219078D01*
X143477544Y-90162861D01*
X143477545Y-90162861D01*
X143477542Y-90162860D01*
X143477538Y-90162859D01*
X143477534Y-90162858D01*
X143333459Y-90134200D01*
X143333455Y-90134200D01*
X143186545Y-90134200D01*
X143186540Y-90134200D01*
X143042465Y-90162858D01*
X143042455Y-90162861D01*
X142906733Y-90219078D01*
X142906724Y-90219083D01*
X142784580Y-90300698D01*
X142784576Y-90300701D01*
X142680701Y-90404576D01*
X142680698Y-90404580D01*
X142599083Y-90526724D01*
X142599078Y-90526733D01*
X142542861Y-90662455D01*
X142542858Y-90662465D01*
X142514200Y-90806540D01*
X142157950Y-90806540D01*
X142157950Y-90766831D01*
X142122542Y-90543279D01*
X142122541Y-90543275D01*
X142122541Y-90543274D01*
X142052601Y-90328021D01*
X142052599Y-90328018D01*
X142038681Y-90300701D01*
X141949845Y-90126350D01*
X141816807Y-89943239D01*
X141656761Y-89783193D01*
X141473650Y-89650155D01*
X141271981Y-89547400D01*
X141271978Y-89547398D01*
X141056723Y-89477458D01*
X140907686Y-89453852D01*
X140833169Y-89442050D01*
X140606831Y-89442050D01*
X140532313Y-89453852D01*
X140383277Y-89477458D01*
X140383274Y-89477458D01*
X140168021Y-89547398D01*
X140168018Y-89547400D01*
X139966349Y-89650155D01*
X139861878Y-89726058D01*
X139783239Y-89783193D01*
X139783237Y-89783195D01*
X139783236Y-89783195D01*
X139623195Y-89943236D01*
X139623195Y-89943237D01*
X139623193Y-89943239D01*
X139566058Y-90021878D01*
X139490155Y-90126349D01*
X139387400Y-90328018D01*
X139387398Y-90328021D01*
X139317458Y-90543274D01*
X139317458Y-90543277D01*
X139282050Y-90766831D01*
X126625707Y-90766831D01*
X126531839Y-90727950D01*
X126531829Y-90727947D01*
X126338543Y-90689500D01*
X126338541Y-90689500D01*
X126141459Y-90689500D01*
X126141457Y-90689500D01*
X125948170Y-90727947D01*
X125948160Y-90727950D01*
X125766092Y-90803364D01*
X125766079Y-90803371D01*
X125602218Y-90912860D01*
X125602214Y-90912863D01*
X125462863Y-91052214D01*
X125462860Y-91052218D01*
X125353371Y-91216079D01*
X125353364Y-91216092D01*
X125277950Y-91398160D01*
X125277947Y-91398170D01*
X125239500Y-91591456D01*
X125239500Y-91591459D01*
X125239500Y-91788541D01*
X125239500Y-91788543D01*
X125239499Y-91788543D01*
X124700500Y-91788543D01*
X124700500Y-91591456D01*
X124662052Y-91398170D01*
X124662051Y-91398169D01*
X124662051Y-91398165D01*
X124593752Y-91233275D01*
X124586635Y-91216092D01*
X124586628Y-91216079D01*
X124477139Y-91052218D01*
X124477136Y-91052214D01*
X124337785Y-90912863D01*
X124337781Y-90912860D01*
X124173920Y-90803371D01*
X124173907Y-90803364D01*
X123991839Y-90727950D01*
X123991829Y-90727947D01*
X123798543Y-90689500D01*
X123798541Y-90689500D01*
X123601459Y-90689500D01*
X123601457Y-90689500D01*
X123408170Y-90727947D01*
X123408160Y-90727950D01*
X123226092Y-90803364D01*
X123226079Y-90803371D01*
X123062218Y-90912860D01*
X123062214Y-90912863D01*
X122922863Y-91052214D01*
X122922860Y-91052218D01*
X122813371Y-91216079D01*
X122813364Y-91216092D01*
X122737950Y-91398160D01*
X122737947Y-91398170D01*
X122699500Y-91591456D01*
X122699500Y-91591459D01*
X122699500Y-91788541D01*
X122699500Y-91788543D01*
X122699499Y-91788543D01*
X121645500Y-91788543D01*
X121645500Y-89248543D01*
X122699499Y-89248543D01*
X122737947Y-89441829D01*
X122737950Y-89441839D01*
X122813364Y-89623907D01*
X122813371Y-89623920D01*
X122922860Y-89787781D01*
X122922863Y-89787785D01*
X123062214Y-89927136D01*
X123062218Y-89927139D01*
X123226079Y-90036628D01*
X123226092Y-90036635D01*
X123408160Y-90112049D01*
X123408165Y-90112051D01*
X123408169Y-90112051D01*
X123408170Y-90112052D01*
X123601456Y-90150500D01*
X123601459Y-90150500D01*
X123798543Y-90150500D01*
X123928582Y-90124632D01*
X123991835Y-90112051D01*
X124173914Y-90036632D01*
X124337782Y-89927139D01*
X124477139Y-89787782D01*
X124586632Y-89623914D01*
X124662051Y-89441835D01*
X124700500Y-89248543D01*
X125239499Y-89248543D01*
X125277947Y-89441829D01*
X125277950Y-89441839D01*
X125353364Y-89623907D01*
X125353371Y-89623920D01*
X125462860Y-89787781D01*
X125462863Y-89787785D01*
X125602214Y-89927136D01*
X125602218Y-89927139D01*
X125766079Y-90036628D01*
X125766092Y-90036635D01*
X125948160Y-90112049D01*
X125948165Y-90112051D01*
X125948169Y-90112051D01*
X125948170Y-90112052D01*
X126141456Y-90150500D01*
X126141459Y-90150500D01*
X126338543Y-90150500D01*
X126468582Y-90124632D01*
X126531835Y-90112051D01*
X126713914Y-90036632D01*
X126877782Y-89927139D01*
X127017139Y-89787782D01*
X127126632Y-89623914D01*
X127202051Y-89441835D01*
X127240500Y-89248541D01*
X127240500Y-89051459D01*
X127240500Y-89051456D01*
X127202052Y-88858170D01*
X127202051Y-88858169D01*
X127202051Y-88858165D01*
X127202049Y-88858160D01*
X127126635Y-88676092D01*
X127126628Y-88676079D01*
X127017139Y-88512218D01*
X127017136Y-88512214D01*
X126877785Y-88372863D01*
X126877781Y-88372860D01*
X126713920Y-88263371D01*
X126713907Y-88263364D01*
X126531839Y-88187950D01*
X126531829Y-88187947D01*
X126338543Y-88149500D01*
X126338541Y-88149500D01*
X126141459Y-88149500D01*
X126141457Y-88149500D01*
X125948170Y-88187947D01*
X125948160Y-88187950D01*
X125766092Y-88263364D01*
X125766079Y-88263371D01*
X125602218Y-88372860D01*
X125602214Y-88372863D01*
X125462863Y-88512214D01*
X125462860Y-88512218D01*
X125353371Y-88676079D01*
X125353364Y-88676092D01*
X125277950Y-88858160D01*
X125277947Y-88858170D01*
X125239500Y-89051456D01*
X125239500Y-89051459D01*
X125239500Y-89248541D01*
X125239500Y-89248543D01*
X125239499Y-89248543D01*
X124700500Y-89248543D01*
X124700500Y-89248541D01*
X124700500Y-89051459D01*
X124700500Y-89051456D01*
X124662052Y-88858170D01*
X124662051Y-88858169D01*
X124662051Y-88858165D01*
X124662049Y-88858160D01*
X124586635Y-88676092D01*
X124586628Y-88676079D01*
X124477139Y-88512218D01*
X124477136Y-88512214D01*
X124337785Y-88372863D01*
X124337781Y-88372860D01*
X124173920Y-88263371D01*
X124173907Y-88263364D01*
X123991839Y-88187950D01*
X123991829Y-88187947D01*
X123798543Y-88149500D01*
X123798541Y-88149500D01*
X123601459Y-88149500D01*
X123601457Y-88149500D01*
X123408170Y-88187947D01*
X123408160Y-88187950D01*
X123226092Y-88263364D01*
X123226079Y-88263371D01*
X123062218Y-88372860D01*
X123062214Y-88372863D01*
X122922863Y-88512214D01*
X122922860Y-88512218D01*
X122813371Y-88676079D01*
X122813364Y-88676092D01*
X122737950Y-88858160D01*
X122737947Y-88858170D01*
X122699500Y-89051456D01*
X122699500Y-89051459D01*
X122699500Y-89248541D01*
X122699500Y-89248543D01*
X122699499Y-89248543D01*
X121645500Y-89248543D01*
X121645500Y-87474822D01*
X122699499Y-87474822D01*
X122708231Y-87518717D01*
X122708232Y-87518721D01*
X122708233Y-87518722D01*
X122741496Y-87568504D01*
X122791278Y-87601767D01*
X122791281Y-87601767D01*
X122791282Y-87601768D01*
X122835177Y-87610500D01*
X122835180Y-87610500D01*
X124564822Y-87610500D01*
X124608717Y-87601768D01*
X124608717Y-87601767D01*
X124608722Y-87601767D01*
X124658504Y-87568504D01*
X124691767Y-87518722D01*
X124700500Y-87474820D01*
X124700500Y-86708543D01*
X125239499Y-86708543D01*
X125277947Y-86901829D01*
X125277950Y-86901839D01*
X125353364Y-87083907D01*
X125353371Y-87083920D01*
X125462860Y-87247781D01*
X125462863Y-87247785D01*
X125602214Y-87387136D01*
X125602218Y-87387139D01*
X125766079Y-87496628D01*
X125766092Y-87496635D01*
X125948160Y-87572049D01*
X125948165Y-87572051D01*
X125948169Y-87572051D01*
X125948170Y-87572052D01*
X126141456Y-87610500D01*
X126141459Y-87610500D01*
X126338543Y-87610500D01*
X126468582Y-87584632D01*
X126531835Y-87572051D01*
X126713914Y-87496632D01*
X126877782Y-87387139D01*
X127017139Y-87247782D01*
X127126632Y-87083914D01*
X127202051Y-86901835D01*
X127240500Y-86708541D01*
X127240500Y-86511459D01*
X127240500Y-86511456D01*
X127202052Y-86318170D01*
X127202051Y-86318169D01*
X127202051Y-86318165D01*
X127166474Y-86232274D01*
X127126635Y-86136092D01*
X127126628Y-86136079D01*
X127017139Y-85972218D01*
X127017136Y-85972214D01*
X126877785Y-85832863D01*
X126877781Y-85832860D01*
X126713920Y-85723371D01*
X126713907Y-85723364D01*
X126531839Y-85647950D01*
X126531827Y-85647947D01*
X126465593Y-85634772D01*
X126465592Y-85634772D01*
X126338543Y-85609500D01*
X126338541Y-85609500D01*
X126141459Y-85609500D01*
X126141457Y-85609500D01*
X125948170Y-85647947D01*
X125948160Y-85647950D01*
X125766092Y-85723364D01*
X125766079Y-85723371D01*
X125602218Y-85832860D01*
X125602214Y-85832863D01*
X125462863Y-85972214D01*
X125462860Y-85972218D01*
X125353371Y-86136079D01*
X125353364Y-86136092D01*
X125277950Y-86318160D01*
X125277947Y-86318170D01*
X125239500Y-86511456D01*
X125239500Y-86511459D01*
X125239500Y-86708541D01*
X125239500Y-86708543D01*
X125239499Y-86708543D01*
X124700500Y-86708543D01*
X124700500Y-85745180D01*
X124700500Y-85745177D01*
X124691768Y-85701282D01*
X124691767Y-85701281D01*
X124691767Y-85701278D01*
X124658504Y-85651496D01*
X124653197Y-85647950D01*
X124608724Y-85618234D01*
X124608717Y-85618231D01*
X124564822Y-85609500D01*
X124564820Y-85609500D01*
X122835180Y-85609500D01*
X122835178Y-85609500D01*
X122791282Y-85618231D01*
X122791275Y-85618234D01*
X122741496Y-85651495D01*
X122741495Y-85651496D01*
X122708234Y-85701275D01*
X122708231Y-85701282D01*
X122699500Y-85745177D01*
X122699500Y-85745180D01*
X122699500Y-87474820D01*
X122699500Y-87474822D01*
X122699499Y-87474822D01*
X121645500Y-87474822D01*
X121645500Y-80598592D01*
X128303500Y-80598592D01*
X128303500Y-80761407D01*
X128335259Y-80921073D01*
X128335262Y-80921082D01*
X128397562Y-81071490D01*
X128397563Y-81071492D01*
X128488015Y-81206862D01*
X128488018Y-81206866D01*
X128603133Y-81321981D01*
X128603137Y-81321984D01*
X128738505Y-81412435D01*
X128738506Y-81412435D01*
X128738507Y-81412436D01*
X128738509Y-81412437D01*
X128838781Y-81453970D01*
X128888919Y-81474738D01*
X128888921Y-81474738D01*
X128888926Y-81474740D01*
X129048592Y-81506499D01*
X129048595Y-81506500D01*
X129100653Y-81506500D01*
X129167692Y-81526185D01*
X129213447Y-81578989D01*
X129223391Y-81648147D01*
X129205647Y-81696472D01*
X129130191Y-81816559D01*
X128983995Y-82120137D01*
X128872709Y-82438173D01*
X128872705Y-82438185D01*
X128797727Y-82766686D01*
X128797725Y-82766702D01*
X128760000Y-83101519D01*
X128760000Y-83438480D01*
X128797725Y-83773297D01*
X128797727Y-83773313D01*
X128872705Y-84101814D01*
X128872709Y-84101826D01*
X128983995Y-84419862D01*
X129130191Y-84723440D01*
X129309461Y-85008747D01*
X129468397Y-85208048D01*
X130716320Y-83960125D01*
X130806554Y-84084320D01*
X130945680Y-84223446D01*
X131069873Y-84313678D01*
X129821950Y-85561601D01*
X130021252Y-85720538D01*
X130306559Y-85899808D01*
X130610137Y-86046004D01*
X130928173Y-86157290D01*
X130928185Y-86157294D01*
X131256686Y-86232272D01*
X131256702Y-86232274D01*
X131591519Y-86269999D01*
X131591521Y-86270000D01*
X131928479Y-86270000D01*
X131928480Y-86269999D01*
X132263297Y-86232274D01*
X132263313Y-86232272D01*
X132591814Y-86157294D01*
X132591826Y-86157290D01*
X132909862Y-86046004D01*
X133213440Y-85899808D01*
X133498747Y-85720538D01*
X133698048Y-85561600D01*
X132450126Y-84313678D01*
X132574320Y-84223446D01*
X132713446Y-84084320D01*
X132803678Y-83960126D01*
X134051600Y-85208048D01*
X134210538Y-85008747D01*
X134389808Y-84723440D01*
X134536004Y-84419862D01*
X134647290Y-84101826D01*
X134647294Y-84101814D01*
X134722272Y-83773313D01*
X134722274Y-83773297D01*
X134759999Y-83438480D01*
X134760000Y-83438478D01*
X134760000Y-83101521D01*
X134759999Y-83101519D01*
X134722274Y-82766702D01*
X134722272Y-82766686D01*
X134647294Y-82438185D01*
X134647290Y-82438173D01*
X134536004Y-82120137D01*
X134389808Y-81816559D01*
X134210538Y-81531252D01*
X134051601Y-81331950D01*
X132803678Y-82579873D01*
X132713446Y-82455680D01*
X132574320Y-82316554D01*
X132450125Y-82226320D01*
X133698048Y-80978397D01*
X133498747Y-80819461D01*
X133213440Y-80640191D01*
X132909862Y-80493995D01*
X132591826Y-80382709D01*
X132591814Y-80382705D01*
X132263313Y-80307727D01*
X132263297Y-80307725D01*
X131928480Y-80270000D01*
X131591519Y-80270000D01*
X131256702Y-80307725D01*
X131256686Y-80307727D01*
X130928185Y-80382705D01*
X130928173Y-80382709D01*
X130610137Y-80493995D01*
X130306555Y-80640193D01*
X130306554Y-80640194D01*
X130146471Y-80740780D01*
X130079235Y-80759780D01*
X130012399Y-80739412D01*
X129967186Y-80686144D01*
X129956500Y-80635786D01*
X129956500Y-80598594D01*
X129956499Y-80598592D01*
X129924740Y-80438926D01*
X129924737Y-80438917D01*
X129862437Y-80288509D01*
X129862436Y-80288507D01*
X129771984Y-80153137D01*
X129771981Y-80153133D01*
X129656866Y-80038018D01*
X129656862Y-80038015D01*
X129521492Y-79947563D01*
X129521490Y-79947562D01*
X129371082Y-79885262D01*
X129371073Y-79885259D01*
X129211406Y-79853500D01*
X129211403Y-79853500D01*
X129048597Y-79853500D01*
X129048594Y-79853500D01*
X128888926Y-79885259D01*
X128888917Y-79885262D01*
X128738509Y-79947562D01*
X128738507Y-79947563D01*
X128603137Y-80038015D01*
X128603133Y-80038018D01*
X128488018Y-80153133D01*
X128488015Y-80153137D01*
X128397563Y-80288507D01*
X128397562Y-80288509D01*
X128335262Y-80438917D01*
X128335259Y-80438926D01*
X128303500Y-80598592D01*
X121645500Y-80598592D01*
X121645500Y-78515325D01*
X121665185Y-78448286D01*
X121717989Y-78402531D01*
X121769500Y-78391325D01*
X135636000Y-78391325D01*
X135703039Y-78411010D01*
G37*
%TD.AperFunction*%
%TD*%
M02*
