M48
; DRILL file {KiCad 8.0.9-8.0.9-0~ubuntu24.04.1} date 2025-04-21T09:58:37+0200
; FORMAT={-:-/ absolute / inch / decimal}
; #@! TF.CreationDate,2025-04-21T09:58:37+02:00
; #@! TF.GenerationSoftware,Kicad,Pcbnew,8.0.9-8.0.9-0~ubuntu24.04.1
; #@! TF.FileFunction,Plated,1,4,PTH
FMAT,2
INCH
; #@! TA.AperFunction,Plated,PTH,ComponentDrill
T1C0.0079
; #@! TA.AperFunction,Plated,PTH,ViaDrill
T2C0.0118
; #@! TA.AperFunction,Plated,PTH,ComponentDrill
T3C0.0197
; #@! TA.AperFunction,Plated,PTH,ComponentDrill
T4C0.0236
; #@! TA.AperFunction,Plated,PTH,ComponentDrill
T5C0.0315
; #@! TA.AperFunction,Plated,PTH,ComponentDrill
T6C0.0394
; #@! TA.AperFunction,Plated,PTH,ComponentDrill
T7C0.0984
%
G90
G05
T1
X5.6173Y-4.5594
X5.6173Y-4.5988
X5.6173Y-4.6382
X5.6567Y-4.5594
X5.6567Y-4.5988
X5.6567Y-4.6382
X5.6961Y-4.5594
X5.6961Y-4.5988
X5.6961Y-4.6382
X6.4134Y-4.876
X6.437Y-4.876
T2
X5.0657Y-4.5031
X5.0657Y-4.6921
X5.0728Y-4.5374
X5.1161Y-3.7366
X5.1161Y-4.0004
X5.1307Y-4.5969
X5.1311Y-4.8866
X5.1445Y-4.215
X5.1512Y-5.2378
X5.1685Y-3.924
X5.1693Y-3.9559
X5.2114Y-4.7843
X5.2244Y-4.5965
X5.2374Y-3.737
X5.2374Y-4.0008
X5.2413Y-4.0587
X5.2449Y-4.0933
X5.2469Y-4.1268
X5.2476Y-4.1646
X5.2831Y-4.824
X5.3319Y-4.824
X5.3732Y-4.589
X5.3839Y-4.6795
X5.3921Y-4.7571
X5.3972Y-5.1339
X5.3972Y-5.2189
X5.4453Y-3.7039
X5.4457Y-5.1339
X5.4457Y-5.1756
X5.4457Y-5.2189
X5.448Y-4.7843
X5.4496Y-4.4992
X5.4606Y-3.737
X5.4665Y-4.3484
X5.4799Y-4.6795
X5.4799Y-4.8138
X5.4823Y-4.6402
X5.4984Y-4.589
X5.5252Y-4.2913
X5.5386Y-4.3925
X5.5764Y-3.6776
X5.598Y-4.0587
X5.635Y-4.7327
X5.6417Y-3.7535
X5.6421Y-3.7039
X5.6602Y-4.0567
X5.6665Y-4.3921
X5.7043Y-4.4563
X5.7067Y-3.6504
X5.7287Y-4.2906
X5.7394Y-4.7307
X5.7815Y-3.8636
X5.7906Y-4.5654
X5.7906Y-4.5929
X5.8299Y-4.7437
X5.8555Y-5.1175
X5.863Y-3.7902
X5.8681Y-3.9906
X5.8681Y-4.0587
X5.9016Y-3.9906
X5.9016Y-4.0587
X5.9051Y-5.0102
X5.9244Y-4.5535
X5.9244Y-4.7031
X5.9406Y-4.0587
X5.9409Y-3.9909
X6.0256Y-3.9791
X6.061Y-3.7331
X6.1008Y-3.8846
X6.1008Y-3.9181
X6.1291Y-5.1008
X6.1823Y-3.7295
X6.1823Y-4.0063
X6.3287Y-4.6457
X6.4063Y-5.0815
X6.4441Y-5.0811
X6.4457Y-4.6457
T3
X4.8522Y-3.2231
X4.8522Y-5.3093
X4.8738Y-3.1709
X4.8738Y-3.2753
X4.8738Y-5.2571
X4.8738Y-5.3615
X4.926Y-3.1492
X4.926Y-3.2969
X4.926Y-5.2355
X4.926Y-5.3831
X4.9782Y-3.1709
X4.9782Y-3.2753
X4.9782Y-5.2571
X4.9782Y-5.3615
X4.9998Y-3.2231
X4.9998Y-5.3093
X5.1148Y-3.2783
X5.1364Y-3.2261
X5.1364Y-3.3305
X5.1886Y-3.2045
X5.1886Y-3.3522
X5.2408Y-3.2261
X5.2408Y-3.3305
X5.2624Y-3.2783
X6.0203Y-4.1839
X6.0419Y-4.1317
X6.0419Y-4.2361
X6.0941Y-4.11
X6.0941Y-4.2577
X6.1463Y-4.1317
X6.1463Y-4.2361
X6.1679Y-4.1839
X6.2659Y-3.2227
X6.2695Y-5.3093
X6.2876Y-3.1705
X6.2876Y-3.2749
X6.2911Y-5.2571
X6.2911Y-5.3615
X6.3398Y-3.1489
X6.3398Y-3.2965
X6.3433Y-5.2355
X6.3433Y-5.3831
X6.392Y-3.1705
X6.392Y-3.2749
X6.3955Y-5.2571
X6.3955Y-5.3615
X6.4136Y-3.2227
X6.4171Y-5.3093
T5
X5.6846Y-4.8122
X5.95Y-4.6283
X6.1697Y-5.1724
T6
X4.8701Y-3.4098
X4.8701Y-3.5098
X4.8701Y-3.6098
X4.8701Y-3.7098
X4.8701Y-3.8098
X4.8701Y-3.9098
X4.8701Y-4.0098
X4.8701Y-4.1098
X4.8701Y-4.2098
X4.8701Y-4.3098
X4.9701Y-3.4098
X4.9701Y-3.5098
X4.9701Y-3.6098
X4.9701Y-3.7098
X4.9701Y-3.8098
X4.9701Y-3.9098
X4.9701Y-4.0098
X4.9701Y-4.1098
X4.9701Y-4.2098
X4.9701Y-4.3098
T7
X4.926Y-3.2231
X4.926Y-5.3093
X5.1886Y-3.2783
X6.0941Y-4.1839
X6.3398Y-3.2227
X6.3433Y-5.3093
T4
G00X4.8484Y-4.4276
M15
G01X4.8169Y-4.4276
M16
G05
G00X4.8484Y-4.7677
M15
G01X4.8169Y-4.7677
M16
G05
G00X5.0197Y-4.4276
M15
G01X4.9764Y-4.4276
M16
G05
G00X5.0197Y-4.7677
M15
G01X4.9764Y-4.7677
M16
G05
M30
