%TF.GenerationSoftware,KiCad,Pcbnew,8.0.9-8.0.9-0~ubuntu24.04.1*%
%TF.CreationDate,2025-04-21T09:58:39+02:00*%
%TF.ProjectId,Sensor_Node_Base_V1.0,53656e73-6f72-45f4-9e6f-64655f426173,rev?*%
%TF.SameCoordinates,Original*%
%TF.FileFunction,Legend,Top*%
%TF.FilePolarity,Positive*%
%FSLAX46Y46*%
G04 Gerber Fmt 4.6, Leading zero omitted, Abs format (unit mm)*
G04 Created by KiCad (PCBNEW 8.0.9-8.0.9-0~ubuntu24.04.1) date 2025-04-21 09:58:39*
%MOMM*%
%LPD*%
G01*
G04 APERTURE LIST*
%ADD10C,0.120000*%
%ADD11C,0.100000*%
%ADD12C,0.050000*%
G04 APERTURE END LIST*
D10*
%TO.C,IC302*%
X146290000Y-118945000D02*
X146290000Y-119180000D01*
X146290000Y-114200000D02*
X146290000Y-114675000D01*
X145815000Y-119420000D02*
X145990000Y-119420000D01*
X145815000Y-114200000D02*
X146290000Y-114200000D01*
X141545000Y-119420000D02*
X141070000Y-119420000D01*
X141545000Y-114200000D02*
X141070000Y-114200000D01*
X141070000Y-119420000D02*
X141070000Y-118945000D01*
X141070000Y-114200000D02*
X141070000Y-114675000D01*
X146530000Y-119750000D02*
X146050000Y-119750000D01*
X146290000Y-119420000D01*
X146530000Y-119750000D01*
G36*
X146530000Y-119750000D02*
G01*
X146050000Y-119750000D01*
X146290000Y-119420000D01*
X146530000Y-119750000D01*
G37*
%TO.C,J201*%
X122370000Y-85280000D02*
X123700000Y-85280000D01*
X122370000Y-86610000D02*
X122370000Y-85280000D01*
X122370000Y-87880000D02*
X122370000Y-110800000D01*
X122370000Y-87880000D02*
X124970000Y-87880000D01*
X122370000Y-110800000D02*
X127570000Y-110800000D01*
X124970000Y-85280000D02*
X127570000Y-85280000D01*
X124970000Y-87880000D02*
X124970000Y-85280000D01*
X127570000Y-85280000D02*
X127570000Y-110800000D01*
%TO.C,CON102*%
X143220000Y-130420000D02*
X145670000Y-130420000D01*
X143220000Y-132520000D02*
X143220000Y-130420000D01*
X143220000Y-136840000D02*
X143220000Y-138140000D01*
X143220000Y-138140000D02*
X150940000Y-138140000D01*
X145670000Y-130420000D02*
X145670000Y-128530000D01*
X150940000Y-130420000D02*
X148490000Y-130420000D01*
X150940000Y-132520000D02*
X150940000Y-130420000D01*
X150940000Y-138140000D02*
X150940000Y-136840000D01*
%TO.C,R207*%
X163363641Y-119380000D02*
X163056359Y-119380000D01*
X163363641Y-118620000D02*
X163056359Y-118620000D01*
%TO.C,R301*%
X133710000Y-124606359D02*
X133710000Y-124913641D01*
X132950000Y-124606359D02*
X132950000Y-124913641D01*
%TO.C,C306*%
X138245580Y-117070000D02*
X137964420Y-117070000D01*
X138245580Y-116050000D02*
X137964420Y-116050000D01*
%TO.C,R302*%
X131970000Y-132376359D02*
X131970000Y-132683641D01*
X131210000Y-132376359D02*
X131210000Y-132683641D01*
%TO.C,R210*%
X132953641Y-123640000D02*
X132646359Y-123640000D01*
X132953641Y-122880000D02*
X132646359Y-122880000D01*
%TO.C,D101*%
X132650000Y-118322500D02*
X133450000Y-118322500D01*
X132650000Y-118322500D02*
X131850000Y-118322500D01*
X132650000Y-115202500D02*
X133450000Y-115202500D01*
X132650000Y-115202500D02*
X131850000Y-115202500D01*
X134190000Y-118602500D02*
X133710000Y-118602500D01*
X133950000Y-118272500D01*
X134190000Y-118602500D01*
G36*
X134190000Y-118602500D02*
G01*
X133710000Y-118602500D01*
X133950000Y-118272500D01*
X134190000Y-118602500D01*
G37*
%TO.C,R208*%
X141526359Y-108620000D02*
X141833641Y-108620000D01*
X141526359Y-109380000D02*
X141833641Y-109380000D01*
%TO.C,C303*%
X138770000Y-114867836D02*
X138770000Y-114652164D01*
X139490000Y-114867836D02*
X139490000Y-114652164D01*
%TO.C,R205*%
X149610000Y-126173641D02*
X149610000Y-125866359D01*
X150370000Y-126173641D02*
X150370000Y-125866359D01*
%TO.C,R305*%
X140820000Y-112773641D02*
X140820000Y-112466359D01*
X141580000Y-112773641D02*
X141580000Y-112466359D01*
%TO.C,R304*%
X139770000Y-112773641D02*
X139770000Y-112466359D01*
X140530000Y-112773641D02*
X140530000Y-112466359D01*
%TO.C,C305*%
X148714420Y-118950000D02*
X148995580Y-118950000D01*
X148714420Y-119970000D02*
X148995580Y-119970000D01*
%TO.C,R202*%
X135905000Y-123193641D02*
X135905000Y-122886359D01*
X136665000Y-123193641D02*
X136665000Y-122886359D01*
%TO.C,C304*%
X144302164Y-112060000D02*
X144517836Y-112060000D01*
X144302164Y-112780000D02*
X144517836Y-112780000D01*
%TO.C,R206*%
X144433641Y-109360000D02*
X144126359Y-109360000D01*
X144433641Y-108600000D02*
X144126359Y-108600000D01*
%TO.C,CON103*%
X129550000Y-123090000D02*
X129550000Y-125540000D01*
X127450000Y-123090000D02*
X129550000Y-123090000D01*
X123130000Y-123090000D02*
X121830000Y-123090000D01*
X121830000Y-123090000D02*
X121830000Y-130810000D01*
X129550000Y-125540000D02*
X131440000Y-125540000D01*
X129550000Y-130810000D02*
X129550000Y-128360000D01*
X127450000Y-130810000D02*
X129550000Y-130810000D01*
X121830000Y-130810000D02*
X123130000Y-130810000D01*
%TO.C,D301*%
X143165000Y-120437500D02*
X141695000Y-120437500D01*
X141695000Y-120437500D02*
X141695000Y-122722500D01*
X143165000Y-122722500D02*
X143165000Y-120437500D01*
%TO.C,C301*%
X132980000Y-130507836D02*
X132980000Y-130292164D01*
X133700000Y-130507836D02*
X133700000Y-130292164D01*
%TO.C,C309*%
X138197836Y-119220000D02*
X137982164Y-119220000D01*
X138197836Y-118500000D02*
X137982164Y-118500000D01*
%TO.C,C302*%
X138197836Y-118220000D02*
X137982164Y-118220000D01*
X138197836Y-117500000D02*
X137982164Y-117500000D01*
%TO.C,C221*%
X163092164Y-125390000D02*
X163307836Y-125390000D01*
X163092164Y-126110000D02*
X163307836Y-126110000D01*
%TO.C,D302*%
X141395000Y-120437500D02*
X139925000Y-120437500D01*
X139925000Y-120437500D02*
X139925000Y-122722500D01*
X141395000Y-122722500D02*
X141395000Y-120437500D01*
%TO.C,CON101*%
X125675000Y-112200000D02*
X123845000Y-112190000D01*
X123845000Y-121360000D02*
X125675000Y-121360000D01*
%TO.C,R204*%
X161106359Y-118620000D02*
X161413641Y-118620000D01*
X161106359Y-119380000D02*
X161413641Y-119380000D01*
%TO.C,R211*%
X130993641Y-123650000D02*
X130686359Y-123650000D01*
X130993641Y-122890000D02*
X130686359Y-122890000D01*
%TO.C,R201*%
X138587258Y-124072500D02*
X138112742Y-124072500D01*
X138587258Y-123027500D02*
X138112742Y-123027500D01*
%TO.C,IC301*%
X134240000Y-133385000D02*
X134240000Y-131815000D01*
X132440000Y-133180000D02*
X132440000Y-131820000D01*
X132440000Y-133780000D02*
X132160000Y-133500000D01*
X132440000Y-133500000D01*
X132440000Y-133780000D01*
G36*
X132440000Y-133780000D02*
G01*
X132160000Y-133500000D01*
X132440000Y-133500000D01*
X132440000Y-133780000D01*
G37*
%TO.C,T301*%
X134272500Y-126128000D02*
X133622500Y-126128000D01*
X134272500Y-126128000D02*
X134922500Y-126128000D01*
X134272500Y-129248000D02*
X133622500Y-129248000D01*
X134272500Y-129248000D02*
X134922500Y-129248000D01*
X133110000Y-126178000D02*
X132870000Y-125848000D01*
X133350000Y-125848000D01*
X133110000Y-126178000D01*
G36*
X133110000Y-126178000D02*
G01*
X132870000Y-125848000D01*
X133350000Y-125848000D01*
X133110000Y-126178000D01*
G37*
%TO.C,IC202*%
X164060000Y-123850000D02*
X164060000Y-124600000D01*
X162340000Y-123100000D02*
X162340000Y-124600000D01*
%TO.C,C308*%
X148714420Y-115150000D02*
X148995580Y-115150000D01*
X148714420Y-116170000D02*
X148995580Y-116170000D01*
%TO.C,C307*%
X144302164Y-120300000D02*
X144517836Y-120300000D01*
X144302164Y-121020000D02*
X144517836Y-121020000D01*
D11*
%TO.C,M201*%
X130050000Y-95170000D02*
X130050000Y-93970000D01*
X130050000Y-101350000D02*
X130050000Y-102570000D01*
X130170000Y-93970000D02*
X130050000Y-93970000D01*
X130170000Y-102570000D02*
X130050000Y-102570000D01*
X130170000Y-102570000D02*
X132810000Y-102570000D01*
X132810000Y-93970000D02*
X130170000Y-93970000D01*
X132810000Y-93970000D02*
X132930000Y-93970000D01*
X132810000Y-102570000D02*
X132930000Y-102570000D01*
X132930000Y-95170000D02*
X132930000Y-93970000D01*
X132930000Y-101350000D02*
X132930000Y-102570000D01*
X154050000Y-95170000D02*
X154050000Y-93970000D01*
X154050000Y-101350000D02*
X154050000Y-102570000D01*
X154170000Y-93970000D02*
X154050000Y-93970000D01*
X154170000Y-102570000D02*
X154050000Y-102570000D01*
X154170000Y-102570000D02*
X156810000Y-102570000D01*
X156810000Y-93970000D02*
X154170000Y-93970000D01*
X156810000Y-93970000D02*
X156930000Y-93970000D01*
X156810000Y-102570000D02*
X156930000Y-102570000D01*
X156930000Y-95170000D02*
X156930000Y-93970000D01*
X156930000Y-101350000D02*
X156930000Y-102570000D01*
D12*
X128290000Y-79770000D02*
X158290000Y-79770000D01*
X158290000Y-109770000D01*
X128290000Y-109770000D01*
X128290000Y-79770000D01*
D10*
X133490000Y-95110000D02*
G75*
G02*
X133370000Y-95110000I-60000J0D01*
G01*
X133370000Y-95110000D02*
G75*
G02*
X133490000Y-95110000I60000J0D01*
G01*
X157490000Y-95110000D02*
G75*
G02*
X157370000Y-95110000I-60000J0D01*
G01*
X157370000Y-95110000D02*
G75*
G02*
X157490000Y-95110000I60000J0D01*
G01*
%TO.C,R306*%
X138327500Y-112307258D02*
X138327500Y-111832742D01*
X139372500Y-112307258D02*
X139372500Y-111832742D01*
%TO.C,T302*%
X137700000Y-132612500D02*
X137700000Y-131812500D01*
X137700000Y-132612500D02*
X137700000Y-133412500D01*
X134580000Y-132612500D02*
X134580000Y-131812500D01*
X134580000Y-132612500D02*
X134580000Y-133412500D01*
X137980000Y-131552500D02*
X137650000Y-131312500D01*
X137980000Y-131072500D01*
X137980000Y-131552500D01*
G36*
X137980000Y-131552500D02*
G01*
X137650000Y-131312500D01*
X137980000Y-131072500D01*
X137980000Y-131552500D01*
G37*
%TO.C,R303*%
X131686359Y-130470000D02*
X131993641Y-130470000D01*
X131686359Y-131230000D02*
X131993641Y-131230000D01*
%TD*%
M02*
