%TF.GenerationSoftware,KiCad,Pcbnew,9.0.4-9.0.4-0~ubuntu24.04.1*%
%TF.CreationDate,2025-09-20T20:46:36+02:00*%
%TF.ProjectId,Sensor_Node_Base,53656e73-6f72-45f4-9e6f-64655f426173,rev?*%
%TF.SameCoordinates,Original*%
%TF.FileFunction,Copper,L3,Inr*%
%TF.FilePolarity,Positive*%
%FSLAX46Y46*%
G04 Gerber Fmt 4.6, Leading zero omitted, Abs format (unit mm)*
G04 Created by KiCad (PCBNEW 9.0.4-9.0.4-0~ubuntu24.04.1) date 2025-09-20 20:46:36*
%MOMM*%
%LPD*%
G01*
G04 APERTURE LIST*
%TA.AperFunction,ComponentPad*%
%ADD10R,1.700000X1.700000*%
%TD*%
%TA.AperFunction,ComponentPad*%
%ADD11C,1.700000*%
%TD*%
%TA.AperFunction,ComponentPad*%
%ADD12C,0.800000*%
%TD*%
%TA.AperFunction,ComponentPad*%
%ADD13C,5.000000*%
%TD*%
%TA.AperFunction,HeatsinkPad*%
%ADD14C,0.500000*%
%TD*%
%TA.AperFunction,ComponentPad*%
%ADD15O,2.100000X1.000000*%
%TD*%
%TA.AperFunction,ComponentPad*%
%ADD16O,1.800000X1.000000*%
%TD*%
%TA.AperFunction,ComponentPad*%
%ADD17C,1.300000*%
%TD*%
%TA.AperFunction,ComponentPad*%
%ADD18C,0.400000*%
%TD*%
%TA.AperFunction,ViaPad*%
%ADD19C,0.500000*%
%TD*%
%TA.AperFunction,Conductor*%
%ADD20C,0.500000*%
%TD*%
G04 APERTURE END LIST*
D10*
%TO.N,P1.08*%
%TO.C,J201*%
X123700000Y-86610000D03*
D11*
%TO.N,P0.30*%
X126240000Y-86610000D03*
%TO.N,P0.28*%
X123700000Y-89150000D03*
%TO.N,P0.03*%
X126240000Y-89150000D03*
%TO.N,P1.14*%
X123700000Y-91690000D03*
%TO.N,P1.12*%
X126240000Y-91690000D03*
%TO.N,P1.11*%
X123700000Y-94230000D03*
%TO.N,P0.10*%
X126240000Y-94230000D03*
%TO.N,P1.10*%
X123700000Y-96770000D03*
%TO.N,P1.13*%
X126240000Y-96770000D03*
%TO.N,P1.15*%
X123700000Y-99310000D03*
%TO.N,P0.29*%
X126240000Y-99310000D03*
%TO.N,P0.31*%
X123700000Y-101850000D03*
%TO.N,unconnected-(J201-Pin_14-Pad14)*%
X126240000Y-101850000D03*
%TO.N,unconnected-(J201-Pin_15-Pad15)*%
X123700000Y-104390000D03*
%TO.N,P0.26*%
X126240000Y-104390000D03*
%TO.N,P0.11*%
X123700000Y-106930000D03*
%TO.N,P0.27*%
X126240000Y-106930000D03*
%TO.N,P0.05*%
X123700000Y-109470000D03*
%TO.N,P0.06*%
X126240000Y-109470000D03*
%TD*%
D12*
%TO.N,GND*%
%TO.C,M201*%
X129885000Y-83270000D03*
X130434175Y-81944175D03*
X130434175Y-84595825D03*
X131760000Y-81395000D03*
D13*
X131760000Y-83270000D03*
D12*
X131760000Y-85145000D03*
X133085825Y-81944175D03*
X133085825Y-84595825D03*
X133635000Y-83270000D03*
X152885000Y-106270000D03*
X153434175Y-104944175D03*
X153434175Y-107595825D03*
X154760000Y-104395000D03*
D13*
X154760000Y-106270000D03*
D12*
X154760000Y-108145000D03*
X156085825Y-104944175D03*
X156085825Y-107595825D03*
X156635000Y-106270000D03*
%TD*%
D14*
%TO.N,GND*%
%TO.C,IC302*%
X144680000Y-117810000D03*
X144680000Y-116810000D03*
X144680000Y-115810000D03*
X143680000Y-117810000D03*
X143680000Y-116810000D03*
X143680000Y-115810000D03*
X142680000Y-117810000D03*
X142680000Y-116810000D03*
X142680000Y-115810000D03*
%TD*%
D12*
%TO.N,GND*%
%TO.C,MH103*%
X159155000Y-81855825D03*
X159704175Y-80530000D03*
X159704175Y-83181650D03*
X161030000Y-79980825D03*
D13*
X161030000Y-81855825D03*
D12*
X161030000Y-83730825D03*
X162355825Y-80530000D03*
X162355825Y-83181650D03*
X162905000Y-81855825D03*
%TD*%
%TO.N,GND*%
%TO.C,MH101*%
X123245000Y-81865825D03*
X123794175Y-80540000D03*
X123794175Y-83191650D03*
X125120000Y-79990825D03*
D13*
X125120000Y-81865825D03*
D12*
X125120000Y-83740825D03*
X126445825Y-80540000D03*
X126445825Y-83191650D03*
X126995000Y-81865825D03*
%TD*%
D15*
%TO.N,GND*%
%TO.C,CON101*%
X126950000Y-112460000D03*
D16*
X122750000Y-112460000D03*
D15*
X126950000Y-121100000D03*
D16*
X122750000Y-121100000D03*
%TD*%
D17*
%TO.N,/MCU/+1.8V_LS1*%
%TO.C,TP309*%
X144390000Y-122230000D03*
%TD*%
%TO.N,/MCU/+1.8V_VDD_nRF*%
%TO.C,TP308*%
X151130000Y-117560000D03*
%TD*%
D12*
%TO.N,GND*%
%TO.C,MH102*%
X159245000Y-134855825D03*
X159794175Y-133530000D03*
X159794175Y-136181650D03*
X161120000Y-132980825D03*
D13*
X161120000Y-134855825D03*
D12*
X161120000Y-136730825D03*
X162445825Y-133530000D03*
X162445825Y-136181650D03*
X162995000Y-134855825D03*
%TD*%
D18*
%TO.N,unconnected-(IC202-THPAD-Pad5)_1*%
%TO.C,IC202*%
X163500000Y-123850000D03*
X162900000Y-123850000D03*
%TD*%
D17*
%TO.N,GND*%
%TO.C,TP303*%
X156710000Y-131380000D03*
%TD*%
%TO.N,/MCU/+5V_VBUS*%
%TO.C,TP307*%
X153350000Y-120350000D03*
%TD*%
D12*
%TO.N,GND*%
%TO.C,MH104*%
X123245000Y-134855825D03*
X123794175Y-133530000D03*
X123794175Y-136181650D03*
X125120000Y-132980825D03*
D13*
X125120000Y-134855825D03*
D12*
X125120000Y-136730825D03*
X126445825Y-133530000D03*
X126445825Y-136181650D03*
X126995000Y-134855825D03*
%TD*%
D19*
%TO.N,/MCU/+1.8V_LS1*%
X160750000Y-118000000D03*
X162720000Y-129070000D03*
X163720000Y-118000000D03*
%TO.N,GND*%
X136480000Y-116560000D03*
X153920000Y-94970000D03*
X130330000Y-124120000D03*
X141610000Y-93410000D03*
X138320000Y-130400000D03*
X150480000Y-119460000D03*
X138320000Y-131460000D03*
X132500000Y-101620000D03*
X132700000Y-116750000D03*
X163680000Y-129060000D03*
X137090000Y-132560000D03*
X129920000Y-94910000D03*
X135430000Y-122530000D03*
X130840000Y-133040000D03*
X137090000Y-130400000D03*
X138420000Y-114280000D03*
X148730500Y-129985000D03*
X144890000Y-113190000D03*
X136750000Y-118860000D03*
X138320000Y-132560000D03*
X157000000Y-101610000D03*
X150480000Y-115660000D03*
X138850000Y-110450000D03*
X140680000Y-111570000D03*
%TO.N,/POWER/+5V_VBUSIN*%
X128670000Y-119180000D03*
X130320000Y-116760000D03*
X139250000Y-117860000D03*
X128670000Y-114380000D03*
%TO.N,/MCU/+1.8V_VDD_nRF*%
X144920000Y-92720000D03*
X148080000Y-120490000D03*
X132100000Y-95480000D03*
X145480000Y-108980000D03*
X143930000Y-111560000D03*
X143130000Y-120210000D03*
X129920000Y-101610000D03*
X149990000Y-127260000D03*
X155680000Y-129560000D03*
X156110000Y-95470000D03*
X140310000Y-109000000D03*
X153020000Y-101070000D03*
%TO.N,/POWER/VSYS*%
X145780000Y-120160000D03*
X147080000Y-116660000D03*
X139660000Y-116560000D03*
X147080000Y-115960000D03*
%TO.N,/POWER/CC2*%
X132370000Y-121520000D03*
X138380000Y-121520000D03*
%TO.N,/POWER/CC1*%
X128850000Y-115250000D03*
X136960000Y-120830000D03*
%TO.N,NRF_SWCLK*%
X148890000Y-96270000D03*
%TO.N,NRF_SWDIO*%
X146820000Y-98136450D03*
%TO.N,NRF_UART_TX*%
X131270000Y-100480000D03*
X138670000Y-94920000D03*
X143270000Y-95340000D03*
%TO.N,NRF_UART_RX*%
X143280000Y-94080000D03*
X138280000Y-94080000D03*
X131250000Y-99670000D03*
%TO.N,/MCU/LS1_CTRL*%
X149020000Y-103090000D03*
X149020000Y-101360000D03*
%TO.N,/MCU/NRF_PMIC_SDA*%
X143740000Y-103040000D03*
X154930000Y-99520000D03*
%TO.N,/MCU/NRF_PMIC_SCL*%
X142160000Y-103090000D03*
X154930000Y-98670000D03*
%TO.N,/MCU/NRF_PMIC_INT*%
X149870000Y-101360000D03*
X149870000Y-103090000D03*
%TO.N,P0.27*%
X133190000Y-103970000D03*
%TO.N,P0.06*%
X133260000Y-105780000D03*
%TO.N,P0.11*%
X133100000Y-103090000D03*
%TO.N,P0.05*%
X133240000Y-104820000D03*
%TO.N,/MCU/+5V_VBUS*%
X139190000Y-118860000D03*
X139190000Y-122270000D03*
%TO.N,/MCU/NRF_PMIC_RST*%
X150860000Y-103090000D03*
X150870000Y-101370000D03*
%TO.N,P0.04*%
X130640000Y-107060000D03*
X134190000Y-122530000D03*
%TD*%
D20*
%TO.N,/MCU/+1.8V_LS1*%
X158980000Y-119270000D02*
X160250000Y-118000000D01*
X158980000Y-128370000D02*
X158980000Y-119270000D01*
X162720000Y-129070000D02*
X159680000Y-129070000D01*
X158970000Y-122230000D02*
X158980000Y-122220000D01*
X144390000Y-122230000D02*
X158970000Y-122230000D01*
X159680000Y-129070000D02*
X158980000Y-128370000D01*
X160750000Y-118000000D02*
X163720000Y-118000000D01*
X160250000Y-118000000D02*
X160750000Y-118000000D01*
%TO.N,/MCU/+5V_VBUS*%
X139190000Y-118860000D02*
X139190000Y-122270000D01*
%TD*%
%TA.AperFunction,Conductor*%
%TO.N,/MCU/+1.8V_VDD_nRF*%
G36*
X164537539Y-78411010D02*
G01*
X164583294Y-78463814D01*
X164594500Y-78515325D01*
X164594500Y-119616000D01*
X164574815Y-119683039D01*
X164522011Y-119728794D01*
X164470500Y-119740000D01*
X159870000Y-119740000D01*
X159879745Y-128403851D01*
X159860136Y-128470912D01*
X159807383Y-128516726D01*
X159738236Y-128526748D01*
X159674648Y-128497794D01*
X159668064Y-128491671D01*
X159416819Y-128240426D01*
X159383334Y-128179103D01*
X159380500Y-128152745D01*
X159380500Y-119487255D01*
X159400185Y-119420216D01*
X159416819Y-119399574D01*
X160379574Y-118436819D01*
X160440897Y-118403334D01*
X160467255Y-118400500D01*
X163772725Y-118400500D01*
X163772727Y-118400500D01*
X163874587Y-118373207D01*
X163965913Y-118320480D01*
X164040480Y-118245913D01*
X164093207Y-118154587D01*
X164120500Y-118052727D01*
X164120500Y-117947273D01*
X164093207Y-117845413D01*
X164040480Y-117754087D01*
X163965913Y-117679520D01*
X163874587Y-117626793D01*
X163772727Y-117599500D01*
X160802727Y-117599500D01*
X160302727Y-117599500D01*
X160197273Y-117599500D01*
X160095410Y-117626793D01*
X160004087Y-117679520D01*
X160004084Y-117679522D01*
X158659522Y-119024084D01*
X158659520Y-119024087D01*
X158606793Y-119115412D01*
X158589359Y-119180478D01*
X158581588Y-119209481D01*
X158581587Y-119209484D01*
X158579500Y-119217272D01*
X158579500Y-121705500D01*
X158559815Y-121772539D01*
X158507011Y-121818294D01*
X158455500Y-121829500D01*
X145151427Y-121829500D01*
X145084388Y-121809815D01*
X145048325Y-121774390D01*
X145011792Y-121719715D01*
X145011786Y-121719707D01*
X144900292Y-121608213D01*
X144900288Y-121608210D01*
X144769185Y-121520609D01*
X144769172Y-121520602D01*
X144623501Y-121460264D01*
X144623489Y-121460261D01*
X144468845Y-121429500D01*
X144468842Y-121429500D01*
X144311158Y-121429500D01*
X144311155Y-121429500D01*
X144156510Y-121460261D01*
X144156498Y-121460264D01*
X144010827Y-121520602D01*
X144010814Y-121520609D01*
X143879711Y-121608210D01*
X143879707Y-121608213D01*
X143768213Y-121719707D01*
X143768210Y-121719711D01*
X143680609Y-121850814D01*
X143680602Y-121850827D01*
X143620264Y-121996498D01*
X143620261Y-121996510D01*
X143589500Y-122151153D01*
X143589500Y-122308846D01*
X143620261Y-122463489D01*
X143620264Y-122463501D01*
X143680602Y-122609172D01*
X143680609Y-122609185D01*
X143768210Y-122740288D01*
X143768213Y-122740292D01*
X143879707Y-122851786D01*
X143879711Y-122851789D01*
X144010814Y-122939390D01*
X144010827Y-122939397D01*
X144156498Y-122999735D01*
X144156503Y-122999737D01*
X144311153Y-123030499D01*
X144311156Y-123030500D01*
X144311158Y-123030500D01*
X144468844Y-123030500D01*
X144468845Y-123030499D01*
X144623497Y-122999737D01*
X144769179Y-122939394D01*
X144900289Y-122851789D01*
X145011789Y-122740289D01*
X145048325Y-122685610D01*
X145101937Y-122640804D01*
X145151427Y-122630500D01*
X158455500Y-122630500D01*
X158522539Y-122650185D01*
X158568294Y-122702989D01*
X158579500Y-122754500D01*
X158579500Y-128422726D01*
X158606793Y-128524589D01*
X158608040Y-128526748D01*
X158659520Y-128615913D01*
X159359519Y-129315912D01*
X159359520Y-129315913D01*
X159434087Y-129390480D01*
X159525413Y-129443207D01*
X159627273Y-129470500D01*
X159627275Y-129470500D01*
X162772725Y-129470500D01*
X162772727Y-129470500D01*
X162874587Y-129443207D01*
X162965913Y-129390480D01*
X163040480Y-129315913D01*
X163093207Y-129224587D01*
X163093207Y-129224584D01*
X163095499Y-129220616D01*
X163146065Y-129172400D01*
X163214672Y-129159176D01*
X163279537Y-129185144D01*
X163310272Y-129220612D01*
X163359520Y-129305913D01*
X163434087Y-129380480D01*
X163525413Y-129433207D01*
X163627273Y-129460500D01*
X163627275Y-129460500D01*
X163732725Y-129460500D01*
X163732727Y-129460500D01*
X163834587Y-129433207D01*
X163925913Y-129380480D01*
X164000480Y-129305913D01*
X164053207Y-129214587D01*
X164080500Y-129112727D01*
X164080500Y-129007273D01*
X164053207Y-128905413D01*
X164000480Y-128814087D01*
X164000478Y-128814085D01*
X164000477Y-128814083D01*
X163995531Y-128807637D01*
X163996806Y-128806658D01*
X163967838Y-128753607D01*
X163972822Y-128683915D01*
X164014694Y-128627982D01*
X164080158Y-128603565D01*
X164088215Y-128603252D01*
X164469712Y-128600827D01*
X164536875Y-128620085D01*
X164582965Y-128672597D01*
X164594500Y-128724824D01*
X164594500Y-138206325D01*
X164574815Y-138273364D01*
X164522011Y-138319119D01*
X164470500Y-138330325D01*
X121769500Y-138330325D01*
X121702461Y-138310640D01*
X121656706Y-138257836D01*
X121645500Y-138206325D01*
X121645500Y-134706971D01*
X122469500Y-134706971D01*
X122469500Y-135004678D01*
X122502830Y-135300487D01*
X122502831Y-135300496D01*
X122502832Y-135300500D01*
X122515697Y-135356866D01*
X122569076Y-135590737D01*
X122569079Y-135590745D01*
X122667400Y-135871729D01*
X122796563Y-136139939D01*
X122796565Y-136139942D01*
X122954950Y-136392010D01*
X123140562Y-136624759D01*
X123351066Y-136835263D01*
X123583815Y-137020875D01*
X123835883Y-137179260D01*
X124104099Y-137308426D01*
X124315135Y-137382270D01*
X124385079Y-137406745D01*
X124385087Y-137406748D01*
X124385090Y-137406748D01*
X124385091Y-137406749D01*
X124675325Y-137472993D01*
X124971147Y-137506324D01*
X124971148Y-137506325D01*
X124971151Y-137506325D01*
X125268852Y-137506325D01*
X125268852Y-137506324D01*
X125564675Y-137472993D01*
X125854909Y-137406749D01*
X126135901Y-137308426D01*
X126404117Y-137179260D01*
X126656185Y-137020875D01*
X126888934Y-136835263D01*
X127099438Y-136624759D01*
X127285050Y-136392010D01*
X127443435Y-136139942D01*
X127572601Y-135871726D01*
X127670924Y-135590734D01*
X127737168Y-135300500D01*
X127770500Y-135004674D01*
X127770500Y-134748592D01*
X130893500Y-134748592D01*
X130893500Y-134911407D01*
X130925259Y-135071073D01*
X130925262Y-135071082D01*
X130987562Y-135221490D01*
X130987563Y-135221492D01*
X131078015Y-135356862D01*
X131078018Y-135356866D01*
X131193133Y-135471981D01*
X131193137Y-135471984D01*
X131328505Y-135562435D01*
X131328506Y-135562435D01*
X131328507Y-135562436D01*
X131328509Y-135562437D01*
X131396852Y-135590745D01*
X131478919Y-135624738D01*
X131478921Y-135624738D01*
X131478926Y-135624740D01*
X131638592Y-135656499D01*
X131638595Y-135656500D01*
X131638597Y-135656500D01*
X131801405Y-135656500D01*
X131801406Y-135656499D01*
X131854629Y-135645912D01*
X131961073Y-135624740D01*
X131961076Y-135624738D01*
X131961081Y-135624738D01*
X132111495Y-135562435D01*
X132246863Y-135471984D01*
X132361984Y-135356863D01*
X132452435Y-135221495D01*
X132514738Y-135071081D01*
X132527947Y-135004678D01*
X132546499Y-134911407D01*
X132546500Y-134911405D01*
X132546500Y-134748597D01*
X132542341Y-134727687D01*
X132542341Y-134727684D01*
X132538221Y-134706971D01*
X158469500Y-134706971D01*
X158469500Y-135004678D01*
X158502830Y-135300487D01*
X158502831Y-135300496D01*
X158502832Y-135300500D01*
X158515697Y-135356866D01*
X158569076Y-135590737D01*
X158569079Y-135590745D01*
X158667400Y-135871729D01*
X158796563Y-136139939D01*
X158796565Y-136139942D01*
X158954950Y-136392010D01*
X159140562Y-136624759D01*
X159351066Y-136835263D01*
X159583815Y-137020875D01*
X159835883Y-137179260D01*
X160104099Y-137308426D01*
X160315135Y-137382270D01*
X160385079Y-137406745D01*
X160385087Y-137406748D01*
X160385090Y-137406748D01*
X160385091Y-137406749D01*
X160675325Y-137472993D01*
X160971147Y-137506324D01*
X160971148Y-137506325D01*
X160971151Y-137506325D01*
X161268852Y-137506325D01*
X161268852Y-137506324D01*
X161564675Y-137472993D01*
X161854909Y-137406749D01*
X162135901Y-137308426D01*
X162404117Y-137179260D01*
X162656185Y-137020875D01*
X162888934Y-136835263D01*
X163099438Y-136624759D01*
X163285050Y-136392010D01*
X163443435Y-136139942D01*
X163572601Y-135871726D01*
X163670924Y-135590734D01*
X163737168Y-135300500D01*
X163770500Y-135004674D01*
X163770500Y-134706976D01*
X163737168Y-134411150D01*
X163670924Y-134120916D01*
X163662752Y-134097563D01*
X163640951Y-134035259D01*
X163572601Y-133839924D01*
X163443435Y-133571708D01*
X163285050Y-133319640D01*
X163099438Y-133086891D01*
X162888934Y-132876387D01*
X162656185Y-132690775D01*
X162404117Y-132532390D01*
X162404114Y-132532388D01*
X162135904Y-132403225D01*
X161854920Y-132304904D01*
X161854912Y-132304901D01*
X161637233Y-132255218D01*
X161564675Y-132238657D01*
X161564671Y-132238656D01*
X161564662Y-132238655D01*
X161268853Y-132205325D01*
X161268849Y-132205325D01*
X160971151Y-132205325D01*
X160971146Y-132205325D01*
X160675337Y-132238655D01*
X160675325Y-132238657D01*
X160385087Y-132304901D01*
X160385079Y-132304904D01*
X160104095Y-132403225D01*
X159835885Y-132532388D01*
X159583816Y-132690774D01*
X159351066Y-132876386D01*
X159140561Y-133086891D01*
X158954949Y-133319641D01*
X158796563Y-133571710D01*
X158667400Y-133839920D01*
X158569079Y-134120904D01*
X158569076Y-134120912D01*
X158502832Y-134411150D01*
X158502830Y-134411162D01*
X158469500Y-134706971D01*
X132538221Y-134706971D01*
X132514739Y-134588925D01*
X132514738Y-134588919D01*
X132452435Y-134438505D01*
X132361984Y-134303137D01*
X132361981Y-134303133D01*
X132246866Y-134188018D01*
X132246862Y-134188015D01*
X132111492Y-134097563D01*
X132111490Y-134097562D01*
X131961082Y-134035262D01*
X131961073Y-134035259D01*
X131801406Y-134003500D01*
X131801403Y-134003500D01*
X131638597Y-134003500D01*
X131638594Y-134003500D01*
X131478926Y-134035259D01*
X131478917Y-134035262D01*
X131328509Y-134097562D01*
X131328507Y-134097563D01*
X131193137Y-134188015D01*
X131193133Y-134188018D01*
X131078018Y-134303133D01*
X131078015Y-134303137D01*
X130987563Y-134438507D01*
X130987562Y-134438509D01*
X130925262Y-134588917D01*
X130925259Y-134588926D01*
X130893500Y-134748592D01*
X127770500Y-134748592D01*
X127770500Y-134706976D01*
X127737168Y-134411150D01*
X127670924Y-134120916D01*
X127662752Y-134097563D01*
X127640951Y-134035259D01*
X127572601Y-133839924D01*
X127443435Y-133571708D01*
X127285050Y-133319640D01*
X127099438Y-133086891D01*
X126999820Y-132987273D01*
X130439500Y-132987273D01*
X130439500Y-133092727D01*
X130466793Y-133194587D01*
X130519520Y-133285913D01*
X130594087Y-133360480D01*
X130685413Y-133413207D01*
X130787273Y-133440500D01*
X130787275Y-133440500D01*
X130892725Y-133440500D01*
X130892727Y-133440500D01*
X130994587Y-133413207D01*
X131085913Y-133360480D01*
X131160480Y-133285913D01*
X131213207Y-133194587D01*
X131240500Y-133092727D01*
X131240500Y-132987273D01*
X131213207Y-132885413D01*
X131160480Y-132794087D01*
X131085913Y-132719520D01*
X130994587Y-132666793D01*
X130892727Y-132639500D01*
X130787273Y-132639500D01*
X130685413Y-132666793D01*
X130685410Y-132666794D01*
X130594085Y-132719521D01*
X130519521Y-132794085D01*
X130466794Y-132885410D01*
X130466793Y-132885413D01*
X130439500Y-132987273D01*
X126999820Y-132987273D01*
X126888934Y-132876387D01*
X126656185Y-132690775D01*
X126404117Y-132532390D01*
X126404114Y-132532388D01*
X126351962Y-132507273D01*
X136689500Y-132507273D01*
X136689500Y-132612727D01*
X136716793Y-132714587D01*
X136769520Y-132805913D01*
X136844087Y-132880480D01*
X136935413Y-132933207D01*
X137037273Y-132960500D01*
X137037275Y-132960500D01*
X137142725Y-132960500D01*
X137142727Y-132960500D01*
X137244587Y-132933207D01*
X137335913Y-132880480D01*
X137410480Y-132805913D01*
X137463207Y-132714587D01*
X137490500Y-132612727D01*
X137490500Y-132507273D01*
X137919500Y-132507273D01*
X137919500Y-132612727D01*
X137946793Y-132714587D01*
X137999520Y-132805913D01*
X138074087Y-132880480D01*
X138165413Y-132933207D01*
X138267273Y-132960500D01*
X138267275Y-132960500D01*
X138372725Y-132960500D01*
X138372727Y-132960500D01*
X138474587Y-132933207D01*
X138565913Y-132880480D01*
X138640480Y-132805913D01*
X138693207Y-132714587D01*
X138720500Y-132612727D01*
X138720500Y-132507273D01*
X138693207Y-132405413D01*
X138640480Y-132314087D01*
X138565913Y-132239520D01*
X138474587Y-132186793D01*
X138372727Y-132159500D01*
X138267273Y-132159500D01*
X138165413Y-132186793D01*
X138165410Y-132186794D01*
X138074085Y-132239521D01*
X137999521Y-132314085D01*
X137946794Y-132405410D01*
X137946793Y-132405413D01*
X137919500Y-132507273D01*
X137490500Y-132507273D01*
X137463207Y-132405413D01*
X137410480Y-132314087D01*
X137335913Y-132239520D01*
X137244587Y-132186793D01*
X137142727Y-132159500D01*
X137037273Y-132159500D01*
X136935413Y-132186793D01*
X136935410Y-132186794D01*
X136844085Y-132239521D01*
X136769521Y-132314085D01*
X136716794Y-132405410D01*
X136716793Y-132405413D01*
X136689500Y-132507273D01*
X126351962Y-132507273D01*
X126135904Y-132403225D01*
X125854920Y-132304904D01*
X125854912Y-132304901D01*
X125637233Y-132255218D01*
X125564675Y-132238657D01*
X125564671Y-132238656D01*
X125564662Y-132238655D01*
X125268853Y-132205325D01*
X125268849Y-132205325D01*
X124971151Y-132205325D01*
X124971146Y-132205325D01*
X124675337Y-132238655D01*
X124675325Y-132238657D01*
X124385087Y-132304901D01*
X124385079Y-132304904D01*
X124104095Y-132403225D01*
X123835885Y-132532388D01*
X123583816Y-132690774D01*
X123351066Y-132876386D01*
X123140561Y-133086891D01*
X122954949Y-133319641D01*
X122796563Y-133571710D01*
X122667400Y-133839920D01*
X122569079Y-134120904D01*
X122569076Y-134120912D01*
X122502832Y-134411150D01*
X122502830Y-134411162D01*
X122469500Y-134706971D01*
X121645500Y-134706971D01*
X121645500Y-131407273D01*
X137919500Y-131407273D01*
X137919500Y-131512727D01*
X137946793Y-131614587D01*
X137999520Y-131705913D01*
X138074087Y-131780480D01*
X138165413Y-131833207D01*
X138267273Y-131860500D01*
X138267275Y-131860500D01*
X138372725Y-131860500D01*
X138372727Y-131860500D01*
X138474587Y-131833207D01*
X138565913Y-131780480D01*
X138640480Y-131705913D01*
X138693207Y-131614587D01*
X138720500Y-131512727D01*
X138720500Y-131407273D01*
X138693207Y-131305413D01*
X138690747Y-131301153D01*
X155909500Y-131301153D01*
X155909500Y-131458846D01*
X155940261Y-131613489D01*
X155940264Y-131613501D01*
X156000602Y-131759172D01*
X156000609Y-131759185D01*
X156088210Y-131890288D01*
X156088213Y-131890292D01*
X156199707Y-132001786D01*
X156199711Y-132001789D01*
X156330814Y-132089390D01*
X156330827Y-132089397D01*
X156476498Y-132149735D01*
X156476503Y-132149737D01*
X156631153Y-132180499D01*
X156631156Y-132180500D01*
X156631158Y-132180500D01*
X156788844Y-132180500D01*
X156788845Y-132180499D01*
X156943497Y-132149737D01*
X157089179Y-132089394D01*
X157220289Y-132001789D01*
X157331789Y-131890289D01*
X157419394Y-131759179D01*
X157479737Y-131613497D01*
X157510500Y-131458842D01*
X157510500Y-131301158D01*
X157510500Y-131301155D01*
X157510499Y-131301153D01*
X157481798Y-131156866D01*
X157479737Y-131146503D01*
X157455005Y-131086794D01*
X157419397Y-131000827D01*
X157419390Y-131000814D01*
X157331789Y-130869711D01*
X157331786Y-130869707D01*
X157220292Y-130758213D01*
X157220288Y-130758210D01*
X157089185Y-130670609D01*
X157089176Y-130670604D01*
X157056491Y-130657066D01*
X157056489Y-130657065D01*
X156943501Y-130610264D01*
X156943489Y-130610261D01*
X156788845Y-130579500D01*
X156788842Y-130579500D01*
X156631158Y-130579500D01*
X156631155Y-130579500D01*
X156476510Y-130610261D01*
X156476498Y-130610264D01*
X156330827Y-130670602D01*
X156330814Y-130670609D01*
X156199711Y-130758210D01*
X156199707Y-130758213D01*
X156088213Y-130869707D01*
X156088210Y-130869711D01*
X156000609Y-131000814D01*
X156000602Y-131000827D01*
X155940264Y-131146498D01*
X155940261Y-131146510D01*
X155909500Y-131301153D01*
X138690747Y-131301153D01*
X138640480Y-131214087D01*
X138565913Y-131139520D01*
X138474587Y-131086793D01*
X138372727Y-131059500D01*
X138267273Y-131059500D01*
X138165413Y-131086793D01*
X138165410Y-131086794D01*
X138074085Y-131139521D01*
X137999521Y-131214085D01*
X137946794Y-131305410D01*
X137946793Y-131305413D01*
X137919500Y-131407273D01*
X121645500Y-131407273D01*
X121645500Y-130347273D01*
X136689500Y-130347273D01*
X136689500Y-130452727D01*
X136716793Y-130554587D01*
X136769520Y-130645913D01*
X136844087Y-130720480D01*
X136935413Y-130773207D01*
X137037273Y-130800500D01*
X137037275Y-130800500D01*
X137142725Y-130800500D01*
X137142727Y-130800500D01*
X137244587Y-130773207D01*
X137335913Y-130720480D01*
X137410480Y-130645913D01*
X137463207Y-130554587D01*
X137490500Y-130452727D01*
X137490500Y-130347273D01*
X137919500Y-130347273D01*
X137919500Y-130452727D01*
X137946793Y-130554587D01*
X137999520Y-130645913D01*
X138074087Y-130720480D01*
X138165413Y-130773207D01*
X138267273Y-130800500D01*
X138267275Y-130800500D01*
X138372725Y-130800500D01*
X138372727Y-130800500D01*
X138474587Y-130773207D01*
X138565913Y-130720480D01*
X138640480Y-130645913D01*
X138693207Y-130554587D01*
X138694813Y-130548592D01*
X162423500Y-130548592D01*
X162423500Y-130711407D01*
X162455259Y-130871073D01*
X162455262Y-130871082D01*
X162517562Y-131021490D01*
X162517563Y-131021492D01*
X162608015Y-131156862D01*
X162608018Y-131156866D01*
X162723133Y-131271981D01*
X162723137Y-131271984D01*
X162858505Y-131362435D01*
X162858506Y-131362435D01*
X162858507Y-131362436D01*
X162858509Y-131362437D01*
X162958781Y-131403970D01*
X163008919Y-131424738D01*
X163008921Y-131424738D01*
X163008926Y-131424740D01*
X163168592Y-131456499D01*
X163168595Y-131456500D01*
X163168597Y-131456500D01*
X163331405Y-131456500D01*
X163331406Y-131456499D01*
X163384629Y-131445912D01*
X163491073Y-131424740D01*
X163491076Y-131424738D01*
X163491081Y-131424738D01*
X163641495Y-131362435D01*
X163776863Y-131271984D01*
X163891984Y-131156863D01*
X163982435Y-131021495D01*
X164044738Y-130871081D01*
X164045012Y-130869707D01*
X164076499Y-130711407D01*
X164076500Y-130711405D01*
X164076500Y-130548594D01*
X164076499Y-130548592D01*
X164044740Y-130388926D01*
X164044737Y-130388917D01*
X163982437Y-130238509D01*
X163982436Y-130238507D01*
X163977362Y-130230914D01*
X163891984Y-130103137D01*
X163891981Y-130103133D01*
X163776866Y-129988018D01*
X163776862Y-129988015D01*
X163641492Y-129897563D01*
X163641490Y-129897562D01*
X163491082Y-129835262D01*
X163491073Y-129835259D01*
X163331406Y-129803500D01*
X163331403Y-129803500D01*
X163168597Y-129803500D01*
X163168594Y-129803500D01*
X163008926Y-129835259D01*
X163008917Y-129835262D01*
X162858509Y-129897562D01*
X162858507Y-129897563D01*
X162723137Y-129988015D01*
X162723133Y-129988018D01*
X162608018Y-130103133D01*
X162608015Y-130103137D01*
X162517563Y-130238507D01*
X162517562Y-130238509D01*
X162455262Y-130388917D01*
X162455259Y-130388926D01*
X162423500Y-130548592D01*
X138694813Y-130548592D01*
X138720500Y-130452727D01*
X138720500Y-130347273D01*
X138693207Y-130245413D01*
X138640480Y-130154087D01*
X138565913Y-130079520D01*
X138482794Y-130031531D01*
X138474589Y-130026794D01*
X138474588Y-130026793D01*
X138474587Y-130026793D01*
X138372727Y-129999500D01*
X138267273Y-129999500D01*
X138165413Y-130026793D01*
X138165410Y-130026794D01*
X138074085Y-130079521D01*
X137999521Y-130154085D01*
X137946794Y-130245410D01*
X137946793Y-130245413D01*
X137919500Y-130347273D01*
X137490500Y-130347273D01*
X137463207Y-130245413D01*
X137410480Y-130154087D01*
X137335913Y-130079520D01*
X137252797Y-130031533D01*
X137244589Y-130026794D01*
X137244588Y-130026793D01*
X137244587Y-130026793D01*
X137142727Y-129999500D01*
X137037273Y-129999500D01*
X136935413Y-130026793D01*
X136935410Y-130026794D01*
X136844085Y-130079521D01*
X136769521Y-130154085D01*
X136716794Y-130245410D01*
X136716793Y-130245413D01*
X136689500Y-130347273D01*
X121645500Y-130347273D01*
X121645500Y-129932273D01*
X148330000Y-129932273D01*
X148330000Y-130037727D01*
X148357293Y-130139587D01*
X148410020Y-130230913D01*
X148484587Y-130305480D01*
X148575913Y-130358207D01*
X148677773Y-130385500D01*
X148677775Y-130385500D01*
X148783225Y-130385500D01*
X148783227Y-130385500D01*
X148885087Y-130358207D01*
X148976413Y-130305480D01*
X149050980Y-130230913D01*
X149103707Y-130139587D01*
X149131000Y-130037727D01*
X149131000Y-129932273D01*
X149103707Y-129830413D01*
X149050980Y-129739087D01*
X148976413Y-129664520D01*
X148885087Y-129611793D01*
X148783227Y-129584500D01*
X148677773Y-129584500D01*
X148575913Y-129611793D01*
X148575910Y-129611794D01*
X148484585Y-129664521D01*
X148410021Y-129739085D01*
X148357294Y-129830410D01*
X148357293Y-129830413D01*
X148330000Y-129932273D01*
X121645500Y-129932273D01*
X121645500Y-124067273D01*
X129929500Y-124067273D01*
X129929500Y-124172727D01*
X129956793Y-124274587D01*
X130009520Y-124365913D01*
X130084087Y-124440480D01*
X130175413Y-124493207D01*
X130277273Y-124520500D01*
X130277275Y-124520500D01*
X130382725Y-124520500D01*
X130382727Y-124520500D01*
X130484587Y-124493207D01*
X130575913Y-124440480D01*
X130650480Y-124365913D01*
X130703207Y-124274587D01*
X130730500Y-124172727D01*
X130730500Y-124067273D01*
X130703207Y-123965413D01*
X130650480Y-123874087D01*
X130575913Y-123799520D01*
X130484587Y-123746793D01*
X130382727Y-123719500D01*
X130277273Y-123719500D01*
X130175413Y-123746793D01*
X130175410Y-123746794D01*
X130084085Y-123799521D01*
X130009521Y-123874085D01*
X129956794Y-123965410D01*
X129956793Y-123965413D01*
X129929500Y-124067273D01*
X121645500Y-124067273D01*
X121645500Y-122477273D01*
X133789500Y-122477273D01*
X133789500Y-122582727D01*
X133813019Y-122670500D01*
X133816793Y-122684586D01*
X133816794Y-122684589D01*
X133827417Y-122702989D01*
X133869520Y-122775913D01*
X133944087Y-122850480D01*
X134035413Y-122903207D01*
X134137273Y-122930500D01*
X134137275Y-122930500D01*
X134242725Y-122930500D01*
X134242727Y-122930500D01*
X134344587Y-122903207D01*
X134435913Y-122850480D01*
X134510480Y-122775913D01*
X134563207Y-122684587D01*
X134590500Y-122582727D01*
X134590500Y-122477273D01*
X135029500Y-122477273D01*
X135029500Y-122582727D01*
X135053019Y-122670500D01*
X135056793Y-122684586D01*
X135056794Y-122684589D01*
X135067417Y-122702989D01*
X135109520Y-122775913D01*
X135184087Y-122850480D01*
X135275413Y-122903207D01*
X135377273Y-122930500D01*
X135377275Y-122930500D01*
X135482725Y-122930500D01*
X135482727Y-122930500D01*
X135584587Y-122903207D01*
X135675913Y-122850480D01*
X135750480Y-122775913D01*
X135803207Y-122684587D01*
X135830500Y-122582727D01*
X135830500Y-122477273D01*
X135803207Y-122375413D01*
X135750480Y-122284087D01*
X135675913Y-122209520D01*
X135584587Y-122156793D01*
X135482727Y-122129500D01*
X135377273Y-122129500D01*
X135275413Y-122156793D01*
X135275410Y-122156794D01*
X135184085Y-122209521D01*
X135109521Y-122284085D01*
X135056794Y-122375410D01*
X135056793Y-122375413D01*
X135029500Y-122477273D01*
X134590500Y-122477273D01*
X134563207Y-122375413D01*
X134510480Y-122284087D01*
X134435913Y-122209520D01*
X134344587Y-122156793D01*
X134242727Y-122129500D01*
X134137273Y-122129500D01*
X134035413Y-122156793D01*
X134035410Y-122156794D01*
X133944085Y-122209521D01*
X133869521Y-122284085D01*
X133816794Y-122375410D01*
X133816793Y-122375413D01*
X133789500Y-122477273D01*
X121645500Y-122477273D01*
X121645500Y-121542111D01*
X121665185Y-121475072D01*
X121717989Y-121429317D01*
X121787147Y-121419373D01*
X121850703Y-121448398D01*
X121867877Y-121466626D01*
X121869478Y-121468713D01*
X121869480Y-121468716D01*
X121981284Y-121580520D01*
X121981286Y-121580521D01*
X121981290Y-121580524D01*
X122118209Y-121659573D01*
X122118216Y-121659577D01*
X122270943Y-121700500D01*
X122270945Y-121700500D01*
X123229055Y-121700500D01*
X123229057Y-121700500D01*
X123381784Y-121659577D01*
X123518716Y-121580520D01*
X123630520Y-121468716D01*
X123709577Y-121331784D01*
X123750500Y-121179057D01*
X123750500Y-121020943D01*
X125799500Y-121020943D01*
X125799500Y-121179057D01*
X125805971Y-121203205D01*
X125840423Y-121331783D01*
X125840426Y-121331790D01*
X125919475Y-121468709D01*
X125919479Y-121468714D01*
X125919480Y-121468716D01*
X126031284Y-121580520D01*
X126031286Y-121580521D01*
X126031290Y-121580524D01*
X126168209Y-121659573D01*
X126168216Y-121659577D01*
X126320943Y-121700500D01*
X126320945Y-121700500D01*
X127579055Y-121700500D01*
X127579057Y-121700500D01*
X127731784Y-121659577D01*
X127868716Y-121580520D01*
X127980520Y-121468716D01*
X127981353Y-121467273D01*
X131969500Y-121467273D01*
X131969500Y-121572727D01*
X131996793Y-121674587D01*
X132049520Y-121765913D01*
X132124087Y-121840480D01*
X132215413Y-121893207D01*
X132317273Y-121920500D01*
X132317275Y-121920500D01*
X132422725Y-121920500D01*
X132422727Y-121920500D01*
X132524587Y-121893207D01*
X132615913Y-121840480D01*
X132690480Y-121765913D01*
X132743207Y-121674587D01*
X132770500Y-121572727D01*
X132770500Y-121467273D01*
X137979500Y-121467273D01*
X137979500Y-121572727D01*
X138006793Y-121674587D01*
X138059520Y-121765913D01*
X138134087Y-121840480D01*
X138225413Y-121893207D01*
X138327273Y-121920500D01*
X138327275Y-121920500D01*
X138432725Y-121920500D01*
X138432727Y-121920500D01*
X138534587Y-121893207D01*
X138603501Y-121853419D01*
X138671399Y-121836946D01*
X138737426Y-121859798D01*
X138780617Y-121914719D01*
X138789500Y-121960806D01*
X138789500Y-122322727D01*
X138816793Y-122424587D01*
X138869520Y-122515913D01*
X138944087Y-122590480D01*
X139035413Y-122643207D01*
X139137273Y-122670500D01*
X139137275Y-122670500D01*
X139242725Y-122670500D01*
X139242727Y-122670500D01*
X139344587Y-122643207D01*
X139435913Y-122590480D01*
X139510480Y-122515913D01*
X139563207Y-122424587D01*
X139590500Y-122322727D01*
X139590500Y-120107273D01*
X145379500Y-120107273D01*
X145379500Y-120212727D01*
X145406793Y-120314587D01*
X145459520Y-120405913D01*
X145534087Y-120480480D01*
X145625413Y-120533207D01*
X145727273Y-120560500D01*
X145727275Y-120560500D01*
X145832725Y-120560500D01*
X145832727Y-120560500D01*
X145934587Y-120533207D01*
X146025913Y-120480480D01*
X146100480Y-120405913D01*
X146153207Y-120314587D01*
X146164845Y-120271153D01*
X152549500Y-120271153D01*
X152549500Y-120428846D01*
X152580261Y-120583489D01*
X152580264Y-120583501D01*
X152640602Y-120729172D01*
X152640609Y-120729185D01*
X152728210Y-120860288D01*
X152728213Y-120860292D01*
X152839707Y-120971786D01*
X152839711Y-120971789D01*
X152970814Y-121059390D01*
X152970827Y-121059397D01*
X153115931Y-121119500D01*
X153116503Y-121119737D01*
X153252522Y-121146793D01*
X153271153Y-121150499D01*
X153271156Y-121150500D01*
X153271158Y-121150500D01*
X153428844Y-121150500D01*
X153428845Y-121150499D01*
X153583497Y-121119737D01*
X153729179Y-121059394D01*
X153860289Y-120971789D01*
X153971789Y-120860289D01*
X154059394Y-120729179D01*
X154119737Y-120583497D01*
X154150500Y-120428842D01*
X154150500Y-120271158D01*
X154150500Y-120271155D01*
X154150499Y-120271153D01*
X154122524Y-120130514D01*
X154119737Y-120116503D01*
X154081159Y-120023367D01*
X154059397Y-119970827D01*
X154059390Y-119970814D01*
X153971789Y-119839711D01*
X153971786Y-119839707D01*
X153860292Y-119728213D01*
X153860288Y-119728210D01*
X153729185Y-119640609D01*
X153729172Y-119640602D01*
X153583501Y-119580264D01*
X153583489Y-119580261D01*
X153428845Y-119549500D01*
X153428842Y-119549500D01*
X153271158Y-119549500D01*
X153271155Y-119549500D01*
X153116510Y-119580261D01*
X153116498Y-119580264D01*
X152970827Y-119640602D01*
X152970814Y-119640609D01*
X152839711Y-119728210D01*
X152839707Y-119728213D01*
X152728213Y-119839707D01*
X152728210Y-119839711D01*
X152640609Y-119970814D01*
X152640602Y-119970827D01*
X152580264Y-120116498D01*
X152580261Y-120116510D01*
X152549500Y-120271153D01*
X146164845Y-120271153D01*
X146180500Y-120212727D01*
X146180500Y-120107273D01*
X146153207Y-120005413D01*
X146100480Y-119914087D01*
X146025913Y-119839520D01*
X145934587Y-119786793D01*
X145832727Y-119759500D01*
X145727273Y-119759500D01*
X145625413Y-119786793D01*
X145625410Y-119786794D01*
X145534085Y-119839521D01*
X145459521Y-119914085D01*
X145406794Y-120005410D01*
X145406793Y-120005413D01*
X145379500Y-120107273D01*
X139590500Y-120107273D01*
X139590500Y-119407273D01*
X150079500Y-119407273D01*
X150079500Y-119512727D01*
X150106793Y-119614587D01*
X150159520Y-119705913D01*
X150234087Y-119780480D01*
X150325413Y-119833207D01*
X150427273Y-119860500D01*
X150427275Y-119860500D01*
X150532725Y-119860500D01*
X150532727Y-119860500D01*
X150634587Y-119833207D01*
X150725913Y-119780480D01*
X150800480Y-119705913D01*
X150853207Y-119614587D01*
X150880500Y-119512727D01*
X150880500Y-119407273D01*
X150853207Y-119305413D01*
X150800480Y-119214087D01*
X150725913Y-119139520D01*
X150634587Y-119086793D01*
X150532727Y-119059500D01*
X150427273Y-119059500D01*
X150325413Y-119086793D01*
X150325410Y-119086794D01*
X150234085Y-119139521D01*
X150159521Y-119214085D01*
X150106794Y-119305410D01*
X150106793Y-119305413D01*
X150079500Y-119407273D01*
X139590500Y-119407273D01*
X139590500Y-118807273D01*
X139563207Y-118705413D01*
X139510480Y-118614087D01*
X139435913Y-118539520D01*
X139344587Y-118486793D01*
X139328829Y-118482570D01*
X139311951Y-118471377D01*
X139301968Y-118459515D01*
X139288729Y-118451445D01*
X139279928Y-118433327D01*
X139266961Y-118417919D01*
X139264975Y-118402542D01*
X139258202Y-118388597D01*
X139260593Y-118368599D01*
X139258015Y-118348625D01*
X139264657Y-118334617D01*
X139266499Y-118319222D01*
X139279323Y-118303690D01*
X139287953Y-118285494D01*
X139301114Y-118277300D01*
X139310987Y-118265345D01*
X139346022Y-118249345D01*
X139347269Y-118248570D01*
X139347707Y-118248576D01*
X139348390Y-118248264D01*
X139404587Y-118233207D01*
X139495913Y-118180480D01*
X139570480Y-118105913D01*
X139623207Y-118014587D01*
X139650500Y-117912727D01*
X139650500Y-117807273D01*
X139623207Y-117705413D01*
X139570480Y-117614087D01*
X139495913Y-117539520D01*
X139409312Y-117489521D01*
X139404589Y-117486794D01*
X139404588Y-117486793D01*
X139404587Y-117486793D01*
X139302727Y-117459500D01*
X139197273Y-117459500D01*
X139095413Y-117486793D01*
X139095410Y-117486794D01*
X139004085Y-117539521D01*
X138929521Y-117614085D01*
X138876794Y-117705410D01*
X138876793Y-117705413D01*
X138849500Y-117807273D01*
X138849500Y-117912727D01*
X138876793Y-118014587D01*
X138929520Y-118105913D01*
X139004087Y-118180480D01*
X139095413Y-118233207D01*
X139095418Y-118233208D01*
X139102920Y-118236316D01*
X139102003Y-118238527D01*
X139151256Y-118268539D01*
X139181793Y-118331382D01*
X139173508Y-118400758D01*
X139129030Y-118454642D01*
X139091607Y-118471736D01*
X139035411Y-118486793D01*
X139035410Y-118486794D01*
X138944085Y-118539521D01*
X138869521Y-118614085D01*
X138816794Y-118705410D01*
X138816793Y-118705413D01*
X138789500Y-118807273D01*
X138789500Y-121079193D01*
X138769815Y-121146232D01*
X138717011Y-121191987D01*
X138647853Y-121201931D01*
X138603500Y-121186580D01*
X138590466Y-121179055D01*
X138534587Y-121146793D01*
X138432727Y-121119500D01*
X138327273Y-121119500D01*
X138225413Y-121146793D01*
X138225410Y-121146794D01*
X138134085Y-121199521D01*
X138059521Y-121274085D01*
X138006794Y-121365410D01*
X138006793Y-121365413D01*
X137979500Y-121467273D01*
X132770500Y-121467273D01*
X132743207Y-121365413D01*
X132690480Y-121274087D01*
X132615913Y-121199520D01*
X132524587Y-121146793D01*
X132422727Y-121119500D01*
X132317273Y-121119500D01*
X132215413Y-121146793D01*
X132215410Y-121146794D01*
X132124085Y-121199521D01*
X132049521Y-121274085D01*
X131996794Y-121365410D01*
X131996793Y-121365413D01*
X131969500Y-121467273D01*
X127981353Y-121467273D01*
X128059577Y-121331784D01*
X128100500Y-121179057D01*
X128100500Y-121020943D01*
X128059577Y-120868216D01*
X128038173Y-120831142D01*
X128007072Y-120777273D01*
X136559500Y-120777273D01*
X136559500Y-120882727D01*
X136586793Y-120984587D01*
X136639520Y-121075913D01*
X136714087Y-121150480D01*
X136805413Y-121203207D01*
X136907273Y-121230500D01*
X136907275Y-121230500D01*
X137012725Y-121230500D01*
X137012727Y-121230500D01*
X137114587Y-121203207D01*
X137205913Y-121150480D01*
X137280480Y-121075913D01*
X137333207Y-120984587D01*
X137360500Y-120882727D01*
X137360500Y-120777273D01*
X137333207Y-120675413D01*
X137280480Y-120584087D01*
X137205913Y-120509520D01*
X137114587Y-120456793D01*
X137012727Y-120429500D01*
X136907273Y-120429500D01*
X136805413Y-120456793D01*
X136805410Y-120456794D01*
X136714085Y-120509521D01*
X136639521Y-120584085D01*
X136586794Y-120675410D01*
X136586793Y-120675413D01*
X136559500Y-120777273D01*
X128007072Y-120777273D01*
X127980524Y-120731290D01*
X127980518Y-120731282D01*
X127868717Y-120619481D01*
X127868709Y-120619475D01*
X127731790Y-120540426D01*
X127731786Y-120540424D01*
X127731784Y-120540423D01*
X127579057Y-120499500D01*
X126320943Y-120499500D01*
X126168216Y-120540423D01*
X126168209Y-120540426D01*
X126031290Y-120619475D01*
X126031282Y-120619481D01*
X125919481Y-120731282D01*
X125919475Y-120731290D01*
X125840426Y-120868209D01*
X125840423Y-120868216D01*
X125799500Y-121020943D01*
X123750500Y-121020943D01*
X123709577Y-120868216D01*
X123688173Y-120831142D01*
X123630524Y-120731290D01*
X123630518Y-120731282D01*
X123518717Y-120619481D01*
X123518709Y-120619475D01*
X123381790Y-120540426D01*
X123381786Y-120540424D01*
X123381784Y-120540423D01*
X123229057Y-120499500D01*
X122270943Y-120499500D01*
X122118216Y-120540423D01*
X122118209Y-120540426D01*
X121981290Y-120619475D01*
X121981282Y-120619481D01*
X121869479Y-120731284D01*
X121867873Y-120733378D01*
X121866068Y-120734695D01*
X121863733Y-120737031D01*
X121863368Y-120736666D01*
X121811443Y-120774579D01*
X121741697Y-120778731D01*
X121680778Y-120744516D01*
X121648028Y-120682797D01*
X121645500Y-120657888D01*
X121645500Y-119594234D01*
X125854500Y-119594234D01*
X125854500Y-119745766D01*
X125865493Y-119786793D01*
X125893719Y-119892136D01*
X125906392Y-119914085D01*
X125969485Y-120023365D01*
X126076635Y-120130515D01*
X126207865Y-120206281D01*
X126354234Y-120245500D01*
X126354236Y-120245500D01*
X126505764Y-120245500D01*
X126505766Y-120245500D01*
X126652135Y-120206281D01*
X126783365Y-120130515D01*
X126890515Y-120023365D01*
X126966281Y-119892135D01*
X127005500Y-119745766D01*
X127005500Y-119594234D01*
X126966281Y-119447865D01*
X126890515Y-119316635D01*
X126783365Y-119209485D01*
X126717750Y-119171602D01*
X126652136Y-119133719D01*
X126628079Y-119127273D01*
X128269500Y-119127273D01*
X128269500Y-119232727D01*
X128296793Y-119334587D01*
X128349520Y-119425913D01*
X128424087Y-119500480D01*
X128515413Y-119553207D01*
X128617273Y-119580500D01*
X128617275Y-119580500D01*
X128722725Y-119580500D01*
X128722727Y-119580500D01*
X128824587Y-119553207D01*
X128915913Y-119500480D01*
X128990480Y-119425913D01*
X129043207Y-119334587D01*
X129070500Y-119232727D01*
X129070500Y-119127273D01*
X129043207Y-119025413D01*
X128990480Y-118934087D01*
X128915913Y-118859520D01*
X128825422Y-118807275D01*
X128825419Y-118807273D01*
X136349500Y-118807273D01*
X136349500Y-118912727D01*
X136376793Y-119014587D01*
X136429520Y-119105913D01*
X136504087Y-119180480D01*
X136595413Y-119233207D01*
X136697273Y-119260500D01*
X136697275Y-119260500D01*
X136802725Y-119260500D01*
X136802727Y-119260500D01*
X136904587Y-119233207D01*
X136995913Y-119180480D01*
X137070480Y-119105913D01*
X137123207Y-119014587D01*
X137150500Y-118912727D01*
X137150500Y-118807273D01*
X137123207Y-118705413D01*
X137070480Y-118614087D01*
X136995913Y-118539520D01*
X136904587Y-118486793D01*
X136802727Y-118459500D01*
X136697273Y-118459500D01*
X136595413Y-118486793D01*
X136595410Y-118486794D01*
X136504085Y-118539521D01*
X136429521Y-118614085D01*
X136376794Y-118705410D01*
X136376793Y-118705413D01*
X136349500Y-118807273D01*
X128825419Y-118807273D01*
X128824589Y-118806794D01*
X128824588Y-118806793D01*
X128824587Y-118806793D01*
X128722727Y-118779500D01*
X128617273Y-118779500D01*
X128515413Y-118806793D01*
X128515410Y-118806794D01*
X128424085Y-118859521D01*
X128349521Y-118934085D01*
X128296794Y-119025410D01*
X128296793Y-119025413D01*
X128269500Y-119127273D01*
X126628079Y-119127273D01*
X126548360Y-119105913D01*
X126505766Y-119094500D01*
X126354234Y-119094500D01*
X126207863Y-119133719D01*
X126076635Y-119209485D01*
X126076632Y-119209487D01*
X125969487Y-119316632D01*
X125969485Y-119316635D01*
X125893719Y-119447863D01*
X125865493Y-119553206D01*
X125854500Y-119594234D01*
X121645500Y-119594234D01*
X121645500Y-116707273D01*
X129919500Y-116707273D01*
X129919500Y-116812727D01*
X129946793Y-116914587D01*
X129999520Y-117005913D01*
X130074087Y-117080480D01*
X130165413Y-117133207D01*
X130267273Y-117160500D01*
X130267275Y-117160500D01*
X130372725Y-117160500D01*
X130372727Y-117160500D01*
X130474587Y-117133207D01*
X130565913Y-117080480D01*
X130640480Y-117005913D01*
X130693207Y-116914587D01*
X130720500Y-116812727D01*
X130720500Y-116707273D01*
X130717821Y-116697273D01*
X132299500Y-116697273D01*
X132299500Y-116802727D01*
X132315577Y-116862725D01*
X132326793Y-116904586D01*
X132326794Y-116904589D01*
X132327559Y-116905914D01*
X132379520Y-116995913D01*
X132454087Y-117070480D01*
X132545413Y-117123207D01*
X132647273Y-117150500D01*
X132647275Y-117150500D01*
X132752725Y-117150500D01*
X132752727Y-117150500D01*
X132854587Y-117123207D01*
X132945913Y-117070480D01*
X133020480Y-116995913D01*
X133073207Y-116904587D01*
X133100500Y-116802727D01*
X133100500Y-116697273D01*
X133073207Y-116595413D01*
X133022319Y-116507273D01*
X136079500Y-116507273D01*
X136079500Y-116612727D01*
X136106793Y-116714587D01*
X136159520Y-116805913D01*
X136234087Y-116880480D01*
X136325413Y-116933207D01*
X136427273Y-116960500D01*
X136427275Y-116960500D01*
X136532725Y-116960500D01*
X136532727Y-116960500D01*
X136634587Y-116933207D01*
X136725913Y-116880480D01*
X136800480Y-116805913D01*
X136853207Y-116714587D01*
X136880500Y-116612727D01*
X136880500Y-116507273D01*
X139259500Y-116507273D01*
X139259500Y-116612727D01*
X139286793Y-116714587D01*
X139339520Y-116805913D01*
X139414087Y-116880480D01*
X139505413Y-116933207D01*
X139607273Y-116960500D01*
X139607275Y-116960500D01*
X139712725Y-116960500D01*
X139712727Y-116960500D01*
X139814587Y-116933207D01*
X139905913Y-116880480D01*
X139980480Y-116805913D01*
X140033207Y-116714587D01*
X140060500Y-116612727D01*
X140060500Y-116507273D01*
X140033207Y-116405413D01*
X139980480Y-116314087D01*
X139905913Y-116239520D01*
X139839059Y-116200922D01*
X139814589Y-116186794D01*
X139814588Y-116186793D01*
X139814587Y-116186793D01*
X139712727Y-116159500D01*
X139607273Y-116159500D01*
X139505413Y-116186793D01*
X139505410Y-116186794D01*
X139414085Y-116239521D01*
X139339521Y-116314085D01*
X139286794Y-116405410D01*
X139286793Y-116405413D01*
X139259500Y-116507273D01*
X136880500Y-116507273D01*
X136853207Y-116405413D01*
X136800480Y-116314087D01*
X136725913Y-116239520D01*
X136659059Y-116200922D01*
X136634589Y-116186794D01*
X136634588Y-116186793D01*
X136634587Y-116186793D01*
X136532727Y-116159500D01*
X136427273Y-116159500D01*
X136325413Y-116186793D01*
X136325410Y-116186794D01*
X136234085Y-116239521D01*
X136159521Y-116314085D01*
X136106794Y-116405410D01*
X136106793Y-116405413D01*
X136079500Y-116507273D01*
X133022319Y-116507273D01*
X133020480Y-116504087D01*
X132945913Y-116429520D01*
X132854587Y-116376793D01*
X132752727Y-116349500D01*
X132647273Y-116349500D01*
X132545413Y-116376793D01*
X132545410Y-116376794D01*
X132454085Y-116429521D01*
X132379521Y-116504085D01*
X132326794Y-116595410D01*
X132326793Y-116595413D01*
X132299500Y-116697273D01*
X130717821Y-116697273D01*
X130693207Y-116605413D01*
X130640480Y-116514087D01*
X130565913Y-116439520D01*
X130474587Y-116386793D01*
X130372727Y-116359500D01*
X130267273Y-116359500D01*
X130165413Y-116386793D01*
X130165410Y-116386794D01*
X130074085Y-116439521D01*
X129999521Y-116514085D01*
X129946794Y-116605410D01*
X129946793Y-116605413D01*
X129919500Y-116707273D01*
X121645500Y-116707273D01*
X121645500Y-115757273D01*
X142279500Y-115757273D01*
X142279500Y-115862727D01*
X142306793Y-115964587D01*
X142359520Y-116055913D01*
X142434087Y-116130480D01*
X142525413Y-116183207D01*
X142551606Y-116190225D01*
X142611267Y-116226590D01*
X142641796Y-116289437D01*
X142633501Y-116358812D01*
X142589016Y-116412690D01*
X142551607Y-116429774D01*
X142525417Y-116436792D01*
X142525413Y-116436793D01*
X142525410Y-116436794D01*
X142434085Y-116489521D01*
X142359521Y-116564085D01*
X142306794Y-116655410D01*
X142306793Y-116655413D01*
X142279500Y-116757273D01*
X142279500Y-116862727D01*
X142306793Y-116964587D01*
X142359520Y-117055913D01*
X142434087Y-117130480D01*
X142525413Y-117183207D01*
X142551606Y-117190225D01*
X142611267Y-117226590D01*
X142641796Y-117289437D01*
X142633501Y-117358812D01*
X142589016Y-117412690D01*
X142551607Y-117429774D01*
X142525417Y-117436792D01*
X142525413Y-117436793D01*
X142525410Y-117436794D01*
X142434085Y-117489521D01*
X142359521Y-117564085D01*
X142306794Y-117655410D01*
X142306793Y-117655413D01*
X142279500Y-117757273D01*
X142279500Y-117862727D01*
X142306793Y-117964587D01*
X142359520Y-118055913D01*
X142434087Y-118130480D01*
X142525413Y-118183207D01*
X142627273Y-118210500D01*
X142627275Y-118210500D01*
X142732725Y-118210500D01*
X142732727Y-118210500D01*
X142834587Y-118183207D01*
X142925913Y-118130480D01*
X143000480Y-118055913D01*
X143053207Y-117964587D01*
X143060225Y-117938393D01*
X143096589Y-117878733D01*
X143159436Y-117848203D01*
X143228812Y-117856497D01*
X143282690Y-117900982D01*
X143299775Y-117938394D01*
X143306792Y-117964585D01*
X143306793Y-117964587D01*
X143359520Y-118055913D01*
X143434087Y-118130480D01*
X143525413Y-118183207D01*
X143627273Y-118210500D01*
X143627275Y-118210500D01*
X143732725Y-118210500D01*
X143732727Y-118210500D01*
X143834587Y-118183207D01*
X143925913Y-118130480D01*
X144000480Y-118055913D01*
X144053207Y-117964587D01*
X144060225Y-117938393D01*
X144096589Y-117878733D01*
X144159436Y-117848203D01*
X144228812Y-117856497D01*
X144282690Y-117900982D01*
X144299775Y-117938394D01*
X144306792Y-117964585D01*
X144306793Y-117964587D01*
X144359520Y-118055913D01*
X144434087Y-118130480D01*
X144525413Y-118183207D01*
X144627273Y-118210500D01*
X144627275Y-118210500D01*
X144732725Y-118210500D01*
X144732727Y-118210500D01*
X144834587Y-118183207D01*
X144925913Y-118130480D01*
X145000480Y-118055913D01*
X145053207Y-117964587D01*
X145080500Y-117862727D01*
X145080500Y-117757273D01*
X145053207Y-117655413D01*
X145000480Y-117564087D01*
X144925913Y-117489520D01*
X144891225Y-117469493D01*
X149980000Y-117469493D01*
X149980000Y-117650506D01*
X150008317Y-117829293D01*
X150064251Y-118001444D01*
X150064252Y-118001447D01*
X150146431Y-118162730D01*
X150157913Y-118178532D01*
X150157913Y-118178533D01*
X150730000Y-117606446D01*
X150730000Y-117612661D01*
X150757259Y-117714394D01*
X150809920Y-117805606D01*
X150884394Y-117880080D01*
X150975606Y-117932741D01*
X151077339Y-117960000D01*
X151083553Y-117960000D01*
X150511466Y-118532085D01*
X150511466Y-118532086D01*
X150527267Y-118543566D01*
X150527275Y-118543571D01*
X150688552Y-118625747D01*
X150688555Y-118625748D01*
X150860706Y-118681682D01*
X151039494Y-118710000D01*
X151220506Y-118710000D01*
X151399293Y-118681682D01*
X151571444Y-118625748D01*
X151571452Y-118625745D01*
X151732730Y-118543568D01*
X151748532Y-118532085D01*
X151748533Y-118532085D01*
X151176448Y-117960000D01*
X151182661Y-117960000D01*
X151284394Y-117932741D01*
X151375606Y-117880080D01*
X151450080Y-117805606D01*
X151502741Y-117714394D01*
X151530000Y-117612661D01*
X151530000Y-117606448D01*
X152102085Y-118178533D01*
X152102085Y-118178532D01*
X152113568Y-118162730D01*
X152195745Y-118001452D01*
X152195748Y-118001444D01*
X152251682Y-117829293D01*
X152280000Y-117650506D01*
X152280000Y-117469493D01*
X152251682Y-117290706D01*
X152195748Y-117118555D01*
X152195747Y-117118552D01*
X152113571Y-116957275D01*
X152113566Y-116957267D01*
X152102085Y-116941466D01*
X151530000Y-117513551D01*
X151530000Y-117507339D01*
X151502741Y-117405606D01*
X151450080Y-117314394D01*
X151375606Y-117239920D01*
X151284394Y-117187259D01*
X151182661Y-117160000D01*
X151176447Y-117160000D01*
X151748533Y-116587913D01*
X151732730Y-116576431D01*
X151571447Y-116494252D01*
X151571444Y-116494251D01*
X151399293Y-116438317D01*
X151220506Y-116410000D01*
X151039494Y-116410000D01*
X150860706Y-116438317D01*
X150688555Y-116494251D01*
X150688547Y-116494254D01*
X150527269Y-116576432D01*
X150511466Y-116587912D01*
X150511466Y-116587913D01*
X151083554Y-117160000D01*
X151077339Y-117160000D01*
X150975606Y-117187259D01*
X150884394Y-117239920D01*
X150809920Y-117314394D01*
X150757259Y-117405606D01*
X150730000Y-117507339D01*
X150730000Y-117513553D01*
X150157913Y-116941466D01*
X150157912Y-116941466D01*
X150146432Y-116957269D01*
X150064254Y-117118547D01*
X150064251Y-117118555D01*
X150008317Y-117290706D01*
X149980000Y-117469493D01*
X144891225Y-117469493D01*
X144834587Y-117436793D01*
X144834585Y-117436792D01*
X144818979Y-117432611D01*
X144808393Y-117429774D01*
X144748733Y-117393411D01*
X144718203Y-117330564D01*
X144726497Y-117261188D01*
X144770982Y-117207310D01*
X144808392Y-117190225D01*
X144834587Y-117183207D01*
X144925913Y-117130480D01*
X145000480Y-117055913D01*
X145053207Y-116964587D01*
X145080500Y-116862727D01*
X145080500Y-116757273D01*
X145053207Y-116655413D01*
X145000480Y-116564087D01*
X144925913Y-116489520D01*
X144839312Y-116439521D01*
X144834589Y-116436794D01*
X144834585Y-116436792D01*
X144818979Y-116432611D01*
X144808393Y-116429774D01*
X144748733Y-116393411D01*
X144718203Y-116330564D01*
X144726497Y-116261188D01*
X144770982Y-116207310D01*
X144808392Y-116190225D01*
X144834587Y-116183207D01*
X144925913Y-116130480D01*
X145000480Y-116055913D01*
X145053207Y-115964587D01*
X145068564Y-115907273D01*
X146679500Y-115907273D01*
X146679500Y-116012727D01*
X146706793Y-116114587D01*
X146732723Y-116159500D01*
X146759521Y-116205914D01*
X146775926Y-116222319D01*
X146809411Y-116283642D01*
X146804427Y-116353334D01*
X146775926Y-116397681D01*
X146759521Y-116414085D01*
X146706794Y-116505410D01*
X146706793Y-116505413D01*
X146679500Y-116607273D01*
X146679500Y-116712727D01*
X146706793Y-116814587D01*
X146759520Y-116905913D01*
X146834087Y-116980480D01*
X146925413Y-117033207D01*
X147027273Y-117060500D01*
X147027275Y-117060500D01*
X147132725Y-117060500D01*
X147132727Y-117060500D01*
X147234587Y-117033207D01*
X147325913Y-116980480D01*
X147400480Y-116905913D01*
X147453207Y-116814587D01*
X147480500Y-116712727D01*
X147480500Y-116607273D01*
X147453207Y-116505413D01*
X147400480Y-116414087D01*
X147384074Y-116397681D01*
X147350589Y-116336358D01*
X147355573Y-116266666D01*
X147384074Y-116222319D01*
X147400480Y-116205913D01*
X147453207Y-116114587D01*
X147480500Y-116012727D01*
X147480500Y-115907273D01*
X147453207Y-115805413D01*
X147400480Y-115714087D01*
X147325913Y-115639520D01*
X147270059Y-115607273D01*
X150079500Y-115607273D01*
X150079500Y-115712727D01*
X150106793Y-115814587D01*
X150159520Y-115905913D01*
X150234087Y-115980480D01*
X150325413Y-116033207D01*
X150427273Y-116060500D01*
X150427275Y-116060500D01*
X150532725Y-116060500D01*
X150532727Y-116060500D01*
X150634587Y-116033207D01*
X150725913Y-115980480D01*
X150800480Y-115905913D01*
X150853207Y-115814587D01*
X150880500Y-115712727D01*
X150880500Y-115607273D01*
X150853207Y-115505413D01*
X150800480Y-115414087D01*
X150725913Y-115339520D01*
X150634587Y-115286793D01*
X150532727Y-115259500D01*
X150427273Y-115259500D01*
X150325413Y-115286793D01*
X150325410Y-115286794D01*
X150234085Y-115339521D01*
X150159521Y-115414085D01*
X150106794Y-115505410D01*
X150106793Y-115505413D01*
X150079500Y-115607273D01*
X147270059Y-115607273D01*
X147234587Y-115586793D01*
X147132727Y-115559500D01*
X147027273Y-115559500D01*
X146925413Y-115586793D01*
X146925410Y-115586794D01*
X146834085Y-115639521D01*
X146759521Y-115714085D01*
X146706794Y-115805410D01*
X146706793Y-115805413D01*
X146679500Y-115907273D01*
X145068564Y-115907273D01*
X145080500Y-115862727D01*
X145080500Y-115757273D01*
X145053207Y-115655413D01*
X145000480Y-115564087D01*
X144925913Y-115489520D01*
X144834587Y-115436793D01*
X144732727Y-115409500D01*
X144627273Y-115409500D01*
X144525413Y-115436793D01*
X144525410Y-115436794D01*
X144434085Y-115489521D01*
X144359521Y-115564085D01*
X144306794Y-115655410D01*
X144306793Y-115655413D01*
X144299775Y-115681606D01*
X144263410Y-115741267D01*
X144200563Y-115771796D01*
X144131188Y-115763501D01*
X144077310Y-115719016D01*
X144060225Y-115681606D01*
X144053207Y-115655413D01*
X144000480Y-115564087D01*
X143925913Y-115489520D01*
X143834587Y-115436793D01*
X143732727Y-115409500D01*
X143627273Y-115409500D01*
X143525413Y-115436793D01*
X143525410Y-115436794D01*
X143434085Y-115489521D01*
X143359521Y-115564085D01*
X143306794Y-115655410D01*
X143306793Y-115655413D01*
X143299775Y-115681606D01*
X143263410Y-115741267D01*
X143200563Y-115771796D01*
X143131188Y-115763501D01*
X143077310Y-115719016D01*
X143060225Y-115681606D01*
X143053207Y-115655413D01*
X143000480Y-115564087D01*
X142925913Y-115489520D01*
X142834587Y-115436793D01*
X142732727Y-115409500D01*
X142627273Y-115409500D01*
X142525413Y-115436793D01*
X142525410Y-115436794D01*
X142434085Y-115489521D01*
X142359521Y-115564085D01*
X142306794Y-115655410D01*
X142306793Y-115655413D01*
X142279500Y-115757273D01*
X121645500Y-115757273D01*
X121645500Y-113814234D01*
X125854500Y-113814234D01*
X125854500Y-113965765D01*
X125893719Y-114112136D01*
X125901383Y-114125410D01*
X125969485Y-114243365D01*
X126076635Y-114350515D01*
X126207865Y-114426281D01*
X126354234Y-114465500D01*
X126354236Y-114465500D01*
X126505764Y-114465500D01*
X126505766Y-114465500D01*
X126652135Y-114426281D01*
X126783365Y-114350515D01*
X126806607Y-114327273D01*
X128269500Y-114327273D01*
X128269500Y-114432727D01*
X128296793Y-114534587D01*
X128349520Y-114625913D01*
X128424087Y-114700480D01*
X128515413Y-114753207D01*
X128516944Y-114753617D01*
X128518089Y-114754315D01*
X128522920Y-114756316D01*
X128522608Y-114757069D01*
X128576605Y-114789981D01*
X128607135Y-114852827D01*
X128598841Y-114922203D01*
X128572534Y-114961072D01*
X128529521Y-115004085D01*
X128476794Y-115095410D01*
X128476793Y-115095413D01*
X128449500Y-115197273D01*
X128449500Y-115302726D01*
X128476793Y-115404586D01*
X128476794Y-115404589D01*
X128482277Y-115414085D01*
X128529520Y-115495913D01*
X128604087Y-115570480D01*
X128695413Y-115623207D01*
X128797273Y-115650500D01*
X128797275Y-115650500D01*
X128902725Y-115650500D01*
X128902727Y-115650500D01*
X129004587Y-115623207D01*
X129095913Y-115570480D01*
X129170480Y-115495913D01*
X129223207Y-115404587D01*
X129250500Y-115302727D01*
X129250500Y-115197273D01*
X129223207Y-115095413D01*
X129170480Y-115004087D01*
X129095913Y-114929520D01*
X129004587Y-114876793D01*
X129004586Y-114876792D01*
X129004582Y-114876791D01*
X129003047Y-114876380D01*
X129001898Y-114875679D01*
X128997080Y-114873684D01*
X128997391Y-114872932D01*
X128943388Y-114840012D01*
X128912863Y-114777163D01*
X128921161Y-114707788D01*
X128947464Y-114668928D01*
X128990480Y-114625913D01*
X129043207Y-114534587D01*
X129070500Y-114432727D01*
X129070500Y-114327273D01*
X129043705Y-114227273D01*
X138019500Y-114227273D01*
X138019500Y-114332727D01*
X138046793Y-114434587D01*
X138099520Y-114525913D01*
X138174087Y-114600480D01*
X138265413Y-114653207D01*
X138367273Y-114680500D01*
X138367275Y-114680500D01*
X138472725Y-114680500D01*
X138472727Y-114680500D01*
X138574587Y-114653207D01*
X138665913Y-114600480D01*
X138740480Y-114525913D01*
X138793207Y-114434587D01*
X138820500Y-114332727D01*
X138820500Y-114227273D01*
X138793207Y-114125413D01*
X138740480Y-114034087D01*
X138665913Y-113959520D01*
X138574587Y-113906793D01*
X138472727Y-113879500D01*
X138367273Y-113879500D01*
X138265413Y-113906793D01*
X138265410Y-113906794D01*
X138174085Y-113959521D01*
X138099521Y-114034085D01*
X138046794Y-114125410D01*
X138046793Y-114125413D01*
X138019500Y-114227273D01*
X129043705Y-114227273D01*
X129043207Y-114225413D01*
X128990480Y-114134087D01*
X128915913Y-114059520D01*
X128824587Y-114006793D01*
X128722727Y-113979500D01*
X128617273Y-113979500D01*
X128515413Y-114006793D01*
X128515410Y-114006794D01*
X128424085Y-114059521D01*
X128349521Y-114134085D01*
X128296794Y-114225410D01*
X128296794Y-114225411D01*
X128296793Y-114225413D01*
X128269500Y-114327273D01*
X126806607Y-114327273D01*
X126890515Y-114243365D01*
X126966281Y-114112135D01*
X127005500Y-113965766D01*
X127005500Y-113814234D01*
X126966281Y-113667865D01*
X126890515Y-113536635D01*
X126783365Y-113429485D01*
X126717750Y-113391602D01*
X126652136Y-113353719D01*
X126578950Y-113334109D01*
X126505766Y-113314500D01*
X126354234Y-113314500D01*
X126207863Y-113353719D01*
X126076635Y-113429485D01*
X126076632Y-113429487D01*
X125969487Y-113536632D01*
X125969485Y-113536635D01*
X125893719Y-113667863D01*
X125854500Y-113814234D01*
X121645500Y-113814234D01*
X121645500Y-113137273D01*
X144489500Y-113137273D01*
X144489500Y-113242727D01*
X144516793Y-113344587D01*
X144569520Y-113435913D01*
X144644087Y-113510480D01*
X144735413Y-113563207D01*
X144837273Y-113590500D01*
X144837275Y-113590500D01*
X144942725Y-113590500D01*
X144942727Y-113590500D01*
X145044587Y-113563207D01*
X145135913Y-113510480D01*
X145210480Y-113435913D01*
X145263207Y-113344587D01*
X145290500Y-113242727D01*
X145290500Y-113137273D01*
X145263207Y-113035413D01*
X145210480Y-112944087D01*
X145135913Y-112869520D01*
X145044587Y-112816793D01*
X144942727Y-112789500D01*
X144837273Y-112789500D01*
X144735413Y-112816793D01*
X144735410Y-112816794D01*
X144644085Y-112869521D01*
X144569521Y-112944085D01*
X144516794Y-113035410D01*
X144516793Y-113035413D01*
X144489500Y-113137273D01*
X121645500Y-113137273D01*
X121645500Y-112902111D01*
X121665185Y-112835072D01*
X121717989Y-112789317D01*
X121787147Y-112779373D01*
X121850703Y-112808398D01*
X121867877Y-112826626D01*
X121869478Y-112828713D01*
X121869480Y-112828716D01*
X121981284Y-112940520D01*
X121981286Y-112940521D01*
X121981290Y-112940524D01*
X122118209Y-113019573D01*
X122118216Y-113019577D01*
X122270943Y-113060500D01*
X122270945Y-113060500D01*
X123229055Y-113060500D01*
X123229057Y-113060500D01*
X123381784Y-113019577D01*
X123518716Y-112940520D01*
X123630520Y-112828716D01*
X123709577Y-112691784D01*
X123750500Y-112539057D01*
X123750500Y-112380943D01*
X125799500Y-112380943D01*
X125799500Y-112539056D01*
X125840423Y-112691783D01*
X125840426Y-112691790D01*
X125919475Y-112828709D01*
X125919479Y-112828714D01*
X125919480Y-112828716D01*
X126031284Y-112940520D01*
X126031286Y-112940521D01*
X126031290Y-112940524D01*
X126168209Y-113019573D01*
X126168216Y-113019577D01*
X126320943Y-113060500D01*
X126320945Y-113060500D01*
X127579055Y-113060500D01*
X127579057Y-113060500D01*
X127731784Y-113019577D01*
X127868716Y-112940520D01*
X127980520Y-112828716D01*
X128059577Y-112691784D01*
X128100500Y-112539057D01*
X128100500Y-112380943D01*
X128059577Y-112228216D01*
X128059573Y-112228209D01*
X127980524Y-112091290D01*
X127980518Y-112091282D01*
X127868717Y-111979481D01*
X127868709Y-111979475D01*
X127731790Y-111900426D01*
X127731786Y-111900424D01*
X127731784Y-111900423D01*
X127579057Y-111859500D01*
X126320943Y-111859500D01*
X126168216Y-111900423D01*
X126168209Y-111900426D01*
X126031290Y-111979475D01*
X126031282Y-111979481D01*
X125919481Y-112091282D01*
X125919475Y-112091290D01*
X125840426Y-112228209D01*
X125840423Y-112228216D01*
X125799500Y-112380943D01*
X123750500Y-112380943D01*
X123709577Y-112228216D01*
X123709573Y-112228209D01*
X123630524Y-112091290D01*
X123630518Y-112091282D01*
X123518717Y-111979481D01*
X123518709Y-111979475D01*
X123381790Y-111900426D01*
X123381786Y-111900424D01*
X123381784Y-111900423D01*
X123229057Y-111859500D01*
X122270943Y-111859500D01*
X122118216Y-111900423D01*
X122118209Y-111900426D01*
X121981290Y-111979475D01*
X121981282Y-111979481D01*
X121869479Y-112091284D01*
X121867873Y-112093378D01*
X121866068Y-112094695D01*
X121863733Y-112097031D01*
X121863368Y-112096666D01*
X121811443Y-112134579D01*
X121741697Y-112138731D01*
X121680778Y-112104516D01*
X121648028Y-112042797D01*
X121645500Y-112017888D01*
X121645500Y-111517273D01*
X140279500Y-111517273D01*
X140279500Y-111622727D01*
X140306793Y-111724587D01*
X140359520Y-111815913D01*
X140434087Y-111890480D01*
X140525413Y-111943207D01*
X140627273Y-111970500D01*
X140627275Y-111970500D01*
X140732725Y-111970500D01*
X140732727Y-111970500D01*
X140834587Y-111943207D01*
X140925913Y-111890480D01*
X141000480Y-111815913D01*
X141053207Y-111724587D01*
X141080500Y-111622727D01*
X141080500Y-111517273D01*
X141053207Y-111415413D01*
X141000480Y-111324087D01*
X140925913Y-111249520D01*
X140834587Y-111196793D01*
X140732727Y-111169500D01*
X140627273Y-111169500D01*
X140525413Y-111196793D01*
X140525410Y-111196794D01*
X140434085Y-111249521D01*
X140359521Y-111324085D01*
X140306794Y-111415410D01*
X140306793Y-111415413D01*
X140279500Y-111517273D01*
X121645500Y-111517273D01*
X121645500Y-109568543D01*
X122699499Y-109568543D01*
X122737947Y-109761829D01*
X122737950Y-109761839D01*
X122813364Y-109943907D01*
X122813371Y-109943920D01*
X122922860Y-110107781D01*
X122922863Y-110107785D01*
X123062214Y-110247136D01*
X123062218Y-110247139D01*
X123226079Y-110356628D01*
X123226092Y-110356635D01*
X123408160Y-110432049D01*
X123408165Y-110432051D01*
X123408169Y-110432051D01*
X123408170Y-110432052D01*
X123601456Y-110470500D01*
X123601459Y-110470500D01*
X123798543Y-110470500D01*
X123928582Y-110444632D01*
X123991835Y-110432051D01*
X124173914Y-110356632D01*
X124337782Y-110247139D01*
X124477139Y-110107782D01*
X124586632Y-109943914D01*
X124662051Y-109761835D01*
X124700500Y-109568543D01*
X125239499Y-109568543D01*
X125277947Y-109761829D01*
X125277950Y-109761839D01*
X125353364Y-109943907D01*
X125353371Y-109943920D01*
X125462860Y-110107781D01*
X125462863Y-110107785D01*
X125602214Y-110247136D01*
X125602218Y-110247139D01*
X125766079Y-110356628D01*
X125766092Y-110356635D01*
X125948160Y-110432049D01*
X125948165Y-110432051D01*
X125948169Y-110432051D01*
X125948170Y-110432052D01*
X126141456Y-110470500D01*
X126141459Y-110470500D01*
X126338543Y-110470500D01*
X126468582Y-110444632D01*
X126531835Y-110432051D01*
X126615797Y-110397273D01*
X138449500Y-110397273D01*
X138449500Y-110502727D01*
X138476793Y-110604587D01*
X138529520Y-110695913D01*
X138604087Y-110770480D01*
X138695413Y-110823207D01*
X138797273Y-110850500D01*
X138797275Y-110850500D01*
X138902725Y-110850500D01*
X138902727Y-110850500D01*
X139004587Y-110823207D01*
X139095913Y-110770480D01*
X139170480Y-110695913D01*
X139223207Y-110604587D01*
X139250500Y-110502727D01*
X139250500Y-110397273D01*
X139223207Y-110295413D01*
X139170480Y-110204087D01*
X139095913Y-110129520D01*
X139004587Y-110076793D01*
X138902727Y-110049500D01*
X138797273Y-110049500D01*
X138695413Y-110076793D01*
X138695410Y-110076794D01*
X138604085Y-110129521D01*
X138529521Y-110204085D01*
X138476794Y-110295410D01*
X138476793Y-110295413D01*
X138449500Y-110397273D01*
X126615797Y-110397273D01*
X126713914Y-110356632D01*
X126805535Y-110295413D01*
X126819557Y-110286044D01*
X126838933Y-110273096D01*
X126877782Y-110247139D01*
X127017139Y-110107782D01*
X127126632Y-109943914D01*
X127202051Y-109761835D01*
X127240500Y-109568541D01*
X127240500Y-109371459D01*
X127240500Y-109371456D01*
X127202052Y-109178170D01*
X127202051Y-109178169D01*
X127202051Y-109178165D01*
X127202049Y-109178160D01*
X127126635Y-108996092D01*
X127126628Y-108996079D01*
X127017139Y-108832218D01*
X127017136Y-108832214D01*
X126877785Y-108692863D01*
X126877781Y-108692860D01*
X126713920Y-108583371D01*
X126713907Y-108583364D01*
X126531839Y-108507950D01*
X126531829Y-108507947D01*
X126338543Y-108469500D01*
X126338541Y-108469500D01*
X126141459Y-108469500D01*
X126141457Y-108469500D01*
X125948170Y-108507947D01*
X125948160Y-108507950D01*
X125766092Y-108583364D01*
X125766079Y-108583371D01*
X125602218Y-108692860D01*
X125602214Y-108692863D01*
X125462863Y-108832214D01*
X125462860Y-108832218D01*
X125353371Y-108996079D01*
X125353364Y-108996092D01*
X125277950Y-109178160D01*
X125277947Y-109178170D01*
X125239500Y-109371456D01*
X125239500Y-109371459D01*
X125239500Y-109568541D01*
X125239500Y-109568543D01*
X125239499Y-109568543D01*
X124700500Y-109568543D01*
X124700500Y-109568541D01*
X124700500Y-109371459D01*
X124700500Y-109371456D01*
X124662052Y-109178170D01*
X124662051Y-109178169D01*
X124662051Y-109178165D01*
X124662049Y-109178160D01*
X124586635Y-108996092D01*
X124586628Y-108996079D01*
X124477139Y-108832218D01*
X124477136Y-108832214D01*
X124337785Y-108692863D01*
X124337781Y-108692860D01*
X124173920Y-108583371D01*
X124173907Y-108583364D01*
X123991839Y-108507950D01*
X123991829Y-108507947D01*
X123798543Y-108469500D01*
X123798541Y-108469500D01*
X123601459Y-108469500D01*
X123601457Y-108469500D01*
X123408170Y-108507947D01*
X123408160Y-108507950D01*
X123226092Y-108583364D01*
X123226079Y-108583371D01*
X123062218Y-108692860D01*
X123062214Y-108692863D01*
X122922863Y-108832214D01*
X122922860Y-108832218D01*
X122813371Y-108996079D01*
X122813364Y-108996092D01*
X122737950Y-109178160D01*
X122737947Y-109178170D01*
X122699500Y-109371456D01*
X122699500Y-109371459D01*
X122699500Y-109568541D01*
X122699500Y-109568543D01*
X122699499Y-109568543D01*
X121645500Y-109568543D01*
X121645500Y-107028543D01*
X122699499Y-107028543D01*
X122737947Y-107221829D01*
X122737950Y-107221839D01*
X122813364Y-107403907D01*
X122813371Y-107403920D01*
X122922860Y-107567781D01*
X122922863Y-107567785D01*
X123062214Y-107707136D01*
X123062218Y-107707139D01*
X123226079Y-107816628D01*
X123226092Y-107816635D01*
X123408160Y-107892049D01*
X123408165Y-107892051D01*
X123408169Y-107892051D01*
X123408170Y-107892052D01*
X123601456Y-107930500D01*
X123601459Y-107930500D01*
X123798543Y-107930500D01*
X123928582Y-107904632D01*
X123991835Y-107892051D01*
X124173914Y-107816632D01*
X124337782Y-107707139D01*
X124477139Y-107567782D01*
X124586632Y-107403914D01*
X124662051Y-107221835D01*
X124683754Y-107112727D01*
X124700500Y-107028543D01*
X125239499Y-107028543D01*
X125277947Y-107221829D01*
X125277950Y-107221839D01*
X125353364Y-107403907D01*
X125353371Y-107403920D01*
X125462860Y-107567781D01*
X125462863Y-107567785D01*
X125602214Y-107707136D01*
X125602218Y-107707139D01*
X125766079Y-107816628D01*
X125766092Y-107816635D01*
X125948160Y-107892049D01*
X125948165Y-107892051D01*
X125948169Y-107892051D01*
X125948170Y-107892052D01*
X126141456Y-107930500D01*
X126141459Y-107930500D01*
X126338543Y-107930500D01*
X126468582Y-107904632D01*
X126531835Y-107892051D01*
X126713914Y-107816632D01*
X126877782Y-107707139D01*
X127017139Y-107567782D01*
X127126632Y-107403914D01*
X127202051Y-107221835D01*
X127223754Y-107112727D01*
X127240500Y-107028543D01*
X127240500Y-107007273D01*
X130239500Y-107007273D01*
X130239500Y-107112727D01*
X130266793Y-107214587D01*
X130319520Y-107305913D01*
X130394087Y-107380480D01*
X130485413Y-107433207D01*
X130587273Y-107460500D01*
X130587275Y-107460500D01*
X130692725Y-107460500D01*
X130692727Y-107460500D01*
X130794587Y-107433207D01*
X130885913Y-107380480D01*
X130960480Y-107305913D01*
X131013207Y-107214587D01*
X131040500Y-107112727D01*
X131040500Y-107007273D01*
X131013207Y-106905413D01*
X130960480Y-106814087D01*
X130885913Y-106739520D01*
X130794587Y-106686793D01*
X130692727Y-106659500D01*
X130587273Y-106659500D01*
X130485413Y-106686793D01*
X130485410Y-106686794D01*
X130394085Y-106739521D01*
X130319521Y-106814085D01*
X130266794Y-106905410D01*
X130266793Y-106905413D01*
X130239500Y-107007273D01*
X127240500Y-107007273D01*
X127240500Y-106831456D01*
X127202052Y-106638170D01*
X127202051Y-106638169D01*
X127202051Y-106638165D01*
X127202049Y-106638160D01*
X127126635Y-106456092D01*
X127126628Y-106456079D01*
X127017139Y-106292218D01*
X127017136Y-106292214D01*
X126877785Y-106152863D01*
X126877781Y-106152860D01*
X126713920Y-106043371D01*
X126713907Y-106043364D01*
X126531839Y-105967950D01*
X126531829Y-105967947D01*
X126338543Y-105929500D01*
X126338541Y-105929500D01*
X126141459Y-105929500D01*
X126141457Y-105929500D01*
X125948170Y-105967947D01*
X125948160Y-105967950D01*
X125766092Y-106043364D01*
X125766079Y-106043371D01*
X125602218Y-106152860D01*
X125602214Y-106152863D01*
X125462863Y-106292214D01*
X125462860Y-106292218D01*
X125353371Y-106456079D01*
X125353364Y-106456092D01*
X125277950Y-106638160D01*
X125277947Y-106638170D01*
X125239500Y-106831456D01*
X125239500Y-106831459D01*
X125239500Y-107028541D01*
X125239500Y-107028543D01*
X125239499Y-107028543D01*
X124700500Y-107028543D01*
X124700500Y-106831456D01*
X124662052Y-106638170D01*
X124662051Y-106638169D01*
X124662051Y-106638165D01*
X124662049Y-106638160D01*
X124586635Y-106456092D01*
X124586628Y-106456079D01*
X124477139Y-106292218D01*
X124477136Y-106292214D01*
X124337785Y-106152863D01*
X124337781Y-106152860D01*
X124173920Y-106043371D01*
X124173907Y-106043364D01*
X123991839Y-105967950D01*
X123991829Y-105967947D01*
X123798543Y-105929500D01*
X123798541Y-105929500D01*
X123601459Y-105929500D01*
X123601457Y-105929500D01*
X123408170Y-105967947D01*
X123408160Y-105967950D01*
X123226092Y-106043364D01*
X123226079Y-106043371D01*
X123062218Y-106152860D01*
X123062214Y-106152863D01*
X122922863Y-106292214D01*
X122922860Y-106292218D01*
X122813371Y-106456079D01*
X122813364Y-106456092D01*
X122737950Y-106638160D01*
X122737947Y-106638170D01*
X122699500Y-106831456D01*
X122699500Y-106831459D01*
X122699500Y-107028541D01*
X122699500Y-107028543D01*
X122699499Y-107028543D01*
X121645500Y-107028543D01*
X121645500Y-104488543D01*
X122699499Y-104488543D01*
X122737947Y-104681829D01*
X122737950Y-104681839D01*
X122813364Y-104863907D01*
X122813371Y-104863920D01*
X122922860Y-105027781D01*
X122922863Y-105027785D01*
X123062214Y-105167136D01*
X123062218Y-105167139D01*
X123226079Y-105276628D01*
X123226092Y-105276635D01*
X123285198Y-105301117D01*
X123408165Y-105352051D01*
X123408169Y-105352051D01*
X123408170Y-105352052D01*
X123601456Y-105390500D01*
X123601459Y-105390500D01*
X123798543Y-105390500D01*
X123928582Y-105364632D01*
X123991835Y-105352051D01*
X124173914Y-105276632D01*
X124337782Y-105167139D01*
X124477139Y-105027782D01*
X124586632Y-104863914D01*
X124662051Y-104681835D01*
X124700500Y-104488543D01*
X125239499Y-104488543D01*
X125277947Y-104681829D01*
X125277950Y-104681839D01*
X125353364Y-104863907D01*
X125353371Y-104863920D01*
X125462860Y-105027781D01*
X125462863Y-105027785D01*
X125602214Y-105167136D01*
X125602218Y-105167139D01*
X125766079Y-105276628D01*
X125766092Y-105276635D01*
X125825198Y-105301117D01*
X125948165Y-105352051D01*
X125948169Y-105352051D01*
X125948170Y-105352052D01*
X126141456Y-105390500D01*
X126141459Y-105390500D01*
X126338543Y-105390500D01*
X126468582Y-105364632D01*
X126531835Y-105352051D01*
X126713914Y-105276632D01*
X126877782Y-105167139D01*
X127017139Y-105027782D01*
X127126632Y-104863914D01*
X127202051Y-104681835D01*
X127240500Y-104488541D01*
X127240500Y-104291459D01*
X127240500Y-104291456D01*
X127202052Y-104098170D01*
X127202051Y-104098169D01*
X127202051Y-104098165D01*
X127170804Y-104022727D01*
X127126635Y-103916092D01*
X127126628Y-103916079D01*
X127017139Y-103752218D01*
X127017136Y-103752214D01*
X126877785Y-103612863D01*
X126877781Y-103612860D01*
X126713920Y-103503371D01*
X126713907Y-103503364D01*
X126531839Y-103427950D01*
X126531829Y-103427947D01*
X126338543Y-103389500D01*
X126338541Y-103389500D01*
X126141459Y-103389500D01*
X126141457Y-103389500D01*
X125948170Y-103427947D01*
X125948160Y-103427950D01*
X125766092Y-103503364D01*
X125766079Y-103503371D01*
X125602218Y-103612860D01*
X125602214Y-103612863D01*
X125462863Y-103752214D01*
X125462860Y-103752218D01*
X125353371Y-103916079D01*
X125353364Y-103916092D01*
X125277950Y-104098160D01*
X125277947Y-104098170D01*
X125239500Y-104291456D01*
X125239500Y-104291459D01*
X125239500Y-104488541D01*
X125239500Y-104488543D01*
X125239499Y-104488543D01*
X124700500Y-104488543D01*
X124700500Y-104488541D01*
X124700500Y-104291459D01*
X124700500Y-104291456D01*
X124662052Y-104098170D01*
X124662051Y-104098169D01*
X124662051Y-104098165D01*
X124630804Y-104022727D01*
X124586635Y-103916092D01*
X124586628Y-103916079D01*
X124477139Y-103752218D01*
X124477136Y-103752214D01*
X124337785Y-103612863D01*
X124337781Y-103612860D01*
X124173920Y-103503371D01*
X124173907Y-103503364D01*
X123991839Y-103427950D01*
X123991829Y-103427947D01*
X123798543Y-103389500D01*
X123798541Y-103389500D01*
X123601459Y-103389500D01*
X123601457Y-103389500D01*
X123408170Y-103427947D01*
X123408160Y-103427950D01*
X123226092Y-103503364D01*
X123226079Y-103503371D01*
X123062218Y-103612860D01*
X123062214Y-103612863D01*
X122922863Y-103752214D01*
X122922860Y-103752218D01*
X122813371Y-103916079D01*
X122813364Y-103916092D01*
X122737950Y-104098160D01*
X122737947Y-104098170D01*
X122699500Y-104291456D01*
X122699500Y-104291459D01*
X122699500Y-104488541D01*
X122699500Y-104488543D01*
X122699499Y-104488543D01*
X121645500Y-104488543D01*
X121645500Y-103037273D01*
X132699500Y-103037273D01*
X132699500Y-103142727D01*
X132726793Y-103244587D01*
X132779520Y-103335913D01*
X132854087Y-103410480D01*
X132922741Y-103450117D01*
X132970956Y-103500685D01*
X132984178Y-103569292D01*
X132958210Y-103634156D01*
X132948422Y-103645185D01*
X132869520Y-103724087D01*
X132816794Y-103815410D01*
X132816793Y-103815413D01*
X132789500Y-103917273D01*
X132789500Y-104022727D01*
X132816793Y-104124587D01*
X132869520Y-104215913D01*
X132944087Y-104290480D01*
X132968364Y-104304496D01*
X133016578Y-104355063D01*
X133029800Y-104423670D01*
X133003832Y-104488535D01*
X132994044Y-104499563D01*
X132919520Y-104574087D01*
X132866794Y-104665410D01*
X132866793Y-104665413D01*
X132839500Y-104767273D01*
X132839500Y-104872727D01*
X132866793Y-104974587D01*
X132919520Y-105065913D01*
X132994087Y-105140480D01*
X133074702Y-105187023D01*
X133092452Y-105197271D01*
X133091003Y-105199780D01*
X133134532Y-105234831D01*
X133156621Y-105301117D01*
X133139367Y-105368823D01*
X133094703Y-105412975D01*
X133014086Y-105459520D01*
X132939521Y-105534085D01*
X132886794Y-105625410D01*
X132886793Y-105625413D01*
X132859500Y-105727273D01*
X132859500Y-105832727D01*
X132886793Y-105934587D01*
X132939520Y-106025913D01*
X133014087Y-106100480D01*
X133105413Y-106153207D01*
X133207273Y-106180500D01*
X133207275Y-106180500D01*
X133312725Y-106180500D01*
X133312727Y-106180500D01*
X133414587Y-106153207D01*
X133470118Y-106121146D01*
X152109500Y-106121146D01*
X152109500Y-106418853D01*
X152142830Y-106714662D01*
X152142832Y-106714674D01*
X152209076Y-107004912D01*
X152209079Y-107004920D01*
X152307400Y-107285904D01*
X152436563Y-107554114D01*
X152436565Y-107554117D01*
X152594950Y-107806185D01*
X152780562Y-108038934D01*
X152991066Y-108249438D01*
X153223815Y-108435050D01*
X153475883Y-108593435D01*
X153744099Y-108722601D01*
X153955135Y-108796445D01*
X154025079Y-108820920D01*
X154025087Y-108820923D01*
X154025090Y-108820923D01*
X154025091Y-108820924D01*
X154315325Y-108887168D01*
X154611147Y-108920499D01*
X154611148Y-108920500D01*
X154611151Y-108920500D01*
X154908852Y-108920500D01*
X154908852Y-108920499D01*
X155204675Y-108887168D01*
X155494909Y-108820924D01*
X155775901Y-108722601D01*
X156044117Y-108593435D01*
X156296185Y-108435050D01*
X156528934Y-108249438D01*
X156739438Y-108038934D01*
X156925050Y-107806185D01*
X157083435Y-107554117D01*
X157212601Y-107285901D01*
X157310924Y-107004909D01*
X157377168Y-106714675D01*
X157410500Y-106418849D01*
X157410500Y-106121151D01*
X157377168Y-105825325D01*
X157310924Y-105535091D01*
X157212601Y-105254099D01*
X157103614Y-105027785D01*
X157083436Y-104985885D01*
X157083435Y-104985883D01*
X156925050Y-104733815D01*
X156739438Y-104501066D01*
X156528934Y-104290562D01*
X156528827Y-104290477D01*
X156435329Y-104215914D01*
X156296185Y-104104950D01*
X156044117Y-103946565D01*
X156044114Y-103946563D01*
X155775904Y-103817400D01*
X155494920Y-103719079D01*
X155494912Y-103719076D01*
X155277233Y-103669393D01*
X155204675Y-103652832D01*
X155204671Y-103652831D01*
X155204662Y-103652830D01*
X154908853Y-103619500D01*
X154908849Y-103619500D01*
X154611151Y-103619500D01*
X154611146Y-103619500D01*
X154315337Y-103652830D01*
X154315325Y-103652832D01*
X154025087Y-103719076D01*
X154025079Y-103719079D01*
X153744095Y-103817400D01*
X153475885Y-103946563D01*
X153223816Y-104104949D01*
X152991066Y-104290561D01*
X152780561Y-104501066D01*
X152594949Y-104733816D01*
X152436563Y-104985885D01*
X152307400Y-105254095D01*
X152209079Y-105535079D01*
X152209076Y-105535087D01*
X152142832Y-105825325D01*
X152142830Y-105825337D01*
X152109500Y-106121146D01*
X133470118Y-106121146D01*
X133505913Y-106100480D01*
X133580480Y-106025913D01*
X133633207Y-105934587D01*
X133660500Y-105832727D01*
X133660500Y-105727273D01*
X133633207Y-105625413D01*
X133580480Y-105534087D01*
X133505913Y-105459520D01*
X133414587Y-105406793D01*
X133407548Y-105402729D01*
X133408994Y-105400223D01*
X133365451Y-105365145D01*
X133343377Y-105298854D01*
X133360646Y-105231152D01*
X133405295Y-105187024D01*
X133485913Y-105140480D01*
X133560480Y-105065913D01*
X133613207Y-104974587D01*
X133640500Y-104872727D01*
X133640500Y-104767273D01*
X133613207Y-104665413D01*
X133560480Y-104574087D01*
X133485913Y-104499520D01*
X133461635Y-104485503D01*
X133413420Y-104434935D01*
X133400199Y-104366328D01*
X133426168Y-104301463D01*
X133435940Y-104290452D01*
X133510480Y-104215913D01*
X133563207Y-104124587D01*
X133590500Y-104022727D01*
X133590500Y-103917273D01*
X133563207Y-103815413D01*
X133510480Y-103724087D01*
X133435913Y-103649520D01*
X133409302Y-103634156D01*
X133367258Y-103609881D01*
X133319043Y-103559314D01*
X133305821Y-103490707D01*
X133331789Y-103425842D01*
X133341578Y-103414813D01*
X133345908Y-103410482D01*
X133345913Y-103410480D01*
X133420480Y-103335913D01*
X133473207Y-103244587D01*
X133500500Y-103142727D01*
X133500500Y-103037273D01*
X141759500Y-103037273D01*
X141759500Y-103142727D01*
X141786793Y-103244587D01*
X141839520Y-103335913D01*
X141914087Y-103410480D01*
X142005413Y-103463207D01*
X142107273Y-103490500D01*
X142107275Y-103490500D01*
X142212725Y-103490500D01*
X142212727Y-103490500D01*
X142314587Y-103463207D01*
X142405913Y-103410480D01*
X142480480Y-103335913D01*
X142533207Y-103244587D01*
X142560500Y-103142727D01*
X142560500Y-103037273D01*
X142547103Y-102987273D01*
X143339500Y-102987273D01*
X143339500Y-103092727D01*
X143366793Y-103194587D01*
X143419520Y-103285913D01*
X143494087Y-103360480D01*
X143585413Y-103413207D01*
X143687273Y-103440500D01*
X143687275Y-103440500D01*
X143792725Y-103440500D01*
X143792727Y-103440500D01*
X143894587Y-103413207D01*
X143985913Y-103360480D01*
X144060480Y-103285913D01*
X144113207Y-103194587D01*
X144140500Y-103092727D01*
X144140500Y-103037273D01*
X148619500Y-103037273D01*
X148619500Y-103142727D01*
X148646793Y-103244587D01*
X148699520Y-103335913D01*
X148774087Y-103410480D01*
X148865413Y-103463207D01*
X148967273Y-103490500D01*
X148967275Y-103490500D01*
X149072725Y-103490500D01*
X149072727Y-103490500D01*
X149174587Y-103463207D01*
X149265913Y-103410480D01*
X149340480Y-103335913D01*
X149340482Y-103335908D01*
X149345426Y-103329467D01*
X149347729Y-103331234D01*
X149388163Y-103292670D01*
X149456768Y-103279437D01*
X149521637Y-103305395D01*
X149543325Y-103330424D01*
X149544574Y-103329467D01*
X149549519Y-103335912D01*
X149549520Y-103335913D01*
X149624087Y-103410480D01*
X149715413Y-103463207D01*
X149817273Y-103490500D01*
X149817275Y-103490500D01*
X149922725Y-103490500D01*
X149922727Y-103490500D01*
X150024587Y-103463207D01*
X150115913Y-103410480D01*
X150190480Y-103335913D01*
X150243207Y-103244587D01*
X150245225Y-103237052D01*
X150281589Y-103177394D01*
X150344436Y-103146864D01*
X150413812Y-103155158D01*
X150467690Y-103199643D01*
X150484773Y-103237051D01*
X150486793Y-103244587D01*
X150539520Y-103335913D01*
X150614087Y-103410480D01*
X150705413Y-103463207D01*
X150807273Y-103490500D01*
X150807275Y-103490500D01*
X150912725Y-103490500D01*
X150912727Y-103490500D01*
X151014587Y-103463207D01*
X151105913Y-103410480D01*
X151180480Y-103335913D01*
X151233207Y-103244587D01*
X151260500Y-103142727D01*
X151260500Y-103037273D01*
X151233207Y-102935413D01*
X151180480Y-102844087D01*
X151105913Y-102769520D01*
X151019312Y-102719521D01*
X151014589Y-102716794D01*
X151014588Y-102716793D01*
X151014587Y-102716793D01*
X150912727Y-102689500D01*
X150807273Y-102689500D01*
X150705413Y-102716793D01*
X150705410Y-102716794D01*
X150614085Y-102769521D01*
X150539521Y-102844085D01*
X150486794Y-102935410D01*
X150486793Y-102935412D01*
X150486793Y-102935413D01*
X150484773Y-102942949D01*
X150448409Y-103002607D01*
X150385562Y-103033135D01*
X150316186Y-103024840D01*
X150262309Y-102980354D01*
X150245226Y-102942950D01*
X150243207Y-102935413D01*
X150190480Y-102844087D01*
X150115913Y-102769520D01*
X150029312Y-102719521D01*
X150024589Y-102716794D01*
X150024588Y-102716793D01*
X150024587Y-102716793D01*
X149922727Y-102689500D01*
X149817273Y-102689500D01*
X149715413Y-102716793D01*
X149715410Y-102716794D01*
X149624085Y-102769521D01*
X149549519Y-102844087D01*
X149544574Y-102850533D01*
X149542273Y-102848767D01*
X149501814Y-102887341D01*
X149433206Y-102900560D01*
X149368343Y-102874588D01*
X149346670Y-102849577D01*
X149345426Y-102850533D01*
X149340480Y-102844087D01*
X149265914Y-102769521D01*
X149265913Y-102769520D01*
X149179312Y-102719521D01*
X149174589Y-102716794D01*
X149174588Y-102716793D01*
X149174587Y-102716793D01*
X149072727Y-102689500D01*
X148967273Y-102689500D01*
X148865413Y-102716793D01*
X148865410Y-102716794D01*
X148774085Y-102769521D01*
X148699521Y-102844085D01*
X148646794Y-102935410D01*
X148646793Y-102935413D01*
X148619500Y-103037273D01*
X144140500Y-103037273D01*
X144140500Y-102987273D01*
X144113207Y-102885413D01*
X144060480Y-102794087D01*
X143985913Y-102719520D01*
X143894587Y-102666793D01*
X143792727Y-102639500D01*
X143687273Y-102639500D01*
X143585413Y-102666793D01*
X143585410Y-102666794D01*
X143494085Y-102719521D01*
X143419521Y-102794085D01*
X143366794Y-102885410D01*
X143366793Y-102885413D01*
X143339500Y-102987273D01*
X142547103Y-102987273D01*
X142533207Y-102935413D01*
X142480480Y-102844087D01*
X142405913Y-102769520D01*
X142319312Y-102719521D01*
X142314589Y-102716794D01*
X142314588Y-102716793D01*
X142314587Y-102716793D01*
X142212727Y-102689500D01*
X142107273Y-102689500D01*
X142005413Y-102716793D01*
X142005410Y-102716794D01*
X141914085Y-102769521D01*
X141839521Y-102844085D01*
X141786794Y-102935410D01*
X141786793Y-102935413D01*
X141759500Y-103037273D01*
X133500500Y-103037273D01*
X133473207Y-102935413D01*
X133420480Y-102844087D01*
X133345913Y-102769520D01*
X133259312Y-102719521D01*
X133254589Y-102716794D01*
X133254588Y-102716793D01*
X133254587Y-102716793D01*
X133152727Y-102689500D01*
X133047273Y-102689500D01*
X132945413Y-102716793D01*
X132945410Y-102716794D01*
X132854085Y-102769521D01*
X132779521Y-102844085D01*
X132726794Y-102935410D01*
X132726793Y-102935413D01*
X132699500Y-103037273D01*
X121645500Y-103037273D01*
X121645500Y-101948543D01*
X122699499Y-101948543D01*
X122737947Y-102141829D01*
X122737950Y-102141839D01*
X122813364Y-102323907D01*
X122813371Y-102323920D01*
X122922860Y-102487781D01*
X122922863Y-102487785D01*
X123062214Y-102627136D01*
X123062218Y-102627139D01*
X123226079Y-102736628D01*
X123226092Y-102736635D01*
X123408160Y-102812049D01*
X123408165Y-102812051D01*
X123408169Y-102812051D01*
X123408170Y-102812052D01*
X123601456Y-102850500D01*
X123601459Y-102850500D01*
X123798543Y-102850500D01*
X123928582Y-102824632D01*
X123991835Y-102812051D01*
X124173914Y-102736632D01*
X124337782Y-102627139D01*
X124477139Y-102487782D01*
X124586632Y-102323914D01*
X124662051Y-102141835D01*
X124686187Y-102020499D01*
X124700500Y-101948543D01*
X125239499Y-101948543D01*
X125277947Y-102141829D01*
X125277950Y-102141839D01*
X125353364Y-102323907D01*
X125353371Y-102323920D01*
X125462860Y-102487781D01*
X125462863Y-102487785D01*
X125602214Y-102627136D01*
X125602218Y-102627139D01*
X125766079Y-102736628D01*
X125766092Y-102736635D01*
X125948160Y-102812049D01*
X125948165Y-102812051D01*
X125948169Y-102812051D01*
X125948170Y-102812052D01*
X126141456Y-102850500D01*
X126141459Y-102850500D01*
X126338543Y-102850500D01*
X126468582Y-102824632D01*
X126531835Y-102812051D01*
X126713914Y-102736632D01*
X126877782Y-102627139D01*
X127017139Y-102487782D01*
X127126632Y-102323914D01*
X127202051Y-102141835D01*
X127226187Y-102020499D01*
X127240500Y-101948543D01*
X127240500Y-101751456D01*
X127240499Y-101751454D01*
X127207059Y-101583337D01*
X127203863Y-101567273D01*
X132099500Y-101567273D01*
X132099500Y-101672727D01*
X132126793Y-101774587D01*
X132179520Y-101865913D01*
X132254087Y-101940480D01*
X132345413Y-101993207D01*
X132447273Y-102020500D01*
X132447275Y-102020500D01*
X132552725Y-102020500D01*
X132552727Y-102020500D01*
X132654587Y-101993207D01*
X132745913Y-101940480D01*
X132820480Y-101865913D01*
X132873207Y-101774587D01*
X132900500Y-101672727D01*
X132900500Y-101567273D01*
X132873207Y-101465413D01*
X132820480Y-101374087D01*
X132753666Y-101307273D01*
X148619500Y-101307273D01*
X148619500Y-101412727D01*
X148646793Y-101514587D01*
X148699520Y-101605913D01*
X148774087Y-101680480D01*
X148865413Y-101733207D01*
X148967273Y-101760500D01*
X148967275Y-101760500D01*
X149072725Y-101760500D01*
X149072727Y-101760500D01*
X149174587Y-101733207D01*
X149265913Y-101680480D01*
X149340480Y-101605913D01*
X149340482Y-101605908D01*
X149345426Y-101599467D01*
X149347729Y-101601234D01*
X149388163Y-101562670D01*
X149456768Y-101549437D01*
X149521637Y-101575395D01*
X149543325Y-101600424D01*
X149544574Y-101599467D01*
X149549519Y-101605912D01*
X149549520Y-101605913D01*
X149624087Y-101680480D01*
X149715413Y-101733207D01*
X149817273Y-101760500D01*
X149817275Y-101760500D01*
X149922725Y-101760500D01*
X149922727Y-101760500D01*
X150024587Y-101733207D01*
X150115913Y-101680480D01*
X150190480Y-101605913D01*
X150243207Y-101514587D01*
X150248886Y-101493393D01*
X150285248Y-101433734D01*
X150348095Y-101403203D01*
X150417470Y-101411497D01*
X150471349Y-101455981D01*
X150488434Y-101493391D01*
X150496793Y-101524587D01*
X150549520Y-101615913D01*
X150624087Y-101690480D01*
X150715413Y-101743207D01*
X150817273Y-101770500D01*
X150817275Y-101770500D01*
X150922725Y-101770500D01*
X150922727Y-101770500D01*
X151024587Y-101743207D01*
X151115913Y-101690480D01*
X151190480Y-101615913D01*
X151224336Y-101557273D01*
X156599500Y-101557273D01*
X156599500Y-101662727D01*
X156626793Y-101764587D01*
X156679520Y-101855913D01*
X156754087Y-101930480D01*
X156845413Y-101983207D01*
X156947273Y-102010500D01*
X156947275Y-102010500D01*
X157052725Y-102010500D01*
X157052727Y-102010500D01*
X157154587Y-101983207D01*
X157245913Y-101930480D01*
X157320480Y-101855913D01*
X157373207Y-101764587D01*
X157400500Y-101662727D01*
X157400500Y-101557273D01*
X157373207Y-101455413D01*
X157320480Y-101364087D01*
X157245913Y-101289520D01*
X157154587Y-101236793D01*
X157052727Y-101209500D01*
X156947273Y-101209500D01*
X156845413Y-101236793D01*
X156845410Y-101236794D01*
X156754085Y-101289521D01*
X156679521Y-101364085D01*
X156626794Y-101455410D01*
X156626793Y-101455413D01*
X156599500Y-101557273D01*
X151224336Y-101557273D01*
X151243207Y-101524587D01*
X151270500Y-101422727D01*
X151270500Y-101317273D01*
X151243207Y-101215413D01*
X151190480Y-101124087D01*
X151115913Y-101049520D01*
X151024587Y-100996793D01*
X150922727Y-100969500D01*
X150817273Y-100969500D01*
X150715413Y-100996793D01*
X150715410Y-100996794D01*
X150624085Y-101049521D01*
X150549521Y-101124085D01*
X150496794Y-101215410D01*
X150496792Y-101215415D01*
X150491113Y-101236609D01*
X150454747Y-101296269D01*
X150391899Y-101326797D01*
X150322524Y-101318500D01*
X150268647Y-101274014D01*
X150251565Y-101236606D01*
X150243207Y-101205413D01*
X150190480Y-101114087D01*
X150115913Y-101039520D01*
X150024587Y-100986793D01*
X149922727Y-100959500D01*
X149817273Y-100959500D01*
X149715413Y-100986793D01*
X149715410Y-100986794D01*
X149624085Y-101039521D01*
X149549519Y-101114087D01*
X149544574Y-101120533D01*
X149542273Y-101118767D01*
X149501814Y-101157341D01*
X149433206Y-101170560D01*
X149368343Y-101144588D01*
X149346670Y-101119577D01*
X149345426Y-101120533D01*
X149340480Y-101114087D01*
X149265914Y-101039521D01*
X149265913Y-101039520D01*
X149174587Y-100986793D01*
X149072727Y-100959500D01*
X148967273Y-100959500D01*
X148865413Y-100986793D01*
X148865410Y-100986794D01*
X148774085Y-101039521D01*
X148699521Y-101114085D01*
X148646794Y-101205410D01*
X148646793Y-101205413D01*
X148619500Y-101307273D01*
X132753666Y-101307273D01*
X132745913Y-101299520D01*
X132654587Y-101246793D01*
X132552727Y-101219500D01*
X132447273Y-101219500D01*
X132345413Y-101246793D01*
X132345410Y-101246794D01*
X132254085Y-101299521D01*
X132179521Y-101374085D01*
X132126794Y-101465410D01*
X132126793Y-101465413D01*
X132099500Y-101567273D01*
X127203863Y-101567273D01*
X127202052Y-101558169D01*
X127202049Y-101558160D01*
X127126635Y-101376092D01*
X127126628Y-101376079D01*
X127017139Y-101212218D01*
X127017136Y-101212214D01*
X126877785Y-101072863D01*
X126877781Y-101072860D01*
X126713920Y-100963371D01*
X126713907Y-100963364D01*
X126531839Y-100887950D01*
X126531829Y-100887947D01*
X126338543Y-100849500D01*
X126338541Y-100849500D01*
X126141459Y-100849500D01*
X126141457Y-100849500D01*
X125948170Y-100887947D01*
X125948160Y-100887950D01*
X125766092Y-100963364D01*
X125766079Y-100963371D01*
X125602218Y-101072860D01*
X125602214Y-101072863D01*
X125462863Y-101212214D01*
X125462860Y-101212218D01*
X125353371Y-101376079D01*
X125353364Y-101376092D01*
X125277950Y-101558160D01*
X125277947Y-101558170D01*
X125239500Y-101751456D01*
X125239500Y-101751459D01*
X125239500Y-101948541D01*
X125239500Y-101948543D01*
X125239499Y-101948543D01*
X124700500Y-101948543D01*
X124700500Y-101751456D01*
X124662052Y-101558170D01*
X124662051Y-101558169D01*
X124662051Y-101558165D01*
X124648144Y-101524590D01*
X124586635Y-101376092D01*
X124586628Y-101376079D01*
X124477139Y-101212218D01*
X124477136Y-101212214D01*
X124337785Y-101072863D01*
X124337781Y-101072860D01*
X124173920Y-100963371D01*
X124173907Y-100963364D01*
X123991839Y-100887950D01*
X123991829Y-100887947D01*
X123798543Y-100849500D01*
X123798541Y-100849500D01*
X123601459Y-100849500D01*
X123601457Y-100849500D01*
X123408170Y-100887947D01*
X123408160Y-100887950D01*
X123226092Y-100963364D01*
X123226079Y-100963371D01*
X123062218Y-101072860D01*
X123062214Y-101072863D01*
X122922863Y-101212214D01*
X122922860Y-101212218D01*
X122813371Y-101376079D01*
X122813364Y-101376092D01*
X122737950Y-101558160D01*
X122737947Y-101558170D01*
X122699500Y-101751456D01*
X122699500Y-101751459D01*
X122699500Y-101948541D01*
X122699500Y-101948543D01*
X122699499Y-101948543D01*
X121645500Y-101948543D01*
X121645500Y-99408543D01*
X122699499Y-99408543D01*
X122737947Y-99601829D01*
X122737950Y-99601839D01*
X122813364Y-99783907D01*
X122813371Y-99783920D01*
X122922860Y-99947781D01*
X122922863Y-99947785D01*
X123062214Y-100087136D01*
X123062218Y-100087139D01*
X123226079Y-100196628D01*
X123226092Y-100196635D01*
X123408160Y-100272049D01*
X123408165Y-100272051D01*
X123408169Y-100272051D01*
X123408170Y-100272052D01*
X123601456Y-100310500D01*
X123601459Y-100310500D01*
X123798543Y-100310500D01*
X123928582Y-100284632D01*
X123991835Y-100272051D01*
X124173914Y-100196632D01*
X124337782Y-100087139D01*
X124477139Y-99947782D01*
X124586632Y-99783914D01*
X124662051Y-99601835D01*
X124688817Y-99467275D01*
X124700500Y-99408543D01*
X125239499Y-99408543D01*
X125277947Y-99601829D01*
X125277950Y-99601839D01*
X125353364Y-99783907D01*
X125353371Y-99783920D01*
X125462860Y-99947781D01*
X125462863Y-99947785D01*
X125602214Y-100087136D01*
X125602218Y-100087139D01*
X125766079Y-100196628D01*
X125766092Y-100196635D01*
X125948160Y-100272049D01*
X125948165Y-100272051D01*
X125948169Y-100272051D01*
X125948170Y-100272052D01*
X126141456Y-100310500D01*
X126141459Y-100310500D01*
X126338543Y-100310500D01*
X126468582Y-100284632D01*
X126531835Y-100272051D01*
X126713914Y-100196632D01*
X126877782Y-100087139D01*
X127017139Y-99947782D01*
X127126632Y-99783914D01*
X127195656Y-99617273D01*
X130849500Y-99617273D01*
X130849500Y-99722727D01*
X130865897Y-99783920D01*
X130876793Y-99824586D01*
X130876794Y-99824589D01*
X130929521Y-99915914D01*
X131009834Y-99996227D01*
X131007615Y-99998445D01*
X131040085Y-100042929D01*
X131044227Y-100112676D01*
X131011070Y-100172537D01*
X130949520Y-100234087D01*
X130896794Y-100325410D01*
X130896793Y-100325413D01*
X130869500Y-100427273D01*
X130869500Y-100532727D01*
X130896793Y-100634587D01*
X130949520Y-100725913D01*
X131024087Y-100800480D01*
X131115413Y-100853207D01*
X131217273Y-100880500D01*
X131217275Y-100880500D01*
X131322725Y-100880500D01*
X131322727Y-100880500D01*
X131424587Y-100853207D01*
X131515913Y-100800480D01*
X131590480Y-100725913D01*
X131643207Y-100634587D01*
X131670500Y-100532727D01*
X131670500Y-100427273D01*
X131643207Y-100325413D01*
X131590480Y-100234087D01*
X131515913Y-100159520D01*
X131510166Y-100153773D01*
X131512382Y-100151556D01*
X131479909Y-100107056D01*
X131475775Y-100037309D01*
X131508927Y-99977465D01*
X131570480Y-99915913D01*
X131623207Y-99824587D01*
X131650500Y-99722727D01*
X131650500Y-99617273D01*
X131623207Y-99515413D01*
X131570480Y-99424087D01*
X131495913Y-99349520D01*
X131404587Y-99296793D01*
X131302727Y-99269500D01*
X131197273Y-99269500D01*
X131095413Y-99296793D01*
X131095410Y-99296794D01*
X131004085Y-99349521D01*
X130929521Y-99424085D01*
X130876794Y-99515410D01*
X130876793Y-99515413D01*
X130849500Y-99617273D01*
X127195656Y-99617273D01*
X127202051Y-99601835D01*
X127240500Y-99408541D01*
X127240500Y-99211459D01*
X127240500Y-99211456D01*
X127202052Y-99018170D01*
X127202051Y-99018169D01*
X127202051Y-99018165D01*
X127133752Y-98853275D01*
X127126635Y-98836092D01*
X127126628Y-98836079D01*
X127017139Y-98672218D01*
X127017136Y-98672214D01*
X126877782Y-98532860D01*
X126863855Y-98523555D01*
X126718663Y-98426540D01*
X141499200Y-98426540D01*
X141499200Y-98573459D01*
X141527858Y-98717534D01*
X141527861Y-98717544D01*
X141584078Y-98853266D01*
X141584083Y-98853275D01*
X141665698Y-98975419D01*
X141665701Y-98975423D01*
X141769576Y-99079298D01*
X141769580Y-99079301D01*
X141891724Y-99160916D01*
X141891730Y-99160919D01*
X141891731Y-99160920D01*
X142027458Y-99217140D01*
X142171540Y-99245799D01*
X142171544Y-99245800D01*
X142171545Y-99245800D01*
X142318456Y-99245800D01*
X142318457Y-99245799D01*
X142462542Y-99217140D01*
X142598269Y-99160920D01*
X142720420Y-99079301D01*
X142824301Y-98975420D01*
X142905920Y-98853269D01*
X142962140Y-98717542D01*
X142990800Y-98573455D01*
X142990800Y-98426545D01*
X142990799Y-98426540D01*
X143529200Y-98426540D01*
X143529200Y-98573459D01*
X143557858Y-98717534D01*
X143557861Y-98717544D01*
X143614078Y-98853266D01*
X143614083Y-98853275D01*
X143695698Y-98975419D01*
X143695701Y-98975423D01*
X143799576Y-99079298D01*
X143799580Y-99079301D01*
X143921724Y-99160916D01*
X143921730Y-99160919D01*
X143921731Y-99160920D01*
X144057458Y-99217140D01*
X144201540Y-99245799D01*
X144201544Y-99245800D01*
X144201545Y-99245800D01*
X144348456Y-99245800D01*
X144348457Y-99245799D01*
X144492542Y-99217140D01*
X144628269Y-99160920D01*
X144750420Y-99079301D01*
X144854301Y-98975420D01*
X144935920Y-98853269D01*
X144992140Y-98717542D01*
X145012084Y-98617273D01*
X154529500Y-98617273D01*
X154529500Y-98722726D01*
X154556793Y-98824586D01*
X154556794Y-98824589D01*
X154609521Y-98915914D01*
X154684087Y-98990480D01*
X154690533Y-98995426D01*
X154688767Y-98997726D01*
X154727341Y-99038186D01*
X154740560Y-99106794D01*
X154714588Y-99171657D01*
X154689577Y-99193329D01*
X154690533Y-99194574D01*
X154684087Y-99199519D01*
X154609521Y-99274085D01*
X154556794Y-99365410D01*
X154556793Y-99365413D01*
X154529500Y-99467273D01*
X154529500Y-99572727D01*
X154556793Y-99674587D01*
X154609520Y-99765913D01*
X154684087Y-99840480D01*
X154775413Y-99893207D01*
X154877273Y-99920500D01*
X154877275Y-99920500D01*
X154982725Y-99920500D01*
X154982727Y-99920500D01*
X155084587Y-99893207D01*
X155175913Y-99840480D01*
X155250480Y-99765913D01*
X155303207Y-99674587D01*
X155330500Y-99572727D01*
X155330500Y-99467273D01*
X155303207Y-99365413D01*
X155250480Y-99274087D01*
X155175913Y-99199520D01*
X155175912Y-99199519D01*
X155169467Y-99194574D01*
X155171234Y-99192270D01*
X155132670Y-99151837D01*
X155119437Y-99083232D01*
X155145395Y-99018363D01*
X155170424Y-98996674D01*
X155169467Y-98995426D01*
X155175908Y-98990482D01*
X155175913Y-98990480D01*
X155250480Y-98915913D01*
X155303207Y-98824587D01*
X155330500Y-98722727D01*
X155330500Y-98617273D01*
X155303207Y-98515413D01*
X155250480Y-98424087D01*
X155175913Y-98349520D01*
X155084587Y-98296793D01*
X154982727Y-98269500D01*
X154877273Y-98269500D01*
X154775413Y-98296793D01*
X154775410Y-98296794D01*
X154684085Y-98349521D01*
X154609521Y-98424085D01*
X154556794Y-98515410D01*
X154556793Y-98515413D01*
X154529500Y-98617273D01*
X145012084Y-98617273D01*
X145020800Y-98573455D01*
X145020800Y-98426545D01*
X144992140Y-98282458D01*
X144935920Y-98146731D01*
X144935919Y-98146730D01*
X144935916Y-98146724D01*
X144854301Y-98024580D01*
X144854298Y-98024576D01*
X144750423Y-97920701D01*
X144750419Y-97920698D01*
X144628275Y-97839083D01*
X144628266Y-97839078D01*
X144492544Y-97782861D01*
X144492545Y-97782861D01*
X144492542Y-97782860D01*
X144492538Y-97782859D01*
X144492534Y-97782858D01*
X144348459Y-97754200D01*
X144348455Y-97754200D01*
X144201545Y-97754200D01*
X144201540Y-97754200D01*
X144057465Y-97782858D01*
X144057455Y-97782861D01*
X143921733Y-97839078D01*
X143921724Y-97839083D01*
X143799580Y-97920698D01*
X143799576Y-97920701D01*
X143695701Y-98024576D01*
X143695698Y-98024580D01*
X143614083Y-98146724D01*
X143614078Y-98146733D01*
X143557861Y-98282455D01*
X143557858Y-98282465D01*
X143529200Y-98426540D01*
X142990799Y-98426540D01*
X142962140Y-98282458D01*
X142905920Y-98146731D01*
X142905919Y-98146730D01*
X142905916Y-98146724D01*
X142824301Y-98024580D01*
X142824298Y-98024576D01*
X142720423Y-97920701D01*
X142720419Y-97920698D01*
X142598275Y-97839083D01*
X142598266Y-97839078D01*
X142462544Y-97782861D01*
X142462545Y-97782861D01*
X142462542Y-97782860D01*
X142462538Y-97782859D01*
X142462534Y-97782858D01*
X142318459Y-97754200D01*
X142318455Y-97754200D01*
X142171545Y-97754200D01*
X142171540Y-97754200D01*
X142027465Y-97782858D01*
X142027455Y-97782861D01*
X141891733Y-97839078D01*
X141891724Y-97839083D01*
X141769580Y-97920698D01*
X141769576Y-97920701D01*
X141665701Y-98024576D01*
X141665698Y-98024580D01*
X141584083Y-98146724D01*
X141584078Y-98146733D01*
X141527861Y-98282455D01*
X141527858Y-98282465D01*
X141499200Y-98426540D01*
X126718663Y-98426540D01*
X126713920Y-98423371D01*
X126713907Y-98423364D01*
X126531839Y-98347950D01*
X126531829Y-98347947D01*
X126338543Y-98309500D01*
X126338541Y-98309500D01*
X126141459Y-98309500D01*
X126141457Y-98309500D01*
X125948170Y-98347947D01*
X125948160Y-98347950D01*
X125766092Y-98423364D01*
X125766079Y-98423371D01*
X125602218Y-98532860D01*
X125602214Y-98532863D01*
X125462863Y-98672214D01*
X125462860Y-98672218D01*
X125353371Y-98836079D01*
X125353364Y-98836092D01*
X125277950Y-99018160D01*
X125277947Y-99018170D01*
X125239500Y-99211456D01*
X125239500Y-99211459D01*
X125239500Y-99408541D01*
X125239500Y-99408543D01*
X125239499Y-99408543D01*
X124700500Y-99408543D01*
X124700500Y-99211456D01*
X124662052Y-99018170D01*
X124662051Y-99018169D01*
X124662051Y-99018165D01*
X124593752Y-98853275D01*
X124586635Y-98836092D01*
X124586628Y-98836079D01*
X124477139Y-98672218D01*
X124477136Y-98672214D01*
X124337785Y-98532863D01*
X124337781Y-98532860D01*
X124173920Y-98423371D01*
X124173907Y-98423364D01*
X123991839Y-98347950D01*
X123991829Y-98347947D01*
X123798543Y-98309500D01*
X123798541Y-98309500D01*
X123601459Y-98309500D01*
X123601457Y-98309500D01*
X123408170Y-98347947D01*
X123408160Y-98347950D01*
X123226092Y-98423364D01*
X123226079Y-98423371D01*
X123062218Y-98532860D01*
X123062214Y-98532863D01*
X122922863Y-98672214D01*
X122922860Y-98672218D01*
X122813371Y-98836079D01*
X122813364Y-98836092D01*
X122737950Y-99018160D01*
X122737947Y-99018170D01*
X122699500Y-99211456D01*
X122699500Y-99211459D01*
X122699500Y-99408541D01*
X122699500Y-99408543D01*
X122699499Y-99408543D01*
X121645500Y-99408543D01*
X121645500Y-96868543D01*
X122699499Y-96868543D01*
X122737947Y-97061829D01*
X122737950Y-97061839D01*
X122813364Y-97243907D01*
X122813371Y-97243920D01*
X122922860Y-97407781D01*
X122922863Y-97407785D01*
X123062214Y-97547136D01*
X123062218Y-97547139D01*
X123226079Y-97656628D01*
X123226092Y-97656635D01*
X123372096Y-97717111D01*
X123408165Y-97732051D01*
X123408169Y-97732051D01*
X123408170Y-97732052D01*
X123601456Y-97770500D01*
X123601459Y-97770500D01*
X123798543Y-97770500D01*
X123928582Y-97744632D01*
X123991835Y-97732051D01*
X124173914Y-97656632D01*
X124337782Y-97547139D01*
X124477139Y-97407782D01*
X124586632Y-97243914D01*
X124662051Y-97061835D01*
X124687932Y-96931725D01*
X124700500Y-96868543D01*
X125239499Y-96868543D01*
X125277947Y-97061829D01*
X125277950Y-97061839D01*
X125353364Y-97243907D01*
X125353371Y-97243920D01*
X125462860Y-97407781D01*
X125462863Y-97407785D01*
X125602214Y-97547136D01*
X125602218Y-97547139D01*
X125766079Y-97656628D01*
X125766092Y-97656635D01*
X125912096Y-97717111D01*
X125948165Y-97732051D01*
X125948169Y-97732051D01*
X125948170Y-97732052D01*
X126141456Y-97770500D01*
X126141459Y-97770500D01*
X126338543Y-97770500D01*
X126468582Y-97744632D01*
X126531835Y-97732051D01*
X126713914Y-97656632D01*
X126877782Y-97547139D01*
X127017139Y-97407782D01*
X127126632Y-97243914D01*
X127202051Y-97061835D01*
X127227932Y-96931725D01*
X127240500Y-96868543D01*
X127240500Y-96671456D01*
X127240499Y-96671454D01*
X127206624Y-96501150D01*
X127202781Y-96481831D01*
X139282050Y-96481831D01*
X139282050Y-96708168D01*
X139317458Y-96931722D01*
X139317458Y-96931725D01*
X139387398Y-97146978D01*
X139387400Y-97146981D01*
X139490155Y-97348650D01*
X139623193Y-97531761D01*
X139783239Y-97691807D01*
X139966350Y-97824845D01*
X140168019Y-97927600D01*
X140168021Y-97927601D01*
X140335024Y-97981863D01*
X140383279Y-97997542D01*
X140606831Y-98032950D01*
X140606832Y-98032950D01*
X140833168Y-98032950D01*
X140833169Y-98032950D01*
X141056721Y-97997542D01*
X141056724Y-97997541D01*
X141056725Y-97997541D01*
X141271978Y-97927601D01*
X141271978Y-97927600D01*
X141271981Y-97927600D01*
X141473650Y-97824845D01*
X141656761Y-97691807D01*
X141816807Y-97531761D01*
X141949845Y-97348650D01*
X142052600Y-97146981D01*
X142080266Y-97061835D01*
X142122541Y-96931725D01*
X142122541Y-96931724D01*
X142122542Y-96931721D01*
X142157950Y-96708169D01*
X142157950Y-96481831D01*
X144362050Y-96481831D01*
X144362050Y-96708168D01*
X144397458Y-96931722D01*
X144397458Y-96931725D01*
X144467398Y-97146978D01*
X144467400Y-97146981D01*
X144570155Y-97348650D01*
X144703193Y-97531761D01*
X144863239Y-97691807D01*
X145046350Y-97824845D01*
X145248019Y-97927600D01*
X145248021Y-97927601D01*
X145415024Y-97981863D01*
X145463279Y-97997542D01*
X145686831Y-98032950D01*
X145686832Y-98032950D01*
X145913168Y-98032950D01*
X145913169Y-98032950D01*
X146136721Y-97997542D01*
X146257181Y-97958401D01*
X146327023Y-97956407D01*
X146386856Y-97992487D01*
X146417684Y-98055188D01*
X146419500Y-98076333D01*
X146419500Y-98083723D01*
X146419500Y-98189177D01*
X146446793Y-98291037D01*
X146499520Y-98382363D01*
X146574087Y-98456930D01*
X146665413Y-98509657D01*
X146767273Y-98536950D01*
X146767275Y-98536950D01*
X146872725Y-98536950D01*
X146872727Y-98536950D01*
X146974587Y-98509657D01*
X147065913Y-98456930D01*
X147140480Y-98382363D01*
X147193207Y-98291037D01*
X147220500Y-98189177D01*
X147220500Y-98083723D01*
X147193207Y-97981863D01*
X147140480Y-97890537D01*
X147065913Y-97815970D01*
X146974589Y-97763244D01*
X146974588Y-97763243D01*
X146960846Y-97759561D01*
X146938132Y-97753475D01*
X146878474Y-97717111D01*
X146847945Y-97654264D01*
X146856240Y-97584888D01*
X146882544Y-97546023D01*
X146896807Y-97531761D01*
X147029845Y-97348650D01*
X147132600Y-97146981D01*
X147160266Y-97061835D01*
X147202541Y-96931725D01*
X147202541Y-96931724D01*
X147202542Y-96931721D01*
X147237950Y-96708169D01*
X147237950Y-96481831D01*
X147202542Y-96258279D01*
X147201305Y-96254473D01*
X147199028Y-96247462D01*
X147199027Y-96247460D01*
X147189219Y-96217273D01*
X148489500Y-96217273D01*
X148489500Y-96322727D01*
X148516793Y-96424587D01*
X148569520Y-96515913D01*
X148644087Y-96590480D01*
X148735413Y-96643207D01*
X148837273Y-96670500D01*
X148837275Y-96670500D01*
X148942725Y-96670500D01*
X148942727Y-96670500D01*
X149044587Y-96643207D01*
X149135913Y-96590480D01*
X149210480Y-96515913D01*
X149263207Y-96424587D01*
X149290500Y-96322727D01*
X149290500Y-96217273D01*
X149263207Y-96115413D01*
X149210480Y-96024087D01*
X149135913Y-95949520D01*
X149044587Y-95896793D01*
X148942727Y-95869500D01*
X148837273Y-95869500D01*
X148735413Y-95896793D01*
X148735410Y-95896794D01*
X148644085Y-95949521D01*
X148569521Y-96024085D01*
X148516794Y-96115410D01*
X148516793Y-96115413D01*
X148489500Y-96217273D01*
X147189219Y-96217273D01*
X147132601Y-96043021D01*
X147132599Y-96043018D01*
X147122954Y-96024087D01*
X147029845Y-95841350D01*
X146896807Y-95658239D01*
X146736761Y-95498193D01*
X146553650Y-95365155D01*
X146351981Y-95262400D01*
X146351978Y-95262398D01*
X146136723Y-95192458D01*
X145969126Y-95165913D01*
X145913169Y-95157050D01*
X145686831Y-95157050D01*
X145630874Y-95165913D01*
X145463277Y-95192458D01*
X145463274Y-95192458D01*
X145248021Y-95262398D01*
X145248018Y-95262400D01*
X145046349Y-95365155D01*
X145008400Y-95392727D01*
X144863239Y-95498193D01*
X144863237Y-95498195D01*
X144863236Y-95498195D01*
X144703195Y-95658236D01*
X144703195Y-95658237D01*
X144703193Y-95658239D01*
X144646058Y-95736878D01*
X144570155Y-95841349D01*
X144467400Y-96043018D01*
X144467398Y-96043021D01*
X144397458Y-96258274D01*
X144397458Y-96258277D01*
X144362050Y-96481831D01*
X142157950Y-96481831D01*
X142122542Y-96258279D01*
X142122541Y-96258275D01*
X142122541Y-96258274D01*
X142052601Y-96043021D01*
X142052599Y-96043018D01*
X142042954Y-96024087D01*
X141949845Y-95841350D01*
X141816807Y-95658239D01*
X141656761Y-95498193D01*
X141651796Y-95494586D01*
X141493353Y-95379470D01*
X141493343Y-95379463D01*
X141473651Y-95365155D01*
X141320797Y-95287273D01*
X142869500Y-95287273D01*
X142869500Y-95392727D01*
X142896793Y-95494587D01*
X142949520Y-95585913D01*
X143024087Y-95660480D01*
X143115413Y-95713207D01*
X143217273Y-95740500D01*
X143217275Y-95740500D01*
X143322725Y-95740500D01*
X143322727Y-95740500D01*
X143424587Y-95713207D01*
X143515913Y-95660480D01*
X143590480Y-95585913D01*
X143643207Y-95494587D01*
X143670500Y-95392727D01*
X143670500Y-95287273D01*
X143643207Y-95185413D01*
X143590480Y-95094087D01*
X143515913Y-95019520D01*
X143424587Y-94966793D01*
X143322727Y-94939500D01*
X143217273Y-94939500D01*
X143115413Y-94966793D01*
X143115410Y-94966794D01*
X143024085Y-95019521D01*
X142949521Y-95094085D01*
X142896794Y-95185410D01*
X142896793Y-95185413D01*
X142869500Y-95287273D01*
X141320797Y-95287273D01*
X141271981Y-95262400D01*
X141271978Y-95262398D01*
X141056723Y-95192458D01*
X140889126Y-95165913D01*
X140833169Y-95157050D01*
X140606831Y-95157050D01*
X140550874Y-95165913D01*
X140383277Y-95192458D01*
X140383274Y-95192458D01*
X140168021Y-95262398D01*
X140168018Y-95262400D01*
X139966349Y-95365155D01*
X139928400Y-95392727D01*
X139783239Y-95498193D01*
X139783237Y-95498195D01*
X139783236Y-95498195D01*
X139623195Y-95658236D01*
X139623195Y-95658237D01*
X139623193Y-95658239D01*
X139566058Y-95736878D01*
X139490155Y-95841349D01*
X139387400Y-96043018D01*
X139387398Y-96043021D01*
X139317458Y-96258274D01*
X139317458Y-96258277D01*
X139282050Y-96481831D01*
X127202781Y-96481831D01*
X127202052Y-96478169D01*
X127202049Y-96478160D01*
X127126635Y-96296092D01*
X127126628Y-96296079D01*
X127017139Y-96132218D01*
X127017136Y-96132214D01*
X126877785Y-95992863D01*
X126877781Y-95992860D01*
X126713920Y-95883371D01*
X126713907Y-95883364D01*
X126531839Y-95807950D01*
X126531829Y-95807947D01*
X126338543Y-95769500D01*
X126338541Y-95769500D01*
X126141459Y-95769500D01*
X126141457Y-95769500D01*
X125948170Y-95807947D01*
X125948160Y-95807950D01*
X125766092Y-95883364D01*
X125766079Y-95883371D01*
X125602218Y-95992860D01*
X125602214Y-95992863D01*
X125462863Y-96132214D01*
X125462860Y-96132218D01*
X125353371Y-96296079D01*
X125353364Y-96296092D01*
X125277950Y-96478160D01*
X125277947Y-96478170D01*
X125239500Y-96671456D01*
X125239500Y-96671459D01*
X125239500Y-96868541D01*
X125239500Y-96868543D01*
X125239499Y-96868543D01*
X124700500Y-96868543D01*
X124700500Y-96671456D01*
X124662052Y-96478170D01*
X124662051Y-96478169D01*
X124662051Y-96478165D01*
X124639859Y-96424589D01*
X124586635Y-96296092D01*
X124586628Y-96296079D01*
X124477139Y-96132218D01*
X124477136Y-96132214D01*
X124337785Y-95992863D01*
X124337781Y-95992860D01*
X124173920Y-95883371D01*
X124173907Y-95883364D01*
X123991839Y-95807950D01*
X123991829Y-95807947D01*
X123798543Y-95769500D01*
X123798541Y-95769500D01*
X123601459Y-95769500D01*
X123601457Y-95769500D01*
X123408170Y-95807947D01*
X123408160Y-95807950D01*
X123226092Y-95883364D01*
X123226079Y-95883371D01*
X123062218Y-95992860D01*
X123062214Y-95992863D01*
X122922863Y-96132214D01*
X122922860Y-96132218D01*
X122813371Y-96296079D01*
X122813364Y-96296092D01*
X122737950Y-96478160D01*
X122737947Y-96478170D01*
X122699500Y-96671456D01*
X122699500Y-96671459D01*
X122699500Y-96868541D01*
X122699500Y-96868543D01*
X122699499Y-96868543D01*
X121645500Y-96868543D01*
X121645500Y-94328543D01*
X122699499Y-94328543D01*
X122737947Y-94521829D01*
X122737950Y-94521839D01*
X122813364Y-94703907D01*
X122813371Y-94703920D01*
X122922860Y-94867781D01*
X122922863Y-94867785D01*
X123062214Y-95007136D01*
X123062218Y-95007139D01*
X123226079Y-95116628D01*
X123226092Y-95116635D01*
X123345064Y-95165914D01*
X123408165Y-95192051D01*
X123408169Y-95192051D01*
X123408170Y-95192052D01*
X123601456Y-95230500D01*
X123601459Y-95230500D01*
X123798543Y-95230500D01*
X123928582Y-95204632D01*
X123991835Y-95192051D01*
X124173914Y-95116632D01*
X124337782Y-95007139D01*
X124477139Y-94867782D01*
X124586632Y-94703914D01*
X124598988Y-94674085D01*
X124631002Y-94596794D01*
X124662051Y-94521835D01*
X124700500Y-94328543D01*
X125239499Y-94328543D01*
X125277947Y-94521829D01*
X125277950Y-94521839D01*
X125353364Y-94703907D01*
X125353371Y-94703920D01*
X125462860Y-94867781D01*
X125462863Y-94867785D01*
X125602214Y-95007136D01*
X125602218Y-95007139D01*
X125766079Y-95116628D01*
X125766092Y-95116635D01*
X125885064Y-95165914D01*
X125948165Y-95192051D01*
X125948169Y-95192051D01*
X125948170Y-95192052D01*
X126141456Y-95230500D01*
X126141459Y-95230500D01*
X126338543Y-95230500D01*
X126468582Y-95204632D01*
X126531835Y-95192051D01*
X126713914Y-95116632D01*
X126877782Y-95007139D01*
X127017139Y-94867782D01*
X127024161Y-94857273D01*
X129519500Y-94857273D01*
X129519500Y-94962727D01*
X129546793Y-95064587D01*
X129599520Y-95155913D01*
X129674087Y-95230480D01*
X129765413Y-95283207D01*
X129867273Y-95310500D01*
X129867275Y-95310500D01*
X129972725Y-95310500D01*
X129972727Y-95310500D01*
X130074587Y-95283207D01*
X130165913Y-95230480D01*
X130240480Y-95155913D01*
X130293207Y-95064587D01*
X130320500Y-94962727D01*
X130320500Y-94857273D01*
X130293207Y-94755413D01*
X130240480Y-94664087D01*
X130165913Y-94589520D01*
X130074587Y-94536793D01*
X129972727Y-94509500D01*
X129867273Y-94509500D01*
X129765413Y-94536793D01*
X129765410Y-94536794D01*
X129674085Y-94589521D01*
X129599521Y-94664085D01*
X129546794Y-94755410D01*
X129546793Y-94755413D01*
X129519500Y-94857273D01*
X127024161Y-94857273D01*
X127092222Y-94755413D01*
X127126628Y-94703920D01*
X127126628Y-94703919D01*
X127126632Y-94703914D01*
X127138988Y-94674085D01*
X127171002Y-94596794D01*
X127202051Y-94521835D01*
X127240500Y-94328541D01*
X127240500Y-94131459D01*
X127240500Y-94131456D01*
X127240499Y-94131454D01*
X127222972Y-94043337D01*
X127219777Y-94027273D01*
X137879500Y-94027273D01*
X137879500Y-94132727D01*
X137906793Y-94234587D01*
X137959520Y-94325913D01*
X138034087Y-94400480D01*
X138125413Y-94453207D01*
X138227273Y-94480500D01*
X138227275Y-94480500D01*
X138246618Y-94480500D01*
X138313657Y-94500185D01*
X138359412Y-94552989D01*
X138369356Y-94622147D01*
X138351064Y-94665594D01*
X138353584Y-94667049D01*
X138349521Y-94674085D01*
X138349520Y-94674087D01*
X138332296Y-94703920D01*
X138296794Y-94765410D01*
X138296793Y-94765413D01*
X138269500Y-94867273D01*
X138269500Y-94972727D01*
X138296793Y-95074587D01*
X138349520Y-95165913D01*
X138424087Y-95240480D01*
X138515413Y-95293207D01*
X138617273Y-95320500D01*
X138617275Y-95320500D01*
X138722725Y-95320500D01*
X138722727Y-95320500D01*
X138824587Y-95293207D01*
X138915913Y-95240480D01*
X138990480Y-95165913D01*
X139043207Y-95074587D01*
X139070500Y-94972727D01*
X139070500Y-94917273D01*
X153519500Y-94917273D01*
X153519500Y-95022727D01*
X153546793Y-95124587D01*
X153599520Y-95215913D01*
X153674087Y-95290480D01*
X153765413Y-95343207D01*
X153867273Y-95370500D01*
X153867275Y-95370500D01*
X153972725Y-95370500D01*
X153972727Y-95370500D01*
X154074587Y-95343207D01*
X154165913Y-95290480D01*
X154240480Y-95215913D01*
X154293207Y-95124587D01*
X154320500Y-95022727D01*
X154320500Y-94917273D01*
X154293207Y-94815413D01*
X154240480Y-94724087D01*
X154165913Y-94649520D01*
X154079312Y-94599521D01*
X154074589Y-94596794D01*
X154074588Y-94596793D01*
X154074587Y-94596793D01*
X153972727Y-94569500D01*
X153867273Y-94569500D01*
X153765413Y-94596793D01*
X153765410Y-94596794D01*
X153674085Y-94649521D01*
X153599521Y-94724085D01*
X153546794Y-94815410D01*
X153546793Y-94815413D01*
X153519500Y-94917273D01*
X139070500Y-94917273D01*
X139070500Y-94867273D01*
X139043207Y-94765413D01*
X138990480Y-94674087D01*
X138915913Y-94599520D01*
X138824587Y-94546793D01*
X138722727Y-94519500D01*
X138703382Y-94519500D01*
X138636343Y-94499815D01*
X138590588Y-94447011D01*
X138580644Y-94377853D01*
X138598935Y-94334405D01*
X138596416Y-94332951D01*
X138600478Y-94325914D01*
X138600480Y-94325913D01*
X138653207Y-94234587D01*
X138680500Y-94132727D01*
X138680500Y-94027273D01*
X142879500Y-94027273D01*
X142879500Y-94132727D01*
X142906793Y-94234587D01*
X142959520Y-94325913D01*
X143034087Y-94400480D01*
X143125413Y-94453207D01*
X143227273Y-94480500D01*
X143227275Y-94480500D01*
X143332725Y-94480500D01*
X143332727Y-94480500D01*
X143434587Y-94453207D01*
X143525913Y-94400480D01*
X143600480Y-94325913D01*
X143653207Y-94234587D01*
X143680500Y-94132727D01*
X143680500Y-94027273D01*
X143653207Y-93925413D01*
X143600480Y-93834087D01*
X143525913Y-93759520D01*
X143434587Y-93706793D01*
X143332727Y-93679500D01*
X143227273Y-93679500D01*
X143125413Y-93706793D01*
X143125410Y-93706794D01*
X143034085Y-93759521D01*
X142959521Y-93834085D01*
X142906794Y-93925410D01*
X142906793Y-93925413D01*
X142879500Y-94027273D01*
X138680500Y-94027273D01*
X138653207Y-93925413D01*
X138600480Y-93834087D01*
X138525913Y-93759520D01*
X138434587Y-93706793D01*
X138332727Y-93679500D01*
X138227273Y-93679500D01*
X138125413Y-93706793D01*
X138125410Y-93706794D01*
X138034085Y-93759521D01*
X137959521Y-93834085D01*
X137906794Y-93925410D01*
X137906793Y-93925413D01*
X137879500Y-94027273D01*
X127219777Y-94027273D01*
X127202052Y-93938170D01*
X127202051Y-93938169D01*
X127202051Y-93938165D01*
X127149171Y-93810500D01*
X127126635Y-93756092D01*
X127126628Y-93756079D01*
X127017139Y-93592218D01*
X127017136Y-93592214D01*
X126877784Y-93452862D01*
X126876866Y-93452249D01*
X126876865Y-93452248D01*
X126734726Y-93357273D01*
X141209500Y-93357273D01*
X141209500Y-93462727D01*
X141236793Y-93564587D01*
X141289520Y-93655913D01*
X141364087Y-93730480D01*
X141455413Y-93783207D01*
X141557273Y-93810500D01*
X141557275Y-93810500D01*
X141662725Y-93810500D01*
X141662727Y-93810500D01*
X141764587Y-93783207D01*
X141855913Y-93730480D01*
X141930480Y-93655913D01*
X141983207Y-93564587D01*
X142010500Y-93462727D01*
X142010500Y-93357273D01*
X141983207Y-93255413D01*
X141930480Y-93164087D01*
X141855913Y-93089520D01*
X141764587Y-93036793D01*
X141662727Y-93009500D01*
X141557273Y-93009500D01*
X141455413Y-93036793D01*
X141455410Y-93036794D01*
X141364085Y-93089521D01*
X141289521Y-93164085D01*
X141236794Y-93255410D01*
X141236793Y-93255413D01*
X141209500Y-93357273D01*
X126734726Y-93357273D01*
X126713920Y-93343371D01*
X126713907Y-93343364D01*
X126531839Y-93267950D01*
X126531829Y-93267947D01*
X126338543Y-93229500D01*
X126338541Y-93229500D01*
X126141459Y-93229500D01*
X126141457Y-93229500D01*
X125948170Y-93267947D01*
X125948160Y-93267950D01*
X125766092Y-93343364D01*
X125766079Y-93343371D01*
X125602218Y-93452860D01*
X125602214Y-93452863D01*
X125462863Y-93592214D01*
X125462860Y-93592218D01*
X125353371Y-93756079D01*
X125353364Y-93756092D01*
X125277950Y-93938160D01*
X125277947Y-93938170D01*
X125239500Y-94131456D01*
X125239500Y-94131459D01*
X125239500Y-94328541D01*
X125239500Y-94328543D01*
X125239499Y-94328543D01*
X124700500Y-94328543D01*
X124700500Y-94328541D01*
X124700500Y-94131459D01*
X124700500Y-94131456D01*
X124662052Y-93938170D01*
X124662051Y-93938169D01*
X124662051Y-93938165D01*
X124609171Y-93810500D01*
X124586635Y-93756092D01*
X124586628Y-93756079D01*
X124477139Y-93592218D01*
X124477136Y-93592214D01*
X124337785Y-93452863D01*
X124337781Y-93452860D01*
X124173920Y-93343371D01*
X124173907Y-93343364D01*
X123991839Y-93267950D01*
X123991829Y-93267947D01*
X123798543Y-93229500D01*
X123798541Y-93229500D01*
X123601459Y-93229500D01*
X123601457Y-93229500D01*
X123408170Y-93267947D01*
X123408160Y-93267950D01*
X123226092Y-93343364D01*
X123226079Y-93343371D01*
X123062218Y-93452860D01*
X123062214Y-93452863D01*
X122922863Y-93592214D01*
X122922860Y-93592218D01*
X122813371Y-93756079D01*
X122813364Y-93756092D01*
X122737950Y-93938160D01*
X122737947Y-93938170D01*
X122699500Y-94131456D01*
X122699500Y-94131459D01*
X122699500Y-94328541D01*
X122699500Y-94328543D01*
X122699499Y-94328543D01*
X121645500Y-94328543D01*
X121645500Y-91788543D01*
X122699499Y-91788543D01*
X122737947Y-91981829D01*
X122737950Y-91981839D01*
X122813364Y-92163907D01*
X122813371Y-92163920D01*
X122922860Y-92327781D01*
X122922863Y-92327785D01*
X123062214Y-92467136D01*
X123062218Y-92467139D01*
X123226079Y-92576628D01*
X123226092Y-92576635D01*
X123408160Y-92652049D01*
X123408165Y-92652051D01*
X123408169Y-92652051D01*
X123408170Y-92652052D01*
X123601456Y-92690500D01*
X123601459Y-92690500D01*
X123798543Y-92690500D01*
X123928582Y-92664632D01*
X123991835Y-92652051D01*
X124173914Y-92576632D01*
X124337782Y-92467139D01*
X124477139Y-92327782D01*
X124586632Y-92163914D01*
X124662051Y-91981835D01*
X124674632Y-91918582D01*
X124700500Y-91788543D01*
X125239499Y-91788543D01*
X125277947Y-91981829D01*
X125277950Y-91981839D01*
X125353364Y-92163907D01*
X125353371Y-92163920D01*
X125462860Y-92327781D01*
X125462863Y-92327785D01*
X125602214Y-92467136D01*
X125602218Y-92467139D01*
X125766079Y-92576628D01*
X125766092Y-92576635D01*
X125948160Y-92652049D01*
X125948165Y-92652051D01*
X125948169Y-92652051D01*
X125948170Y-92652052D01*
X126141456Y-92690500D01*
X126141459Y-92690500D01*
X126338543Y-92690500D01*
X126468582Y-92664632D01*
X126531835Y-92652051D01*
X126713914Y-92576632D01*
X126877782Y-92467139D01*
X127017139Y-92327782D01*
X127126632Y-92163914D01*
X127202051Y-91981835D01*
X127214632Y-91918582D01*
X127240500Y-91788543D01*
X127240500Y-91591456D01*
X127202052Y-91398170D01*
X127202051Y-91398169D01*
X127202051Y-91398165D01*
X127133752Y-91233275D01*
X127126635Y-91216092D01*
X127126628Y-91216079D01*
X127017139Y-91052218D01*
X127017136Y-91052214D01*
X126877785Y-90912863D01*
X126877781Y-90912860D01*
X126806245Y-90865061D01*
X126713920Y-90803371D01*
X126713907Y-90803364D01*
X126625707Y-90766831D01*
X139282050Y-90766831D01*
X139282050Y-90993168D01*
X139317458Y-91216722D01*
X139317458Y-91216725D01*
X139387398Y-91431978D01*
X139387400Y-91431981D01*
X139490155Y-91633650D01*
X139623193Y-91816761D01*
X139783239Y-91976807D01*
X139966350Y-92109845D01*
X140168019Y-92212600D01*
X140168021Y-92212601D01*
X140368801Y-92277837D01*
X140383279Y-92282542D01*
X140606831Y-92317950D01*
X140606832Y-92317950D01*
X140833168Y-92317950D01*
X140833169Y-92317950D01*
X141056721Y-92282542D01*
X141056724Y-92282541D01*
X141056725Y-92282541D01*
X141271978Y-92212601D01*
X141271978Y-92212600D01*
X141271981Y-92212600D01*
X141473650Y-92109845D01*
X141656761Y-91976807D01*
X141816807Y-91816761D01*
X141949845Y-91633650D01*
X142052600Y-91431981D01*
X142063586Y-91398170D01*
X142122541Y-91216725D01*
X142122541Y-91216724D01*
X142122542Y-91216721D01*
X142157950Y-90993169D01*
X142157950Y-90806540D01*
X142514200Y-90806540D01*
X142514200Y-90953459D01*
X142542858Y-91097534D01*
X142542861Y-91097544D01*
X142599078Y-91233266D01*
X142599083Y-91233275D01*
X142680698Y-91355419D01*
X142680701Y-91355423D01*
X142784576Y-91459298D01*
X142784580Y-91459301D01*
X142906724Y-91540916D01*
X142906730Y-91540919D01*
X142906731Y-91540920D01*
X143042458Y-91597140D01*
X143186540Y-91625799D01*
X143186544Y-91625800D01*
X143186545Y-91625800D01*
X143333456Y-91625800D01*
X143333457Y-91625799D01*
X143477542Y-91597140D01*
X143613269Y-91540920D01*
X143735420Y-91459301D01*
X143839301Y-91355420D01*
X143920920Y-91233269D01*
X143977140Y-91097542D01*
X144005800Y-90953455D01*
X144005800Y-90806545D01*
X144001743Y-90786148D01*
X144001743Y-90786146D01*
X143997901Y-90766831D01*
X144362050Y-90766831D01*
X144362050Y-90993168D01*
X144397458Y-91216722D01*
X144397458Y-91216725D01*
X144467398Y-91431978D01*
X144467400Y-91431981D01*
X144570155Y-91633650D01*
X144703193Y-91816761D01*
X144863239Y-91976807D01*
X145046350Y-92109845D01*
X145248019Y-92212600D01*
X145248021Y-92212601D01*
X145448801Y-92277837D01*
X145463279Y-92282542D01*
X145686831Y-92317950D01*
X145686832Y-92317950D01*
X145913168Y-92317950D01*
X145913169Y-92317950D01*
X146136721Y-92282542D01*
X146136724Y-92282541D01*
X146136725Y-92282541D01*
X146351978Y-92212601D01*
X146351978Y-92212600D01*
X146351981Y-92212600D01*
X146553650Y-92109845D01*
X146736761Y-91976807D01*
X146896807Y-91816761D01*
X147029845Y-91633650D01*
X147132600Y-91431981D01*
X147143586Y-91398170D01*
X147202541Y-91216725D01*
X147202541Y-91216724D01*
X147202542Y-91216721D01*
X147237950Y-90993169D01*
X147237950Y-90766831D01*
X147202542Y-90543279D01*
X147202541Y-90543275D01*
X147202541Y-90543274D01*
X147132601Y-90328021D01*
X147132599Y-90328018D01*
X147118681Y-90300701D01*
X147029845Y-90126350D01*
X146896807Y-89943239D01*
X146736761Y-89783193D01*
X146553650Y-89650155D01*
X146351981Y-89547400D01*
X146351978Y-89547398D01*
X146136723Y-89477458D01*
X145987686Y-89453852D01*
X145913169Y-89442050D01*
X145686831Y-89442050D01*
X145612313Y-89453852D01*
X145463277Y-89477458D01*
X145463274Y-89477458D01*
X145248021Y-89547398D01*
X145248018Y-89547400D01*
X145046349Y-89650155D01*
X144941878Y-89726058D01*
X144863239Y-89783193D01*
X144863237Y-89783195D01*
X144863236Y-89783195D01*
X144703195Y-89943236D01*
X144703195Y-89943237D01*
X144703193Y-89943239D01*
X144646058Y-90021878D01*
X144570155Y-90126349D01*
X144467400Y-90328018D01*
X144467398Y-90328021D01*
X144397458Y-90543274D01*
X144397458Y-90543277D01*
X144362050Y-90766831D01*
X143997901Y-90766831D01*
X143977141Y-90662465D01*
X143977140Y-90662458D01*
X143920920Y-90526731D01*
X143920919Y-90526730D01*
X143920916Y-90526724D01*
X143839301Y-90404580D01*
X143839298Y-90404576D01*
X143735423Y-90300701D01*
X143735419Y-90300698D01*
X143613275Y-90219083D01*
X143613266Y-90219078D01*
X143477544Y-90162861D01*
X143477545Y-90162861D01*
X143477542Y-90162860D01*
X143477538Y-90162859D01*
X143477534Y-90162858D01*
X143333459Y-90134200D01*
X143333455Y-90134200D01*
X143186545Y-90134200D01*
X143186540Y-90134200D01*
X143042465Y-90162858D01*
X143042455Y-90162861D01*
X142906733Y-90219078D01*
X142906724Y-90219083D01*
X142784580Y-90300698D01*
X142784576Y-90300701D01*
X142680701Y-90404576D01*
X142680698Y-90404580D01*
X142599083Y-90526724D01*
X142599078Y-90526733D01*
X142542861Y-90662455D01*
X142542858Y-90662465D01*
X142514200Y-90806540D01*
X142157950Y-90806540D01*
X142157950Y-90766831D01*
X142122542Y-90543279D01*
X142122541Y-90543275D01*
X142122541Y-90543274D01*
X142052601Y-90328021D01*
X142052599Y-90328018D01*
X142038681Y-90300701D01*
X141949845Y-90126350D01*
X141816807Y-89943239D01*
X141656761Y-89783193D01*
X141473650Y-89650155D01*
X141271981Y-89547400D01*
X141271978Y-89547398D01*
X141056723Y-89477458D01*
X140907686Y-89453852D01*
X140833169Y-89442050D01*
X140606831Y-89442050D01*
X140532313Y-89453852D01*
X140383277Y-89477458D01*
X140383274Y-89477458D01*
X140168021Y-89547398D01*
X140168018Y-89547400D01*
X139966349Y-89650155D01*
X139861878Y-89726058D01*
X139783239Y-89783193D01*
X139783237Y-89783195D01*
X139783236Y-89783195D01*
X139623195Y-89943236D01*
X139623195Y-89943237D01*
X139623193Y-89943239D01*
X139566058Y-90021878D01*
X139490155Y-90126349D01*
X139387400Y-90328018D01*
X139387398Y-90328021D01*
X139317458Y-90543274D01*
X139317458Y-90543277D01*
X139282050Y-90766831D01*
X126625707Y-90766831D01*
X126531839Y-90727950D01*
X126531829Y-90727947D01*
X126338543Y-90689500D01*
X126338541Y-90689500D01*
X126141459Y-90689500D01*
X126141457Y-90689500D01*
X125948170Y-90727947D01*
X125948160Y-90727950D01*
X125766092Y-90803364D01*
X125766079Y-90803371D01*
X125602218Y-90912860D01*
X125602214Y-90912863D01*
X125462863Y-91052214D01*
X125462860Y-91052218D01*
X125353371Y-91216079D01*
X125353364Y-91216092D01*
X125277950Y-91398160D01*
X125277947Y-91398170D01*
X125239500Y-91591456D01*
X125239500Y-91591459D01*
X125239500Y-91788541D01*
X125239500Y-91788543D01*
X125239499Y-91788543D01*
X124700500Y-91788543D01*
X124700500Y-91591456D01*
X124662052Y-91398170D01*
X124662051Y-91398169D01*
X124662051Y-91398165D01*
X124593752Y-91233275D01*
X124586635Y-91216092D01*
X124586628Y-91216079D01*
X124477139Y-91052218D01*
X124477136Y-91052214D01*
X124337785Y-90912863D01*
X124337781Y-90912860D01*
X124173920Y-90803371D01*
X124173907Y-90803364D01*
X123991839Y-90727950D01*
X123991829Y-90727947D01*
X123798543Y-90689500D01*
X123798541Y-90689500D01*
X123601459Y-90689500D01*
X123601457Y-90689500D01*
X123408170Y-90727947D01*
X123408160Y-90727950D01*
X123226092Y-90803364D01*
X123226079Y-90803371D01*
X123062218Y-90912860D01*
X123062214Y-90912863D01*
X122922863Y-91052214D01*
X122922860Y-91052218D01*
X122813371Y-91216079D01*
X122813364Y-91216092D01*
X122737950Y-91398160D01*
X122737947Y-91398170D01*
X122699500Y-91591456D01*
X122699500Y-91591459D01*
X122699500Y-91788541D01*
X122699500Y-91788543D01*
X122699499Y-91788543D01*
X121645500Y-91788543D01*
X121645500Y-89248543D01*
X122699499Y-89248543D01*
X122737947Y-89441829D01*
X122737950Y-89441839D01*
X122813364Y-89623907D01*
X122813371Y-89623920D01*
X122922860Y-89787781D01*
X122922863Y-89787785D01*
X123062214Y-89927136D01*
X123062218Y-89927139D01*
X123226079Y-90036628D01*
X123226092Y-90036635D01*
X123408160Y-90112049D01*
X123408165Y-90112051D01*
X123408169Y-90112051D01*
X123408170Y-90112052D01*
X123601456Y-90150500D01*
X123601459Y-90150500D01*
X123798543Y-90150500D01*
X123928582Y-90124632D01*
X123991835Y-90112051D01*
X124173914Y-90036632D01*
X124337782Y-89927139D01*
X124477139Y-89787782D01*
X124586632Y-89623914D01*
X124662051Y-89441835D01*
X124700500Y-89248543D01*
X125239499Y-89248543D01*
X125277947Y-89441829D01*
X125277950Y-89441839D01*
X125353364Y-89623907D01*
X125353371Y-89623920D01*
X125462860Y-89787781D01*
X125462863Y-89787785D01*
X125602214Y-89927136D01*
X125602218Y-89927139D01*
X125766079Y-90036628D01*
X125766092Y-90036635D01*
X125948160Y-90112049D01*
X125948165Y-90112051D01*
X125948169Y-90112051D01*
X125948170Y-90112052D01*
X126141456Y-90150500D01*
X126141459Y-90150500D01*
X126338543Y-90150500D01*
X126468582Y-90124632D01*
X126531835Y-90112051D01*
X126713914Y-90036632D01*
X126877782Y-89927139D01*
X127017139Y-89787782D01*
X127126632Y-89623914D01*
X127202051Y-89441835D01*
X127240500Y-89248541D01*
X127240500Y-89051459D01*
X127240500Y-89051456D01*
X127202052Y-88858170D01*
X127202051Y-88858169D01*
X127202051Y-88858165D01*
X127202049Y-88858160D01*
X127126635Y-88676092D01*
X127126628Y-88676079D01*
X127017139Y-88512218D01*
X127017136Y-88512214D01*
X126877785Y-88372863D01*
X126877781Y-88372860D01*
X126713920Y-88263371D01*
X126713907Y-88263364D01*
X126531839Y-88187950D01*
X126531829Y-88187947D01*
X126338543Y-88149500D01*
X126338541Y-88149500D01*
X126141459Y-88149500D01*
X126141457Y-88149500D01*
X125948170Y-88187947D01*
X125948160Y-88187950D01*
X125766092Y-88263364D01*
X125766079Y-88263371D01*
X125602218Y-88372860D01*
X125602214Y-88372863D01*
X125462863Y-88512214D01*
X125462860Y-88512218D01*
X125353371Y-88676079D01*
X125353364Y-88676092D01*
X125277950Y-88858160D01*
X125277947Y-88858170D01*
X125239500Y-89051456D01*
X125239500Y-89051459D01*
X125239500Y-89248541D01*
X125239500Y-89248543D01*
X125239499Y-89248543D01*
X124700500Y-89248543D01*
X124700500Y-89248541D01*
X124700500Y-89051459D01*
X124700500Y-89051456D01*
X124662052Y-88858170D01*
X124662051Y-88858169D01*
X124662051Y-88858165D01*
X124662049Y-88858160D01*
X124586635Y-88676092D01*
X124586628Y-88676079D01*
X124477139Y-88512218D01*
X124477136Y-88512214D01*
X124337785Y-88372863D01*
X124337781Y-88372860D01*
X124173920Y-88263371D01*
X124173907Y-88263364D01*
X123991839Y-88187950D01*
X123991829Y-88187947D01*
X123798543Y-88149500D01*
X123798541Y-88149500D01*
X123601459Y-88149500D01*
X123601457Y-88149500D01*
X123408170Y-88187947D01*
X123408160Y-88187950D01*
X123226092Y-88263364D01*
X123226079Y-88263371D01*
X123062218Y-88372860D01*
X123062214Y-88372863D01*
X122922863Y-88512214D01*
X122922860Y-88512218D01*
X122813371Y-88676079D01*
X122813364Y-88676092D01*
X122737950Y-88858160D01*
X122737947Y-88858170D01*
X122699500Y-89051456D01*
X122699500Y-89051459D01*
X122699500Y-89248541D01*
X122699500Y-89248543D01*
X122699499Y-89248543D01*
X121645500Y-89248543D01*
X121645500Y-87474822D01*
X122699499Y-87474822D01*
X122708231Y-87518717D01*
X122708232Y-87518721D01*
X122708233Y-87518722D01*
X122741496Y-87568504D01*
X122791278Y-87601767D01*
X122791281Y-87601767D01*
X122791282Y-87601768D01*
X122835177Y-87610500D01*
X122835180Y-87610500D01*
X124564822Y-87610500D01*
X124608717Y-87601768D01*
X124608717Y-87601767D01*
X124608722Y-87601767D01*
X124658504Y-87568504D01*
X124691767Y-87518722D01*
X124700500Y-87474820D01*
X124700500Y-86708543D01*
X125239499Y-86708543D01*
X125277947Y-86901829D01*
X125277950Y-86901839D01*
X125353364Y-87083907D01*
X125353371Y-87083920D01*
X125462860Y-87247781D01*
X125462863Y-87247785D01*
X125602214Y-87387136D01*
X125602218Y-87387139D01*
X125766079Y-87496628D01*
X125766092Y-87496635D01*
X125948160Y-87572049D01*
X125948165Y-87572051D01*
X125948169Y-87572051D01*
X125948170Y-87572052D01*
X126141456Y-87610500D01*
X126141459Y-87610500D01*
X126338543Y-87610500D01*
X126468582Y-87584632D01*
X126531835Y-87572051D01*
X126713914Y-87496632D01*
X126877782Y-87387139D01*
X127017139Y-87247782D01*
X127126632Y-87083914D01*
X127202051Y-86901835D01*
X127240500Y-86708541D01*
X127240500Y-86511459D01*
X127240500Y-86511456D01*
X127202052Y-86318170D01*
X127202051Y-86318169D01*
X127202051Y-86318165D01*
X127202049Y-86318160D01*
X127126635Y-86136092D01*
X127126628Y-86136079D01*
X127017139Y-85972218D01*
X127017136Y-85972214D01*
X126877785Y-85832863D01*
X126877781Y-85832860D01*
X126713920Y-85723371D01*
X126713907Y-85723364D01*
X126531839Y-85647950D01*
X126531829Y-85647947D01*
X126338543Y-85609500D01*
X126338541Y-85609500D01*
X126141459Y-85609500D01*
X126141457Y-85609500D01*
X125948170Y-85647947D01*
X125948160Y-85647950D01*
X125766092Y-85723364D01*
X125766079Y-85723371D01*
X125602218Y-85832860D01*
X125602214Y-85832863D01*
X125462863Y-85972214D01*
X125462860Y-85972218D01*
X125353371Y-86136079D01*
X125353364Y-86136092D01*
X125277950Y-86318160D01*
X125277947Y-86318170D01*
X125239500Y-86511456D01*
X125239500Y-86511459D01*
X125239500Y-86708541D01*
X125239500Y-86708543D01*
X125239499Y-86708543D01*
X124700500Y-86708543D01*
X124700500Y-85745180D01*
X124700500Y-85745177D01*
X124691768Y-85701282D01*
X124691767Y-85701281D01*
X124691767Y-85701278D01*
X124658504Y-85651496D01*
X124653197Y-85647950D01*
X124608724Y-85618234D01*
X124608717Y-85618231D01*
X124564822Y-85609500D01*
X124564820Y-85609500D01*
X122835180Y-85609500D01*
X122835178Y-85609500D01*
X122791282Y-85618231D01*
X122791275Y-85618234D01*
X122741496Y-85651495D01*
X122741495Y-85651496D01*
X122708234Y-85701275D01*
X122708231Y-85701282D01*
X122699500Y-85745177D01*
X122699500Y-85745180D01*
X122699500Y-87474820D01*
X122699500Y-87474822D01*
X122699499Y-87474822D01*
X121645500Y-87474822D01*
X121645500Y-81716971D01*
X122469500Y-81716971D01*
X122469500Y-82014678D01*
X122502830Y-82310487D01*
X122502832Y-82310499D01*
X122569076Y-82600737D01*
X122569079Y-82600745D01*
X122667400Y-82881729D01*
X122796563Y-83149939D01*
X122796565Y-83149942D01*
X122954950Y-83402010D01*
X123140562Y-83634759D01*
X123351066Y-83845263D01*
X123583815Y-84030875D01*
X123835883Y-84189260D01*
X124104099Y-84318426D01*
X124315135Y-84392270D01*
X124385079Y-84416745D01*
X124385087Y-84416748D01*
X124385090Y-84416748D01*
X124385091Y-84416749D01*
X124675325Y-84482993D01*
X124971147Y-84516324D01*
X124971148Y-84516325D01*
X124971151Y-84516325D01*
X125268852Y-84516325D01*
X125268852Y-84516324D01*
X125564675Y-84482993D01*
X125854909Y-84416749D01*
X126135901Y-84318426D01*
X126404117Y-84189260D01*
X126656185Y-84030875D01*
X126888934Y-83845263D01*
X127099438Y-83634759D01*
X127285050Y-83402010D01*
X127443435Y-83149942D01*
X127572601Y-82881726D01*
X127670924Y-82600734D01*
X127737168Y-82310500D01*
X127770500Y-82014674D01*
X127770500Y-81716976D01*
X127737168Y-81421150D01*
X127670924Y-81130916D01*
X127667423Y-81120912D01*
X127597500Y-80921082D01*
X127572601Y-80849924D01*
X127461635Y-80619500D01*
X127451566Y-80598592D01*
X128303500Y-80598592D01*
X128303500Y-80761407D01*
X128335259Y-80921073D01*
X128335262Y-80921082D01*
X128397562Y-81071490D01*
X128397563Y-81071492D01*
X128488015Y-81206862D01*
X128488018Y-81206866D01*
X128603133Y-81321981D01*
X128603137Y-81321984D01*
X128738505Y-81412435D01*
X128738506Y-81412435D01*
X128738507Y-81412436D01*
X128738509Y-81412437D01*
X128789030Y-81433363D01*
X128888919Y-81474738D01*
X128888921Y-81474738D01*
X128888926Y-81474740D01*
X129048592Y-81506499D01*
X129048595Y-81506500D01*
X129048597Y-81506500D01*
X129211405Y-81506500D01*
X129211406Y-81506499D01*
X129264629Y-81495912D01*
X129371073Y-81474740D01*
X129371076Y-81474738D01*
X129371081Y-81474738D01*
X129521495Y-81412435D01*
X129564380Y-81383779D01*
X129631056Y-81362901D01*
X129698437Y-81381385D01*
X129745127Y-81433363D01*
X129756304Y-81502333D01*
X129730218Y-81564194D01*
X129594949Y-81733816D01*
X129436563Y-81985885D01*
X129307400Y-82254095D01*
X129209079Y-82535079D01*
X129209076Y-82535087D01*
X129142832Y-82825325D01*
X129142830Y-82825337D01*
X129109500Y-83121146D01*
X129109500Y-83418853D01*
X129142830Y-83714662D01*
X129142832Y-83714674D01*
X129209076Y-84004912D01*
X129209079Y-84004920D01*
X129307400Y-84285904D01*
X129436563Y-84554114D01*
X129436565Y-84554117D01*
X129594950Y-84806185D01*
X129733424Y-84979825D01*
X129777633Y-85035262D01*
X129780562Y-85038934D01*
X129991066Y-85249438D01*
X130223815Y-85435050D01*
X130475883Y-85593435D01*
X130744099Y-85722601D01*
X130955135Y-85796445D01*
X131025079Y-85820920D01*
X131025087Y-85820923D01*
X131025090Y-85820923D01*
X131025091Y-85820924D01*
X131315325Y-85887168D01*
X131611147Y-85920499D01*
X131611148Y-85920500D01*
X131611151Y-85920500D01*
X131908852Y-85920500D01*
X131908852Y-85920499D01*
X132204675Y-85887168D01*
X132494909Y-85820924D01*
X132775901Y-85722601D01*
X133044117Y-85593435D01*
X133296185Y-85435050D01*
X133528934Y-85249438D01*
X133739438Y-85038934D01*
X133925050Y-84806185D01*
X134083435Y-84554117D01*
X134212601Y-84285901D01*
X134310924Y-84004909D01*
X134377168Y-83714675D01*
X134410500Y-83418849D01*
X134410500Y-83121151D01*
X134377168Y-82825325D01*
X134310924Y-82535091D01*
X134212601Y-82254099D01*
X134083435Y-81985883D01*
X133925050Y-81733815D01*
X133739438Y-81501066D01*
X133528934Y-81290562D01*
X133296185Y-81104950D01*
X133044117Y-80946565D01*
X133044114Y-80946563D01*
X132775904Y-80817400D01*
X132494920Y-80719079D01*
X132494912Y-80719076D01*
X132277233Y-80669393D01*
X132204675Y-80652832D01*
X132204671Y-80652831D01*
X132204662Y-80652830D01*
X131908853Y-80619500D01*
X131908849Y-80619500D01*
X131611151Y-80619500D01*
X131611146Y-80619500D01*
X131315337Y-80652830D01*
X131315325Y-80652832D01*
X131025087Y-80719076D01*
X131025079Y-80719079D01*
X130744095Y-80817400D01*
X130475885Y-80946563D01*
X130223812Y-81104951D01*
X130223810Y-81104952D01*
X130025780Y-81262876D01*
X129961094Y-81289285D01*
X129892398Y-81276528D01*
X129841505Y-81228657D01*
X129824571Y-81160871D01*
X129845366Y-81097039D01*
X129862435Y-81071495D01*
X129924738Y-80921081D01*
X129956500Y-80761403D01*
X129956500Y-80598597D01*
X129956500Y-80598594D01*
X129956499Y-80598592D01*
X129924740Y-80438926D01*
X129924737Y-80438917D01*
X129862437Y-80288509D01*
X129862436Y-80288507D01*
X129771984Y-80153137D01*
X129771981Y-80153133D01*
X129656866Y-80038018D01*
X129656862Y-80038015D01*
X129521492Y-79947563D01*
X129521490Y-79947562D01*
X129371082Y-79885262D01*
X129371073Y-79885259D01*
X129211406Y-79853500D01*
X129211403Y-79853500D01*
X129048597Y-79853500D01*
X129048594Y-79853500D01*
X128888926Y-79885259D01*
X128888917Y-79885262D01*
X128738509Y-79947562D01*
X128738507Y-79947563D01*
X128603137Y-80038015D01*
X128603133Y-80038018D01*
X128488018Y-80153133D01*
X128488015Y-80153137D01*
X128397563Y-80288507D01*
X128397562Y-80288509D01*
X128335262Y-80438917D01*
X128335259Y-80438926D01*
X128303500Y-80598592D01*
X127451566Y-80598592D01*
X127443438Y-80581713D01*
X127437153Y-80571710D01*
X127285050Y-80329640D01*
X127099438Y-80096891D01*
X126888934Y-79886387D01*
X126888933Y-79886386D01*
X126800152Y-79815585D01*
X126742990Y-79770000D01*
X135760000Y-79770000D01*
X135760000Y-86770000D01*
X158260000Y-86770000D01*
X158260000Y-85748592D01*
X158823500Y-85748592D01*
X158823500Y-85911407D01*
X158855259Y-86071073D01*
X158855262Y-86071082D01*
X158917562Y-86221490D01*
X158917563Y-86221492D01*
X159008015Y-86356862D01*
X159008018Y-86356866D01*
X159123133Y-86471981D01*
X159123137Y-86471984D01*
X159258505Y-86562435D01*
X159258506Y-86562435D01*
X159258507Y-86562436D01*
X159258509Y-86562437D01*
X159358781Y-86603970D01*
X159408919Y-86624738D01*
X159408921Y-86624738D01*
X159408926Y-86624740D01*
X159568592Y-86656499D01*
X159568595Y-86656500D01*
X159568597Y-86656500D01*
X159731405Y-86656500D01*
X159731406Y-86656499D01*
X159784629Y-86645912D01*
X159891073Y-86624740D01*
X159891076Y-86624738D01*
X159891081Y-86624738D01*
X160041495Y-86562435D01*
X160176863Y-86471984D01*
X160291984Y-86356863D01*
X160382435Y-86221495D01*
X160444738Y-86071081D01*
X160476500Y-85911403D01*
X160476500Y-85748597D01*
X160476500Y-85748594D01*
X160476499Y-85748592D01*
X160444740Y-85588926D01*
X160444737Y-85588917D01*
X160382437Y-85438509D01*
X160382436Y-85438507D01*
X160291984Y-85303137D01*
X160291981Y-85303133D01*
X160176866Y-85188018D01*
X160176862Y-85188015D01*
X160041492Y-85097563D01*
X160041490Y-85097562D01*
X159891082Y-85035262D01*
X159891073Y-85035259D01*
X159731406Y-85003500D01*
X159731403Y-85003500D01*
X159568597Y-85003500D01*
X159568594Y-85003500D01*
X159408926Y-85035259D01*
X159408917Y-85035262D01*
X159258509Y-85097562D01*
X159258507Y-85097563D01*
X159123137Y-85188015D01*
X159123133Y-85188018D01*
X159008018Y-85303133D01*
X159008015Y-85303137D01*
X158917563Y-85438507D01*
X158917562Y-85438509D01*
X158855262Y-85588917D01*
X158855259Y-85588926D01*
X158823500Y-85748592D01*
X158260000Y-85748592D01*
X158260000Y-82694463D01*
X158279685Y-82627424D01*
X158332489Y-82581669D01*
X158401647Y-82571725D01*
X158465203Y-82600750D01*
X158501041Y-82653508D01*
X158577400Y-82871729D01*
X158706563Y-83139939D01*
X158712848Y-83149942D01*
X158864950Y-83392010D01*
X159050562Y-83624759D01*
X159261066Y-83835263D01*
X159493815Y-84020875D01*
X159745883Y-84179260D01*
X160014099Y-84308426D01*
X160225135Y-84382270D01*
X160295079Y-84406745D01*
X160295087Y-84406748D01*
X160295090Y-84406748D01*
X160295091Y-84406749D01*
X160585325Y-84472993D01*
X160881147Y-84506324D01*
X160881148Y-84506325D01*
X160881151Y-84506325D01*
X161178852Y-84506325D01*
X161178852Y-84506324D01*
X161474675Y-84472993D01*
X161764909Y-84406749D01*
X162045901Y-84308426D01*
X162314117Y-84179260D01*
X162566185Y-84020875D01*
X162798934Y-83835263D01*
X163009438Y-83624759D01*
X163195050Y-83392010D01*
X163353435Y-83139942D01*
X163482601Y-82871726D01*
X163580924Y-82590734D01*
X163647168Y-82300500D01*
X163680500Y-82004674D01*
X163680500Y-81706976D01*
X163647168Y-81411150D01*
X163580924Y-81120916D01*
X163482601Y-80839924D01*
X163353435Y-80571708D01*
X163195050Y-80319640D01*
X163009438Y-80086891D01*
X162798934Y-79876387D01*
X162566185Y-79690775D01*
X162314117Y-79532390D01*
X162314114Y-79532388D01*
X162045904Y-79403225D01*
X161764920Y-79304904D01*
X161764912Y-79304901D01*
X161547233Y-79255218D01*
X161474675Y-79238657D01*
X161474671Y-79238656D01*
X161474662Y-79238655D01*
X161178853Y-79205325D01*
X161178849Y-79205325D01*
X160881151Y-79205325D01*
X160881146Y-79205325D01*
X160585337Y-79238655D01*
X160585325Y-79238657D01*
X160295087Y-79304901D01*
X160295079Y-79304904D01*
X160014095Y-79403225D01*
X159745885Y-79532388D01*
X159493816Y-79690774D01*
X159261066Y-79876386D01*
X159050561Y-80086891D01*
X158864949Y-80319641D01*
X158706563Y-80571710D01*
X158577400Y-80839920D01*
X158501041Y-81058141D01*
X158460320Y-81114917D01*
X158395367Y-81140664D01*
X158326805Y-81127208D01*
X158276402Y-81078820D01*
X158260000Y-81017186D01*
X158260000Y-79770000D01*
X135760000Y-79770000D01*
X126742990Y-79770000D01*
X126656185Y-79700775D01*
X126404117Y-79542390D01*
X126404114Y-79542388D01*
X126135904Y-79413225D01*
X125854920Y-79314904D01*
X125854912Y-79314901D01*
X125637233Y-79265218D01*
X125564675Y-79248657D01*
X125564671Y-79248656D01*
X125564662Y-79248655D01*
X125268853Y-79215325D01*
X125268849Y-79215325D01*
X124971151Y-79215325D01*
X124971146Y-79215325D01*
X124675337Y-79248655D01*
X124675325Y-79248657D01*
X124385087Y-79314901D01*
X124385079Y-79314904D01*
X124104095Y-79413225D01*
X123835885Y-79542388D01*
X123583816Y-79700774D01*
X123351066Y-79886386D01*
X123140561Y-80096891D01*
X122954949Y-80329641D01*
X122796563Y-80581710D01*
X122667400Y-80849920D01*
X122569079Y-81130904D01*
X122569076Y-81130912D01*
X122502832Y-81421150D01*
X122502830Y-81421162D01*
X122469500Y-81716971D01*
X121645500Y-81716971D01*
X121645500Y-78515325D01*
X121665185Y-78448286D01*
X121717989Y-78402531D01*
X121769500Y-78391325D01*
X164470500Y-78391325D01*
X164537539Y-78411010D01*
G37*
%TD.AperFunction*%
%TD*%
M02*
