%TF.GenerationSoftware,KiCad,Pcbnew,9.0.4-9.0.4-0~ubuntu24.04.1*%
%TF.CreationDate,2025-09-20T20:46:36+02:00*%
%TF.ProjectId,Sensor_Node_Base,53656e73-6f72-45f4-9e6f-64655f426173,rev?*%
%TF.SameCoordinates,Original*%
%TF.FileFunction,Copper,L4,Bot*%
%TF.FilePolarity,Positive*%
%FSLAX46Y46*%
G04 Gerber Fmt 4.6, Leading zero omitted, Abs format (unit mm)*
G04 Created by KiCad (PCBNEW 9.0.4-9.0.4-0~ubuntu24.04.1) date 2025-09-20 20:46:36*
%MOMM*%
%LPD*%
G01*
G04 APERTURE LIST*
G04 Aperture macros list*
%AMRoundRect*
0 Rectangle with rounded corners*
0 $1 Rounding radius*
0 $2 $3 $4 $5 $6 $7 $8 $9 X,Y pos of 4 corners*
0 Add a 4 corners polygon primitive as box body*
4,1,4,$2,$3,$4,$5,$6,$7,$8,$9,$2,$3,0*
0 Add four circle primitives for the rounded corners*
1,1,$1+$1,$2,$3*
1,1,$1+$1,$4,$5*
1,1,$1+$1,$6,$7*
1,1,$1+$1,$8,$9*
0 Add four rect primitives between the rounded corners*
20,1,$1+$1,$2,$3,$4,$5,0*
20,1,$1+$1,$4,$5,$6,$7,0*
20,1,$1+$1,$6,$7,$8,$9,0*
20,1,$1+$1,$8,$9,$2,$3,0*%
G04 Aperture macros list end*
%TA.AperFunction,ComponentPad*%
%ADD10R,1.700000X1.700000*%
%TD*%
%TA.AperFunction,ComponentPad*%
%ADD11C,1.700000*%
%TD*%
%TA.AperFunction,ComponentPad*%
%ADD12C,0.800000*%
%TD*%
%TA.AperFunction,ComponentPad*%
%ADD13C,5.000000*%
%TD*%
%TA.AperFunction,SMDPad,CuDef*%
%ADD14C,0.787400*%
%TD*%
%TA.AperFunction,HeatsinkPad*%
%ADD15C,0.500000*%
%TD*%
%TA.AperFunction,HeatsinkPad*%
%ADD16R,2.500000X2.500000*%
%TD*%
%TA.AperFunction,ComponentPad*%
%ADD17O,2.100000X1.000000*%
%TD*%
%TA.AperFunction,ComponentPad*%
%ADD18O,1.800000X1.000000*%
%TD*%
%TA.AperFunction,ComponentPad*%
%ADD19C,1.300000*%
%TD*%
%TA.AperFunction,ComponentPad*%
%ADD20C,0.400000*%
%TD*%
%TA.AperFunction,SMDPad,CuDef*%
%ADD21RoundRect,0.054000X0.846000X0.846000X-0.846000X0.846000X-0.846000X-0.846000X0.846000X-0.846000X0*%
%TD*%
%TA.AperFunction,ViaPad*%
%ADD22C,0.500000*%
%TD*%
%TA.AperFunction,Conductor*%
%ADD23C,0.300000*%
%TD*%
%TA.AperFunction,Conductor*%
%ADD24C,0.500000*%
%TD*%
%TA.AperFunction,Conductor*%
%ADD25C,0.200000*%
%TD*%
%TA.AperFunction,Conductor*%
%ADD26C,0.150000*%
%TD*%
G04 APERTURE END LIST*
D10*
%TO.P,J201,1,Pin_1*%
%TO.N,P1.08*%
X123700000Y-86610000D03*
D11*
%TO.P,J201,2,Pin_2*%
%TO.N,P0.30*%
X126240000Y-86610000D03*
%TO.P,J201,3,Pin_3*%
%TO.N,P0.28*%
X123700000Y-89150000D03*
%TO.P,J201,4,Pin_4*%
%TO.N,P0.03*%
X126240000Y-89150000D03*
%TO.P,J201,5,Pin_5*%
%TO.N,P1.14*%
X123700000Y-91690000D03*
%TO.P,J201,6,Pin_6*%
%TO.N,P1.12*%
X126240000Y-91690000D03*
%TO.P,J201,7,Pin_7*%
%TO.N,P1.11*%
X123700000Y-94230000D03*
%TO.P,J201,8,Pin_8*%
%TO.N,P0.10*%
X126240000Y-94230000D03*
%TO.P,J201,9,Pin_9*%
%TO.N,P1.10*%
X123700000Y-96770000D03*
%TO.P,J201,10,Pin_10*%
%TO.N,P1.13*%
X126240000Y-96770000D03*
%TO.P,J201,11,Pin_11*%
%TO.N,P1.15*%
X123700000Y-99310000D03*
%TO.P,J201,12,Pin_12*%
%TO.N,P0.29*%
X126240000Y-99310000D03*
%TO.P,J201,13,Pin_13*%
%TO.N,P0.31*%
X123700000Y-101850000D03*
%TO.P,J201,14,Pin_14*%
%TO.N,unconnected-(J201-Pin_14-Pad14)*%
X126240000Y-101850000D03*
%TO.P,J201,15,Pin_15*%
%TO.N,unconnected-(J201-Pin_15-Pad15)*%
X123700000Y-104390000D03*
%TO.P,J201,16,Pin_16*%
%TO.N,P0.26*%
X126240000Y-104390000D03*
%TO.P,J201,17,Pin_17*%
%TO.N,P0.11*%
X123700000Y-106930000D03*
%TO.P,J201,18,Pin_18*%
%TO.N,P0.27*%
X126240000Y-106930000D03*
%TO.P,J201,19,Pin_19*%
%TO.N,P0.05*%
X123700000Y-109470000D03*
%TO.P,J201,20,Pin_20*%
%TO.N,P0.06*%
X126240000Y-109470000D03*
%TD*%
D12*
%TO.P,M201,2,GND*%
%TO.N,GND*%
X129885000Y-83270000D03*
X130434175Y-81944175D03*
X130434175Y-84595825D03*
X131760000Y-81395000D03*
D13*
X131760000Y-83270000D03*
D12*
X131760000Y-85145000D03*
X133085825Y-81944175D03*
X133085825Y-84595825D03*
X133635000Y-83270000D03*
X152885000Y-106270000D03*
X153434175Y-104944175D03*
X153434175Y-107595825D03*
X154760000Y-104395000D03*
D13*
X154760000Y-106270000D03*
D12*
X154760000Y-108145000D03*
X156085825Y-104944175D03*
X156085825Y-107595825D03*
X156635000Y-106270000D03*
D14*
%TO.P,M201,61,VDD*%
%TO.N,/MCU/+1.8V_VDD_nRF*%
X143895000Y-92150000D03*
%TO.P,M201,62,GND*%
%TO.N,GND*%
X143895000Y-93420000D03*
%TO.P,M201,63,U_RX*%
%TO.N,NRF_UART_RX*%
X143895000Y-94690000D03*
%TO.P,M201,64,U_TX*%
%TO.N,NRF_UART_TX*%
X143895000Y-95960000D03*
%TO.P,M201,65,SWDIO*%
%TO.N,NRF_SWDIO*%
X143895000Y-97230000D03*
%TO.P,M201,66,SWCLK*%
%TO.N,NRF_SWCLK*%
X142625000Y-97230000D03*
%TO.P,M201,67,NC*%
%TO.N,GND*%
X142625000Y-95960000D03*
%TO.P,M201,68,NC*%
X142625000Y-94690000D03*
%TO.P,M201,69,GND*%
X142625000Y-93420000D03*
%TO.P,M201,70,GND*%
X142625000Y-92150000D03*
%TD*%
D15*
%TO.P,IC302,33,AVSS*%
%TO.N,GND*%
X144680000Y-117810000D03*
X144680000Y-116810000D03*
X144680000Y-115810000D03*
X143680000Y-117810000D03*
X143680000Y-116810000D03*
D16*
X143680000Y-116810000D03*
D15*
X143680000Y-115810000D03*
X142680000Y-117810000D03*
X142680000Y-116810000D03*
X142680000Y-115810000D03*
%TD*%
D12*
%TO.P,MH103,1*%
%TO.N,GND*%
X159155000Y-81855825D03*
X159704175Y-80530000D03*
X159704175Y-83181650D03*
X161030000Y-79980825D03*
D13*
X161030000Y-81855825D03*
D12*
X161030000Y-83730825D03*
X162355825Y-80530000D03*
X162355825Y-83181650D03*
X162905000Y-81855825D03*
%TD*%
%TO.P,MH101,1*%
%TO.N,GND*%
X123245000Y-81865825D03*
X123794175Y-80540000D03*
X123794175Y-83191650D03*
X125120000Y-79990825D03*
D13*
X125120000Y-81865825D03*
D12*
X125120000Y-83740825D03*
X126445825Y-80540000D03*
X126445825Y-83191650D03*
X126995000Y-81865825D03*
%TD*%
D17*
%TO.P,CON101,S1,SHIELD*%
%TO.N,GND*%
X126950000Y-112460000D03*
D18*
X122750000Y-112460000D03*
D17*
X126950000Y-121100000D03*
D18*
X122750000Y-121100000D03*
%TD*%
D19*
%TO.P,TP309,1,1*%
%TO.N,/MCU/+1.8V_LS1*%
X144390000Y-122230000D03*
%TD*%
%TO.P,TP308,1,1*%
%TO.N,/MCU/+1.8V_VDD_nRF*%
X151130000Y-117560000D03*
%TD*%
D12*
%TO.P,MH102,1*%
%TO.N,GND*%
X159245000Y-134855825D03*
X159794175Y-133530000D03*
X159794175Y-136181650D03*
X161120000Y-132980825D03*
D13*
X161120000Y-134855825D03*
D12*
X161120000Y-136730825D03*
X162445825Y-133530000D03*
X162445825Y-136181650D03*
X162995000Y-134855825D03*
%TD*%
D20*
%TO.P,IC202,5,THPAD*%
%TO.N,unconnected-(IC202-THPAD-Pad5)_1*%
X163500000Y-123850000D03*
D21*
X163200000Y-123850000D03*
D20*
X162900000Y-123850000D03*
%TD*%
D19*
%TO.P,TP303,1,1*%
%TO.N,GND*%
X156710000Y-131380000D03*
%TD*%
%TO.P,TP307,1,1*%
%TO.N,/MCU/+5V_VBUS*%
X153350000Y-120350000D03*
%TD*%
D12*
%TO.P,MH104,1*%
%TO.N,GND*%
X123245000Y-134855825D03*
X123794175Y-133530000D03*
X123794175Y-136181650D03*
X125120000Y-132980825D03*
D13*
X125120000Y-134855825D03*
D12*
X125120000Y-136730825D03*
X126445825Y-133530000D03*
X126445825Y-136181650D03*
X126995000Y-134855825D03*
%TD*%
D22*
%TO.N,/MCU/+1.8V_LS1*%
X160750000Y-118000000D03*
X162720000Y-129070000D03*
X163720000Y-118000000D03*
%TO.N,GND*%
X136480000Y-116560000D03*
X153920000Y-94970000D03*
X130330000Y-124120000D03*
X141610000Y-93410000D03*
X138320000Y-130400000D03*
X150480000Y-119460000D03*
X138320000Y-131460000D03*
X132500000Y-101620000D03*
X132700000Y-116750000D03*
X163680000Y-129060000D03*
X137090000Y-132560000D03*
X129920000Y-94910000D03*
X135430000Y-122530000D03*
X130840000Y-133040000D03*
X137090000Y-130400000D03*
X138420000Y-114280000D03*
X148730500Y-129985000D03*
X144890000Y-113190000D03*
X136750000Y-118860000D03*
X138320000Y-132560000D03*
X157000000Y-101610000D03*
X150480000Y-115660000D03*
X138850000Y-110450000D03*
X140680000Y-111570000D03*
%TO.N,/POWER/+5V_VBUSIN*%
X128670000Y-119180000D03*
X130320000Y-116760000D03*
X139250000Y-117860000D03*
X128670000Y-114380000D03*
%TO.N,/MCU/+1.8V_VDD_nRF*%
X144920000Y-92720000D03*
X148080000Y-120490000D03*
X132100000Y-95480000D03*
X145480000Y-108980000D03*
X143930000Y-111560000D03*
X143130000Y-120210000D03*
X129920000Y-101610000D03*
X149990000Y-127260000D03*
X155680000Y-129560000D03*
X156110000Y-95470000D03*
X140310000Y-109000000D03*
X153020000Y-101070000D03*
%TO.N,/POWER/VSYS*%
X145780000Y-120160000D03*
X147080000Y-116660000D03*
X139660000Y-116560000D03*
X147080000Y-115960000D03*
%TO.N,/POWER/CC2*%
X132370000Y-121520000D03*
X138380000Y-121520000D03*
%TO.N,/POWER/CC1*%
X128850000Y-115250000D03*
X136960000Y-120830000D03*
%TO.N,NRF_SWCLK*%
X148890000Y-96270000D03*
%TO.N,NRF_SWDIO*%
X146820000Y-98136450D03*
%TO.N,NRF_UART_TX*%
X131270000Y-100480000D03*
X138670000Y-94920000D03*
X143270000Y-95340000D03*
%TO.N,NRF_UART_RX*%
X143280000Y-94080000D03*
X138280000Y-94080000D03*
X131250000Y-99670000D03*
%TO.N,/MCU/LS1_CTRL*%
X149020000Y-103090000D03*
X149020000Y-101360000D03*
%TO.N,/MCU/NRF_PMIC_SDA*%
X143740000Y-103040000D03*
X154930000Y-99520000D03*
%TO.N,/MCU/NRF_PMIC_SCL*%
X142160000Y-103090000D03*
X154930000Y-98670000D03*
%TO.N,/MCU/NRF_PMIC_INT*%
X149870000Y-101360000D03*
X149870000Y-103090000D03*
%TO.N,P0.27*%
X133190000Y-103970000D03*
%TO.N,P0.06*%
X133260000Y-105780000D03*
%TO.N,P0.11*%
X133100000Y-103090000D03*
%TO.N,P0.05*%
X133240000Y-104820000D03*
%TO.N,/MCU/+5V_VBUS*%
X139190000Y-118860000D03*
X139190000Y-122270000D03*
%TO.N,/MCU/NRF_PMIC_RST*%
X150860000Y-103090000D03*
X150870000Y-101370000D03*
%TO.N,P0.04*%
X130640000Y-107060000D03*
X134190000Y-122530000D03*
%TD*%
D23*
%TO.N,GND*%
X142625000Y-93420000D02*
X141620000Y-93420000D01*
X143895000Y-93420000D02*
X142625000Y-93420000D01*
X142625000Y-92150000D02*
X142625000Y-95960000D01*
X141620000Y-93420000D02*
X141610000Y-93410000D01*
D24*
%TO.N,/POWER/+5V_VBUSIN*%
X130320000Y-118590000D02*
X130320000Y-116760000D01*
X129730000Y-119180000D02*
X130320000Y-118590000D01*
X130320000Y-116760000D02*
X131110000Y-116760000D01*
X131110000Y-116760000D02*
X132210000Y-117860000D01*
X128670000Y-119180000D02*
X129730000Y-119180000D01*
X132210000Y-117860000D02*
X139250000Y-117860000D01*
X129700000Y-114380000D02*
X128670000Y-114380000D01*
X130320000Y-116760000D02*
X130320000Y-115000000D01*
X130320000Y-115000000D02*
X129700000Y-114380000D01*
D23*
%TO.N,/MCU/+1.8V_VDD_nRF*%
X143895000Y-92150000D02*
X144350000Y-92150000D01*
X144350000Y-92150000D02*
X144920000Y-92720000D01*
D24*
%TO.N,/POWER/VSYS*%
X147080000Y-118060000D02*
X147080000Y-117410000D01*
X140900000Y-118780000D02*
X141450000Y-119330000D01*
X147080000Y-117410000D02*
X147080000Y-115960000D01*
X140630000Y-116560000D02*
X140900000Y-116830000D01*
X147080000Y-117410000D02*
X147080000Y-116660000D01*
X140900000Y-116830000D02*
X140900000Y-118780000D01*
X139660000Y-116560000D02*
X140630000Y-116560000D01*
X145780000Y-119330000D02*
X145780000Y-120160000D01*
X145810000Y-119330000D02*
X147080000Y-118060000D01*
X141450000Y-119330000D02*
X145810000Y-119330000D01*
D25*
%TO.N,/POWER/CC2*%
X132370000Y-121520000D02*
X138380000Y-121520000D01*
%TO.N,/POWER/CC1*%
X127600000Y-115700000D02*
X128050000Y-115250000D01*
X136960000Y-120830000D02*
X133090000Y-120830000D01*
X132560000Y-120300000D02*
X128190000Y-120300000D01*
X128050000Y-115250000D02*
X128850000Y-115250000D01*
X128190000Y-120300000D02*
X127600000Y-119710000D01*
X127600000Y-119710000D02*
X127600000Y-115700000D01*
X133090000Y-120830000D02*
X132560000Y-120300000D01*
%TO.N,NRF_SWCLK*%
X146620000Y-99390000D02*
X148630000Y-97380000D01*
X142625000Y-97230000D02*
X143094300Y-97699300D01*
X143094300Y-98520392D02*
X143963908Y-99390000D01*
X148630000Y-96530000D02*
X148890000Y-96270000D01*
X148630000Y-97380000D02*
X148630000Y-96530000D01*
X143094300Y-97699300D02*
X143094300Y-98520392D01*
X143963908Y-99390000D02*
X146620000Y-99390000D01*
%TO.N,NRF_SWDIO*%
X145161511Y-98136450D02*
X144255061Y-97230000D01*
X144255061Y-97230000D02*
X143895000Y-97230000D01*
X146820000Y-98136450D02*
X145161511Y-98136450D01*
D23*
%TO.N,NRF_UART_TX*%
X143890000Y-95960000D02*
X143270000Y-95340000D01*
D26*
X138670000Y-94920000D02*
X138670000Y-100130000D01*
X138320000Y-100480000D02*
X131270000Y-100480000D01*
X138670000Y-100130000D02*
X138320000Y-100480000D01*
D23*
X143895000Y-95960000D02*
X143890000Y-95960000D01*
D26*
%TO.N,NRF_UART_RX*%
X138280000Y-94080000D02*
X137800000Y-94560000D01*
X137800000Y-94560000D02*
X137800000Y-99440000D01*
D23*
X143895000Y-94690000D02*
X143890000Y-94690000D01*
X143890000Y-94690000D02*
X143280000Y-94080000D01*
D26*
X137570000Y-99670000D02*
X131250000Y-99670000D01*
X137800000Y-99440000D02*
X137570000Y-99670000D01*
D25*
%TO.N,/MCU/LS1_CTRL*%
X149020000Y-101580000D02*
X149020000Y-101360000D01*
X149020000Y-103090000D02*
X149020000Y-101580000D01*
%TO.N,/MCU/NRF_PMIC_SDA*%
X149250000Y-99780000D02*
X149510000Y-99520000D01*
X148920000Y-100780000D02*
X149250000Y-100450000D01*
X149250000Y-100450000D02*
X149250000Y-99780000D01*
X143740000Y-103040000D02*
X143740000Y-101010000D01*
X143970000Y-100780000D02*
X148920000Y-100780000D01*
X143740000Y-101010000D02*
X143970000Y-100780000D01*
X149510000Y-99520000D02*
X154930000Y-99520000D01*
%TO.N,/MCU/NRF_PMIC_SCL*%
X148750000Y-98670000D02*
X148380000Y-99040000D01*
X147960000Y-100280000D02*
X142730000Y-100280000D01*
X154930000Y-98670000D02*
X148750000Y-98670000D01*
X142730000Y-100280000D02*
X142160000Y-100850000D01*
X142160000Y-100850000D02*
X142160000Y-103090000D01*
X148380000Y-99040000D02*
X148380000Y-99860000D01*
X148380000Y-99860000D02*
X147960000Y-100280000D01*
%TO.N,/MCU/NRF_PMIC_INT*%
X149870000Y-103090000D02*
X149870000Y-101520000D01*
X149870000Y-101520000D02*
X149870000Y-101360000D01*
D26*
%TO.N,P0.27*%
X128130000Y-106930000D02*
X126240000Y-106930000D01*
X131060000Y-103970000D02*
X128100000Y-106930000D01*
X133190000Y-103970000D02*
X131060000Y-103970000D01*
%TO.N,P0.06*%
X133260000Y-105780000D02*
X130950000Y-105780000D01*
X130980000Y-105780000D02*
X127290000Y-109470000D01*
X127290000Y-109470000D02*
X126240000Y-109470000D01*
%TO.N,P0.11*%
X130880000Y-103090000D02*
X128310000Y-105660000D01*
X128340000Y-105660000D02*
X124970000Y-105660000D01*
X124970000Y-105660000D02*
X123700000Y-106930000D01*
X133100000Y-103090000D02*
X130880000Y-103090000D01*
%TO.N,P0.05*%
X131020000Y-104820000D02*
X127640000Y-108200000D01*
X127670000Y-108200000D02*
X124970000Y-108200000D01*
X124970000Y-108200000D02*
X123700000Y-109470000D01*
X133240000Y-104820000D02*
X131020000Y-104820000D01*
D25*
%TO.N,/MCU/NRF_PMIC_RST*%
X150860000Y-103090000D02*
X150860000Y-101380000D01*
X150860000Y-101380000D02*
X150870000Y-101370000D01*
%TO.N,P0.04*%
X125110000Y-111340000D02*
X124470000Y-111980000D01*
X130640000Y-107060000D02*
X130640000Y-108350000D01*
X125580000Y-122220000D02*
X133510000Y-122220000D01*
X124470000Y-111980000D02*
X124470000Y-121110000D01*
X133820000Y-122530000D02*
X134190000Y-122530000D01*
X133510000Y-122220000D02*
X133820000Y-122530000D01*
X124470000Y-121110000D02*
X125580000Y-122220000D01*
X127680000Y-111340000D02*
X125110000Y-111340000D01*
X130670000Y-108350000D02*
X127680000Y-111340000D01*
%TD*%
M02*
